<svg width="48" height="48" viewBox="0 0 48 48" fill="none" xmlns="http://www.w3.org/2000/svg">
<rect x="0.5" y="0.5" width="47" height="47" rx="15.5" fill="#111111" fill-opacity="0.5"/>
<rect x="0.5" y="0.5" width="47" height="47" rx="15.5" stroke="#0078F0"/>
<path d="M24 14.5C25.2476 14.5 26.4831 14.7452 27.6357 15.2227C28.7883 15.7001 29.8356 16.4001 30.7178 17.2822C31.5999 18.1644 32.2999 19.2117 32.7773 20.3643C33.2548 21.5169 33.5 22.7524 33.5 24C33.5 25.8789 32.9433 27.7161 31.8994 29.2783C30.8556 30.8404 29.3714 32.0573 27.6357 32.7764C25.8998 33.4954 23.9893 33.6839 22.1465 33.3174C20.3037 32.9508 18.6108 32.0463 17.2822 30.7178C15.9537 29.3892 15.0492 27.6963 14.6826 25.8535C14.3161 24.0107 14.5046 22.1002 15.2236 20.3643C15.9427 18.6286 17.1596 17.1444 18.7217 16.1006C20.2839 15.0567 22.1211 14.5 24 14.5ZM24.5 17C24.5 17.1326 24.4473 17.2597 24.3535 17.3535C24.2597 17.4473 24.1326 17.5 24 17.5C23.8674 17.5 23.7403 17.4473 23.6465 17.3535C23.5527 17.2597 23.5 17.1326 23.5 17V15.5029L22.9375 15.5742C21.0675 15.8114 19.329 16.6632 17.9961 17.9961C16.6632 19.329 15.8114 21.0675 15.5742 22.9375L15.5029 23.5H17C17.1326 23.5 17.2597 23.5527 17.3535 23.6465C17.4473 23.7403 17.5 23.8674 17.5 24C17.5 24.1326 17.4473 24.2597 17.3535 24.3535C17.2597 24.4473 17.1326 24.5 17 24.5H15.5029L15.5742 25.0625C15.8114 26.9325 16.6632 28.671 17.9961 30.0039C19.329 31.3368 21.0675 32.1886 22.9375 32.4258L23.5 32.4971V31C23.5 30.8674 23.5527 30.7403 23.6465 30.6465C23.7403 30.5527 23.8674 30.5 24 30.5C24.1326 30.5 24.2597 30.5527 24.3535 30.6465C24.4473 30.7403 24.5 30.8674 24.5 31V32.4971L25.0625 32.4258C26.9325 32.1886 28.671 31.3368 30.0039 30.0039C31.3368 28.671 32.1886 26.9325 32.4258 25.0625L32.4971 24.5H31C30.8674 24.5 30.7403 24.4473 30.6465 24.3535C30.5527 24.2597 30.5 24.1326 30.5 24C30.5 23.8674 30.5527 23.7403 30.6465 23.6465C30.7403 23.5527 30.8674 23.5 31 23.5H32.4971L32.4258 22.9375C32.1886 21.0675 31.3368 19.329 30.0039 17.9961C28.671 16.6632 26.9325 15.8114 25.0625 15.5742L24.5 15.5029V17ZM27.625 19.9805C27.7224 19.9996 27.8116 20.0479 27.8818 20.1182C27.9521 20.1884 28.0004 20.2776 28.0195 20.375C28.0386 20.4724 28.0277 20.5736 27.9893 20.665L25.8711 25.6611C25.8332 25.7485 25.7719 25.8231 25.6943 25.876L25.6113 25.9209L20.6152 28.04L20.6055 28.0439L20.5957 28.0488C20.5387 28.0759 20.4762 28.0885 20.4131 28.0889C20.2828 28.086 20.1587 28.0335 20.0674 27.9404L20.0645 27.9375L20.0156 27.8809C19.9718 27.8212 19.9418 27.752 19.9277 27.6787C19.9137 27.6053 19.9168 27.5297 19.9355 27.458L19.96 27.3848L22.0781 22.3877L22.0791 22.3887C22.1296 22.2724 22.2216 22.1784 22.3379 22.1279L27.335 20.0107L27.334 20.0098C27.4256 19.9712 27.5274 19.9614 27.625 19.9805ZM25.4492 21.9121L23.1689 22.9121L22.9902 22.9902L22.9121 23.1689L21.9121 25.4492L21.3975 26.6221L22.5713 26.1074L24.8506 25.1074L25.0293 25.0293L25.1074 24.8506L26.1074 22.5713L26.6221 21.3975L25.4492 21.9121Z" stroke="url(#paint0_linear_36_286)"/>
<defs>
<linearGradient id="paint0_linear_36_286" x1="24" y1="14" x2="24" y2="34" gradientUnits="userSpaceOnUse">
<stop stop-color="#3D9EFF"/>
<stop offset="1" stop-color="#053BE5"/>
</linearGradient>
</defs>
</svg>
