<svg width="40" height="40" viewBox="0 0 40 40" fill="none" xmlns="http://www.w3.org/2000/svg">
<mask id="mask0_31_110" style="mask-type:alpha" maskUnits="userSpaceOnUse" x="8" y="8" width="24" height="24">
<rect x="8" y="8" width="24" height="24" fill="#D9D9D9"/>
</mask>
<g mask="url(#mask0_31_110)">
<path d="M20 21.4142L16.4645 24.9497C16.2641 25.1501 16.0284 25.2503 15.7574 25.2503C15.4863 25.2503 15.2506 25.1501 15.0503 24.9497C14.8499 24.7494 14.7498 24.5137 14.7498 24.2426C14.7498 23.9716 14.8499 23.7359 15.0503 23.5355L18.5858 20L15.0503 16.4645C14.8499 16.2641 14.7498 16.0284 14.7498 15.7574C14.7498 15.4863 14.8499 15.2506 15.0503 15.0503C15.2506 14.8499 15.4863 14.7497 15.7574 14.7497C16.0284 14.7497 16.2641 14.8499 16.4645 15.0503L20 18.5858L23.5356 15.0503C23.7359 14.8499 23.9716 14.7497 24.2427 14.7497C24.5137 14.7497 24.7494 14.8499 24.9498 15.0503C25.1501 15.2506 25.2503 15.4863 25.2503 15.7574C25.2503 16.0284 25.1501 16.2641 24.9498 16.4645L21.4142 20L24.9498 23.5355C25.1501 23.7359 25.2503 23.9716 25.2503 24.2426C25.2503 24.5137 25.1501 24.7494 24.9498 24.9497C24.7494 25.1501 24.5137 25.2503 24.2427 25.2503C23.9716 25.2503 23.7359 25.1501 23.5356 24.9497L20 21.4142Z" fill="white"/>
</g>
</svg>
