<svg width="40" height="40" viewBox="0 0 40 40" fill="none" xmlns="http://www.w3.org/2000/svg">
<mask id="mask0_91_77" style="mask-type:alpha" maskUnits="userSpaceOnUse" x="8" y="8" width="24" height="24">
<rect x="8" y="8" width="24" height="24" fill="#D9D9D9"/>
</mask>
<g mask="url(#mask0_91_77)">
<path d="M19 21H14C13.7167 21 13.4792 20.9042 13.2875 20.7125C13.0958 20.5208 13 20.2833 13 20C13 19.7167 13.0958 19.4792 13.2875 19.2875C13.4792 19.0958 13.7167 19 14 19H19V14C19 13.7167 19.0958 13.4792 19.2875 13.2875C19.4792 13.0958 19.7167 13 20 13C20.2833 13 20.5208 13.0958 20.7125 13.2875C20.9042 13.4792 21 13.7167 21 14V19H26C26.2833 19 26.5208 19.0958 26.7125 19.2875C26.9042 19.4792 27 19.7167 27 20C27 20.2833 26.9042 20.5208 26.7125 20.7125C26.5208 20.9042 26.2833 21 26 21H21V26C21 26.2833 20.9042 26.5208 20.7125 26.7125C20.5208 26.9042 20.2833 27 20 27C19.7167 27 19.4792 26.9042 19.2875 26.7125C19.0958 26.5208 19 26.2833 19 26V21Z" fill="white"/>
</g>
</svg>
