<svg width="48" height="48" viewBox="0 0 48 48" fill="none" xmlns="http://www.w3.org/2000/svg">
<rect x="0.5" y="0.5" width="47" height="47" rx="15.5" fill="#111111" fill-opacity="0.5"/>
<rect x="0.5" y="0.5" width="47" height="47" rx="15.5" stroke="#0078F0"/>
<path d="M23.9998 16.075C24.0866 16.075 24.1811 16.0975 24.2889 16.1589C24.3608 16.2 24.4196 16.2612 24.4637 16.3669L24.4647 16.3689L26.3397 20.8191L26.4559 21.0964L26.7567 21.1228L31.5828 21.5447C31.749 21.5689 31.8312 21.6163 31.8709 21.6511C31.9345 21.7068 31.9893 21.784 32.0301 21.8962C32.0642 21.9903 32.0712 22.082 32.0496 22.1824C32.0337 22.2564 31.9921 22.3374 31.8924 22.4265L28.2234 25.5964L27.9949 25.7937L28.0633 26.0886L29.1629 30.8132C29.1911 30.9362 29.1761 31.0142 29.1483 31.073C29.0978 31.1792 29.0305 31.263 28.9442 31.3298C28.8746 31.3835 28.7916 31.417 28.6815 31.4265C28.601 31.4334 28.5182 31.4172 28.4197 31.3542V31.3533L28.408 31.3464L24.2576 28.8464L23.9998 28.6912L23.742 28.8464L19.5916 31.3464L19.5818 31.3533C19.4826 31.4164 19.3981 31.4333 19.3162 31.4265C19.2074 31.4174 19.1264 31.3835 19.0574 31.3298C18.9701 31.2619 18.9018 31.1787 18.8514 31.073C18.8239 31.0154 18.808 30.9361 18.8367 30.8113L19.9373 26.0886L20.0057 25.7937L19.7772 25.5964L16.1024 22.4216C16.0076 22.3342 15.9677 22.2546 15.952 22.1814C15.9302 22.0802 15.9369 21.9886 15.9705 21.8953C16.0104 21.7848 16.065 21.7078 16.1297 21.6511C16.1701 21.6158 16.2514 21.5693 16.4139 21.5457L21.244 21.1228L21.5438 21.0964L21.6609 20.8191L23.5359 16.3689L23.5369 16.3669C23.581 16.2613 23.6389 16.1999 23.7108 16.1589C23.8186 16.0975 23.913 16.075 23.9998 16.075ZM16.2996 27.2C16.4249 27.2 16.5338 27.2409 16.6463 27.3533C16.7553 27.4623 16.7996 27.5741 16.7996 27.7126C16.7996 27.8513 16.7558 27.9628 16.6473 28.071H16.6463L15.0711 29.6462C14.9618 29.7555 14.8504 29.7996 14.7127 29.7996C14.5752 29.7995 14.4634 29.7558 14.3533 29.6462C14.2438 29.537 14.1997 29.4255 14.2 29.2888C14.2003 29.1849 14.2251 29.0952 14.284 29.0105L14.3543 28.9275L15.951 27.3562L15.9539 27.3533C16.0662 27.2411 16.1745 27.2 16.2996 27.2ZM31.7127 27.2C31.8514 27.2 31.9629 27.2447 32.0711 27.3533V27.3523L33.6434 28.9509L33.6463 28.9539C33.7587 29.0663 33.7995 29.1744 33.7996 29.2996C33.7996 29.425 33.7588 29.5337 33.6463 29.6462C33.5338 29.7588 33.425 29.7996 33.2996 29.7996C33.1744 29.7995 33.0663 29.7586 32.9539 29.6462L32.951 29.6433L31.3524 28.071H31.3533C31.2442 27.9618 31.2 27.8502 31.2 27.7126C31.2001 27.5751 31.2436 27.4624 31.3533 27.3523C31.4622 27.2436 31.5743 27.2 31.7127 27.2ZM23.5408 18.9275L22.2078 22.0281L18.8553 22.3269L17.6893 22.4304L18.5711 23.2019L21.1199 25.4294L20.3631 28.7126L20.0975 29.863L21.1082 29.2527L23.9979 27.5095L26.8895 29.2761L27.9031 29.8962L27.6375 28.738L26.8787 25.4304L29.4276 23.2283L30.3192 22.4568L29.1443 22.3523L25.7918 22.0535L24.4598 18.9285L24.0018 17.8542L23.5408 18.9275ZM16.7127 15.2C16.8514 15.2 16.9629 15.2447 17.0711 15.3533V15.3523L18.6434 16.9509L18.6463 16.9539C18.7587 17.0663 18.7995 17.1744 18.7996 17.2996C18.7996 17.4249 18.7588 17.5337 18.6463 17.6462C18.5369 17.7556 18.4256 17.7996 18.2879 17.7996C18.1502 17.7995 18.0378 17.7561 17.9276 17.6462H17.9285L16.3533 16.071C16.2442 15.9618 16.2 15.8502 16.2 15.7126C16.2001 15.5751 16.2436 15.4624 16.3533 15.3523C16.4622 15.2436 16.5743 15.2 16.7127 15.2ZM31.2996 15.2C31.4249 15.2 31.5338 15.2409 31.6463 15.3533C31.7553 15.4623 31.7996 15.5741 31.7996 15.7126C31.7996 15.8513 31.7558 15.9628 31.6473 16.071H31.6463L30.0711 17.6462C29.9618 17.7555 29.8504 17.7996 29.7127 17.7996C29.5752 17.7995 29.4634 17.7558 29.3533 17.6462C29.2438 17.537 29.1997 17.4255 29.2 17.2888C29.2003 17.1849 29.2251 17.0952 29.284 17.0105L29.3543 16.9275L30.951 15.3562L30.9539 15.3533C31.0662 15.2411 31.1745 15.2 31.2996 15.2Z" stroke="url(#paint0_linear_36_277)"/>
<defs>
<linearGradient id="paint0_linear_36_277" x1="24" y1="14.7" x2="24" y2="31.9283" gradientUnits="userSpaceOnUse">
<stop stop-color="#3D9EFF"/>
<stop offset="1" stop-color="#053BE5"/>
</linearGradient>
</defs>
</svg>
