<svg class="header_logo__S_2SN" fill="none" viewBox="0 0 110 31" xmlns="http://www.w3.org/2000/svg">
  <g clip-path="url(#clip0_861_51)">
    <path d="M33.9653 14.6755L33.9696 25.3273L35.7557 25.3317L37.5403 25.3345V20.6871V16.0396H42.5494H47.5586L47.5614 20.6827L47.5657 25.3273L49.3518 25.3317L51.1365 25.3345V14.6799V4.02518H49.3475H47.5586V8.38489V12.7446H42.5494H37.5403V8.38489V4.02518H35.7514H33.9624L33.9653 14.6755Z" fill="#F5F7FA"></path>
    <path d="M72.3644 12.805C72.3673 21.1058 72.3687 21.5978 72.393 21.795C72.4903 22.5906 72.6492 23.1676 72.9125 23.6799C73.2689 24.3676 73.7426 24.8381 74.4138 25.1705C75.0121 25.4655 75.6504 25.5964 76.4962 25.5964C77.1087 25.5964 77.6326 25.5259 78.0748 25.3835L78.2279 25.3331V23.7489C78.2279 22.3014 78.2265 22.1662 78.205 22.1748C78.1492 22.1964 77.893 22.2568 77.7628 22.2784C77.5681 22.3115 77.2161 22.3115 77.0529 22.2799C76.3273 22.1374 75.9194 21.6151 75.8379 20.723C75.8278 20.618 75.8235 17.7748 75.8235 12.2942V4.02518H74.0918H72.3601L72.3644 12.805Z" fill="#F5F7FA"></path>
    <path d="M96.1784 14.6755L96.1827 25.3273H97.9073H99.6318L99.639 21.4986L99.6461 17.6698L102.659 21.4108C104.316 23.4669 105.706 25.1921 105.747 25.2424L105.822 25.3345H107.904C109.288 25.3345 109.986 25.3302 109.986 25.3201C109.986 25.3115 108.411 23.3403 106.486 20.9374C104.561 18.5345 102.988 16.5647 102.991 16.5576C102.995 16.5489 108.604 10.746 109.212 10.1216L109.447 9.8813L107.416 9.88274H105.385L102.516 12.854L99.6461 15.8237L99.6418 9.92446L99.639 4.02518H97.9073H96.1755L96.1784 14.6755Z" fill="#F5F7FA"></path>
    <path d="M60.454 9.61799C59.6425 9.67267 58.9641 9.82375 58.25 10.1072C57.095 10.5648 56.0703 11.3417 55.2831 12.3604C55.0041 12.7202 54.7565 13.123 54.5232 13.5935C53.9879 14.677 53.7074 15.8525 53.6573 17.2166C53.613 18.4122 53.7647 19.5475 54.1067 20.5791C54.4201 21.5273 54.8681 22.3417 55.4892 23.0899C55.6738 23.3144 56.1146 23.7576 56.3322 23.9403C57.7018 25.0899 59.4035 25.6727 61.1509 25.5921C62.3445 25.5374 63.365 25.2122 64.2752 24.595C64.7761 24.2554 65.2885 23.7633 65.5819 23.3403L65.6563 23.2324L65.6606 24.2827L65.6634 25.3345H67.3952H69.1269V17.6079V9.8813H67.3952H65.6634V10.9259V11.9705L65.5833 11.8583C65.3758 11.5676 64.9936 11.1633 64.696 10.9216C63.7428 10.1475 62.6122 9.71296 61.3127 9.62231C61.1238 9.60936 60.6143 9.60648 60.454 9.61799ZM62.0368 12.923C62.8039 13.0396 63.4823 13.3317 64.0605 13.795C64.2494 13.9461 64.5342 14.2324 64.6874 14.4252C65.3858 15.3043 65.7364 16.4568 65.7021 17.759C65.6777 18.6367 65.5017 19.3648 65.1425 20.0626C64.9507 20.4353 64.726 20.7489 64.4326 21.0525C64.2165 21.2755 64.029 21.4338 63.7714 21.6065C62.3803 22.5446 60.5499 22.5389 59.1487 21.5907C58.9512 21.4583 58.7437 21.2842 58.5577 21.0971C57.8134 20.3489 57.3655 19.3187 57.2624 18.1187C57.241 17.864 57.2453 17.2741 57.2696 17.0151C57.427 15.3619 58.2342 14.064 59.5423 13.3633C59.9974 13.1202 60.5527 12.9576 61.1338 12.8971C61.2654 12.8842 61.898 12.9014 62.0368 12.923Z" fill="#F5F7FA"></path>
    <path d="M78.5806 9.87842C78.5777 9.88417 79.8915 13.2223 81.5002 17.2957L84.4269 24.7L84.3382 24.9417C84.2895 25.0741 84.2208 25.2511 84.1865 25.3331C83.7714 26.3115 83.1703 26.9086 82.4004 27.1086C82.1428 27.1748 82.0626 27.1835 81.6919 27.1835C81.3313 27.182 81.1796 27.1691 80.9263 27.1158C80.8475 27.1 80.7703 27.0856 80.7545 27.0842C80.7259 27.0827 80.7259 27.0914 80.7259 28.6583V30.2338L80.8189 30.2669C81.0522 30.3532 81.4544 30.4353 81.8351 30.4784C82.1013 30.5072 82.8755 30.5072 83.1303 30.4784C84.613 30.3072 85.7121 29.5705 86.6624 28.1115C86.8456 27.8295 87.0288 27.5058 87.2163 27.1331C87.514 26.5374 87.6771 26.1518 88.1251 24.9892C91.912 15.1475 93.927 9.89137 93.9213 9.87985C93.9156 9.87266 93.22 9.86691 92.0808 9.86691H90.2489L90.2289 9.91295C90.2117 9.95755 86.412 20.4813 86.359 20.6324L86.3361 20.7L84.3267 15.3158C83.2219 12.3547 82.3088 9.91726 82.2973 9.89856L82.2787 9.86691H80.4325C79.4178 9.86691 78.5849 9.87266 78.5806 9.87842Z" fill="#F5F7FA"></path>

    <path d="M23.2858 5.10447H6.27031C5.2332 5.10447 4.39246 5.95145 4.39246 6.99626V24.138C4.39246 25.1828 5.2332 26.0298 6.27031 26.0298H23.2858C24.3229 26.0298 25.1637 25.1828 25.1637 24.138V6.99626C25.1637 5.95145 24.3229 5.10447 23.2858 5.10447Z" fill="#068C6E"></path>
    <path d="M28.0367 14.2675L16.005 2.14651C15.2716 1.40772 14.0826 1.40772 13.3493 2.14651L1.3175 14.2675C0.584152 15.0063 0.584152 16.2042 1.3175 16.9429L13.3493 29.064C14.0826 29.8028 15.2716 29.8028 16.005 29.064L28.0367 16.9429C28.7701 16.2042 28.7701 15.0063 28.0367 14.2675Z" fill="#068C6E"></path>
    <path d="M5.49194 7.73781C5.49194 6.97246 6.10781 6.35203 6.86752 6.35203H22.5491C23.3088 6.35203 23.9247 6.97246 23.9247 7.73781V23.5357C23.9247 24.3011 23.3088 24.9215 22.5491 24.9215H6.86752C6.10781 24.9215 5.49194 24.3011 5.49194 23.5357V7.73781Z" fill="#F9B000"></path>
    <path d="M2.61176 16.5817C2.07456 16.0405 2.07456 15.1631 2.61176 14.6219L13.7003 3.45106C14.2376 2.90988 15.1085 2.90988 15.6457 3.45106L26.7343 14.6219C27.2714 15.1631 27.2714 16.0405 26.7343 16.5817L15.6457 27.7525C15.1085 28.2937 14.2376 28.2937 13.7003 27.7525L2.61176 16.5817Z" fill="#F9B000"></path>
    <path d="M13.5917 5.15912L4.3076 14.5121C3.66991 15.1545 3.66991 16.1961 4.3076 16.8385L13.5917 26.1914C14.2294 26.8338 15.2633 26.8338 15.901 26.1914L25.185 16.8385C25.8227 16.1961 25.8227 15.1545 25.185 14.5121L15.901 5.15912C15.2633 4.51669 14.2294 4.51669 13.5917 5.15912Z" fill="#068C6E"></path>
    <path clip-rule="evenodd" d="M19.8915 6.84705L19.4303 6.35203L18.9733 8.22283L19.3172 9.19287C19.3172 9.32916 19.4303 9.81872 19.4303 9.95509C19.4303 10.0914 19.4303 10.488 19.4303 10.6135V10.6565C19.3277 11.9044 18.7943 13.0661 17.9349 13.9135C17.0753 14.7611 15.9517 15.2332 14.7845 15.2373C13.1998 15.2372 11.6347 15.6131 10.2012 16.3381C8.76765 17.063 7.50117 18.1191 6.49233 19.4306L6.45557 19.3912V21.1847L6.49233 21.2241V24.6463H9.67416L10.1922 25.1987L10.9262 23.5357L10.5823 22.8429L10.2384 22.15C10.1946 21.8679 10.1283 21.546 10.132 21.2601C10.132 19.9281 10.625 18.6508 11.5025 17.709C12.3801 16.7672 13.5702 16.2381 14.8112 16.2381C16.3954 16.2381 17.9601 15.8622 19.3931 15.1373C20.826 14.4123 22.0919 13.3563 23.1001 12.0448V7.52995L19.8915 6.84705Z" fill="#F9B000" fill-rule="evenodd"></path>
    <path d="M10.718 24.92H9.34241V25.7515H10.718V24.92Z" fill="#068C6E"></path>
  </g>
  <defs>
    <clipPath id="clip0_861_51">
      <rect fill="#F5F7FA" height="30" transform="translate(0 0.5)" width="110"></rect>
    </clipPath>
  </defs>
</svg>