<svg width="971" height="460" viewBox="0 0 971 460" fill="none" xmlns="http://www.w3.org/2000/svg">
<rect width="121.675" height="80.5449" transform="matrix(0.947935 0.318463 -0.947935 0.318463 855.262 0)" fill="url(#paint0_linear_69_370)"/>
<rect width="121.675" height="45.0711" transform="matrix(0.947935 0.318463 0 1 779.184 25.603)" fill="url(#paint1_linear_69_370)"/>
<rect width="80.7844" height="44.8976" transform="matrix(0.947935 -0.318463 0 1 894.422 64.1315)" fill="url(#paint2_linear_69_370)"/>
<path d="M892.312 44.9736L906.638 40.16L909.905 41.2579L907.496 42.0673L907.65 42.119C908.744 41.9238 909.833 41.8592 910.918 41.9252C912.011 41.9884 912.968 42.1577 913.788 42.4333C913.967 42.4936 914.164 42.5653 914.377 42.6486C914.6 42.7347 914.775 42.8079 914.903 42.8681L911.802 43.9101C911.708 43.8441 911.524 43.7537 911.251 43.6388C910.977 43.524 910.7 43.4193 910.418 43.3245C909.794 43.115 909.107 42.9729 908.355 42.8983C907.603 42.8237 906.856 42.8165 906.112 42.8768C905.378 42.9399 904.703 43.0748 904.088 43.2815L895.682 46.1059L892.312 44.9736Z" fill="white"/>
<path d="M884.334 42.4824C882.898 42.0002 881.959 41.4835 881.515 40.9324C881.079 40.3784 881.13 39.8216 881.668 39.2618C882.215 38.705 883.236 38.1754 884.731 37.6731C886.209 37.1765 887.781 36.8349 889.447 36.6484C891.121 36.4589 892.774 36.4288 894.406 36.558C896.037 36.6871 897.536 36.9813 898.903 37.4406C899.783 37.7362 900.475 38.0635 900.979 38.4223C901.492 38.7839 901.757 39.1657 901.774 39.5675C901.799 39.9723 901.53 40.387 900.966 40.8118C900.411 41.2338 899.506 41.6557 898.25 42.0777L897.199 42.4307L885.461 38.4868L887.729 37.7248L897.789 41.1046L895.546 40.7989C896.358 40.5262 896.938 40.2478 897.289 39.9637C897.648 39.6766 897.754 39.3939 897.609 39.1155C897.464 38.837 897.028 38.5758 896.302 38.3318C895.576 38.0879 894.786 37.9372 893.931 37.8798C893.077 37.8224 892.227 37.8468 891.381 37.953C890.544 38.0563 889.771 38.2271 889.062 38.4653L887.486 38.9949C886.615 39.2877 886.017 39.5891 885.692 39.8991C885.384 40.2091 885.342 40.5105 885.564 40.8032C885.794 41.0989 886.277 41.3701 887.012 41.617C887.49 41.7777 887.994 41.9012 888.524 41.9873C889.062 42.0762 889.609 42.1222 890.164 42.125C890.736 42.1279 891.305 42.0863 891.868 42.0002L894.649 43.1842C893.615 43.3937 892.509 43.51 891.33 43.533C890.168 43.5559 888.985 43.4799 887.781 43.3048C886.593 43.1297 885.444 42.8556 884.334 42.4824Z" fill="white"/>
<path d="M870.294 37.7652C868.859 37.283 867.92 36.7663 867.475 36.2152C867.04 35.6612 867.091 35.1044 867.629 34.5447C868.176 33.9878 869.197 33.4582 870.692 32.9559C872.17 32.4593 873.741 32.1178 875.407 31.9312C877.082 31.7417 878.735 31.7116 880.366 31.8408C881.998 31.9699 883.497 32.2641 884.864 32.7234C885.744 33.019 886.436 33.3463 886.94 33.7051C887.453 34.0667 887.717 34.4485 887.735 34.8503C887.76 35.2551 887.491 35.6698 886.927 36.0947C886.372 36.5166 885.466 36.9385 884.211 37.3605L883.16 37.7135L871.422 33.7697L873.69 33.0076L883.749 36.3874L881.507 36.0817C882.318 35.8091 882.899 35.5306 883.25 35.2465C883.608 34.9594 883.715 34.6767 883.57 34.3983C883.425 34.1198 882.989 33.8586 882.263 33.6147C881.537 33.3707 880.747 33.22 879.892 33.1626C879.038 33.1052 878.188 33.1296 877.342 33.2358C876.505 33.3391 875.732 33.5099 875.023 33.7481L873.447 34.2777C872.575 34.5705 871.977 34.8719 871.653 35.1819C871.345 35.4919 871.303 35.7933 871.525 36.086C871.755 36.3817 872.238 36.6529 872.973 36.8998C873.451 37.0605 873.955 37.184 874.485 37.2701C875.023 37.3591 875.57 37.405 876.125 37.4078C876.697 37.4107 877.265 37.3691 877.829 37.283L880.61 38.467C879.576 38.6766 878.47 38.7928 877.291 38.8158C876.129 38.8387 874.946 38.7627 873.741 38.5876C872.554 38.4125 871.405 38.1384 870.294 37.7652Z" fill="white"/>
<path d="M855.884 32.7338L870.21 27.9201L873.478 29.0181L871.069 29.8275L871.222 29.8792C872.316 29.684 873.405 29.6194 874.49 29.6854C875.583 29.7486 876.54 29.9179 877.36 30.1935C877.54 30.2538 877.736 30.3255 877.95 30.4088C878.172 30.4949 878.347 30.5681 878.475 30.6283L875.374 31.6703C875.28 31.6043 875.096 31.5138 874.823 31.399C874.55 31.2842 874.272 31.1794 873.99 31.0847C873.367 30.8752 872.679 30.7331 871.927 30.6585C871.175 30.5838 870.428 30.5767 869.685 30.637C868.95 30.7001 868.275 30.835 867.66 31.0417L859.254 33.8661L855.884 32.7338Z" fill="white"/>
<path d="M846.035 29.6226C845.121 29.3154 844.463 28.9853 844.061 28.6323C843.669 28.2764 843.583 27.9204 843.805 27.5645C844.027 27.2086 844.608 26.8728 845.548 26.557C846.351 26.2872 847.167 26.1135 847.995 26.036C848.824 25.9585 849.653 25.9528 850.481 26.0188C851.319 26.0877 852.143 26.204 852.954 26.3676C853.775 26.5283 854.565 26.7134 855.325 26.923C856.265 27.1756 857.029 27.3779 857.619 27.5301C858.208 27.6822 858.695 27.7712 859.08 27.797C859.473 27.8257 859.831 27.7855 860.156 27.6765L860.22 27.6549C860.912 27.4224 861.245 27.1727 861.22 26.9058C861.194 26.6388 860.788 26.3733 860.002 26.1092C859.174 25.8308 858.336 25.6701 857.491 25.627C856.653 25.5868 855.906 25.6198 855.248 25.726L852.557 24.5205C853.676 24.3109 854.813 24.2047 855.966 24.2019C857.128 24.1961 858.264 24.2822 859.374 24.4602C860.502 24.6382 861.566 24.8951 862.565 25.2309C863.248 25.4605 863.851 25.7174 864.372 26.0016C864.902 26.2829 865.265 26.5828 865.461 26.9015C865.658 27.2201 865.611 27.543 865.32 27.8702C865.03 28.1974 864.41 28.5203 863.462 28.839L853.877 32.0595L850.635 30.9702L852.608 30.3071L852.506 30.2727C851.908 30.3359 851.246 30.3631 850.52 30.3545C849.811 30.3459 849.072 30.2842 848.303 30.1694C847.543 30.0574 846.787 29.8752 846.035 29.6226ZM849.379 29.0758C850.063 29.3054 850.785 29.459 851.545 29.5365C852.314 29.6111 853.057 29.6197 853.775 29.5623C854.501 29.502 855.129 29.3829 855.658 29.2049L857.337 28.6409C857.14 28.6323 856.88 28.5993 856.555 28.5419C856.239 28.4816 855.893 28.4084 855.517 28.3223C855.141 28.2362 854.778 28.1486 854.428 28.0596C854.086 27.9735 853.792 27.8975 853.544 27.8315C852.972 27.6851 852.403 27.5717 851.84 27.4913C851.293 27.4109 850.768 27.3779 850.264 27.3923C849.759 27.4066 849.29 27.487 848.854 27.6334C848.23 27.8429 847.987 28.0769 848.124 28.3352C848.26 28.5935 848.679 28.8404 849.379 29.0758Z" fill="white"/>
<path d="M832.29 24.9786C830.616 24.416 829.505 23.7816 828.959 23.0755C828.421 22.3723 828.502 21.6475 829.202 20.9012C829.911 20.1578 831.291 19.4416 833.341 18.7527C835.4 18.061 837.54 17.5974 839.761 17.362C841.999 17.1267 844.165 17.0994 846.258 17.2802C848.359 17.4639 850.239 17.8342 851.896 18.3911C852.947 18.7441 853.78 19.1245 854.395 19.532C855.018 19.9425 855.399 20.3659 855.535 20.8022C855.68 21.2356 855.561 21.669 855.176 22.1025C854.809 22.5359 854.168 22.955 853.254 23.3597L849.769 22.1886C850.256 21.9618 850.585 21.7279 850.756 21.4868C850.935 21.2485 850.978 21.0103 850.884 20.772C850.807 20.5338 850.593 20.3042 850.243 20.0832C849.901 19.8593 849.44 19.6497 848.859 19.4545C847.817 19.1044 846.634 18.8819 845.31 18.7872C843.994 18.6896 842.606 18.7341 841.145 18.9207C839.693 19.1044 838.249 19.4373 836.814 19.9195C835.361 20.4075 834.362 20.8955 833.815 21.3834C833.286 21.8714 833.162 22.335 833.444 22.7741C833.743 23.2133 834.409 23.6065 835.443 23.9538C836.015 24.1462 836.622 24.3012 837.262 24.4189C837.912 24.5337 838.586 24.6083 839.287 24.6427C840.004 24.6772 840.709 24.6671 841.401 24.6126C842.11 24.5581 842.802 24.4547 843.477 24.3026L846.963 25.4737C845.92 25.7378 844.78 25.9315 843.541 26.055C842.32 26.1784 841.055 26.2243 839.748 26.1927C838.458 26.1612 837.177 26.0463 835.904 25.8483C834.631 25.6502 833.427 25.3603 832.29 24.9786Z" fill="white"/>
<path d="M866.447 85.714V72.282L869.714 73.3799V75.6386L869.868 75.6902C870.124 74.9914 870.573 74.5414 871.213 74.3402C871.854 74.1309 872.585 74.1641 873.405 74.4397C873.584 74.4999 873.789 74.5768 874.02 74.6704C874.259 74.7667 874.455 74.8528 874.609 74.9285V77.836C874.464 77.7391 874.238 77.623 873.93 77.4876C873.622 77.3522 873.328 77.2372 873.046 77.1425C872.422 76.9329 871.867 76.8705 871.38 76.9552C870.893 77.0399 870.509 77.2511 870.227 77.5889C869.953 77.9296 869.817 78.3883 869.817 78.965V86.8464L866.447 85.714Z" fill="white"/>
<path d="M858.75 83.3924C857.315 82.9102 856.077 82.2136 855.034 81.3028C853.992 80.3839 853.189 79.3131 852.625 78.0905C852.07 76.8706 851.792 75.5599 851.792 74.1582C851.792 72.7726 852.07 71.6524 852.625 70.7977C853.181 69.9351 853.962 69.3807 854.97 69.1347C855.978 68.8887 857.166 68.9954 858.533 69.4546C859.412 69.7503 860.245 70.1623 861.031 70.6907C861.826 71.222 862.526 71.8658 863.133 72.6223C863.748 73.3816 864.231 74.2486 864.581 75.2233C864.931 76.19 865.106 77.2621 865.106 78.4395V79.4246L853.368 75.4808V73.3542L863.428 76.7341L861.851 76.8292C861.851 76.0683 861.728 75.3659 861.48 74.722C861.232 74.0701 860.865 73.5021 860.378 73.0181C859.891 72.5342 859.284 72.1702 858.558 71.9262C857.832 71.6822 857.213 71.6343 856.7 71.7825C856.188 71.9306 855.799 72.2325 855.534 72.6882C855.269 73.1359 855.137 73.6921 855.137 74.3569V75.8346C855.137 76.6516 855.286 77.4027 855.585 78.0878C855.893 78.7679 856.32 79.3519 856.867 79.84C857.422 80.3309 858.067 80.6998 858.802 80.9467C859.28 81.1074 859.716 81.1897 860.109 81.1936C860.51 81.2004 860.852 81.1229 861.134 80.9614C861.424 80.7946 861.646 80.5449 861.8 80.2121L864.952 81.6197C864.747 82.3277 864.367 82.8808 863.812 83.2789C863.265 83.6719 862.56 83.8836 861.698 83.9141C860.843 83.9394 859.861 83.7655 858.75 83.3924Z" fill="white"/>
<path d="M844.711 78.6752C843.276 78.193 842.037 77.4965 840.995 76.5856C839.953 75.6668 839.15 74.596 838.586 73.3733C838.031 72.1535 837.753 70.8428 837.753 69.4411C837.753 68.0554 838.031 66.9353 838.586 66.0806C839.141 65.2179 839.923 64.6636 840.931 64.4176C841.939 64.1716 843.126 64.2782 844.493 64.7375C845.373 65.0331 846.206 65.4452 846.992 65.9736C847.787 66.5048 848.487 67.1487 849.094 67.9051C849.709 68.6645 850.191 69.5315 850.542 70.5062C850.892 71.4729 851.067 72.5449 851.067 73.7223V74.7075L839.329 70.7636V68.6371L849.388 72.017L847.812 72.1121C847.812 71.3512 847.688 70.6488 847.441 70.0049C847.193 69.353 846.825 68.785 846.339 68.301C845.852 67.817 845.245 67.453 844.519 67.2091C843.793 66.9651 843.173 66.9172 842.661 67.0653C842.148 67.2135 841.76 67.5154 841.495 67.9711C841.23 68.4187 841.098 68.9749 841.098 69.6397V71.1175C841.098 71.9345 841.247 72.6856 841.546 73.3707C841.854 74.0507 842.281 74.6348 842.827 75.1228C843.383 75.6138 844.028 75.9827 844.762 76.2295C845.241 76.3903 845.676 76.4726 846.069 76.4765C846.471 76.4832 846.813 76.4058 847.095 76.2442C847.385 76.0775 847.607 75.8277 847.761 75.495L850.913 76.9025C850.708 77.6106 850.328 78.1637 849.773 78.5618C849.226 78.9548 848.521 79.1665 847.658 79.197C846.804 79.2223 845.822 79.0484 844.711 78.6752Z" fill="white"/>
<path d="M830.019 73.4742V60.0421L833.286 61.14V63.3987L833.44 63.4504C833.696 62.7516 834.145 62.3016 834.785 62.1003C835.426 61.8911 836.156 61.9243 836.977 62.1998C837.156 62.2601 837.361 62.337 837.592 62.4305C837.831 62.5269 838.027 62.613 838.181 62.6886V65.5961C838.036 65.4993 837.809 65.3832 837.502 65.2478C837.194 65.1124 836.9 64.9974 836.618 64.9026C835.994 64.6931 835.439 64.6307 834.952 64.7154C834.465 64.8 834.081 65.0113 833.799 65.3491C833.525 65.6897 833.389 66.1484 833.389 66.7251V74.6065L830.019 73.4742Z" fill="white"/>
<path d="M820.464 70.5403C819.55 70.2331 818.73 69.8054 818.004 69.257C817.278 68.7007 816.705 68.0518 816.287 67.3105C815.868 66.5691 815.659 65.7579 815.659 64.8768C815.659 64.1239 815.809 63.5494 816.108 63.1533C816.407 62.7572 816.812 62.497 817.325 62.3729C817.846 62.2516 818.431 62.224 819.08 62.29C819.73 62.3479 820.4 62.4611 821.092 62.6295C821.938 62.8256 822.621 62.9791 823.142 63.0901C823.664 63.2012 824.039 63.2233 824.27 63.1567C824.509 63.0929 824.629 62.9088 824.629 62.6044V62.5443C824.629 61.8956 824.424 61.3221 824.014 60.8239C823.604 60.3257 823.006 59.9445 822.22 59.6804C821.391 59.402 820.733 59.3492 820.246 59.522C819.768 59.6977 819.443 59.9851 819.273 60.3842L816.133 58.9088C816.381 58.1751 816.791 57.6321 817.363 57.2797C817.936 56.9194 818.632 56.7408 819.452 56.744C820.281 56.7421 821.195 56.9091 822.194 57.2449C822.878 57.4746 823.561 57.7803 824.244 58.1621C824.928 58.5359 825.556 58.9952 826.128 59.5399C826.701 60.0846 827.158 60.7108 827.499 61.4183C827.841 62.1258 828.012 62.9241 828.012 63.8132V72.7999L824.77 71.7106V69.8604L824.667 69.8259C824.462 70.1255 824.172 70.3763 823.796 70.5784C823.429 70.7754 822.967 70.8807 822.412 70.8943C821.865 70.9109 821.216 70.7928 820.464 70.5403ZM821.323 68.4979C822.006 68.7276 822.596 68.8015 823.091 68.7197C823.587 68.6298 823.971 68.4226 824.244 68.098C824.518 67.7653 824.655 67.3507 824.655 66.8541V65.2802C824.543 65.323 824.364 65.3388 824.116 65.3276C823.869 65.3085 823.587 65.2738 823.271 65.2237C822.955 65.1736 822.643 65.1168 822.335 65.0536C822.036 64.9931 821.776 64.9376 821.554 64.887C821.049 64.7818 820.597 64.7378 820.195 64.755C819.802 64.7672 819.49 64.8626 819.26 65.0414C819.029 65.2203 818.914 65.5139 818.914 65.9224C818.914 66.5071 819.14 67.0237 819.593 67.4722C820.046 67.9206 820.622 68.2626 821.323 68.4979Z" fill="white"/>
<path d="M806.681 65.8732C805.007 65.3106 803.508 64.4424 802.184 63.2686C800.868 62.0977 799.83 60.6997 799.07 59.0746C798.318 57.4524 797.942 55.6801 797.942 53.7578C797.942 51.8275 798.322 50.3053 799.083 49.1911C799.851 48.0718 800.894 47.3687 802.209 47.0819C803.533 46.7979 805.024 46.9344 806.681 47.4912C807.732 47.8443 808.715 48.3145 809.629 48.902C810.551 49.4923 811.371 50.1804 812.089 50.9662C812.807 51.7439 813.392 52.6013 813.844 53.5384C814.306 54.4703 814.609 55.4573 814.754 56.4992L811.269 55.3281C811.175 54.7519 810.991 54.2096 810.718 53.7013C810.453 53.1958 810.12 52.7314 809.718 52.3082C809.325 51.8798 808.877 51.5088 808.373 51.1953C807.869 50.8738 807.326 50.6154 806.745 50.4202C805.703 50.07 804.781 50.0043 803.978 50.2231C803.175 50.4339 802.547 50.9357 802.094 51.7287C801.641 52.5137 801.415 53.579 801.415 54.9246C801.415 56.2863 801.641 57.5117 802.094 58.6009C802.555 59.6851 803.183 60.6009 803.978 61.3484C804.781 62.0908 805.699 62.6356 806.733 62.9829C807.305 63.1752 807.839 63.2866 808.334 63.3169C808.83 63.3392 809.278 63.2776 809.68 63.1322C810.09 62.9816 810.427 62.7506 810.692 62.4391C810.966 62.1225 811.158 61.7185 811.269 61.2272L814.754 62.3983C814.626 63.2123 814.344 63.9225 813.909 64.529C813.481 65.1304 812.918 65.5977 812.217 65.931C811.525 66.2592 810.714 66.427 809.782 66.4345C808.851 66.4421 807.818 66.2549 806.681 65.8732Z" fill="white"/>
<rect width="125.23" height="82.8984" transform="matrix(0.951387 0.307998 -0.951387 0.307998 792.342 114.207)" fill="url(#paint3_linear_69_370)"/>
<rect width="125.23" height="44.8637" transform="matrix(0.951387 0.307998 0 1 713.756 139.692)" fill="url(#paint4_linear_69_370)"/>
<rect width="83.1449" height="44.691" transform="matrix(0.951387 -0.307998 0 1 832.792 178.043)" fill="url(#paint5_linear_69_370)"/>
<path d="M835.322 162.909L851.493 157.673L854.21 158.553L852.262 159.183L852.43 159.238C852.852 159.192 853.353 159.159 853.936 159.139C854.526 159.116 855.157 159.139 855.831 159.207C856.512 159.278 857.2 159.425 857.895 159.65C858.8 159.943 859.386 160.283 859.653 160.67C859.92 161.056 859.818 161.464 859.348 161.893C858.884 162.325 857.997 162.754 856.684 163.178C855.392 163.597 854.083 163.884 852.757 164.041C851.43 164.198 850.16 164.234 848.946 164.15C847.745 164.066 846.682 163.874 845.755 163.574C845.089 163.358 844.643 163.141 844.418 162.923C844.208 162.705 844.123 162.5 844.166 162.309C844.222 162.118 844.324 161.954 844.471 161.815L844.355 161.777L838.091 163.806L835.322 162.909ZM847.272 162.592C847.882 162.79 848.556 162.901 849.293 162.926C850.037 162.953 850.802 162.908 851.588 162.79C852.374 162.672 853.132 162.494 853.862 162.258C854.592 162.022 855.136 161.777 855.494 161.525C855.852 161.273 855.989 161.029 855.905 160.792C855.821 160.556 855.47 160.338 854.852 160.138C854.255 159.945 853.596 159.831 852.873 159.797C852.157 159.765 851.406 159.806 850.62 159.92C849.847 160.033 849.079 160.214 848.314 160.462C847.556 160.707 846.994 160.957 846.629 161.212C846.278 161.466 846.148 161.713 846.24 161.951C846.338 162.188 846.682 162.401 847.272 162.592Z" fill="white"/>
<path d="M835.305 160.054L847.076 156.243L849.845 157.139L838.074 160.95L835.305 160.054ZM850.118 156.157C849.676 156.014 849.445 155.844 849.423 155.646C849.402 155.448 849.599 155.282 850.013 155.148C850.434 155.012 850.95 154.947 851.561 154.954C852.171 154.961 852.698 155.036 853.14 155.179C853.575 155.32 853.803 155.489 853.824 155.687C853.845 155.885 853.649 156.051 853.235 156.185C852.814 156.321 852.298 156.386 851.687 156.379C851.076 156.372 850.554 156.298 850.118 156.157Z" fill="white"/>
<path d="M832.919 154.823L826.033 157.052L823.264 156.155L838.952 151.076L841.658 151.952L835.73 153.871L835.878 153.919C836.818 153.792 837.769 153.759 838.731 153.82C839.692 153.882 840.626 154.059 841.531 154.352C842.346 154.616 842.883 154.901 843.142 155.208C843.409 155.517 843.381 155.833 843.058 156.155C842.735 156.478 842.1 156.793 841.152 157.1L833.667 159.523L830.887 158.624L837.941 156.34C838.741 156.08 839.155 155.815 839.184 155.542C839.219 155.267 838.871 155.011 838.141 154.775C837.65 154.616 837.106 154.508 836.509 154.451C835.92 154.396 835.316 154.399 834.698 154.458C834.088 154.515 833.495 154.636 832.919 154.823Z" fill="white"/>
<path d="M830.565 152.922L827.785 152.192C828.066 152.033 828.178 151.849 828.122 151.64C828.073 151.429 827.729 151.22 827.091 151.013C826.515 150.826 825.904 150.71 825.259 150.665C824.62 150.622 824.104 150.664 823.711 150.791C823.367 150.902 823.209 151.035 823.237 151.19C823.279 151.345 823.532 151.54 823.995 151.776L825.585 152.564C826.455 152.996 826.901 153.385 826.922 153.733C826.943 154.081 826.536 154.39 825.701 154.66C824.964 154.899 824.097 155.041 823.1 155.086C822.104 155.132 821.068 155.083 819.994 154.94C818.927 154.799 817.903 154.569 816.92 154.251C815.481 153.785 814.625 153.313 814.351 152.833C814.091 152.354 814.414 151.91 815.32 151.504L818.278 152.298C817.871 152.507 817.731 152.721 817.857 152.939C817.997 153.157 818.383 153.368 819.015 153.573C819.675 153.786 820.338 153.915 821.005 153.958C821.679 153.999 822.212 153.956 822.605 153.828C823.265 153.615 823.188 153.299 822.374 152.881L820.784 152.093C819.9 151.648 819.461 151.249 819.468 150.897C819.482 150.542 819.917 150.226 820.773 149.949C821.503 149.713 822.335 149.573 823.269 149.53C824.202 149.487 825.174 149.533 826.185 149.67C827.196 149.806 828.171 150.026 829.112 150.331C830.495 150.779 831.281 151.226 831.47 151.674C831.674 152.122 831.372 152.538 830.565 152.922Z" fill="white"/>
<path d="M810.312 147.503L803.427 149.732L800.658 148.836L812.429 145.025L815.145 145.904L813.134 146.555L813.271 146.6C814.197 146.472 815.138 146.438 816.092 146.497C817.061 146.556 817.988 146.729 818.872 147.015C819.686 147.279 820.223 147.564 820.483 147.871C820.743 148.178 820.704 148.493 820.367 148.815C820.044 149.138 819.412 149.452 818.472 149.756L810.986 152.18L808.217 151.283L815.271 148.999C816.057 148.745 816.468 148.48 816.503 148.205C816.545 147.928 816.208 147.673 815.492 147.442C815.008 147.285 814.471 147.179 813.881 147.125C813.299 147.072 812.699 147.076 812.081 147.135C811.477 147.194 810.888 147.317 810.312 147.503Z" fill="white"/>
<path d="M793.313 146.458L805.084 142.647L807.769 143.516L805.789 144.157L805.916 144.198C806.814 144.043 807.709 143.992 808.6 144.044C809.499 144.094 810.285 144.228 810.959 144.446C811.106 144.494 811.268 144.551 811.443 144.617C811.626 144.685 811.769 144.743 811.875 144.791L809.327 145.616C809.25 145.563 809.099 145.492 808.874 145.401C808.65 145.31 808.421 145.227 808.19 145.152C807.677 144.986 807.112 144.874 806.495 144.815C805.877 144.756 805.263 144.75 804.652 144.798C804.049 144.848 803.494 144.954 802.989 145.118L796.082 147.354L793.313 146.458Z" fill="white"/>
<path d="M786.758 144.485C785.579 144.104 784.807 143.694 784.442 143.258C784.084 142.819 784.126 142.379 784.568 141.935C785.017 141.495 785.856 141.075 787.084 140.678C788.299 140.284 789.59 140.014 790.959 139.866C792.335 139.716 793.693 139.692 795.033 139.795C796.374 139.897 797.606 140.13 798.729 140.493C799.452 140.728 800.02 140.987 800.435 141.271C800.856 141.557 801.073 141.859 801.087 142.177C801.108 142.498 800.887 142.826 800.424 143.163C799.968 143.497 799.224 143.831 798.192 144.165L797.329 144.444L787.685 141.322L789.548 140.718L797.813 143.394L795.971 143.152C796.637 142.937 797.115 142.716 797.402 142.491C797.697 142.264 797.785 142.04 797.666 141.82C797.546 141.599 797.188 141.392 796.592 141.199C795.995 141.006 795.346 140.887 794.644 140.841C793.942 140.796 793.244 140.815 792.549 140.899C791.861 140.981 791.226 141.116 790.643 141.305L789.348 141.724C788.632 141.956 788.141 142.195 787.874 142.44C787.621 142.685 787.586 142.924 787.769 143.156C787.958 143.39 788.355 143.605 788.959 143.8C789.352 143.927 789.766 144.025 790.201 144.093C790.643 144.164 791.092 144.2 791.549 144.202C792.019 144.205 792.486 144.172 792.949 144.104L795.234 145.041C794.384 145.207 793.475 145.299 792.507 145.317C791.552 145.335 790.58 145.275 789.59 145.136C788.615 144.998 787.671 144.781 786.758 144.485Z" fill="white"/>
<path d="M792.553 138.589L790.405 139.285L783.656 137.1L785.804 136.404L792.553 138.589ZM790.258 136.033L793.027 136.929L781.993 140.502C781.53 140.652 781.287 140.796 781.266 140.935C781.252 141.071 781.466 141.211 781.909 141.354C782.028 141.393 782.172 141.432 782.34 141.473C782.509 141.514 782.667 141.549 782.814 141.579L781.119 142.435C780.733 142.369 780.368 142.294 780.024 142.21C779.673 142.128 779.347 142.038 779.045 141.94C777.95 141.586 777.378 141.214 777.329 140.826C777.287 140.435 777.767 140.077 778.771 139.752L790.258 136.033Z" fill="white"/>
<path d="M772.595 135.291L765.71 137.52L762.941 136.624L774.711 132.813L777.428 133.692L775.417 134.343L775.554 134.387C776.48 134.26 777.421 134.226 778.375 134.285C779.344 134.344 780.27 134.517 781.155 134.803C781.969 135.067 782.506 135.352 782.766 135.659C783.025 135.966 782.987 136.281 782.65 136.603C782.327 136.926 781.695 137.24 780.755 137.544L773.269 139.968L770.5 139.071L777.554 136.787C778.34 136.533 778.751 136.268 778.786 135.993C778.828 135.716 778.491 135.461 777.775 135.229C777.291 135.073 776.754 134.967 776.164 134.912C775.582 134.86 774.982 134.864 774.364 134.923C773.76 134.982 773.171 135.104 772.595 135.291Z" fill="white"/>
<path d="M776.874 130.976L761.187 136.056L758.344 135.135L774.031 130.056L776.874 130.976Z" fill="white"/>
<path d="M807.662 202.985V188.374L810.378 189.254V191.014L810.546 191.068C810.687 190.86 810.887 190.652 811.146 190.444C811.406 190.23 811.757 190.09 812.199 190.024C812.649 189.961 813.221 190.041 813.915 190.266C814.821 190.559 815.639 191.033 816.369 191.688C817.099 192.343 817.678 193.146 818.106 194.096C818.541 195.049 818.759 196.118 818.759 197.304C818.759 198.471 818.548 199.395 818.127 200.077C817.706 200.758 817.127 201.195 816.39 201.388C815.66 201.577 814.831 201.521 813.905 201.221C813.238 201.005 812.68 200.723 812.231 200.374C811.789 200.022 811.431 199.659 811.157 199.285C810.89 198.907 810.687 198.565 810.546 198.259L810.431 198.222V203.882L807.662 202.985ZM813.147 198.921C813.757 199.118 814.266 199.134 814.673 198.968C815.088 198.804 815.4 198.496 815.611 198.044C815.821 197.592 815.926 197.037 815.926 196.377C815.926 195.718 815.821 195.097 815.611 194.515C815.4 193.933 815.091 193.431 814.684 193.007C814.277 192.584 813.765 192.272 813.147 192.072C812.55 191.879 812.045 191.855 811.631 192C811.224 192.147 810.911 192.442 810.694 192.885C810.483 193.324 810.378 193.89 810.378 194.581C810.378 195.266 810.483 195.902 810.694 196.49C810.911 197.074 811.227 197.579 811.641 198.005C812.055 198.425 812.557 198.73 813.147 198.921Z" fill="white"/>
<path d="M803.244 197.579V186.944L806.013 187.841V198.475L803.244 197.579ZM804.634 185.9C804.191 185.757 803.812 185.501 803.496 185.133C803.181 184.764 803.023 184.393 803.023 184.019C803.023 183.638 803.181 183.366 803.496 183.202C803.812 183.038 804.191 183.027 804.634 183.17C805.069 183.311 805.444 183.566 805.76 183.935C806.076 184.303 806.234 184.675 806.234 185.049C806.234 185.429 806.076 185.702 805.76 185.866C805.444 186.03 805.069 186.041 804.634 185.9Z" fill="white"/>
<path d="M793.972 188.356V194.577L791.203 193.68V179.507L793.909 180.383V185.738L794.057 185.786C794.33 185.272 794.755 184.934 795.331 184.772C795.906 184.609 796.647 184.675 797.552 184.968C798.366 185.232 799.075 185.616 799.679 186.123C800.29 186.631 800.763 187.238 801.1 187.943C801.437 188.648 801.606 189.429 801.606 190.285V197.048L798.826 196.148V189.775C798.826 189.052 798.623 188.428 798.215 187.903C797.808 187.372 797.24 186.988 796.51 186.752C796.018 186.593 795.58 186.546 795.194 186.611C794.815 186.678 794.516 186.858 794.299 187.149C794.081 187.433 793.972 187.836 793.972 188.356Z" fill="white"/>
<path d="M789.86 185.436L787.344 184.859C787.238 184.476 787.01 184.095 786.659 183.715C786.308 183.328 785.814 183.032 785.175 182.825C784.599 182.638 784.115 182.596 783.722 182.697C783.336 182.8 783.143 183.029 783.143 183.385C783.143 183.695 783.269 183.993 783.522 184.278C783.782 184.558 784.21 184.856 784.806 185.169L786.817 186.201C787.919 186.767 788.744 187.376 789.291 188.029C789.839 188.682 790.113 189.386 790.113 190.141C790.113 190.806 789.899 191.327 789.47 191.702C789.042 192.077 788.449 192.284 787.691 192.324C786.94 192.367 786.073 192.229 785.091 191.91C783.652 191.445 782.494 190.797 781.616 189.967C780.746 189.134 780.223 188.2 780.048 187.167L782.753 187.815C782.873 188.329 783.132 188.775 783.532 189.151C783.94 189.524 784.459 189.813 785.091 190.017C785.75 190.231 786.28 190.282 786.68 190.171C787.081 190.053 787.281 189.816 787.281 189.461C787.281 188.865 786.754 188.289 785.701 187.732L783.69 186.701C782.56 186.113 781.725 185.484 781.185 184.815C780.644 184.139 780.374 183.414 780.374 182.64C780.374 181.981 780.574 181.475 780.974 181.122C781.374 180.77 781.932 180.576 782.648 180.542C783.364 180.507 784.192 180.642 785.133 180.947C786.515 181.395 787.6 182.015 788.386 182.809C789.179 183.598 789.671 184.474 789.86 185.436Z" fill="white"/>
<path d="M771.366 181.036V187.257L768.597 186.361V175.726L771.313 176.605V178.422L771.45 178.467C771.717 177.957 772.134 177.62 772.703 177.455C773.278 177.286 774.008 177.345 774.893 177.631C775.707 177.895 776.416 178.28 777.019 178.786C777.623 179.292 778.09 179.9 778.42 180.609C778.757 181.314 778.925 182.092 778.925 182.942V189.705L776.156 188.808V182.435C776.156 181.725 775.953 181.104 775.545 180.573C775.138 180.035 774.577 179.65 773.861 179.418C773.377 179.262 772.945 179.217 772.566 179.284C772.194 179.354 771.899 179.535 771.682 179.826C771.471 180.113 771.366 180.516 771.366 181.036Z" fill="white"/>
<path d="M761.252 183.983V173.348L763.937 174.217V176.005L764.063 176.046C764.274 175.493 764.642 175.137 765.169 174.977C765.695 174.812 766.295 174.838 766.969 175.056C767.116 175.104 767.285 175.165 767.474 175.239C767.671 175.315 767.832 175.383 767.959 175.443V177.745C767.839 177.669 767.653 177.577 767.401 177.469C767.148 177.362 766.906 177.271 766.674 177.196C766.162 177.03 765.706 176.981 765.305 177.048C764.905 177.115 764.59 177.282 764.358 177.55C764.133 177.819 764.021 178.183 764.021 178.639V184.879L761.252 183.983Z" fill="white"/>
<path d="M754.929 182.145C753.749 181.763 752.732 181.211 751.875 180.49C751.019 179.763 750.359 178.915 749.896 177.947C749.44 176.981 749.212 175.943 749.212 174.833C749.212 173.736 749.44 172.849 749.896 172.173C750.352 171.49 750.995 171.051 751.823 170.856C752.651 170.661 753.627 170.746 754.75 171.109C755.473 171.343 756.157 171.67 756.803 172.088C757.455 172.509 758.031 173.018 758.529 173.617C759.035 174.219 759.431 174.905 759.719 175.677C760.007 176.442 760.151 177.291 760.151 178.223V179.003L750.507 175.881V174.197L758.772 176.873L757.477 176.948C757.477 176.346 757.375 175.79 757.171 175.28C756.968 174.764 756.666 174.314 756.266 173.931C755.866 173.548 755.367 173.259 754.771 173.066C754.174 172.873 753.665 172.835 753.244 172.952C752.823 173.07 752.504 173.309 752.286 173.67C752.068 174.024 751.96 174.464 751.96 174.991V176.161C751.96 176.808 752.082 177.402 752.328 177.945C752.581 178.483 752.932 178.945 753.381 179.332C753.837 179.721 754.367 180.013 754.971 180.208C755.364 180.335 755.722 180.401 756.045 180.404C756.375 180.409 756.655 180.348 756.887 180.22C757.126 180.088 757.308 179.89 757.434 179.627L760.024 180.741C759.856 181.302 759.544 181.739 759.087 182.055C758.638 182.366 758.059 182.533 757.35 182.558C756.648 182.578 755.841 182.44 754.929 182.145Z" fill="white"/>
<path d="M748.721 169.291V171.231L741.972 169.046V167.105L748.721 169.291ZM743.625 165.11L746.394 166.007V175.976C746.394 176.394 746.496 176.738 746.7 177.007C746.903 177.269 747.226 177.472 747.668 177.615C747.788 177.654 747.921 177.688 748.068 177.716C748.216 177.745 748.349 177.766 748.468 177.779L748.942 179.892C748.647 179.879 748.349 179.843 748.047 179.783C747.745 179.73 747.444 179.654 747.142 179.557C746.047 179.202 745.187 178.664 744.562 177.941C743.938 177.213 743.625 176.395 743.625 175.488V165.11Z" fill="white"/>
<path d="M733.648 168.824V175.045L730.879 174.149V163.514L733.596 164.393V166.21L733.733 166.254C733.999 165.745 734.417 165.408 734.986 165.243C735.561 165.074 736.291 165.133 737.175 165.419C737.99 165.683 738.699 166.068 739.302 166.574C739.906 167.08 740.373 167.688 740.703 168.397C741.039 169.102 741.208 169.88 741.208 170.729V177.493L738.439 176.596V170.223C738.439 169.513 738.235 168.892 737.828 168.361C737.421 167.823 736.86 167.438 736.144 167.206C735.659 167.05 735.228 167.005 734.849 167.072C734.477 167.142 734.182 167.323 733.964 167.614C733.754 167.901 733.648 168.304 733.648 168.824Z" fill="white"/>
<path d="M729.125 159.407V173.581L726.283 172.66V158.487L729.125 159.407Z" fill="white"/>
<rect width="127.386" height="84.3254" transform="matrix(0.950212 0.311605 -0.950212 0.311605 611.179 185.057)" fill="url(#paint6_linear_69_370)"/>
<rect width="127.386" height="46.1704" transform="matrix(0.950212 0.311605 0 1 531.339 211.285)" fill="url(#paint7_linear_69_370)"/>
<rect width="84.5762" height="45.9927" transform="matrix(0.950212 -0.311605 0 1 652.275 250.753)" fill="url(#paint8_linear_69_370)"/>
<path d="M653.001 231.512L661.526 226.513L664.374 227.447L658.114 230.874L658.22 230.909L668.711 228.87L671.528 229.793L665.342 233.224L665.448 233.259L675.833 231.205L678.692 232.143L663.45 234.939L660.527 233.98L666.319 230.616L666.171 230.567L655.913 232.467L653.001 231.512Z" fill="white"/>
<path d="M644.268 228.801C643.078 228.411 642.298 227.992 641.93 227.546C641.568 227.098 641.611 226.647 642.057 226.194C642.511 225.743 643.358 225.314 644.598 224.907C645.823 224.505 647.127 224.229 648.509 224.078C649.898 223.924 651.269 223.9 652.623 224.004C653.976 224.109 655.22 224.347 656.353 224.719C657.083 224.958 657.657 225.223 658.075 225.514C658.501 225.807 658.72 226.116 658.734 226.441C658.756 226.769 658.532 227.105 658.065 227.449C657.604 227.79 656.853 228.132 655.811 228.474L654.94 228.759L645.203 225.566L647.085 224.949L655.429 227.686L653.569 227.438C654.242 227.217 654.724 226.992 655.014 226.762C655.312 226.529 655.4 226.301 655.28 226.075C655.159 225.85 654.798 225.638 654.196 225.441C653.593 225.243 652.938 225.121 652.229 225.075C651.521 225.028 650.816 225.048 650.114 225.134C649.42 225.217 648.778 225.356 648.19 225.549L646.883 225.977C646.16 226.215 645.664 226.459 645.395 226.71C645.14 226.961 645.104 227.205 645.288 227.442C645.48 227.681 645.88 227.901 646.49 228.101C646.886 228.231 647.304 228.331 647.744 228.4C648.19 228.472 648.644 228.51 649.104 228.512C649.579 228.514 650.05 228.481 650.518 228.411L652.825 229.369C651.967 229.539 651.05 229.633 650.072 229.652C649.108 229.67 648.126 229.609 647.127 229.467C646.142 229.325 645.189 229.103 644.268 228.801Z" fill="white"/>
<path d="M634.78 225.536L646.664 221.639L649.459 222.555L637.576 226.453L634.78 225.536ZM649.736 221.551C649.289 221.405 649.055 221.231 649.034 221.029C649.013 220.826 649.211 220.657 649.629 220.52C650.055 220.38 650.575 220.314 651.192 220.321C651.808 220.328 652.34 220.405 652.786 220.551C653.226 220.695 653.456 220.868 653.477 221.07C653.498 221.273 653.3 221.442 652.882 221.579C652.457 221.719 651.936 221.785 651.319 221.778C650.703 221.771 650.175 221.696 649.736 221.551Z" fill="white"/>
<path d="M645.945 221.403L629.831 223.913L626.728 222.895L634.391 217.614L637.378 218.593L631.298 222.393L631.426 222.435L642.99 220.434L645.945 221.403Z" fill="white"/>
<path d="M615.678 219.271L627.561 215.373L630.271 216.262L628.273 216.918L628.401 216.96C629.308 216.801 630.211 216.749 631.111 216.803C632.018 216.854 632.812 216.991 633.492 217.214C633.641 217.263 633.804 217.321 633.981 217.388C634.165 217.458 634.311 217.517 634.417 217.566L631.845 218.41C631.767 218.356 631.614 218.283 631.388 218.19C631.161 218.097 630.93 218.012 630.697 217.936C630.179 217.766 629.609 217.651 628.985 217.591C628.362 217.53 627.742 217.524 627.125 217.573C626.516 217.624 625.956 217.733 625.446 217.901L618.473 220.188L615.678 219.271Z" fill="white"/>
<path d="M609.06 217.254C607.869 216.863 607.09 216.445 606.721 215.999C606.36 215.55 606.403 215.099 606.849 214.646C607.302 214.195 608.149 213.766 609.389 213.36C610.615 212.958 611.919 212.681 613.301 212.53C614.69 212.377 616.061 212.352 617.414 212.457C618.768 212.561 620.011 212.8 621.145 213.172C621.875 213.411 622.449 213.676 622.867 213.966C623.292 214.259 623.512 214.568 623.526 214.894C623.547 215.221 623.324 215.557 622.857 215.901C622.396 216.243 621.645 216.584 620.603 216.926L619.732 217.212L609.995 214.019L611.877 213.402L620.221 216.138L618.36 215.891C619.034 215.67 619.515 215.444 619.806 215.214C620.104 214.982 620.192 214.753 620.072 214.528C619.951 214.302 619.59 214.091 618.988 213.893C618.385 213.696 617.73 213.574 617.021 213.527C616.312 213.481 615.607 213.5 614.906 213.586C614.211 213.67 613.57 213.808 612.982 214.001L611.675 214.43C610.952 214.667 610.456 214.911 610.187 215.162C609.931 215.413 609.896 215.657 610.08 215.894C610.272 216.134 610.672 216.353 611.281 216.553C611.678 216.683 612.096 216.783 612.536 216.853C612.982 216.925 613.436 216.962 613.896 216.964C614.371 216.967 614.842 216.933 615.31 216.863L617.616 217.822C616.759 217.992 615.841 218.086 614.863 218.104C613.9 218.123 612.918 218.061 611.919 217.92C610.934 217.778 609.981 217.556 609.06 217.254Z" fill="white"/>
<path d="M614.91 211.224L612.742 211.935L605.928 209.701L608.097 208.99L614.91 211.224ZM612.593 208.61L615.388 209.526L604.249 213.18C603.781 213.333 603.537 213.481 603.516 213.623C603.501 213.762 603.718 213.905 604.164 214.051C604.284 214.091 604.43 214.132 604.6 214.173C604.77 214.215 604.929 214.251 605.078 214.281L603.367 215.156C602.977 215.089 602.609 215.012 602.261 214.926C601.907 214.843 601.578 214.751 601.273 214.651C600.167 214.288 599.59 213.908 599.54 213.511C599.498 213.111 599.983 212.745 600.997 212.413L612.593 208.61Z" fill="white"/>
<path d="M594.761 207.851L587.81 210.131L585.014 209.214L596.898 205.317L599.64 206.216L597.61 206.882L597.748 206.927C598.684 206.797 599.633 206.762 600.597 206.823C601.575 206.883 602.51 207.06 603.403 207.352C604.225 207.622 604.767 207.914 605.029 208.227C605.291 208.541 605.252 208.863 604.912 209.193C604.586 209.523 603.949 209.844 602.999 210.155L595.442 212.634L592.646 211.717L599.768 209.381C600.561 209.121 600.976 208.85 601.011 208.569C601.054 208.286 600.714 208.025 599.991 207.788C599.502 207.628 598.96 207.52 598.365 207.464C597.777 207.411 597.171 207.414 596.547 207.474C595.938 207.535 595.342 207.66 594.761 207.851Z" fill="white"/>
<path d="M599.081 203.439L583.244 208.633L580.374 207.692L596.211 202.498L599.081 203.439Z" fill="white"/>
<path d="M617.922 269.262L614.563 257.285L617.412 258.219L619.506 266.552L619.612 266.587L621.748 259.641L624.565 260.565L626.702 268.883L626.808 268.918L628.87 261.977L631.729 262.915L628.37 272.689L625.447 271.73L623.215 263.654L623.066 263.605L620.834 270.217L617.922 269.262Z" fill="white"/>
<path d="M609.423 266.689C608.232 266.298 607.205 265.734 606.34 264.997C605.476 264.253 604.81 263.386 604.342 262.396C603.881 261.408 603.651 260.347 603.651 259.212C603.651 258.09 603.881 257.183 604.342 256.491C604.802 255.792 605.451 255.344 606.287 255.144C607.123 254.945 608.108 255.032 609.242 255.403C609.972 255.643 610.663 255.976 611.315 256.404C611.974 256.834 612.555 257.356 613.058 257.968C613.568 258.583 613.968 259.285 614.259 260.074C614.549 260.857 614.695 261.725 614.695 262.678V263.476L604.958 260.283V258.561L613.302 261.298L611.995 261.375C611.995 260.758 611.892 260.19 611.687 259.668C611.481 259.141 611.176 258.681 610.773 258.289C610.369 257.897 609.866 257.602 609.263 257.405C608.661 257.207 608.147 257.168 607.722 257.288C607.297 257.408 606.974 257.653 606.755 258.022C606.535 258.384 606.425 258.834 606.425 259.373V260.569C606.425 261.231 606.549 261.839 606.797 262.394C607.052 262.944 607.407 263.417 607.86 263.812C608.321 264.21 608.856 264.508 609.465 264.708C609.862 264.839 610.223 264.905 610.549 264.908C610.882 264.914 611.166 264.851 611.4 264.72C611.641 264.585 611.825 264.383 611.952 264.114L614.567 265.253C614.397 265.827 614.082 266.274 613.621 266.597C613.168 266.915 612.583 267.086 611.867 267.111C611.159 267.132 610.344 266.991 609.423 266.689Z" fill="white"/>
<path d="M599.701 263.286V252.41L602.497 253.327V264.203L599.701 263.286ZM601.104 251.343C600.658 251.197 600.275 250.935 599.956 250.558C599.637 250.181 599.478 249.802 599.478 249.419C599.478 249.03 599.637 248.751 599.956 248.584C600.275 248.416 600.658 248.405 601.104 248.552C601.544 248.696 601.923 248.956 602.242 249.333C602.56 249.71 602.72 250.09 602.72 250.472C602.72 250.862 602.56 251.14 602.242 251.308C601.923 251.476 601.544 251.487 601.104 251.343Z" fill="white"/>
<path d="M598.983 252.175L594.752 261.663L591.648 260.645L587.429 248.385L590.415 249.365L593.168 258.352L593.296 258.394L596.028 251.206L598.983 252.175Z" fill="white"/>
<path d="M580.598 257.021V246.145L583.309 247.034V248.863L583.436 248.905C583.649 248.339 584.021 247.975 584.552 247.812C585.084 247.642 585.69 247.669 586.37 247.892C586.519 247.941 586.689 248.003 586.88 248.079C587.079 248.157 587.242 248.227 587.369 248.288V250.642C587.249 250.564 587.061 250.47 586.806 250.36C586.551 250.251 586.306 250.157 586.072 250.081C585.555 249.911 585.094 249.86 584.691 249.929C584.287 249.998 583.968 250.169 583.734 250.442C583.507 250.718 583.394 251.089 583.394 251.556V257.938L580.598 257.021Z" fill="white"/>
<path d="M574.214 255.141C573.024 254.751 571.996 254.187 571.132 253.449C570.267 252.705 569.601 251.838 569.134 250.848C568.673 249.861 568.443 248.799 568.443 247.664C568.443 246.542 568.673 245.635 569.134 244.943C569.594 244.245 570.243 243.796 571.079 243.597C571.915 243.398 572.9 243.484 574.034 243.856C574.764 244.095 575.455 244.429 576.106 244.857C576.765 245.287 577.347 245.808 577.85 246.421C578.36 247.036 578.76 247.738 579.051 248.527C579.341 249.309 579.487 250.177 579.487 251.131V251.928L569.75 248.735V247.013L578.094 249.75L576.787 249.827C576.787 249.211 576.684 248.642 576.478 248.121C576.273 247.593 575.968 247.133 575.564 246.741C575.16 246.349 574.657 246.055 574.055 245.857C573.453 245.66 572.939 245.621 572.514 245.741C572.089 245.861 571.766 246.105 571.546 246.474C571.327 246.837 571.217 247.287 571.217 247.825V249.022C571.217 249.683 571.341 250.291 571.589 250.846C571.844 251.397 572.198 251.87 572.652 252.265C573.113 252.662 573.648 252.961 574.257 253.161C574.654 253.291 575.015 253.358 575.341 253.361C575.674 253.366 575.958 253.304 576.191 253.173C576.432 253.038 576.617 252.836 576.744 252.566L579.359 253.706C579.189 254.279 578.874 254.727 578.413 255.049C577.959 255.367 577.375 255.539 576.659 255.564C575.951 255.584 575.136 255.443 574.214 255.141Z" fill="white"/>
<path d="M567.947 241.996V243.98L561.134 241.746V239.761L567.947 241.996ZM562.803 237.721L565.598 238.638V248.833C565.598 249.261 565.701 249.612 565.907 249.887C566.112 250.156 566.438 250.363 566.884 250.509C567.005 250.549 567.14 250.583 567.288 250.613C567.437 250.642 567.572 250.664 567.692 250.677L568.171 252.838C567.873 252.825 567.572 252.787 567.267 252.726C566.962 252.672 566.658 252.595 566.353 252.495C565.248 252.132 564.38 251.582 563.749 250.843C563.118 250.098 562.803 249.262 562.803 248.334V237.721Z" fill="white"/>
<path d="M552.731 241.519V247.881L549.935 246.964V236.088L552.677 236.988V238.846L552.816 238.891C553.085 238.37 553.506 238.025 554.08 237.857C554.662 237.684 555.398 237.744 556.291 238.037C557.113 238.306 557.829 238.7 558.438 239.218C559.048 239.735 559.519 240.357 559.852 241.082C560.192 241.803 560.362 242.598 560.362 243.467V250.384L557.567 249.467V242.949C557.567 242.223 557.361 241.588 556.95 241.045C556.539 240.495 555.972 240.102 555.25 239.865C554.761 239.704 554.325 239.659 553.942 239.728C553.567 239.799 553.269 239.983 553.049 240.281C552.837 240.574 552.731 240.987 552.731 241.519Z" fill="white"/>
<path d="M548.164 231.889V246.383L545.294 245.442V230.948L548.164 231.889Z" fill="white"/>
<rect width="120.622" height="79.8475" transform="matrix(0.949196 0.314687 -0.949196 0.314687 458.914 271.77)" fill="url(#paint9_linear_69_370)"/>
<rect width="120.622" height="44.1511" transform="matrix(0.949196 0.314687 0 1 383.394 296.851)" fill="url(#paint10_linear_69_370)"/>
<rect width="80.085" height="43.9812" transform="matrix(0.949196 -0.314687 0 1 497.786 334.592)" fill="url(#paint11_linear_69_370)"/>
<path d="M499.27 316.223C498.143 315.849 497.406 315.449 497.057 315.022C496.715 314.593 496.755 314.162 497.178 313.728C497.607 313.296 498.408 312.886 499.582 312.497C500.742 312.112 501.976 311.848 503.284 311.703C504.599 311.556 505.896 311.533 507.177 311.633C508.458 311.733 509.636 311.961 510.709 312.317C511.399 312.546 511.943 312.799 512.338 313.077C512.741 313.358 512.949 313.653 512.962 313.965C512.982 314.278 512.771 314.6 512.328 314.929C511.892 315.256 511.181 315.583 510.196 315.909L509.371 316.183L500.155 313.127L501.936 312.537L509.833 315.156L508.073 314.919C508.71 314.707 509.166 314.492 509.441 314.272C509.723 314.049 509.807 313.83 509.693 313.614C509.578 313.399 509.236 313.196 508.666 313.007C508.096 312.818 507.476 312.702 506.805 312.657C506.135 312.613 505.467 312.632 504.803 312.714C504.146 312.794 503.539 312.926 502.982 313.111L501.745 313.521C501.061 313.748 500.591 313.981 500.337 314.222C500.095 314.462 500.062 314.695 500.236 314.922C500.417 315.151 500.796 315.361 501.373 315.553C501.748 315.677 502.144 315.773 502.56 315.839C502.982 315.908 503.412 315.944 503.848 315.946C504.297 315.948 504.743 315.916 505.186 315.849L507.369 316.767C506.557 316.929 505.689 317.019 504.763 317.037C503.851 317.055 502.922 316.996 501.976 316.86C501.044 316.724 500.142 316.512 499.27 316.223Z" fill="white"/>
<path d="M477.132 308.736L488.379 305.006L490.904 305.844L488.983 306.481L489.124 306.527C490.002 306.392 490.894 306.354 491.8 306.414C492.712 306.472 493.54 306.624 494.284 306.871C495.049 307.125 495.508 307.399 495.663 307.695C495.817 307.991 495.679 308.279 495.25 308.559L495.371 308.599C496.249 308.477 497.172 308.451 498.137 308.522C499.103 308.593 499.995 308.765 500.813 309.036C501.846 309.378 502.359 309.766 502.353 310.2C502.359 310.634 501.736 311.058 500.481 311.474L492.936 313.976L490.28 313.095L497.423 310.727C498.114 310.498 498.433 310.268 498.379 310.037C498.339 309.805 498.05 309.601 497.514 309.423C496.877 309.212 496.179 309.114 495.421 309.129C494.67 309.143 493.983 309.253 493.359 309.46L486.337 311.788L483.721 310.921L490.965 308.519C491.548 308.325 491.84 308.115 491.84 307.888C491.846 307.659 491.568 307.451 491.005 307.265C490.622 307.138 490.176 307.054 489.667 307.014C489.157 306.974 488.634 306.981 488.097 307.034C487.568 307.09 487.075 307.193 486.619 307.345L479.778 309.613L477.132 308.736Z" fill="white"/>
<path d="M477.629 305.772L484.158 303.607L486.804 304.484L475.556 308.213L472.991 307.363L474.993 306.699L474.872 306.659C473.987 306.783 473.055 306.817 472.076 306.759C471.096 306.701 470.188 306.531 469.349 306.249C468.612 306.004 468.122 305.735 467.881 305.441C467.652 305.148 467.693 304.843 468.001 304.527C468.323 304.212 468.933 303.905 469.832 303.607L476.995 301.232L479.641 302.109L472.88 304.351C472.176 304.584 471.807 304.835 471.774 305.104C471.747 305.376 472.055 305.616 472.699 305.825C473.088 305.954 473.558 306.047 474.108 306.105C474.664 306.165 475.248 306.172 475.858 306.125C476.469 306.078 477.059 305.961 477.629 305.772Z" fill="white"/>
<path d="M472.723 301.797L470.068 301.083C470.336 300.927 470.443 300.747 470.389 300.543C470.343 300.336 470.014 300.131 469.404 299.929C468.854 299.746 468.27 299.633 467.653 299.588C467.043 299.546 466.55 299.587 466.174 299.712C465.846 299.821 465.695 299.951 465.722 300.102C465.762 300.253 466.003 300.445 466.446 300.676L467.965 301.446C468.797 301.869 469.223 302.25 469.243 302.591C469.263 302.931 468.874 303.233 468.076 303.498C467.371 303.731 466.543 303.87 465.591 303.915C464.638 303.959 463.649 303.912 462.623 303.771C461.604 303.634 460.624 303.409 459.685 303.098C458.311 302.642 457.492 302.179 457.231 301.71C456.983 301.241 457.291 300.807 458.156 300.409L460.983 301.186C460.594 301.391 460.46 301.6 460.581 301.813C460.715 302.027 461.084 302.234 461.687 302.434C462.318 302.643 462.952 302.769 463.589 302.811C464.233 302.851 464.742 302.809 465.118 302.684C465.748 302.475 465.675 302.166 464.897 301.757L463.378 300.986C462.533 300.55 462.113 300.16 462.12 299.815C462.133 299.468 462.549 299.159 463.368 298.888C464.065 298.657 464.86 298.52 465.752 298.478C466.644 298.435 467.573 298.481 468.538 298.614C469.504 298.748 470.436 298.964 471.335 299.262C472.656 299.7 473.408 300.138 473.589 300.576C473.783 301.014 473.495 301.421 472.723 301.797Z" fill="white"/>
<path d="M449.328 299.663C448.201 299.29 447.463 298.889 447.114 298.462C446.772 298.033 446.813 297.602 447.235 297.168C447.664 296.737 448.466 296.326 449.639 295.937C450.8 295.552 452.034 295.288 453.342 295.143C454.656 294.997 455.954 294.973 457.235 295.073C458.516 295.173 459.693 295.401 460.766 295.757C461.457 295.986 462 296.24 462.396 296.518C462.798 296.798 463.006 297.094 463.019 297.405C463.04 297.718 462.828 298.04 462.386 298.369C461.95 298.696 461.239 299.023 460.253 299.35L459.428 299.623L450.213 296.568L451.994 295.977L459.891 298.596L458.13 298.359C458.767 298.148 459.223 297.932 459.498 297.712C459.78 297.489 459.864 297.27 459.75 297.055C459.636 296.839 459.294 296.637 458.724 296.448C458.154 296.259 457.533 296.142 456.863 296.097C456.192 296.053 455.525 296.072 454.861 296.154C454.203 296.234 453.596 296.366 453.04 296.551L451.802 296.961C451.118 297.188 450.649 297.422 450.394 297.662C450.152 297.902 450.119 298.135 450.293 298.362C450.474 298.591 450.853 298.801 451.43 298.993C451.806 299.117 452.201 299.213 452.617 299.28C453.04 299.349 453.469 299.384 453.905 299.386C454.354 299.389 454.8 299.356 455.243 299.29L457.426 300.207C456.614 300.369 455.746 300.459 454.82 300.477C453.908 300.495 452.979 300.436 452.034 300.3C451.102 300.165 450.199 299.952 449.328 299.663Z" fill="white"/>
<path d="M432.592 293.967L447.581 288.997L453.205 290.862C454.358 291.244 455.123 291.631 455.498 292.022C455.881 292.416 455.911 292.8 455.589 293.173C455.274 293.545 454.64 293.888 453.688 294.204C452.729 294.522 451.692 294.73 450.579 294.828C449.472 294.928 448.332 294.91 447.159 294.774C445.985 294.639 444.821 294.38 443.668 293.997L439.674 292.673L441.917 291.929L445.539 293.13C446.216 293.354 446.864 293.507 447.481 293.587C448.104 293.669 448.698 293.684 449.261 293.63C449.838 293.577 450.391 293.462 450.921 293.287C451.451 293.111 451.8 292.926 451.967 292.733C452.142 292.537 452.112 292.336 451.877 292.129C451.649 291.92 451.193 291.702 450.509 291.475L448.024 290.651L435.308 294.868L432.592 293.967ZM441.012 296.759L444.181 293.3L447.138 294.281L444.05 297.767L441.012 296.759Z" fill="white"/>
<path d="M466.774 356.338C465.647 355.965 464.675 355.395 463.856 354.628C463.038 353.854 462.408 352.937 461.965 351.877C461.529 350.82 461.311 349.671 461.311 348.433C461.311 347.208 461.529 346.208 461.965 345.433C462.401 344.65 463.015 344.131 463.806 343.877C464.598 343.623 465.53 343.674 466.603 344.029C467.294 344.258 467.948 344.592 468.565 345.03C469.188 345.471 469.738 346.014 470.214 346.66C470.697 347.309 471.076 348.057 471.351 348.906C471.626 349.747 471.764 350.688 471.764 351.729V352.599L462.549 349.544V347.665L470.446 350.283L469.208 350.425C469.208 349.753 469.111 349.136 468.917 348.576C468.722 348.009 468.434 347.521 468.052 347.111C467.669 346.701 467.193 346.402 466.623 346.213C466.053 346.024 465.567 346.004 465.164 346.154C464.762 346.303 464.457 346.584 464.249 346.997C464.041 347.402 463.937 347.898 463.937 348.486V349.792C463.937 350.514 464.054 351.172 464.289 351.767C464.53 352.356 464.866 352.857 465.295 353.268C465.731 353.682 466.237 353.984 466.814 354.175C467.19 354.3 467.532 354.357 467.84 354.346C468.155 354.337 468.424 354.256 468.645 354.103C468.873 353.945 469.047 353.716 469.168 353.416L471.643 354.545C471.482 355.178 471.184 355.681 470.748 356.053C470.318 356.42 469.765 356.633 469.088 356.692C468.417 356.745 467.646 356.627 466.774 356.338Z" fill="white"/>
<path d="M444.414 348.691V336.821L446.939 337.658V339.686L447.08 339.733C447.315 339.131 447.704 338.729 448.247 338.527C448.79 338.318 449.434 338.337 450.179 338.584C450.943 338.837 451.587 339.245 452.11 339.808C452.633 340.371 452.999 341.023 453.207 341.764L453.327 341.804C453.582 341.23 454.005 340.843 454.595 340.642C455.185 340.442 455.889 340.477 456.708 340.748C457.741 341.091 458.582 341.717 459.233 342.626C459.89 343.531 460.219 344.645 460.219 345.968V353.931L457.563 353.051V345.512C457.563 344.783 457.375 344.187 456.999 343.722C456.631 343.253 456.178 342.93 455.641 342.752C455.004 342.541 454.508 342.588 454.152 342.895C453.797 343.195 453.619 343.674 453.619 344.332V351.743L451.004 350.876V343.231C451.004 342.616 450.833 342.07 450.491 341.596C450.148 341.115 449.696 340.78 449.132 340.594C448.75 340.467 448.401 340.454 448.086 340.555C447.771 340.655 447.519 340.859 447.332 341.164C447.151 341.472 447.06 341.867 447.06 342.348V349.568L444.414 348.691Z" fill="white"/>
<path d="M440.193 342.312V335.421L442.839 336.298V348.168L440.273 347.318V345.205L440.153 345.165C439.898 345.746 439.482 346.153 438.905 346.386C438.329 346.62 437.618 346.593 436.773 346.306C436.035 346.061 435.384 345.675 434.821 345.149C434.264 344.618 433.825 343.966 433.503 343.194C433.188 342.417 433.03 341.554 433.03 340.606V333.046L435.676 333.923V341.058C435.676 341.801 435.87 342.46 436.259 343.035C436.655 343.612 437.172 344.003 437.809 344.207C438.198 344.336 438.573 344.362 438.935 344.284C439.304 344.208 439.606 344.011 439.841 343.692C440.076 343.373 440.193 342.913 440.193 342.312Z" fill="white"/>
<path d="M431.746 335.774L429.342 335.242C429.242 334.819 429.024 334.404 428.688 333.995C428.353 333.58 427.88 333.271 427.27 333.068C426.72 332.886 426.257 332.86 425.881 332.99C425.513 333.123 425.328 333.387 425.328 333.784C425.328 334.13 425.449 334.457 425.69 334.764C425.938 335.065 426.348 335.378 426.918 335.701L428.839 336.763C429.892 337.346 430.68 337.99 431.203 338.694C431.726 339.398 431.988 340.171 431.988 341.014C431.988 341.757 431.783 342.347 431.374 342.785C430.965 343.223 430.398 343.481 429.674 343.559C428.956 343.64 428.128 343.524 427.189 343.213C425.814 342.757 424.708 342.086 423.869 341.199C423.038 340.308 422.538 339.289 422.37 338.143L424.956 338.746C425.07 339.314 425.318 339.8 425.7 340.203C426.089 340.601 426.586 340.9 427.189 341.1C427.82 341.309 428.326 341.343 428.708 341.2C429.091 341.051 429.282 340.778 429.282 340.382C429.282 339.717 428.779 339.097 427.773 338.523L425.851 337.461C424.771 336.855 423.973 336.19 423.457 335.467C422.941 334.737 422.682 333.94 422.682 333.076C422.682 332.34 422.873 331.766 423.256 331.355C423.638 330.944 424.171 330.703 424.855 330.633C425.539 330.562 426.331 330.676 427.229 330.974C428.551 331.412 429.587 332.057 430.338 332.907C431.096 333.753 431.565 334.709 431.746 335.774Z" fill="white"/>
<path d="M416.831 339.779C415.705 339.405 414.732 338.835 413.914 338.068C413.096 337.294 412.465 336.377 412.023 335.317C411.587 334.26 411.369 333.112 411.369 331.873C411.369 330.648 411.587 329.648 412.023 328.873C412.458 328.09 413.072 327.572 413.864 327.317C414.655 327.063 415.587 327.114 416.66 327.47C417.351 327.699 418.005 328.032 418.622 328.47C419.246 328.911 419.796 329.454 420.272 330.1C420.755 330.749 421.134 331.497 421.409 332.346C421.684 333.187 421.821 334.128 421.821 335.169V336.04L412.606 332.984V331.105L420.503 333.723L419.266 333.865C419.266 333.193 419.169 332.576 418.974 332.017C418.78 331.45 418.491 330.961 418.109 330.551C417.727 330.141 417.25 329.842 416.68 329.653C416.11 329.464 415.624 329.444 415.222 329.594C414.819 329.744 414.514 330.025 414.306 330.437C414.098 330.842 413.994 331.339 413.994 331.926V333.232C413.994 333.954 414.112 334.612 414.346 335.207C414.588 335.796 414.923 336.297 415.352 336.708C415.788 337.122 416.295 337.424 416.872 337.615C417.247 337.74 417.589 337.797 417.898 337.786C418.213 337.777 418.481 337.696 418.702 337.543C418.93 337.385 419.105 337.156 419.226 336.856L421.7 337.985C421.539 338.618 421.241 339.121 420.805 339.493C420.376 339.86 419.822 340.073 419.145 340.132C418.474 340.185 417.703 340.068 416.831 339.779Z" fill="white"/>
<path d="M399.874 333.922V318.103L405.498 319.967C406.651 320.35 407.617 320.882 408.395 321.565C409.18 322.25 409.773 323.041 410.176 323.939C410.578 324.83 410.779 325.778 410.779 326.783C410.779 327.795 410.575 328.605 410.165 329.213C409.763 329.822 409.166 330.198 408.375 330.339C407.583 330.48 406.611 330.359 405.457 329.977L401.463 328.652V326.285L405.085 327.486C405.762 327.71 406.316 327.795 406.745 327.739C407.181 327.685 407.5 327.501 407.701 327.185C407.909 326.865 408.013 326.425 408.013 325.866C408.013 325.307 407.909 324.794 407.701 324.329C407.493 323.857 407.174 323.447 406.745 323.099C406.316 322.744 405.759 322.454 405.075 322.227L402.59 321.403V334.823L399.874 333.922ZM408.294 336.714L404.663 328.333L407.62 329.314L411.332 337.722L408.294 336.714Z" fill="white"/>
<rect width="112.959" height="74.7753" transform="matrix(0.957506 0.288415 -0.957506 0.288415 243.634 303.494)" fill="url(#paint12_linear_69_370)"/>
<rect width="112.959" height="37.8946" transform="matrix(0.957506 0.288415 0 1 172.292 325.021)" fill="url(#paint13_linear_69_370)"/>
<rect width="74.9977" height="37.7487" transform="matrix(0.957506 -0.288415 0 1 280.355 357.414)" fill="url(#paint14_linear_69_370)"/>
<path d="M283.622 338.955L280.478 338.187C280.796 338.02 280.923 337.826 280.859 337.606C280.803 337.384 280.414 337.164 279.692 336.946C279.041 336.75 278.35 336.628 277.619 336.58C276.897 336.534 276.313 336.579 275.868 336.713C275.479 336.83 275.301 336.97 275.332 337.133C275.38 337.295 275.666 337.501 276.19 337.75L277.989 338.579C278.973 339.033 279.477 339.443 279.501 339.809C279.525 340.175 279.064 340.501 278.12 340.785C277.286 341.037 276.305 341.186 275.178 341.234C274.05 341.282 272.879 341.23 271.664 341.08C270.457 340.931 269.298 340.69 268.186 340.355C266.558 339.864 265.589 339.367 265.28 338.862C264.986 338.357 265.351 337.891 266.375 337.463L269.722 338.299C269.262 338.519 269.103 338.744 269.246 338.973C269.405 339.203 269.841 339.425 270.556 339.641C271.303 339.866 272.053 340.001 272.807 340.046C273.57 340.089 274.173 340.044 274.618 339.91C275.364 339.685 275.277 339.352 274.356 338.912L272.557 338.083C271.557 337.615 271.06 337.195 271.068 336.824C271.084 336.451 271.576 336.118 272.545 335.826C273.371 335.578 274.312 335.431 275.368 335.385C276.424 335.34 277.524 335.389 278.667 335.532C279.811 335.676 280.915 335.908 281.979 336.228C283.543 336.7 284.432 337.171 284.647 337.642C284.877 338.113 284.536 338.551 283.622 338.955Z" fill="white"/>
<path d="M279.22 332.828L261.473 338.175L258.34 337.231L276.088 331.884L279.22 332.828Z" fill="white"/>
<path d="M274.222 331.323L256.475 336.669L253.342 335.725L271.09 330.379L274.222 331.323Z" fill="white"/>
<path d="M248.345 334.22L261.661 330.208L264.794 331.152L251.477 335.163L248.345 334.22ZM265.103 330.118C264.603 329.968 264.341 329.788 264.317 329.58C264.293 329.372 264.516 329.197 264.984 329.056C265.461 328.913 266.044 328.844 266.735 328.852C267.426 328.859 268.021 328.938 268.522 329.088C269.014 329.237 269.272 329.415 269.296 329.623C269.32 329.831 269.097 330.006 268.629 330.147C268.152 330.29 267.569 330.359 266.878 330.351C266.187 330.344 265.596 330.267 265.103 330.118Z" fill="white"/>
<path d="M242.87 330.059L246.658 328.911L247.17 329.065L257.295 328.893L260.963 329.998L248.516 330.202L247.861 330.005L242.87 330.059ZM235.843 330.453L253.59 325.107L256.723 326.051L238.976 331.397L235.843 330.453ZM244.193 332.969L245.908 329.84L250.243 329.811L247.944 334.099L244.193 332.969Z" fill="white"/>
<path d="M227.51 328.108C226.128 327.692 225.144 327.266 224.556 326.831C223.969 326.395 223.798 325.968 224.044 325.55C224.298 325.129 224.989 324.734 226.116 324.366L229.285 325.32C228.713 325.521 228.387 325.734 228.308 325.959C228.237 326.181 228.368 326.405 228.701 326.63C229.043 326.857 229.547 327.071 230.214 327.272C230.913 327.483 231.635 327.636 232.382 327.731C233.128 327.827 233.843 327.863 234.526 327.839C235.208 327.815 235.804 327.727 236.312 327.574C236.773 327.435 237.015 327.281 237.039 327.111C237.071 326.938 236.951 326.749 236.681 326.544C236.411 326.338 236.034 326.114 235.55 325.873L234.061 325.108C232.973 324.556 232.39 324.038 232.31 323.555C232.239 323.069 232.842 322.634 234.121 322.249C235.169 321.933 236.364 321.743 237.706 321.678C239.056 321.611 240.437 321.659 241.851 321.822C243.272 321.987 244.602 322.256 245.841 322.629C247.104 323.009 247.993 323.409 248.509 323.827C249.025 324.246 249.168 324.653 248.938 325.047C248.708 325.442 248.104 325.794 247.127 326.102L244.019 325.166C244.701 324.912 244.952 324.634 244.769 324.33C244.602 324.026 244.038 323.729 243.078 323.44C242.411 323.239 241.736 323.095 241.053 323.009C240.378 322.926 239.739 322.898 239.135 322.927C238.532 322.955 238.008 323.037 237.563 323.171C237.071 323.319 236.812 323.485 236.789 323.67C236.781 323.854 236.912 324.044 237.182 324.24C237.46 324.439 237.777 324.63 238.135 324.814L239.373 325.439C239.882 325.687 240.31 325.946 240.66 326.214C241.017 326.479 241.239 326.747 241.327 327.017C241.43 327.288 241.339 327.552 241.053 327.81C240.775 328.071 240.251 328.318 239.481 328.55C238.448 328.861 237.269 329.056 235.943 329.134C234.625 329.211 233.243 329.166 231.798 328.998C230.353 328.831 228.923 328.534 227.51 328.108Z" fill="white"/>
<path d="M252.722 366.317L249.876 365.71C249.757 365.307 249.499 364.906 249.102 364.506C248.705 364.099 248.145 363.787 247.422 363.569C246.771 363.373 246.223 363.328 245.778 363.434C245.342 363.543 245.123 363.784 245.123 364.158C245.123 364.485 245.266 364.799 245.552 365.098C245.846 365.394 246.33 365.707 247.005 366.037L249.28 367.123C250.527 367.719 251.46 368.36 252.079 369.047C252.699 369.735 253.008 370.475 253.008 371.27C253.008 371.971 252.766 372.518 252.282 372.913C251.797 373.308 251.126 373.526 250.269 373.568C249.419 373.613 248.438 373.468 247.327 373.133C245.699 372.642 244.389 371.96 243.396 371.087C242.412 370.21 241.82 369.227 241.621 368.14L244.683 368.822C244.818 369.363 245.111 369.832 245.564 370.229C246.025 370.621 246.612 370.925 247.327 371.14C248.073 371.365 248.673 371.419 249.125 371.301C249.578 371.177 249.804 370.929 249.804 370.555C249.804 369.927 249.209 369.321 248.018 368.735L245.743 367.649C244.464 367.03 243.519 366.368 242.908 365.664C242.296 364.952 241.991 364.189 241.991 363.375C241.991 362.68 242.217 362.148 242.67 361.777C243.122 361.406 243.754 361.202 244.563 361.166C245.373 361.13 246.31 361.272 247.374 361.592C248.939 362.064 250.166 362.717 251.055 363.552C251.952 364.383 252.508 365.305 252.722 366.317Z" fill="white"/>
<path d="M240.352 355.892V370.811L237.219 369.867V354.948L240.352 355.892Z" fill="white"/>
<path d="M235.354 354.387V369.305L232.221 368.362V353.443L235.354 354.387Z" fill="white"/>
<path d="M227.224 366.856V355.662L230.356 356.606V367.8L227.224 366.856ZM228.796 354.564C228.296 354.413 227.867 354.143 227.509 353.755C227.152 353.367 226.973 352.977 226.973 352.583C226.973 352.182 227.152 351.896 227.509 351.723C227.867 351.55 228.296 351.539 228.796 351.69C229.288 351.838 229.713 352.106 230.07 352.494C230.428 352.882 230.606 353.273 230.606 353.667C230.606 354.068 230.428 354.354 230.07 354.527C229.713 354.7 229.288 354.712 228.796 354.564Z" fill="white"/>
<path d="M217.58 360.447L217.569 357.249L218.081 357.403L222.857 354.346L226.526 355.452L220.642 359.196L219.986 358.999L217.58 360.447ZM214.722 363.09V348.171L217.854 349.115V364.034L214.722 363.09ZM223.071 365.605L218.736 359.213L220.856 357.989L226.823 366.736L223.071 365.605Z" fill="white"/>
<path d="M206.663 360.892C205.281 360.476 204.082 359.935 203.066 359.268C202.049 358.601 201.255 357.838 200.684 356.978C200.112 356.112 199.802 355.178 199.755 354.175L202.923 355.13C202.971 355.665 203.161 356.156 203.495 356.604C203.828 357.045 204.265 357.433 204.805 357.769C205.353 358.108 205.96 358.378 206.627 358.579C207.326 358.789 207.941 358.884 208.473 358.865C209.005 358.845 209.422 358.72 209.724 358.49C210.026 358.261 210.177 357.932 210.177 357.505C210.177 357.118 210.042 356.76 209.772 356.432C209.502 356.097 209.128 355.771 208.652 355.454C208.176 355.137 207.616 354.815 206.973 354.487L204.96 353.44C203.499 352.687 202.347 351.862 201.505 350.968C200.664 350.067 200.243 349.079 200.243 348.004C200.243 347.123 200.525 346.441 201.089 345.956C201.652 345.465 202.423 345.183 203.399 345.11C204.384 345.04 205.496 345.191 206.734 345.564C207.997 345.945 209.105 346.462 210.058 347.116C211.01 347.77 211.757 348.503 212.297 349.313C212.837 350.123 213.119 350.952 213.142 351.8L210.034 350.864C209.954 350.199 209.617 349.603 209.021 349.077C208.434 348.546 207.659 348.136 206.699 347.847C206.032 347.646 205.456 347.556 204.972 347.577C204.495 347.6 204.13 347.72 203.876 347.937C203.622 348.154 203.495 348.45 203.495 348.824C203.495 349.238 203.641 349.622 203.935 349.978C204.237 350.329 204.618 350.654 205.079 350.953C205.547 351.254 206.024 351.531 206.508 351.784L208.164 352.633C208.831 352.968 209.474 353.342 210.093 353.755C210.713 354.162 211.268 354.61 211.761 355.099C212.261 355.583 212.654 356.109 212.94 356.676C213.234 357.245 213.381 357.853 213.381 358.501C213.381 359.368 213.115 360.056 212.583 360.563C212.051 361.064 211.284 361.35 210.284 361.422C209.283 361.495 208.076 361.318 206.663 360.892Z" fill="white"/>
<rect width="107.811" height="71.3676" transform="matrix(0.94639 0.323027 -0.94639 0.323027 67.5416 361.655)" fill="url(#paint15_linear_69_370)"/>
<rect width="107.811" height="40.508" transform="matrix(0.94639 0.323027 0 1 0.241852 384.666)" fill="url(#paint16_linear_69_370)"/>
<rect width="71.5799" height="40.3521" transform="matrix(0.94639 -0.323027 0 1 102.183 419.294)" fill="url(#paint17_linear_69_370)"/>
<path d="M107.132 404.441C106.141 404.103 105.493 403.741 105.186 403.354C104.885 402.966 104.921 402.575 105.292 402.183C105.67 401.792 106.374 401.421 107.406 401.069C108.426 400.72 109.511 400.481 110.661 400.35C111.817 400.217 112.958 400.196 114.084 400.287C115.211 400.377 116.245 400.583 117.189 400.906C117.796 401.113 118.274 401.342 118.622 401.594C118.976 401.848 119.158 402.115 119.17 402.397C119.188 402.681 119.002 402.972 118.613 403.27C118.23 403.566 117.605 403.862 116.738 404.158L116.012 404.405L107.91 401.639L109.476 401.105L116.419 403.475L114.871 403.261C115.432 403.069 115.833 402.874 116.074 402.675C116.322 402.474 116.396 402.275 116.296 402.08C116.195 401.885 115.895 401.702 115.393 401.531C114.892 401.359 114.347 401.254 113.757 401.214C113.167 401.173 112.581 401.19 111.997 401.265C111.419 401.337 110.885 401.457 110.396 401.624L109.308 401.996C108.706 402.201 108.294 402.412 108.069 402.63C107.857 402.847 107.828 403.058 107.981 403.264C108.14 403.471 108.473 403.661 108.981 403.834C109.311 403.947 109.659 404.034 110.024 404.094C110.396 404.157 110.773 404.189 111.156 404.191C111.552 404.193 111.944 404.164 112.333 404.103L114.252 404.934C113.539 405.08 112.775 405.162 111.961 405.178C111.159 405.194 110.343 405.141 109.511 405.018C108.692 404.895 107.898 404.703 107.132 404.441Z" fill="white"/>
<path d="M100.997 398.265L95.2121 400.239L92.8858 399.445L102.775 396.069L105.057 396.848L103.367 397.425L103.482 397.464C104.261 397.352 105.051 397.321 105.853 397.374C106.667 397.426 107.445 397.579 108.188 397.833C108.872 398.066 109.323 398.319 109.541 398.591C109.759 398.862 109.727 399.141 109.444 399.427C109.173 399.713 108.642 399.991 107.852 400.26L101.563 402.407L99.2367 401.613L105.163 399.59C105.823 399.365 106.168 399.13 106.198 398.887C106.233 398.641 105.95 398.416 105.349 398.21C104.942 398.071 104.491 397.978 103.995 397.929C103.506 397.883 103.002 397.886 102.483 397.938C101.976 397.991 101.48 398.099 100.997 398.265Z" fill="white"/>
<path d="M89.1744 398.178L99.0633 394.802L101.39 395.597L91.5007 398.972L89.1744 398.178ZM101.62 394.727C101.248 394.6 101.053 394.449 101.036 394.274C101.018 394.099 101.183 393.952 101.531 393.833C101.885 393.712 102.318 393.655 102.831 393.661C103.344 393.667 103.787 393.733 104.158 393.86C104.524 393.985 104.715 394.135 104.733 394.31C104.751 394.485 104.586 394.632 104.238 394.751C103.884 394.872 103.451 394.929 102.938 394.923C102.424 394.917 101.985 394.852 101.62 394.727Z" fill="white"/>
<path d="M100.969 393.206L87.7893 397.705L85.463 396.911L98.6423 392.412L100.969 393.206Z" fill="white"/>
<path d="M71.4911 394.666L85.0773 390.028L87.3594 390.807L85.723 391.366L85.8646 391.414C86.2184 391.374 86.64 391.344 87.1294 391.326C87.6247 391.306 88.1555 391.326 88.7216 391.387C89.2935 391.449 89.8714 391.58 90.4552 391.779C91.2159 392.039 91.7083 392.34 91.9324 392.682C92.1564 393.024 92.0709 393.386 91.6758 393.766C91.2867 394.149 90.5407 394.528 89.438 394.904C88.353 395.275 87.2533 395.529 86.1388 395.668C85.0243 395.807 83.9569 395.839 82.9368 395.765C81.9285 395.69 81.0351 395.52 80.2567 395.255C79.6965 395.063 79.3221 394.871 79.1334 394.678C78.9565 394.485 78.8857 394.304 78.9211 394.134C78.9683 393.965 79.0538 393.819 79.1776 393.697L79.0803 393.663L73.8174 395.46L71.4911 394.666ZM81.5304 394.385C82.0434 394.56 82.6095 394.659 83.2287 394.681C83.8538 394.705 84.4965 394.665 85.1569 394.56C85.8174 394.456 86.4542 394.299 87.0675 394.089C87.6808 393.88 88.1378 393.663 88.4385 393.44C88.7392 393.217 88.8542 393 88.7835 392.791C88.7127 392.581 88.4179 392.388 87.899 392.211C87.3977 392.04 86.8434 391.939 86.2361 391.909C85.6346 391.881 85.0036 391.917 84.3432 392.018C83.6945 392.118 83.0488 392.278 82.4061 392.498C81.7692 392.715 81.2975 392.937 80.9909 393.162C80.696 393.388 80.5869 393.606 80.6636 393.817C80.7461 394.027 81.0351 394.216 81.5304 394.385Z" fill="white"/>
<path d="M71.477 392.137L81.3659 388.761L83.6921 389.555L73.8032 392.931L71.477 392.137ZM83.9221 388.685C83.5506 388.559 83.356 388.408 83.3383 388.233C83.3206 388.057 83.4858 387.91 83.8337 387.792C84.1875 387.671 84.6209 387.614 85.1339 387.62C85.6469 387.626 86.0892 387.692 86.4607 387.819C86.8263 387.944 87.0179 388.094 87.0356 388.269C87.0533 388.444 86.8882 388.591 86.5403 388.71C86.1865 388.83 85.7531 388.888 85.2401 388.882C84.727 388.876 84.2877 388.81 83.9221 388.685Z" fill="white"/>
<path d="M66.1292 390.444C65.1444 390.108 64.5135 389.746 64.2363 389.357C63.9651 388.967 64.024 388.576 64.4132 388.185C64.8024 387.795 65.4953 387.43 66.4918 387.089C67.5002 386.745 68.5793 386.508 69.7292 386.377C70.879 386.246 72.023 386.228 73.1611 386.322C74.3051 386.415 75.3576 386.625 76.3188 386.954C77.1267 387.229 77.6928 387.523 78.0171 387.835C78.3414 388.147 78.4181 388.457 78.2471 388.765C78.0879 389.073 77.678 389.358 77.0176 389.62L74.7886 388.859C75.0481 388.73 75.2191 388.593 75.3016 388.448C75.3842 388.303 75.3606 388.158 75.2309 388.013C75.107 387.87 74.8564 387.735 74.479 387.606C74.0014 387.443 73.453 387.344 72.8338 387.31C72.2265 387.276 71.5837 387.306 70.9056 387.4C70.2274 387.495 69.5552 387.656 68.8889 387.884C68.2166 388.113 67.7331 388.344 67.4383 388.578C67.1493 388.809 67.052 389.032 67.1464 389.245C67.2466 389.457 67.5385 389.645 68.022 389.81C68.5351 389.985 69.1188 390.082 69.7734 390.1C70.4338 390.12 71.0795 390.057 71.7105 389.91L73.9395 390.671C73.1847 390.892 72.3591 391.033 71.4628 391.093C70.5665 391.154 69.6584 391.131 68.7385 391.027C67.8245 390.92 66.9547 390.726 66.1292 390.444Z" fill="white"/>
<path d="M68.1494 386.043L65.8143 385.397C66.0502 385.256 66.1445 385.093 66.0973 384.907C66.0561 384.72 65.7671 384.535 65.2305 384.352C64.747 384.187 64.2339 384.084 63.6914 384.044C63.1548 384.006 62.7214 384.043 62.3912 384.156C62.1023 384.254 61.9696 384.372 61.9932 384.509C62.0285 384.646 62.2408 384.819 62.63 385.028L63.9656 385.726C64.6968 386.108 65.0713 386.453 65.089 386.761C65.1067 387.069 64.7647 387.343 64.0629 387.583C63.4438 387.794 62.7155 387.92 61.8782 387.96C61.0408 388 60.1711 387.957 59.2689 387.83C58.3725 387.706 57.5116 387.502 56.6861 387.22C55.4772 386.808 54.7578 386.389 54.5278 385.964C54.3097 385.54 54.5809 385.147 55.3416 384.787L57.8271 385.49C57.4851 385.675 57.3671 385.865 57.4733 386.058C57.5912 386.251 57.9155 386.438 58.4463 386.62C59.0005 386.809 59.5578 386.922 60.118 386.961C60.6841 386.997 61.1322 386.959 61.4625 386.846C62.0168 386.657 61.9519 386.377 61.2679 386.007L59.9322 385.309C59.1892 384.915 58.8207 384.561 58.8266 384.249C58.8384 383.935 59.204 383.655 59.9234 383.41C60.5367 383.2 61.2354 383.077 62.0197 383.038C62.804 383 63.6207 383.041 64.4698 383.162C65.319 383.283 66.1386 383.478 66.9288 383.748C68.0904 384.145 68.7509 384.541 68.9101 384.938C69.0811 385.334 68.8275 385.703 68.1494 386.043Z" fill="white"/>
<path d="M49.3746 384.592L59.2636 381.216L61.5898 382.01L51.7009 385.386L49.3746 384.592ZM61.8198 381.14C61.4483 381.014 61.2537 380.863 61.236 380.687C61.2183 380.512 61.3834 380.365 61.7314 380.247C62.0852 380.126 62.5186 380.068 63.0316 380.074C63.5446 380.081 63.9869 380.147 64.3584 380.274C64.724 380.399 64.9156 380.549 64.9333 380.724C64.951 380.899 64.7859 381.046 64.438 381.165C64.0842 381.285 63.6508 381.343 63.1377 381.337C62.6247 381.331 62.1854 381.265 61.8198 381.14Z" fill="white"/>
<path d="M41.8509 382.023L38.5074 380.882L40.5772 380.175L43.7969 381.274C44.7109 381.587 45.6396 381.791 46.5831 381.887C47.5384 381.984 48.5054 381.97 49.4843 381.845C50.4691 381.722 51.4656 381.489 52.474 381.145C53.4823 380.8 54.1664 380.462 54.5261 380.13C54.8858 379.798 54.927 379.472 54.6499 379.152C54.3786 378.83 53.7949 378.516 52.8986 378.21L49.5462 377.065L51.616 376.359L55.1098 377.551C56.4189 377.998 57.2799 378.471 57.6926 378.971C58.1113 379.472 58.0818 379.977 57.6042 380.486C57.1265 380.996 56.2037 381.484 54.8356 381.951C53.4676 382.418 52.0347 382.734 50.5369 382.899C49.045 383.062 47.5561 383.071 46.0701 382.926C44.5959 382.781 43.1895 382.48 41.8509 382.023ZM52.9428 376.812L39.7635 381.311L37.3753 380.495L50.5546 375.996L52.9428 376.812Z" fill="white"/>
<path d="M81.7976 439.09C80.8069 438.752 79.9519 438.263 79.2325 437.624C78.5131 436.98 77.9588 436.229 77.5696 435.372C77.1863 434.516 76.9946 433.597 76.9946 432.614C76.9946 431.642 77.1863 430.856 77.5696 430.257C77.9529 429.652 78.4924 429.263 79.1882 429.091C79.8841 428.918 80.7037 428.993 81.6472 429.315C82.2546 429.523 82.8295 429.811 83.372 430.182C83.9204 430.555 84.4039 431.006 84.8226 431.537C85.2472 432.069 85.5803 432.677 85.8221 433.361C86.0639 434.039 86.1848 434.791 86.1848 435.616V436.307L78.0826 433.541V432.05L85.026 434.42L83.9381 434.487C83.9381 433.953 83.8526 433.461 83.6816 433.009C83.5106 432.552 83.257 432.154 82.9209 431.814C82.5848 431.475 82.1661 431.22 81.6649 431.048C81.1637 430.877 80.7361 430.844 80.3823 430.948C80.0285 431.052 79.7602 431.263 79.5774 431.583C79.3946 431.897 79.3032 432.287 79.3032 432.753V433.79C79.3032 434.362 79.4064 434.889 79.6128 435.37C79.8251 435.847 80.1199 436.256 80.4973 436.598C80.8806 436.943 81.3258 437.201 81.8329 437.375C82.1632 437.487 82.4639 437.545 82.7352 437.548C83.0123 437.552 83.2482 437.498 83.4428 437.385C83.6433 437.268 83.7966 437.093 83.9027 436.859L86.0786 437.847C85.9371 438.343 85.6747 438.731 85.2914 439.01C84.914 439.286 84.4275 439.434 83.832 439.456C83.2423 439.473 82.5641 439.351 81.7976 439.09Z" fill="white"/>
<path d="M69.6832 429.259V434.769L67.3569 433.975V424.555L69.639 425.334V426.943L69.754 426.982C69.978 426.531 70.3289 426.232 70.8065 426.086C71.2901 425.937 71.9033 425.989 72.6463 426.243C73.3304 426.476 73.9259 426.817 74.4331 427.265C74.9402 427.714 75.3323 428.252 75.6095 428.88C75.8925 429.505 76.034 430.194 76.034 430.946V436.937L73.7078 436.143V430.498C73.7078 429.868 73.5367 429.319 73.1947 428.848C72.8527 428.372 72.381 428.031 71.7795 427.826C71.3726 427.687 71.01 427.647 70.6916 427.707C70.379 427.769 70.1314 427.929 69.9486 428.186C69.7717 428.441 69.6832 428.798 69.6832 429.259Z" fill="white"/>
<path d="M63.6455 432.708V423.288L65.9718 424.082V433.502L63.6455 432.708ZM64.8131 422.364C64.4416 422.237 64.1232 422.01 63.8578 421.684C63.5924 421.357 63.4598 421.028 63.4598 420.697C63.4598 420.36 63.5924 420.119 63.8578 419.973C64.1232 419.828 64.4416 419.819 64.8131 419.945C65.1787 420.07 65.4942 420.296 65.7595 420.622C66.0249 420.949 66.1575 421.278 66.1575 421.609C66.1575 421.946 66.0249 422.187 65.7595 422.333C65.4942 422.478 65.1787 422.488 64.8131 422.364Z" fill="white"/>
<path d="M62.2603 419.681V432.235L59.9341 431.441V418.887L62.2603 419.681Z" fill="white"/>
<path d="M49.6595 431.455V418.514L51.9416 419.293V420.851L52.0831 420.9C52.201 420.715 52.3691 420.531 52.5873 420.347C52.8054 420.158 53.1003 420.034 53.4718 419.975C53.8492 419.918 54.3298 419.99 54.9135 420.189C55.6742 420.449 56.3612 420.869 56.9745 421.449C57.5877 422.029 58.0742 422.74 58.4339 423.582C58.7995 424.425 58.9823 425.372 58.9823 426.423C58.9823 427.456 58.8054 428.275 58.4516 428.879C58.0978 429.483 57.6113 429.87 56.9922 430.041C56.3789 430.208 55.6831 430.158 54.9047 429.893C54.3445 429.701 53.8757 429.451 53.4983 429.143C53.1268 428.831 52.8261 428.509 52.5961 428.178C52.372 427.843 52.201 427.54 52.0831 427.269L51.9858 427.236V432.25L49.6595 431.455ZM54.2678 427.855C54.7809 428.03 55.2084 428.044 55.5504 427.897C55.8983 427.752 56.1607 427.479 56.3376 427.079C56.5145 426.679 56.603 426.186 56.603 425.602C56.603 425.018 56.5145 424.468 56.3376 423.953C56.1607 423.438 55.9012 422.992 55.5592 422.617C55.2172 422.242 54.7868 421.966 54.2678 421.789C53.7666 421.618 53.342 421.596 52.9941 421.725C52.6521 421.855 52.3897 422.116 52.2069 422.509C52.03 422.898 51.9416 423.399 51.9416 424.011C51.9416 424.618 52.03 425.181 52.2069 425.702C52.3897 426.22 52.6551 426.667 53.003 427.044C53.3509 427.416 53.7725 427.686 54.2678 427.855Z" fill="white"/>
<path d="M45.9481 426.666V417.246L48.2744 418.041V427.46L45.9481 426.666ZM47.1156 416.322C46.7441 416.195 46.4257 415.969 46.1604 415.642C45.895 415.316 45.7623 414.987 45.7623 414.655C45.7623 414.318 45.895 414.077 46.1604 413.932C46.4257 413.786 46.7441 413.777 47.1156 413.904C47.4812 414.029 47.7967 414.254 48.0621 414.581C48.3274 414.907 48.4601 415.236 48.4601 415.568C48.4601 415.905 48.3274 416.146 48.0621 416.291C47.7967 416.437 47.4812 416.447 47.1156 416.322Z" fill="white"/>
<path d="M40.7949 425.093C39.8101 424.756 38.9639 424.263 38.2563 423.611C37.5487 422.954 37.0062 422.196 36.6288 421.336C36.2514 420.477 36.0627 419.573 36.0627 418.624C36.0627 417.663 36.2543 416.883 36.6376 416.284C37.0209 415.685 37.5664 415.301 38.274 415.132C38.9816 414.958 39.816 415.035 40.7772 415.363C41.585 415.639 42.2985 416.023 42.9177 416.515C43.5369 417.008 44.0292 417.572 44.3948 418.208C44.7663 418.84 44.9786 419.505 45.0317 420.203L42.8027 419.442C42.7437 419.118 42.6288 418.807 42.4577 418.507C42.2867 418.207 42.0627 417.939 41.7855 417.704C41.5143 417.471 41.1899 417.29 40.8125 417.162C40.3349 416.999 39.9162 416.979 39.5565 417.104C39.2027 417.224 38.9256 417.478 38.7251 417.865C38.5246 418.251 38.4243 418.762 38.4243 419.396C38.4243 420.037 38.5216 420.623 38.7162 421.156C38.9108 421.683 39.188 422.134 39.5477 422.51C39.9074 422.88 40.329 423.147 40.8125 423.312C41.3256 423.488 41.759 423.492 42.1128 423.327C42.4725 423.163 42.7025 422.845 42.8027 422.374L45.0317 423.135C44.9786 423.785 44.7722 424.305 44.4125 424.693C44.0528 425.081 43.5663 425.317 42.9531 425.4C42.3398 425.477 41.6204 425.374 40.7949 425.093Z" fill="white"/>
<path d="M35.3586 416.134L33.2446 415.623C33.1562 415.284 32.9645 414.946 32.6697 414.609C32.3748 414.267 31.9591 414.005 31.4225 413.821C30.939 413.656 30.5321 413.619 30.2019 413.708C29.8776 413.8 29.7154 414.003 29.7154 414.317C29.7154 414.592 29.8215 414.856 30.0338 415.108C30.252 415.357 30.6117 415.62 31.1129 415.898L32.8024 416.812C33.7282 417.313 34.421 417.853 34.881 418.431C35.3409 419.01 35.5709 419.633 35.5709 420.301C35.5709 420.891 35.3911 421.352 35.0313 421.684C34.6716 422.017 34.1734 422.2 33.5365 422.236C32.9056 422.273 32.1773 422.151 31.3518 421.869C30.1429 421.456 29.1699 420.883 28.4328 420.148C27.7016 419.41 27.2623 418.583 27.1149 417.668L29.3881 418.241C29.4884 418.697 29.7066 419.091 30.0427 419.425C30.3847 419.755 30.821 420.011 31.3518 420.192C31.9061 420.382 32.3513 420.427 32.6874 420.328C33.0235 420.224 33.1916 420.014 33.1916 419.7C33.1916 419.172 32.7493 418.661 31.8648 418.168L30.1753 417.255C29.226 416.734 28.5242 416.177 28.0702 415.584C27.6161 414.985 27.3891 414.343 27.3891 413.658C27.3891 413.074 27.5572 412.625 27.8933 412.313C28.2294 412.001 28.6982 411.83 29.2997 411.799C29.9011 411.769 30.597 411.888 31.3871 412.158C32.5488 412.554 33.4599 413.104 34.1203 413.807C34.7866 414.506 35.1994 415.282 35.3586 416.134Z" fill="white"/>
<path d="M23.8457 419.121V409.701L26.172 410.496V419.915L23.8457 419.121ZM25.0133 408.777C24.6418 408.65 24.3234 408.424 24.058 408.097C23.7927 407.771 23.66 407.442 23.66 407.11C23.66 406.773 23.7927 406.532 24.058 406.387C24.3234 406.241 24.6418 406.232 25.0133 406.359C25.3789 406.484 25.6944 406.709 25.9597 407.036C26.2251 407.362 26.3578 407.691 26.3578 408.023C26.3578 408.36 26.2251 408.601 25.9597 408.746C25.6944 408.892 25.3789 408.902 25.0133 408.777Z" fill="white"/>
<path d="M16.322 416.553L12.9785 415.412V413.44L16.1982 414.539C17.1122 414.851 17.8758 414.954 18.4891 414.849C19.1083 414.74 19.5711 414.418 19.8778 413.883C20.1903 413.349 20.3466 412.602 20.3466 411.641C20.3466 410.681 20.1933 409.831 19.8866 409.091C19.58 408.352 19.123 407.721 18.5156 407.199C17.9083 406.672 17.1564 406.255 16.2601 405.949L12.9078 404.805V402.833L16.4016 404.026C17.7107 404.473 18.8341 405.106 19.7716 405.926C20.7151 406.748 21.4404 407.715 21.9476 408.826C22.4547 409.937 22.7082 411.144 22.7082 412.447C22.7082 413.751 22.4547 414.787 21.9476 415.558C21.4404 416.323 20.7092 416.795 19.7539 416.975C18.8046 417.15 17.6606 417.01 16.322 416.553ZM14.2346 403.286V415.84L11.8464 415.025V402.471L14.2346 403.286Z" fill="white"/>
<defs>
<linearGradient id="paint0_linear_69_370" x1="60.8375" y1="0" x2="60.8375" y2="80.5449" gradientUnits="userSpaceOnUse">
<stop stop-color="#3B96F1"/>
<stop offset="1" stop-color="#053BE5"/>
</linearGradient>
<linearGradient id="paint1_linear_69_370" x1="13.8699" y1="18.5757" x2="106.363" y2="34.7465" gradientUnits="userSpaceOnUse">
<stop stop-color="#3B96F1"/>
<stop offset="1" stop-color="#053BE5"/>
</linearGradient>
<linearGradient id="paint2_linear_69_370" x1="64.738" y1="44.8976" x2="73.3309" y2="19.0266" gradientUnits="userSpaceOnUse">
<stop stop-color="#053BE5"/>
<stop offset="1" stop-color="#3B96F1"/>
</linearGradient>
<linearGradient id="paint3_linear_69_370" x1="62.6152" y1="0" x2="62.6152" y2="82.8984" gradientUnits="userSpaceOnUse">
<stop stop-color="#3B96F1"/>
<stop offset="1" stop-color="#053BE5"/>
</linearGradient>
<linearGradient id="paint4_linear_69_370" x1="14.2752" y1="18.4902" x2="109.276" y2="35.6638" gradientUnits="userSpaceOnUse">
<stop stop-color="#3B96F1"/>
<stop offset="1" stop-color="#053BE5"/>
</linearGradient>
<linearGradient id="paint5_linear_69_370" x1="66.6296" y1="44.691" x2="74.9553" y2="18.7725" gradientUnits="userSpaceOnUse">
<stop stop-color="#053BE5"/>
<stop offset="1" stop-color="#3B96F1"/>
</linearGradient>
<linearGradient id="paint6_linear_69_370" x1="63.693" y1="0" x2="63.693" y2="84.3254" gradientUnits="userSpaceOnUse">
<stop stop-color="#3B96F1"/>
<stop offset="1" stop-color="#053BE5"/>
</linearGradient>
<linearGradient id="paint7_linear_69_370" x1="14.5209" y1="19.0287" x2="111.227" y2="36.3084" gradientUnits="userSpaceOnUse">
<stop stop-color="#3B96F1"/>
<stop offset="1" stop-color="#053BE5"/>
</linearGradient>
<linearGradient id="paint8_linear_69_370" x1="67.7766" y1="45.9927" x2="76.4261" y2="19.3779" gradientUnits="userSpaceOnUse">
<stop stop-color="#053BE5"/>
<stop offset="1" stop-color="#3B96F1"/>
</linearGradient>
<linearGradient id="paint9_linear_69_370" x1="60.3108" y1="0" x2="60.3108" y2="79.8475" gradientUnits="userSpaceOnUse">
<stop stop-color="#3B96F1"/>
<stop offset="1" stop-color="#053BE5"/>
</linearGradient>
<linearGradient id="paint10_linear_69_370" x1="13.7499" y1="18.1965" x2="105.376" y2="34.4081" gradientUnits="userSpaceOnUse">
<stop stop-color="#3B96F1"/>
<stop offset="1" stop-color="#053BE5"/>
</linearGradient>
<linearGradient id="paint11_linear_69_370" x1="64.1775" y1="43.9812" x2="72.5147" y2="18.5787" gradientUnits="userSpaceOnUse">
<stop stop-color="#053BE5"/>
<stop offset="1" stop-color="#3B96F1"/>
</linearGradient>
<linearGradient id="paint12_linear_69_370" x1="56.4796" y1="0" x2="56.4796" y2="74.7753" gradientUnits="userSpaceOnUse">
<stop stop-color="#3B96F1"/>
<stop offset="1" stop-color="#053BE5"/>
</linearGradient>
<linearGradient id="paint13_linear_69_370" x1="12.8764" y1="15.6179" x2="98.1889" y2="32.0874" gradientUnits="userSpaceOnUse">
<stop stop-color="#3B96F1"/>
<stop offset="1" stop-color="#053BE5"/>
</linearGradient>
<linearGradient id="paint14_linear_69_370" x1="60.1007" y1="37.7487" x2="66.7627" y2="15.6014" gradientUnits="userSpaceOnUse">
<stop stop-color="#053BE5"/>
<stop offset="1" stop-color="#3B96F1"/>
</linearGradient>
<linearGradient id="paint15_linear_69_370" x1="53.9057" y1="0" x2="53.9057" y2="71.3676" gradientUnits="userSpaceOnUse">
<stop stop-color="#3B96F1"/>
<stop offset="1" stop-color="#053BE5"/>
</linearGradient>
<linearGradient id="paint16_linear_69_370" x1="12.2896" y1="16.695" x2="94.3119" y2="30.8327" gradientUnits="userSpaceOnUse">
<stop stop-color="#3B96F1"/>
<stop offset="1" stop-color="#053BE5"/>
</linearGradient>
<linearGradient id="paint17_linear_69_370" x1="57.3618" y1="40.3521" x2="65.1729" y2="17.1668" gradientUnits="userSpaceOnUse">
<stop stop-color="#053BE5"/>
<stop offset="1" stop-color="#3B96F1"/>
</linearGradient>
</defs>
</svg>
