<svg preserveAspectRatio="none" width="100%" height="100%" overflow="visible" style="display: block;" viewBox="0 0 128 12.7258" fill="none" xmlns="http://www.w3.org/2000/svg">
<g id="Logo">
<path id="Vector" d="M123.888 12.7258C123.129 12.7258 122.399 12.6295 121.697 12.437C121.006 12.2331 120.456 11.9895 120.049 11.7064L120.864 10.0923C121.272 10.3528 121.759 10.568 122.325 10.7379C122.892 10.9078 123.458 10.9928 124.024 10.9928C124.693 10.9928 125.174 10.9022 125.468 10.7209C125.774 10.5397 125.927 10.2962 125.927 9.99034C125.927 9.74115 125.825 9.55426 125.621 9.42966C125.417 9.29374 125.151 9.1918 124.823 9.12383C124.494 9.05587 124.126 8.99358 123.718 8.93694C123.322 8.88031 122.92 8.80668 122.512 8.71607C122.116 8.61412 121.753 8.47254 121.425 8.29131C121.096 8.09875 120.83 7.84389 120.626 7.52674C120.422 7.20958 120.32 6.79049 120.32 6.26945C120.32 5.69178 120.485 5.19339 120.813 4.7743C121.142 4.34387 121.6 4.01539 122.189 3.78885C122.79 3.55099 123.498 3.43205 124.313 3.43205C124.925 3.43205 125.542 3.50002 126.165 3.63594C126.788 3.77186 127.303 3.96442 127.711 4.21361L126.896 5.8277C126.465 5.56718 126.029 5.39161 125.587 5.301C125.157 5.19906 124.727 5.14808 124.296 5.14808C123.65 5.14808 123.169 5.24436 122.852 5.43692C122.546 5.62948 122.393 5.87301 122.393 6.16751C122.393 6.43935 122.495 6.64324 122.699 6.77916C122.903 6.91508 123.169 7.02269 123.498 7.10198C123.826 7.18127 124.188 7.24923 124.585 7.30586C124.993 7.35117 125.395 7.4248 125.791 7.52674C126.188 7.62868 126.55 7.77027 126.879 7.9515C127.218 8.1214 127.49 8.36493 127.694 8.68208C127.898 8.99924 128 9.41267 128 9.92238C128 10.4887 127.83 10.9815 127.49 11.4005C127.162 11.8196 126.692 12.1481 126.08 12.386C125.468 12.6125 124.738 12.7258 123.888 12.7258Z" fill="var(--fill-0, white)"/>
<path id="Vector_2" d="M109.454 12.6069V3.534H111.476V5.98061L111.119 5.23304C111.436 4.65536 111.895 4.21361 112.495 3.90779C113.107 3.59063 113.809 3.43205 114.602 3.43205C115.327 3.43205 115.972 3.57364 116.539 3.85681C117.116 4.13999 117.57 4.57607 117.898 5.16507C118.226 5.74275 118.391 6.49032 118.391 7.40781V12.6069H116.267V7.67965C116.267 6.87544 116.074 6.27511 115.689 5.87867C115.315 5.48223 114.789 5.28401 114.109 5.28401C113.611 5.28401 113.169 5.38595 112.784 5.58983C112.399 5.79372 112.099 6.09955 111.883 6.50731C111.68 6.90376 111.578 7.40781 111.578 8.01946V12.6069H109.454Z" fill="var(--fill-0, white)"/>
<path id="Vector_3" d="M102.402 12.6069V3.534H104.424V6.03158L104.186 5.301C104.458 4.68934 104.883 4.22494 105.46 3.90779C106.049 3.59063 106.78 3.43205 107.652 3.43205V5.45391C107.562 5.43126 107.477 5.41993 107.397 5.41993C107.318 5.4086 107.239 5.40294 107.159 5.40294C106.355 5.40294 105.715 5.6408 105.24 6.11654C104.764 6.58094 104.526 7.27755 104.526 8.20635V12.6069H102.402Z" fill="var(--fill-0, white)"/>
<path id="Vector_4" d="M96.0975 12.7258C95.0894 12.7258 94.2059 12.5276 93.447 12.1311C92.6994 11.7234 92.1161 11.1683 91.697 10.4661C91.2892 9.76381 91.0853 8.96526 91.0853 8.07043C91.0853 7.16428 91.2835 6.36573 91.68 5.67479C92.0877 4.97252 92.6428 4.42316 93.345 4.02672C94.0586 3.63028 94.8685 3.43205 95.7747 3.43205C96.6582 3.43205 97.4454 3.62461 98.1363 4.00973C98.8273 4.39484 99.371 4.93854 99.7674 5.64081C100.164 6.34307 100.362 7.16994 100.362 8.1214C100.362 8.21202 100.356 8.31396 100.345 8.42723C100.345 8.5405 100.339 8.6481 100.328 8.75005H92.7674V7.33984H99.2067L98.3742 7.78159C98.3855 7.26056 98.2779 6.80182 98.0514 6.40537C97.8248 6.00893 97.5133 5.69744 97.1169 5.4709C96.7318 5.24436 96.2844 5.13109 95.7747 5.13109C95.2536 5.13109 94.7949 5.24436 94.3984 5.4709C94.0133 5.69744 93.7075 6.01459 93.481 6.42236C93.2657 6.81881 93.1581 7.28887 93.1581 7.83257V8.17237C93.1581 8.71607 93.2827 9.19746 93.5319 9.61656C93.7811 10.0357 94.1323 10.3585 94.5853 10.585C95.0384 10.8115 95.5594 10.9248 96.1484 10.9248C96.6582 10.9248 97.1169 10.8455 97.5247 10.687C97.9324 10.5284 98.2949 10.2792 98.6121 9.93937L99.7504 11.2476C99.3426 11.7234 98.8273 12.0915 98.2043 12.352C97.5926 12.6012 96.8904 12.7258 96.0975 12.7258Z" fill="var(--fill-0, white)"/>
<path id="Vector_5" d="M88.3456 12.7258C87.3489 12.7258 86.5786 12.4709 86.0349 11.9612C85.4912 11.4402 85.2194 10.6756 85.2194 9.66753V1.52914H87.3432V9.61656C87.3432 10.047 87.4508 10.3811 87.666 10.619C87.8926 10.8569 88.204 10.9758 88.6005 10.9758C89.0762 10.9758 89.4727 10.8512 89.7898 10.602L90.3845 12.1141C90.1353 12.318 89.8295 12.4709 89.467 12.5729C89.1045 12.6748 88.7307 12.7258 88.3456 12.7258ZM83.7242 5.23304V3.534H89.7728V5.23304H83.7242Z" fill="var(--fill-0, white)"/>
<path id="Vector_6" d="M73.2995 12.6069V3.534H75.3213V5.98061L74.9645 5.23304C75.2817 4.65536 75.7404 4.21361 76.3407 3.90779C76.9524 3.59063 77.6547 3.43205 78.4475 3.43205C79.1725 3.43205 79.8181 3.57364 80.3844 3.85681C80.9621 4.13999 81.4152 4.57607 81.7437 5.16507C82.0722 5.74275 82.2364 6.49032 82.2364 7.40781V12.6069H80.1126V7.67965C80.1126 6.87544 79.92 6.27511 79.5349 5.87867C79.1611 5.48223 78.6344 5.28401 77.9548 5.28401C77.4564 5.28401 77.0147 5.38595 76.6296 5.58983C76.2444 5.79372 75.9443 6.09955 75.7291 6.50731C75.5252 6.90376 75.4233 7.40781 75.4233 8.01946V12.6069H73.2995Z" fill="var(--fill-0, white)"/>
<path id="Vector_7" d="M68.0777 12.6069V0.713595H70.2864V12.6069H68.0777Z" fill="var(--fill-0, white)"/>
<path id="Vector_8" d="M64.4054 12.7258C64.0202 12.7258 63.6918 12.5955 63.4199 12.335C63.1481 12.0632 63.0121 11.7234 63.0121 11.3156C63.0121 10.8852 63.1481 10.5454 63.4199 10.2962C63.6918 10.0357 64.0202 9.9054 64.4054 9.9054C64.7905 9.9054 65.119 10.0357 65.3908 10.2962C65.6627 10.5454 65.7986 10.8852 65.7986 11.3156C65.7986 11.7234 65.6627 12.0632 65.3908 12.335C65.119 12.5955 64.7905 12.7258 64.4054 12.7258Z" fill="var(--fill-0, white)"/>
<path id="Vector_9" d="M57.4211 12.7258C56.413 12.7258 55.5295 12.5276 54.7706 12.1311C54.023 11.7234 53.4397 11.1683 53.0206 10.4661C52.6128 9.76381 52.409 8.96526 52.409 8.07043C52.409 7.16428 52.6072 6.36573 53.0036 5.67479C53.4114 4.97252 53.9664 4.42316 54.6687 4.02672C55.3823 3.63028 56.1921 3.43205 57.0983 3.43205C57.9818 3.43205 58.769 3.62461 59.46 4.00973C60.1509 4.39484 60.6946 4.93854 61.091 5.64081C61.4875 6.34307 61.6857 7.16994 61.6857 8.1214C61.6857 8.21202 61.68 8.31396 61.6687 8.42723C61.6687 8.5405 61.663 8.6481 61.6517 8.75005H54.091V7.33984H60.5304L59.6978 7.78159C59.7092 7.26056 59.6015 6.80182 59.375 6.40537C59.1485 6.00893 58.837 5.69744 58.4405 5.4709C58.0554 5.24436 57.608 5.13109 57.0983 5.13109C56.5773 5.13109 56.1185 5.24436 55.7221 5.4709C55.337 5.69744 55.0311 6.01459 54.8046 6.42236C54.5894 6.81881 54.4818 7.28887 54.4818 7.83257V8.17237C54.4818 8.71607 54.6064 9.19746 54.8556 9.61656C55.1048 10.0357 55.4559 10.3585 55.909 10.585C56.362 10.8115 56.8831 10.9248 57.4721 10.9248C57.9818 10.9248 58.4405 10.8455 58.8483 10.687C59.2561 10.5284 59.6185 10.2792 59.9357 9.93937L61.074 11.2476C60.6663 11.7234 60.1509 12.0915 59.5279 12.352C58.9163 12.6012 58.214 12.7258 57.4211 12.7258Z" fill="var(--fill-0, white)"/>
<path id="Vector_10" d="M49.6693 12.7258C48.6725 12.7258 47.9023 12.4709 47.3586 11.9612C46.8149 11.4402 46.543 10.6756 46.543 9.66753V1.52914H48.6668V9.61656C48.6668 10.047 48.7744 10.3811 48.9897 10.619C49.2162 10.8569 49.5277 10.9758 49.9241 10.9758C50.3999 10.9758 50.7963 10.8512 51.1135 10.602L51.7081 12.1141C51.4589 12.318 51.1531 12.4709 50.7906 12.5729C50.4282 12.6748 50.0544 12.7258 49.6693 12.7258ZM45.0479 5.23304V3.534H51.0965V5.23304H45.0479Z" fill="var(--fill-0, white)"/>
<path id="Vector_11" d="M41.5237 12.6069V10.7719L41.4048 10.3811V7.16994C41.4048 6.54696 41.2179 6.06556 40.8441 5.72576C40.4703 5.37462 39.904 5.19906 39.145 5.19906C38.6353 5.19906 38.1313 5.27834 37.6329 5.43692C37.1458 5.5955 36.7324 5.81637 36.3926 6.09955L35.5601 4.55342C36.0471 4.17963 36.6248 3.90212 37.2931 3.72089C37.9727 3.52833 38.675 3.43205 39.3999 3.43205C40.7138 3.43205 41.7276 3.74921 42.4412 4.38352C43.1661 5.0065 43.5286 5.97495 43.5286 7.28887V12.6069H41.5237ZM38.6693 12.7258C37.9897 12.7258 37.395 12.6125 36.8853 12.386C36.3756 12.1481 35.9792 11.8253 35.696 11.4175C35.4242 10.9984 35.2882 10.5284 35.2882 10.0073C35.2882 9.49762 35.4072 9.03888 35.645 8.63111C35.8942 8.22334 36.2963 7.90053 36.8513 7.66266C37.4064 7.4248 38.1426 7.30586 39.0601 7.30586H41.6936V8.71607H39.213C38.4881 8.71607 38.001 8.835 37.7518 9.07286C37.5026 9.2994 37.378 9.58258 37.378 9.92238C37.378 10.3075 37.531 10.6133 37.8368 10.8399C38.1426 11.0664 38.5674 11.1797 39.1111 11.1797C39.6321 11.1797 40.0965 11.0607 40.5043 10.8229C40.9234 10.585 41.2235 10.2339 41.4048 9.76947L41.7616 11.0437C41.5577 11.5761 41.1896 11.9895 40.6572 12.284C40.1362 12.5785 39.4735 12.7258 38.6693 12.7258Z" fill="var(--fill-0, white)"/>
<path id="Vector_12" d="M28.9056 12.6069L25.0148 3.53401H27.2235L30.5706 11.5365H29.4832L32.9493 3.53401H34.9881L31.0973 12.6069H28.9056Z" fill="var(--fill-0, white)"/>
<path id="Vector_13" d="M20.3542 12.7258C19.3461 12.7258 18.4626 12.5276 17.7037 12.1311C16.9561 11.7234 16.3728 11.1683 15.9537 10.4661C15.5459 9.76381 15.342 8.96526 15.342 8.07043C15.342 7.16428 15.5403 6.36573 15.9367 5.67479C16.3445 4.97252 16.8995 4.42316 17.6018 4.02672C18.3154 3.63028 19.1252 3.43205 20.0314 3.43205C20.9149 3.43205 21.7021 3.62461 22.393 4.00973C23.084 4.39484 23.6277 4.93854 24.0241 5.64081C24.4206 6.34307 24.6188 7.16994 24.6188 8.1214C24.6188 8.21202 24.6131 8.31396 24.6018 8.42723C24.6018 8.5405 24.5961 8.6481 24.5848 8.75005H17.0241V7.33984H23.4634L22.6309 7.78159C22.6422 7.26056 22.5346 6.80182 22.3081 6.40537C22.0816 6.00893 21.7701 5.69744 21.3736 5.4709C20.9885 5.24436 20.5411 5.13109 20.0314 5.13109C19.5103 5.13109 19.0516 5.24436 18.6552 5.4709C18.27 5.69744 17.9642 6.01459 17.7377 6.42236C17.5225 6.81881 17.4149 7.28887 17.4149 7.83257V8.17237C17.4149 8.71607 17.5395 9.19746 17.7887 9.61656C18.0378 10.0357 18.389 10.3585 18.8421 10.585C19.2951 10.8115 19.8162 10.9248 20.4052 10.9248C20.9149 10.9248 21.3736 10.8455 21.7814 10.687C22.1892 10.5284 22.5516 10.2792 22.8688 9.93937L24.0071 11.2476C23.5994 11.7234 23.084 12.0915 22.461 12.352C21.8494 12.6012 21.1471 12.7258 20.3542 12.7258Z" fill="var(--fill-0, white)"/>
<path id="Vector_14" d="M11.1783 12.6069V1.74817e-06H13.3021V12.6069H11.1783Z" fill="var(--fill-0, white)"/>
<path id="Vector_15" d="M0 12.6069V0.713595H8.68209V2.56555H2.20875V10.7549H8.91995V12.6069H0ZM2.03885 7.47577V5.6578H7.9515V7.47577H2.03885Z" fill="var(--fill-0, white)"/>
</g>
</svg>
