<svg width="173" height="100" viewBox="0 0 173 100" fill="none" xmlns="http://www.w3.org/2000/svg">
<rect x="0.5" y="0.5" width="172" height="99" fill="#111111" fill-opacity="0.5" stroke="url(#paint0_linear_179_655)"/>
<g clip-path="url(#clip0_179_655)">
<path d="M117.06 58.7629C110.263 58.7629 104.752 53.3109 104.752 46.5852C104.752 39.8583 110.263 34.4063 117.06 34.4063C123.856 34.4063 129.368 39.8583 129.368 46.5852C129.368 53.3109 123.856 58.7629 117.06 58.7629ZM117.06 30.5547C108.094 30.5547 100.824 37.748 100.824 46.6193C100.824 55.4917 108.094 62.6851 117.06 62.6851C126.027 62.6851 133.296 55.4917 133.296 46.6193C133.296 37.748 126.027 30.5547 117.06 30.5547Z" fill="white"/>
<path d="M86.5035 58.7151C79.7063 58.7151 74.1951 53.2619 74.1951 46.5362C74.1951 39.8105 79.7063 34.3573 86.5035 34.3573C93.2996 34.3573 98.8108 39.8105 98.8108 46.5362C98.8108 53.2619 93.2996 58.7151 86.5035 58.7151ZM86.5035 30.5068C77.5367 30.5068 70.2668 37.699 70.2668 46.5703C70.2668 55.4439 77.5367 62.6372 86.5035 62.6372C95.4715 62.6372 102.739 55.4439 102.739 46.5703C102.739 37.699 95.4715 30.5068 86.5035 30.5068Z" fill="white"/>
<path d="M98.799 46.5055C98.799 53.2312 93.2878 58.6844 86.4918 58.6844C79.6945 58.6844 74.1833 53.2312 74.1833 46.5055C74.1833 39.7787 79.6945 34.3267 86.4918 34.3267C93.2878 34.3267 98.799 39.7787 98.799 46.5055Z" fill="#EE3B32"/>
<path d="M120.137 49.6367C119.349 50.4169 118.261 50.8975 117.06 50.8975C115.847 50.8975 114.75 50.4063 113.959 49.6132C113.181 48.8342 112.7 47.7637 112.7 46.5817C112.7 45.3938 113.184 44.3163 113.972 43.5361C114.76 42.7524 115.854 42.2671 117.06 42.2671C118.255 42.2671 119.337 42.743 120.124 43.5126C121.059 42.5867 121.996 41.6596 122.933 40.7349C121.426 39.2532 119.35 38.3379 117.059 38.3379C114.755 38.3379 112.67 39.2626 111.164 40.7572C109.658 42.2495 108.725 44.3092 108.725 46.5829C108.725 48.8494 109.65 50.9045 111.148 52.3944C112.656 53.8996 114.747 54.8302 117.059 54.8302C119.357 54.8302 121.44 53.909 122.948 52.4179C122.011 51.4897 121.073 50.5626 120.137 49.6367Z" fill="white"/>
<path d="M74.1833 27.1802H70.21V43.367H74.1833V27.1802Z" fill="white"/>
<path d="M72.1764 46.6204C72.1764 46.7473 72.1752 46.886 72.1705 47.0352C72.1705 47.0693 72.1693 47.1022 72.1681 47.1374C72.1669 47.2021 72.1634 47.2655 72.161 47.3313C72.161 47.3372 72.161 47.3442 72.1586 47.3501C72.1574 47.4089 72.1527 47.4711 72.1503 47.5346C72.1456 47.6156 72.142 47.6967 72.1349 47.7778C72.1313 47.8354 72.1266 47.8953 72.1218 47.9552C72.104 48.1714 72.0814 48.3853 72.0553 48.5968C72.0482 48.6532 72.0399 48.7131 72.0304 48.7766C72.0173 48.8788 72.0031 48.9834 71.9864 49.0856C71.9686 49.1925 71.952 49.303 71.933 49.4099C71.9259 49.4487 71.9176 49.4909 71.9092 49.5356C71.8606 49.8058 71.7869 50.1866 71.6717 50.6154C71.6504 50.6918 71.6302 50.7682 71.6088 50.8457C71.4354 51.4344 71.1861 52.0912 70.8239 52.6693C69.7955 54.3073 67.7423 55.4999 65.6345 55.5058C65.2022 55.507 64.8021 55.4576 64.447 55.3859C63.6549 55.225 63.0873 54.9488 62.8937 54.8513C62.4484 54.6234 61.8202 54.2333 61.2324 53.5964C60.1411 52.412 59.8371 51.0807 59.7397 50.4639C60.1352 49.7001 60.5829 48.511 60.4095 47.1198C60.3857 46.9306 60.3525 46.7497 60.3109 46.5781C61.635 46.5793 62.9579 46.5793 64.2831 46.5793C64.2629 47.3372 64.2712 47.9787 64.2843 48.464C64.3318 50.0326 64.4541 50.4462 64.7071 50.8152C64.8389 51.0055 65.1761 51.4979 65.7485 51.5754C66.2627 51.6447 66.6937 51.3439 66.8576 51.2311C67.1771 51.0102 67.354 50.7365 67.4763 50.5485C67.6176 50.3323 67.7067 50.1313 67.7613 49.9798C67.7661 49.9704 67.7684 49.9621 67.772 49.9527C69.2397 48.8412 70.7087 47.732 72.1764 46.6204Z" fill="white"/>
<path d="M51.5889 46.5783C51.5889 45.3903 52.0745 44.314 52.8619 43.5327C52.9901 43.4058 53.1279 43.2859 53.2704 43.1755C54.0102 42.6032 54.94 42.2637 55.9494 42.2637C57.1452 42.2637 58.2258 42.7395 59.0131 43.5092C59.8159 44.2917 60.311 45.3774 60.311 46.5783C60.311 47.7721 59.8194 48.8542 59.0262 49.6333C58.2377 50.4135 57.1511 50.8941 55.9494 50.8941C54.7357 50.8941 53.6385 50.4041 52.8488 49.6098C52.635 49.3971 52.445 49.1633 52.2812 48.9106C51.843 48.2385 51.5889 47.4384 51.5889 46.5783ZM63.7204 43.5961C63.5921 43.2695 63.4425 42.9534 63.2762 42.6479C62.8867 41.9394 62.3951 41.2931 61.8215 40.7315C61.5793 40.4929 61.3216 40.2685 61.052 40.0605C60.9321 39.9701 60.8074 39.8796 60.6815 39.7926C60.5604 39.7104 60.4381 39.6317 60.311 39.5553C59.0428 38.781 57.5477 38.3345 55.9482 38.3345C53.9627 38.3345 52.1399 39.0218 50.7113 40.1686C50.4821 40.3531 50.2624 40.5482 50.0534 40.7538C48.5477 42.246 47.6155 44.3058 47.6155 46.5794C47.6155 48.7168 48.436 50.6638 49.785 52.1278C49.867 52.2171 49.9513 52.3052 50.038 52.391C51.5449 53.8962 53.6373 54.8268 55.9482 54.8268C58.1747 54.8268 60.1994 53.9631 61.6945 52.5531C61.6945 52.552 61.6957 52.552 61.6957 52.552C61.7444 52.505 61.7907 52.4603 61.837 52.4145C63.2537 51.0162 64.1633 49.1174 64.2725 47.0083C64.2714 47.006 64.2725 47.006 64.2725 47.0048C64.2797 46.865 64.2832 46.7228 64.2832 46.5794V46.5383C64.2773 45.4996 64.079 44.5091 63.7204 43.5961Z" fill="white"/>
<path d="M64.2735 45.9733H60.3215V38.6953H64.2735V45.9733Z" fill="white"/>
<path d="M55.941 30.5562C49.5499 30.5562 44.0197 34.2104 41.3728 39.5226C40.3052 41.6587 39.7067 44.0628 39.7043 46.6031V46.6255C39.7079 55.4955 46.9754 62.6865 55.941 62.6865C58.5167 62.6865 60.9523 62.0931 63.1147 61.0356L60.0997 58.0512C58.8005 58.5129 57.4005 58.7644 55.941 58.7644C49.1438 58.7644 43.6326 53.3112 43.6326 46.5855C43.6326 45.1414 43.8867 43.7561 44.3534 42.4718C46.0587 37.7695 50.6032 34.4066 55.941 34.4066C62.7371 34.4066 68.2483 39.8598 68.2483 46.5855C68.2483 47.764 68.0785 48.9026 67.7614 49.9801C67.1522 52.0681 65.9908 53.9246 64.4471 55.3863C64.8022 55.4579 65.2023 55.5073 65.6346 55.5061C67.7424 55.5002 69.7956 54.3076 70.824 52.6697C71.1862 52.0916 71.4355 51.4359 71.6077 50.8461C71.6303 50.7685 71.6505 50.6921 71.6718 50.6158C71.7633 50.2597 71.8417 49.9002 71.9093 49.5359C71.9367 49.3867 71.964 49.2363 71.9865 49.0859C72.0032 48.9837 72.0174 48.8791 72.0305 48.7769C72.0388 48.7181 72.0483 48.657 72.0554 48.5971C72.0815 48.3856 72.1041 48.1718 72.1207 47.9556C72.1267 47.8956 72.1314 47.8357 72.1338 47.7781C72.1421 47.6971 72.1457 47.616 72.1504 47.5349C72.1528 47.4715 72.1575 47.4092 72.1587 47.3504C72.1611 47.3446 72.1611 47.3375 72.1611 47.3316C72.1635 47.2658 72.167 47.2024 72.1682 47.1378C72.1694 47.1025 72.1706 47.0696 72.1706 47.0355C72.1753 46.8981 72.1765 46.7594 72.1765 46.6196C72.1765 37.7495 64.909 30.5562 55.941 30.5562Z" fill="white"/>
<path d="M91.0601 46.6596C88.5925 45.4388 86.1249 44.2168 83.6573 42.996V50.3115C83.7725 50.2481 83.9399 50.1611 84.1489 50.0695C84.3603 49.9755 84.6156 49.8627 84.8329 49.8133C84.9326 49.7898 85.7247 49.6218 86.2472 50.1435C86.7091 50.6053 86.6118 51.2633 86.5987 51.3408C86.5227 51.8002 86.2294 52.0905 86.062 52.2573C85.9575 52.3619 85.8304 52.4665 85.3863 52.7191C84.7462 53.0834 84.3911 53.1973 83.9423 53.4229C83.7404 53.5251 83.2701 53.7261 82.6705 53.6591C81.6563 53.5463 81.1101 52.7579 81.0186 52.6204C80.6719 52.0987 80.6268 51.5653 80.6232 51.3549C80.571 48.1578 80.5638 44.9582 80.6268 41.7611C80.66 40.0244 82.4555 39.0585 84.1014 39.847C86.6438 41.0666 89.1601 42.3391 91.6871 43.5893C92.2856 43.8866 92.8877 44.178 93.4803 44.4871C94.3424 44.9371 94.8186 45.6303 94.8032 46.6208C94.7948 47.1613 94.6096 47.5667 94.5039 47.7618C94.2236 48.2811 93.8306 48.569 93.6346 48.6935C92.3331 49.3292 91.0317 49.9637 89.7301 50.5994C89.6007 50.6393 89.02 50.8062 88.4666 50.4983C87.842 50.1482 87.519 49.3422 87.7565 48.6947C87.8931 48.3211 88.1781 48.1037 88.3206 48.0109C88.3455 47.9991 89.9938 47.186 90.0187 47.1731C90.0282 47.1684 91.0506 46.6643 91.0601 46.6596Z" fill="#FAAF40"/>
<path d="M75.6796 73.8208H73.9898V69.9668L72.9899 73.2485H71.1897L70.1886 69.9668V73.8208H68.5V67.6626H70.8429L72.0922 71.3662L73.3367 67.6626H75.6796V73.8208Z" fill="white"/>
<path d="M83.2285 73.8208H78.3657V67.6626H83.2285V69.149H80.0555V69.9632H83.0065V71.4496H80.0555V72.3344H83.2285V73.8208Z" fill="white"/>
<path d="M88.5736 67.6626C89.5462 67.6626 90.3275 67.9434 90.9165 68.5074C91.5067 69.0702 91.8012 69.8152 91.8012 70.7411C91.8012 71.6682 91.5067 72.4131 90.9165 72.9759C90.3275 73.5388 89.5462 73.8208 88.5736 73.8208H85.8269V67.6626H88.5736ZM87.5155 69.1971V72.285H88.5297C89.0213 72.285 89.3977 72.1429 89.6578 71.8609C89.9167 71.5777 90.0449 71.2052 90.0449 70.7411C90.0449 70.2723 89.9167 69.8974 89.6578 69.6166C89.3977 69.337 89.0213 69.1971 88.5297 69.1971H87.5155Z" fill="white"/>
<path d="M95.9549 73.8208H94.2651V67.6626H95.9549V73.8208Z" fill="white"/>
<path d="M104.923 73.8208H103.131L102.718 72.6458H100.393L99.9841 73.8208H98.2183L100.575 67.6626H102.567L104.923 73.8208ZM100.917 71.1547H102.193L101.558 69.3334L100.917 71.1547Z" fill="white"/>
</g>
<defs>
<linearGradient id="paint0_linear_179_655" x1="86.5" y1="100" x2="86.5" y2="4.98978e-06" gradientUnits="userSpaceOnUse">
<stop/>
<stop offset="0.55" stop-color="#053BE5"/>
</linearGradient>
<clipPath id="clip0_179_655">
<rect width="95" height="47" fill="white" transform="translate(39 27)"/>
</clipPath>
</defs>
</svg>
