<svg width="173" height="100" viewBox="0 0 173 100" fill="none" xmlns="http://www.w3.org/2000/svg">
<rect x="0.5" y="0.5" width="172" height="99" fill="#111111" fill-opacity="0.5" stroke="url(#paint0_linear_179_459)"/>
<g clip-path="url(#clip0_179_459)">
<path fill-rule="evenodd" clip-rule="evenodd" d="M50.3222 34.0288C50.2204 34.0435 49.8494 34.0948 49.4856 34.1387C49.129 34.1826 48.4524 34.3144 47.9941 34.4315C44.691 35.2442 41.8391 36.9721 39.7219 39.4395C37.6775 41.8191 36.4916 44.5279 36.0987 47.6762C35.6549 51.3297 36.7244 55.298 38.9725 58.3071C41.5553 61.7629 45.2586 63.93 49.6311 64.5598C50.686 64.7061 52.7523 64.7281 53.7418 64.5963C56.6155 64.2156 59.2347 63.176 61.4102 61.5579C62.0285 61.0966 63.0544 60.2108 63.0544 60.1375C63.0544 60.0863 59.3075 56.4475 58.7473 55.9569L58.4855 55.7226L57.8379 56.2425C56.1136 57.6335 54.2656 58.3291 52.0684 58.4169C50.3078 58.4829 48.9181 58.1827 47.3757 57.4139C43.1995 55.3346 41.2133 50.6927 42.6466 46.3803C43.4251 44.0521 45.0038 42.1997 47.1938 41.0575C48.6489 40.3034 50.0094 39.974 51.7046 39.9813C54.2801 39.9813 56.3536 40.794 58.3326 42.5658L59.031 43.1955L61.2064 41.0722C62.3996 39.9007 63.389 38.9196 63.4036 38.8903C63.4327 38.8098 62.1886 37.7043 61.4246 37.1405C59.3439 35.5957 57.0448 34.6219 54.3966 34.1606C53.7418 34.0508 50.7733 33.9483 50.3222 34.0288ZM53.2907 35.9691C54.9131 36.1448 56.5792 36.6207 57.9979 37.3089C58.7618 37.6823 60.5152 38.7952 60.6244 38.9782C60.6535 39.0295 60.3333 39.3955 59.8314 39.8934L58.9874 40.7281L58.5436 40.3986C56.3682 38.7805 53.3998 37.9679 50.686 38.2314C50.184 38.2754 49.7475 38.3193 49.7111 38.3266C49.6311 38.3413 49.0709 36.3351 49.1146 36.2106C49.1436 36.1374 49.5438 36.0642 50.5769 35.9398C51.0716 35.8739 52.6286 35.8959 53.2907 35.9691ZM47.5721 37.6897C47.7249 38.2754 47.8341 38.7879 47.8122 38.8172C47.7904 38.8538 47.6522 38.9197 47.4994 38.9709C47.3539 39.0149 46.8882 39.2345 46.4663 39.4468C43.3379 41.0429 41.2497 43.7445 40.5804 47.0686C40.4931 47.4713 40.4276 47.9105 40.4276 48.035V48.262H39.2272C38.3905 48.262 38.0267 48.24 38.0267 48.1815C38.0267 47.8519 38.2886 46.4463 38.4705 45.7946C39.4309 42.3608 41.7809 39.4322 45.0476 37.6091C45.4695 37.3748 47.1429 36.628 47.2665 36.6207C47.2884 36.6207 47.4265 37.1039 47.5721 37.6897ZM40.4494 50.5903C40.5804 51.813 41.1406 53.4602 41.8027 54.6024C43.0395 56.7183 45.1567 58.5488 47.2884 59.3541C47.4775 59.4274 47.6303 59.4932 47.6303 59.5079C47.6303 59.5225 47.5212 59.9399 47.383 60.4377C47.2447 60.9282 47.0992 61.47 47.0556 61.6384L46.9755 61.9387L46.5172 61.7556C45.3676 61.2944 44.1745 60.5989 43.0832 59.7714C42.4574 59.2955 41.1842 57.9923 40.6677 57.3041C39.1908 55.3346 38.2231 52.8526 38.0485 50.5976L38.0049 50.0119L40.3912 50.0558L40.4494 50.5903ZM59.3003 59.032C59.8023 59.5225 60.217 59.9472 60.217 59.9765C60.217 60.0863 58.82 60.943 57.9397 61.3676C56.8484 61.9021 55.8226 62.2461 54.5784 62.517C53.698 62.7001 53.5089 62.7147 51.8866 62.722C50.4823 62.722 50.0022 62.6927 49.4274 62.5902C48.838 62.4731 48.7217 62.4292 48.7508 62.334C48.7725 62.2608 48.9254 61.719 49.0854 61.1113C49.2528 60.5109 49.3911 60.0057 49.3983 59.9985C49.4128 59.9911 49.5656 60.0204 49.7402 60.0716C49.944 60.1229 50.7006 60.1522 51.7046 60.1522C53.1234 60.1522 53.4362 60.1302 54.0546 59.9911C55.4661 59.6763 57.0303 59.0393 57.9252 58.417C58.1289 58.2778 58.3108 58.1607 58.3399 58.1534C58.3617 58.1461 58.7982 58.5415 59.3003 59.032Z" fill="white"/>
<path fill-rule="evenodd" clip-rule="evenodd" d="M77.5256 40.2965C77.2783 40.7944 75.0664 45.1874 72.6146 50.0708C70.1555 54.9469 68.1475 58.9592 68.1475 58.9811C68.1475 59.0031 69.086 59.0251 70.2428 59.0251H72.3309L73.1676 57.2459L74.0115 55.4741L78.2677 55.4521L82.531 55.4375L83.3897 57.2313L84.2556 59.0251H86.3218C87.9443 59.0251 88.3808 59.0031 88.3515 58.9299C88.3368 58.886 86.1179 54.4784 83.4333 49.1409L78.5585 39.44L77.9768 39.396L77.5256 40.2965ZM79.8174 49.3972C80.6393 51.1251 81.316 52.5675 81.316 52.5968C81.316 52.6333 79.9409 52.6553 78.253 52.6553C76.5361 52.6553 75.2047 52.6261 75.2192 52.5895C75.4158 52.0623 78.2388 46.1684 78.2748 46.2051C78.3041 46.227 78.995 47.662 79.8174 49.3972Z" fill="white"/>
<path fill-rule="evenodd" clip-rule="evenodd" d="M121.688 39.8056C119.28 40.2009 117.475 41.0722 116.013 42.5438C114.842 43.7227 114.107 45.0331 113.685 46.7025C112.993 49.4554 113.394 52.5158 114.74 54.7415C115.911 56.6891 117.774 58.0802 120.116 58.7611C121.993 59.3102 124.336 59.3908 126.351 58.9807C127.61 58.7245 129.429 57.9776 130.549 57.2528L130.935 57.0112L130.091 55.5468C129.633 54.7415 129.225 54.0532 129.196 54.024C129.16 53.9874 128.956 54.0753 128.745 54.2143C127.362 55.1002 125.805 55.6128 124.169 55.7007C121.229 55.869 118.88 54.8074 117.752 52.8013C116.98 51.4322 116.762 49.2357 117.221 47.4199C117.279 47.1783 117.475 46.6805 117.65 46.3217C118.392 44.8062 119.789 43.7958 121.695 43.3784C122.561 43.1954 124.605 43.1954 125.478 43.3858C126.359 43.5761 127.668 44.03 128.781 44.5206C129.306 44.7549 129.749 44.9379 129.763 44.9233C129.778 44.9086 129.866 44.1326 129.96 43.1954L130.135 41.4895L129.975 41.3504C129.458 40.9257 127.661 40.2448 126.242 39.9447C125.5 39.7836 125.136 39.7543 123.841 39.725C122.765 39.7103 122.131 39.7324 121.688 39.8056Z" fill="white"/>
<path fill-rule="evenodd" clip-rule="evenodd" d="M91.4287 59.0248H95.43V39.8423H91.4287V59.0248Z" fill="white"/>
<path fill-rule="evenodd" clip-rule="evenodd" d="M100.523 59.0248H104.452V50.0924H109.326V47.0906H104.452V42.9174H111.509V39.9155H100.523V59.0248Z" fill="white"/>
<path fill-rule="evenodd" clip-rule="evenodd" d="M50.955 43.3642C48.5032 43.6497 46.4442 45.4582 45.8476 47.8596C45.6803 48.5185 45.6803 49.7339 45.8403 50.4002C46.6043 53.6144 49.9218 55.6059 53.1595 54.8005C56.8481 53.878 58.7179 49.9829 57.0956 46.6223C56.2298 44.8358 54.469 43.6205 52.3592 43.3569C51.6898 43.2763 51.6753 43.2763 50.955 43.3642ZM52.7594 45.1506C54.229 45.5387 55.444 46.7395 55.8151 48.1671C55.9533 48.687 55.9533 49.6387 55.8224 50.1366C55.4513 51.557 54.2436 52.7577 52.8176 53.1312C52.2792 53.2703 51.1296 53.2703 50.584 53.1312C49.1798 52.7651 47.9939 51.6009 47.5938 50.2098C47.4046 49.5509 47.47 48.3136 47.732 47.6766C48.2267 46.4612 49.3108 45.5094 50.613 45.158C51.1442 45.0115 52.221 45.0115 52.7594 45.1506Z" fill="white"/>
</g>
<defs>
<linearGradient id="paint0_linear_179_459" x1="86.5" y1="100" x2="86.5" y2="4.98978e-06" gradientUnits="userSpaceOnUse">
<stop/>
<stop offset="0.55" stop-color="#053BE5"/>
</linearGradient>
<clipPath id="clip0_179_459">
<rect width="95" height="31" fill="white" transform="translate(36 34)"/>
</clipPath>
</defs>
</svg>
