<svg width="173" height="100" viewBox="0 0 173 100" fill="none" xmlns="http://www.w3.org/2000/svg">
<rect x="0.5" y="0.5" width="172" height="99" fill="#111111" fill-opacity="0.5" stroke="url(#paint0_linear_179_462)"/>
<g clip-path="url(#clip0_179_462)">
<path d="M105.55 37.3031C105.55 37.3031 103.769 38.0168 101.698 40.3149C99.6267 42.613 98.4205 45.1973 99.3132 45.8845C99.6561 46.1458 100.447 46.1955 101.882 44.8894C103.206 43.732 104.245 42.2811 104.918 40.6508C105.845 38.376 105.55 37.3311 105.55 37.3062M116.885 41.4376C114.584 40.2496 112.902 38.7942 111.152 37.894C109.482 37.031 108.403 36.6703 107.053 36.8522C106.864 36.886 106.679 36.9327 106.497 36.9921C106.497 36.9921 107.192 39.382 104.426 43.3967C101.624 47.4674 99.0815 47.4394 98.3587 46.3215C97.6019 45.1413 98.5796 42.7359 100.212 40.5948C101.922 38.3558 104.924 36.4992 104.924 36.4992C104.924 36.4992 103.967 35.9099 101.616 37.2518C99.3225 38.5548 95.3747 41.6646 91.7111 46.9092C88.0475 52.1538 87.3216 55.0397 86.7965 57.3114C86.2713 59.5831 86.7486 62.0165 89.2507 62.0165C91.7528 62.0165 94.6658 58.1744 95.4874 56.8387C97.015 54.3509 98.0112 50.5352 95.9323 51.0592C94.9083 51.3173 94.0788 52.4586 93.5553 53.5579C93.2247 54.264 92.972 55.0044 92.8015 55.7658C92.0751 56.0673 91.3928 56.4669 90.7736 56.9538C90.0847 57.4675 89.4409 58.0397 88.8491 58.6642C88.8491 58.6642 88.8584 56.848 90.2963 53.9093C91.7343 50.9706 94.3739 49.6287 95.8689 49.5028C97.2158 49.3939 98.9688 50.5445 97.483 54.7894C95.9971 59.0342 91.6138 64.1949 87.0096 64.2586C82.7606 64.3177 79.9805 58.8585 85.8945 49.3317C92.4401 38.8067 100.118 35.5772 102.611 35.218C105.104 34.8588 105.914 35.9659 105.914 35.9659C107.415 35.3461 109.036 35.0771 110.655 35.1791C113.699 35.3859 116.053 37.555 119.16 39.0788C118.352 39.8562 117.582 40.6725 116.887 41.4376M130.562 37.894C128.452 39.256 125.533 40.4906 122.728 40.2263C122.018 40.9649 121.258 41.8201 120.496 42.753C125.36 43.7217 129.621 40.6881 131.887 38.1054C132.713 37.1769 133.423 36.1497 134 35.047C132.968 36.1286 131.814 37.0842 130.56 37.894M124.084 51.6889C124.121 51.6244 124.151 51.5561 124.174 51.4852C124.159 51.3731 124.107 51.2693 124.026 51.1913C123.945 51.1132 123.839 51.0655 123.727 51.0561C123.264 51.0343 122.632 51.1229 120.975 52.9702C119.6 54.4956 118.417 56.1855 117.452 58.0018C116.504 59.7464 116.119 61.0462 116.664 61.3821C116.841 61.4745 117.047 61.4956 117.239 61.4412C117.608 61.3526 118.027 61.0043 118.663 60.2626C118.961 59.9143 119.292 59.4214 119.687 58.8756C120.784 57.3736 123.539 52.6452 124.084 51.6889ZM106.869 53.6978C107.145 52.9702 107.498 51.5412 106.765 50.9799C105.979 50.3844 103.975 51.7822 103.964 53.2158C103.95 54.6836 105.375 55.3476 105.717 55.4409C105.911 55.4937 105.979 55.486 106.074 55.3289C106.376 54.8044 106.642 54.2594 106.869 53.6978ZM105.352 56.3676C104.855 56.1366 104.392 55.839 103.975 55.4829C103.556 55.1293 103.206 54.7007 102.943 54.2187C102.915 54.1721 102.887 54.2078 102.856 54.2498C102.825 54.2918 102.702 54.4053 101.633 55.982C100.564 57.5586 98.9224 60.8254 100.408 61.3821C101.36 61.7382 102.943 60.0604 103.806 58.9487C104.394 58.1727 104.928 57.3559 105.402 56.5044C105.446 56.4096 105.402 56.3878 105.354 56.3676M122.208 60.1413C121.804 60.7912 121.344 62.0383 122.671 61.2624C124.294 60.3185 126.606 56.7874 126.606 56.7874H127.655C126.701 58.2645 125.638 59.6678 124.476 60.9856C122.832 62.8204 120.825 64.4872 119.412 64.3224C117.761 64.128 118.278 61.9465 118.278 61.9465C118.278 61.9465 115.917 64.4779 114.283 64.296C112.076 64.0503 112.749 61.3043 112.749 61.3043C112.749 61.3043 110.253 64.3877 108.552 64.2928C105.887 64.1374 106.557 60.8721 107.298 58.5724C107.695 57.3425 108.063 56.3769 108.063 56.3769C108.063 56.3769 107.799 56.4469 107.23 56.5324C106.934 56.5744 106.393 56.6055 106.393 56.6055C106.393 56.6055 105.283 58.5771 104.395 59.7619C103.507 60.9467 99.7318 65.0314 97.5108 64.2135C95.4566 63.4579 96.1361 60.2921 97.3316 57.7763C99.0769 54.1083 103.985 48.8388 106.816 49.5354C109.751 50.2522 106.883 55.643 106.883 55.643C106.883 55.643 106.883 55.6632 106.914 55.6772C106.972 55.699 107.125 55.7161 107.479 55.6461C107.846 55.5709 108.205 55.4631 108.552 55.3243C108.552 55.3243 111.503 49.1047 114.761 45.0356C118.02 40.9664 124.521 33.9585 127.073 35.6534C127.691 36.0701 127.413 37.5052 126.572 39.2467C126.194 39.3705 125.809 39.4743 125.42 39.5577C125.982 38.5299 126.355 37.6638 126.466 37.059C126.85 34.9568 121.974 39.3913 118.49 44.1555C116.391 47.0276 114.526 50.0659 112.914 53.2407C113.544 52.8542 114.145 52.4224 114.712 51.9486C116.266 50.6512 117.743 49.2629 119.136 47.7908C120.476 46.4091 121.734 44.948 122.901 43.4154C123.272 43.3973 123.642 43.3589 124.008 43.3003C122.736 45.0396 121.347 46.6905 119.854 48.2417C118.464 49.6567 116.959 51.1789 115.653 52.2844C114.486 53.2836 113.254 54.2045 111.967 55.0413C111.967 55.0413 108.92 61.2282 110.577 61.6247C111.552 61.861 113.476 58.8772 113.476 58.8772C113.476 58.8772 115.988 55.0195 117.501 53.2796C119.566 50.9161 121.344 49.5478 123.12 49.523C124.155 49.5043 124.765 50.6114 124.765 50.6114L125.252 49.8526H128.248C128.248 49.8526 122.652 59.4121 122.204 60.132M130.56 37.894C128.45 39.256 125.531 40.4906 122.727 40.2263C122.016 40.9649 121.256 41.8201 120.495 42.753C125.358 43.7217 129.62 40.6881 131.885 38.1054C132.712 37.177 133.422 36.1498 134 35.047C132.968 36.1286 131.814 37.0842 130.56 37.894ZM88.48 42.5835H85.6304L84.0194 45.2035H86.8691L88.48 42.5835ZM74.9871 51.6563C76.1996 49.9832 79.545 44.1197 79.545 44.1197C79.5309 44.0077 79.479 43.904 79.398 43.8259C79.317 43.7478 79.2119 43.7 79.1001 43.6906C78.6368 43.6688 77.8645 43.8259 76.3308 45.7586C74.7971 47.6913 73.6063 49.2291 72.7383 50.8291C71.7869 52.5752 71.3714 53.8067 71.9182 54.141C72.0956 54.2305 72.2994 54.2515 72.4912 54.2001C72.8464 54.1099 73.3113 53.7507 73.9492 53.0121C74.2488 52.6669 74.5886 52.202 74.9871 51.6563ZM59.6964 43.7263C58.9087 43.1277 56.9055 44.5287 56.8947 45.9592C56.8823 47.4285 58.6971 47.8779 58.9319 47.8888C59.0009 47.8946 59.0702 47.88 59.1311 47.8468C59.173 47.8222 59.2064 47.7853 59.2269 47.7411C59.4403 47.319 59.632 46.8861 59.8014 46.4443C60.0779 45.7166 60.4285 44.2877 59.6964 43.7263ZM58.5087 48.7844C57.9655 48.6136 57.4464 48.3732 56.9642 48.0691C56.4968 47.7624 56.1168 47.3386 55.8614 46.8392C55.8336 46.7926 55.8027 46.8283 55.7749 46.8703C55.7471 46.9123 55.5865 47.1144 54.5146 48.6973C53.4427 50.2802 51.8549 53.5175 53.3423 54.0741C54.2906 54.4364 55.8923 52.7447 56.7618 51.6376C57.4126 50.7676 58.0138 49.8612 58.5627 48.9228C58.5983 48.8279 58.5627 48.8062 58.5102 48.7891M81.783 49.7593H82.8271C82.8271 49.7593 77.5958 57.3783 74.6411 57.0237C72.9916 56.8294 73.4812 54.78 73.4812 54.78C73.4812 54.78 71.1644 57.5104 69.0361 56.9569C67.1055 56.4578 68.3519 53.2252 68.3519 53.2252C68.1326 53.3138 63.9546 58.0546 61.0185 56.918C57.9465 55.7239 59.542 51.7542 60.1258 50.5601C60.6216 49.5541 61.1699 48.5745 61.1699 48.5745C61.1699 48.5745 60.6988 48.7082 60.3976 48.7766C60.0964 48.845 59.6609 48.9321 59.6609 48.9321C59.6609 48.9321 58.2075 51.3095 57.3194 52.4959C56.4313 53.6823 52.6565 57.7592 50.4324 56.9476C48.2083 56.1359 48.7597 53.0028 50.0092 50.515C52.0356 46.4801 56.8437 41.5215 59.7397 42.2741C62.665 43.0251 60.2432 47.8017 60.2432 47.8017C60.2432 47.8017 60.8255 47.8779 62.2202 46.9201C64.228 45.5409 66.8784 41.8309 69.7481 42.2663C71.1011 42.4716 72.3614 43.8632 70.6378 46.5065C70.0879 47.3555 69.1658 48.1142 68.46 47.3632C68.0198 46.8968 68.4044 46.0462 68.8662 45.4647C69.0459 45.2277 69.2808 45.0387 69.5501 44.9145C69.8195 44.7904 70.115 44.7347 70.4107 44.7526C70.4107 44.7526 70.8849 43.6642 69.6786 43.6797C68.7025 43.6984 66.2313 45.9887 64.8366 48.3024C63.5577 50.4264 61.6193 54.0446 63.5654 54.8329C65.3493 55.5575 68.7442 51.5008 70.3165 49.3753C71.8888 47.2497 75.4721 42.4327 78.4777 42.2399C79.5125 42.1715 80.1288 43.1215 80.1288 43.1215L80.4763 42.568H83.4819C83.4819 42.568 77.8213 52.0776 77.3796 52.7976C77.032 53.3604 76.5702 54.6261 77.8429 53.9171C79.1156 53.208 81.783 49.7593 81.783 49.7593ZM80.1473 64.9972C77.9343 63.455 75.2843 62.6765 72.5947 62.7784C71.8667 62.7984 71.1536 62.9908 70.5133 63.3401C69.873 63.6894 69.3236 64.1858 68.9094 64.7889C67.7634 62.7753 65.4976 61.5391 61.9947 61.5671C56.334 61.6324 50.7197 64.2602 46.2715 64.2571C42.0086 64.2571 38.8995 61.5594 38.9999 56.7687C39.1868 48.3615 46.2437 40.7907 51.5105 37.384C54.547 35.4264 57.0862 34.8448 58.7465 35.033C59.9574 35.1682 61.4139 36.577 60.4949 38.6527C59.145 41.6863 57.2808 41.4376 57.3503 39.9868C57.3889 39.043 58.0129 38.4491 58.4824 38.121C58.7805 37.9142 59.3072 37.8551 59.5821 37.8489C59.8493 37.6219 60.0455 35.9612 57.8832 36.507C55.7208 37.0528 53.0952 39.1985 50.6023 41.9709C48.1095 44.7432 44.2281 49.9832 43.269 55.486C42.8211 58.0375 43.1145 62.6913 49.1242 62.6384C54.2211 62.5965 61.7336 59.2177 68.6376 59.2877C71.3173 59.3141 73.6496 60.0418 75.4675 61.1706C77.2529 62.2777 79.3936 63.8948 80.1535 64.9988" fill="#E61D2B"/>
</g>
<defs>
<linearGradient id="paint0_linear_179_462" x1="86.5" y1="100" x2="86.5" y2="4.98978e-06" gradientUnits="userSpaceOnUse">
<stop offset="0.45" stop-color="#053BE5"/>
<stop offset="1"/>
</linearGradient>
<clipPath id="clip0_179_462">
<rect width="95" height="30" fill="white" transform="translate(39 35)"/>
</clipPath>
</defs>
</svg>
