<svg width="173" height="100" viewBox="0 0 173 100" fill="none" xmlns="http://www.w3.org/2000/svg">
<rect x="0.5" y="0.5" width="172" height="99" fill="#111111" fill-opacity="0.5" stroke="url(#paint0_linear_181_333)"/>
<g clip-path="url(#clip0_181_333)">
<mask id="mask0_181_333" style="mask-type:luminance" maskUnits="userSpaceOnUse" x="18" y="7" width="138" height="86">
<path d="M18 7H156V93H18V7Z" fill="white"/>
</mask>
<g mask="url(#mask0_181_333)">
<path d="M41.4551 50.6346C41.3568 50.606 41.2902 50.6472 41.2215 50.6692C40.2194 50.9891 39.364 51.539 38.6671 52.3234C38.1571 52.8974 37.7261 53.5248 37.5528 54.2872C37.3978 54.9696 37.9833 55.5413 38.6692 55.3974C39.0293 55.3217 39.3278 55.1305 39.5969 54.8923C40.4485 54.139 40.8991 53.155 41.1932 52.0868C41.3244 51.6105 41.4216 51.1261 41.4551 50.6346ZM46.3867 48.9901C46.3867 49.4458 46.379 49.9016 46.3909 50.3569C46.395 50.5168 46.3425 50.55 46.1936 50.5473C45.6952 50.5382 45.1964 50.5505 44.6981 50.5386C44.512 50.5341 44.4501 50.5805 44.4304 50.7794C44.278 52.3207 43.9574 53.8207 43.2291 55.2061C42.4449 56.6974 41.3367 57.8348 39.6852 58.3563C37.6149 59.0099 35.4384 58.0812 34.6047 56.1969C34.1324 55.1295 34.2035 54.058 34.6382 53.012C35.8219 50.1639 37.9404 48.3956 40.948 47.698C41.2204 47.6348 41.2806 47.5382 41.2637 47.2837C41.1812 46.0377 40.4436 45.3514 39.0952 45.2559C38.4463 45.2101 37.9134 45.4615 37.4204 45.8346C36.6395 46.4254 36.0203 47.1733 35.4093 47.9274C34.4967 49.0539 33.6418 50.2287 32.6001 51.2472C32.0418 51.793 31.4662 52.3166 30.8197 52.7584C28.9388 54.0435 26.4066 53.6697 25.1484 51.9206C24.141 50.5202 23.8638 48.4618 25.1438 46.7269C25.9128 45.6846 26.8874 44.8678 27.932 44.1254C28.5672 43.674 29.228 43.2584 29.8658 42.8104C30.5612 42.3219 31.1083 41.7166 31.3049 40.8577C31.3351 40.7261 31.338 40.5937 31.3249 40.4624C31.2893 40.1023 31.0469 39.8993 30.6837 39.9207C30.3674 39.9395 30.0932 40.0773 29.8295 40.2381C29.3483 40.5311 28.9623 40.9255 28.6138 41.3636C28.0507 42.071 27.3909 42.6683 26.5854 43.096C25.3679 43.7427 24.1229 43.718 22.8567 43.2611C22.7473 43.2216 22.706 43.1641 22.7067 43.0442C22.7121 42.1662 22.7137 41.2879 22.7065 40.4098C22.7052 40.2553 22.7559 40.2472 22.8799 40.2851C23.3166 40.4185 23.7596 40.5303 24.2155 40.5718C25.19 40.6604 25.9662 40.2805 26.5717 39.5375C27.0756 38.919 27.6181 38.3453 28.2313 37.8284C29.5124 36.7484 31.6788 36.641 32.9154 37.3784C33.8497 37.9357 34.3421 38.7538 34.4661 39.8138C34.6292 41.2077 34.1362 42.367 33.2255 43.4018C32.3275 44.4221 31.2457 45.2084 30.1308 45.9633C29.5334 46.3677 28.9454 46.7865 28.437 47.3053C28.0459 47.7043 27.8303 48.1625 27.8741 48.7332C27.9278 49.4358 28.6536 49.9612 29.3343 49.7716C29.7964 49.6428 30.1641 49.3662 30.4802 49.0133C31.6035 47.759 32.6491 46.4404 33.7173 45.1402C34.5729 44.0987 35.5095 43.1371 36.6815 42.44C38.2355 41.5155 39.8388 41.3723 41.465 42.2279C42.4786 42.7611 43.1471 43.6318 43.6489 44.6393C44.0625 45.4699 44.3091 46.351 44.4274 47.2676C44.4462 47.4132 44.4993 47.4368 44.626 47.4354C45.1494 47.4298 45.6731 47.4385 46.1963 47.4289C46.3504 47.4261 46.3939 47.4694 46.3903 47.6232C46.38 48.0786 46.3867 48.5344 46.3867 48.9901Z" fill="#D0FE16"/>
<path d="M51.6334 49.4795C51.6336 46.7632 51.637 44.047 51.6281 41.3307C51.6272 41.0743 51.6879 40.9959 51.9559 41.0022C52.7774 41.0218 53.5999 41.0184 54.4215 41.0032C54.6444 40.9991 54.6874 41.0664 54.6866 41.2744C54.6791 43.3617 54.6865 45.4489 54.6766 47.5361C54.6754 47.792 54.7343 47.8702 55.0043 47.8689C57.3746 47.8573 59.7452 47.8581 62.1157 47.868C62.366 47.869 62.4324 47.8081 62.431 47.5558C62.4204 45.4686 62.428 43.3813 62.4208 41.2941C62.42 41.0813 62.455 40.9983 62.6972 41.0033C63.5381 41.0206 64.3794 41.0153 65.2205 41.006C65.409 41.004 65.4832 41.0363 65.4829 41.2499C65.4766 46.7396 65.4771 52.2293 65.4818 57.719C65.4819 57.9126 65.4371 57.9814 65.2306 57.9788C64.3801 57.9675 63.5291 57.9653 62.6787 57.9796C62.446 57.9835 62.4186 57.8917 62.4192 57.6953C62.4257 55.4555 62.4198 53.2158 62.4316 50.9761C62.4329 50.7252 62.3771 50.6617 62.1204 50.663C59.7691 50.6747 57.4178 50.6703 55.0664 50.6707C54.6821 50.6707 54.6821 50.6708 54.682 51.0689C54.6815 53.28 54.6766 55.4911 54.687 57.7022C54.688 57.9408 54.6137 57.9819 54.3979 57.9788C53.5857 57.9666 52.7729 57.9637 51.9607 57.9793C51.7071 57.9841 51.6251 57.9293 51.6263 57.6568C51.6377 54.9311 51.6332 52.2053 51.6334 49.4795Z" fill="#D0FE16"/>
<path d="M91.2867 52.4716C91.3344 52.4716 91.3821 52.4722 91.4298 52.4715C92.6095 52.4548 93.2899 51.8279 93.4032 50.6586C93.4299 50.3822 93.4246 50.1078 93.3871 49.8333C93.2554 48.8674 92.6687 48.2225 91.7063 48.0768C90.8959 47.9543 90.0983 48.0338 89.5388 48.725C88.8912 49.5254 88.9037 50.4493 89.2764 51.3427C89.6347 52.2016 90.4036 52.4707 91.2867 52.4716ZM91.5989 58.0962C91.0069 58.0962 90.4146 58.0815 89.8234 58.0998C88.9778 58.126 88.3421 58.9754 88.5292 59.8028C88.67 60.4262 89.1438 60.6981 89.695 60.8549C90.647 61.1259 91.6199 61.1053 92.5933 60.9943C93.1281 60.9335 93.6439 60.8051 94.1086 60.5181C94.6134 60.206 94.8752 59.6302 94.7756 59.0478C94.6839 58.511 94.3704 58.2248 93.7152 58.0846C93.6221 58.0646 93.5268 58.0531 93.432 58.0448C92.8209 57.9908 92.2099 58.0588 91.5989 58.0962ZM87.7001 57.4411C87.2482 57.2533 86.8605 57.0787 86.5547 56.7623C85.928 56.1138 85.9337 55.0915 86.5628 54.4431C87.0115 53.9806 87.5582 53.7171 88.1834 53.5955C88.1737 53.4906 88.0834 53.4835 88.0262 53.4482C86.768 52.669 86.0664 51.584 86.1432 50.0657C86.2208 48.5339 87.0378 47.4978 88.353 46.8053C89.1895 46.3648 90.0988 46.204 91.0347 46.1788C91.5983 46.1637 92.1622 46.1731 92.726 46.1624C93.6983 46.144 94.1254 45.748 94.229 44.7754C94.2532 44.5481 94.2764 44.3197 94.2787 44.0916C94.2802 43.9466 94.3156 43.8946 94.4716 43.8959C95.3125 43.9029 96.1537 43.8985 96.9946 43.8968C97.0878 43.8966 97.1677 43.8987 97.163 44.0266C97.1502 44.3786 97.1899 44.7321 97.137 45.0827C97.0233 45.8379 96.5629 46.3008 95.8729 46.572C95.3546 46.7757 94.8111 46.8379 94.1942 46.8568C94.5532 47.0758 94.8435 47.2819 95.1179 47.5116C96.7836 48.9064 97 52.5283 93.991 53.8018C92.9588 54.2386 91.8756 54.3613 90.7678 54.3392C90.4148 54.3322 90.0622 54.3112 89.7092 54.3076C89.4355 54.3048 89.2089 54.4111 89.0506 54.6424C88.8256 54.971 88.9255 55.3743 89.275 55.5674C89.5456 55.7168 89.8405 55.7262 90.1369 55.7265C91.3603 55.7283 92.5837 55.7229 93.807 55.7301C94.3333 55.7331 94.8546 55.7907 95.3655 55.9299C96.9648 56.366 97.7914 57.5251 97.6718 59.1797C97.5554 60.7922 96.5934 61.7652 95.1956 62.393C94.2344 62.8249 93.2103 62.9992 92.1655 63.0614C90.7858 63.1433 89.4164 63.0907 88.081 62.6898C87.4066 62.4874 86.771 62.2012 86.2824 61.678C85.4212 60.7559 85.468 59.305 86.3707 58.3646C86.7383 57.9818 87.1692 57.6884 87.7001 57.4411Z" fill="#D0FE16"/>
<path d="M78.2387 52.4781C78.4005 52.4692 78.5637 52.4703 78.7241 52.4498C79.3437 52.3705 79.8732 52.1195 80.1462 51.5328C80.5137 50.7431 80.527 49.9205 80.157 49.1311C79.6778 48.1087 78.2293 47.7068 77.1254 48.2557C76.3048 48.6637 76.0438 49.3739 76.0351 50.2328C76.021 51.6226 76.8508 52.4724 78.2387 52.4781ZM78.5851 58.0959C78.0029 58.0959 77.4205 58.0856 76.8386 58.0986C76.1815 58.1132 75.6707 58.5499 75.5179 59.2009C75.3701 59.8306 75.6145 60.3519 76.2207 60.6727C76.3709 60.7521 76.5338 60.8147 76.6979 60.8597C77.6532 61.1219 78.6239 61.1062 79.596 60.9903C80.1883 60.9197 80.765 60.7864 81.2458 60.4025C81.7218 60.0223 81.8525 59.5128 81.735 58.9407C81.6257 58.4083 81.212 58.1998 80.7296 58.0915C80.609 58.0644 80.4848 58.0488 80.3614 58.0394C79.7692 57.9947 79.1774 58.0571 78.5851 58.0959ZM74.6649 57.4459C74.3672 57.2995 74.0925 57.1964 73.85 57.0295C72.8974 56.3735 72.7987 55.1453 73.638 54.3471C74.0705 53.9357 74.5928 53.7028 75.2251 53.5841C74.7722 53.2961 74.3849 53.0133 74.0385 52.6692C72.799 51.4382 72.8001 49.0315 74.1114 47.704C75.0358 46.7682 76.1813 46.3413 77.4647 46.2125C78.1987 46.139 78.9349 46.1947 79.6699 46.1661C80.7251 46.125 81.1219 45.7574 81.2169 44.6999C81.2323 44.5291 81.2628 44.3569 81.2527 44.1873C81.2385 43.9532 81.3202 43.8861 81.5578 43.891C82.3411 43.9072 83.125 43.9023 83.9086 43.8934C84.094 43.8914 84.1613 43.9408 84.1462 44.1325C84.1202 44.464 84.1662 44.798 84.1085 45.1303C84.0049 45.7274 83.6791 46.155 83.1469 46.4362C82.5933 46.7289 81.9945 46.8239 81.3783 46.8472C81.3358 46.8487 81.2844 46.8248 81.2372 46.8934C81.6257 47.131 82.0039 47.3826 82.3122 47.7187C84.1234 49.6928 83.3921 52.8158 80.881 53.8379C79.6654 54.3328 78.3953 54.3973 77.1073 54.3088C76.8952 54.2942 76.6868 54.2994 76.4799 54.3371C76.1882 54.3902 75.9571 54.6464 75.9183 54.9457C75.8807 55.2347 76.0167 55.4605 76.3165 55.5999C76.5748 55.7201 76.8521 55.728 77.1297 55.728C78.3436 55.728 79.5574 55.7184 80.7711 55.7301C81.5884 55.738 82.3932 55.8401 83.128 56.2351C84.1109 56.7635 84.6173 57.5889 84.6586 58.7039C84.7249 60.4959 83.8017 61.6382 82.2465 62.361C81.2808 62.8098 80.2487 62.9928 79.1945 63.0583C77.7961 63.1453 76.4074 63.0955 75.0532 62.6861C74.4544 62.5051 73.8879 62.2546 73.4198 61.8291C72.3053 60.8163 72.4026 59.1267 73.6254 58.1014C73.9319 57.8443 74.269 57.6359 74.6649 57.4459Z" fill="#D0FE16"/>
<path d="M121.005 52.2476C121.005 54.0584 121 55.8691 121.01 57.68C121.012 57.9172 120.949 57.9844 120.71 57.9797C119.917 57.9643 119.123 57.9642 118.33 57.9799C118.094 57.9846 118.049 57.909 118.049 57.6901C118.056 54.8595 118.051 52.0289 118.06 49.1983C118.061 48.9521 118.01 48.8846 117.753 48.8875C116.405 48.9029 115.057 48.9001 113.71 48.8897C113.495 48.8881 113.442 48.9431 113.442 49.157C113.45 51.9972 113.445 54.8373 113.453 57.6774C113.454 57.9068 113.409 57.9854 113.16 57.9796C112.377 57.9614 111.592 57.9624 110.809 57.9802C110.57 57.9857 110.529 57.9042 110.53 57.6909C110.536 54.8603 110.531 52.0298 110.541 49.1992C110.542 48.9489 110.487 48.8776 110.229 48.8878C109.647 48.9105 109.063 48.889 108.48 48.898C108.304 48.9007 108.225 48.8683 108.23 48.6662C108.243 48.028 108.241 47.3892 108.233 46.7508C108.23 46.5871 108.281 46.5387 108.442 46.5407C109.045 46.5484 109.647 46.5302 110.249 46.5501C110.497 46.5583 110.541 46.4784 110.541 46.2479C110.539 45.4194 110.503 44.5901 110.583 43.7623C110.766 41.8833 111.864 40.81 113.756 40.6829C114.525 40.6313 115.279 40.7231 116.021 40.9391C116.197 40.9903 116.223 41.0624 116.191 41.2202C116.056 41.8724 115.923 42.5253 115.803 43.1801C115.77 43.3605 115.72 43.4229 115.527 43.3599C115.226 43.2621 114.912 43.2206 114.597 43.2014C113.955 43.1627 113.519 43.5006 113.444 44.133C113.357 44.8824 113.427 45.637 113.406 46.3888C113.401 46.5523 113.504 46.5436 113.613 46.5434C114.033 46.5427 114.454 46.5434 114.874 46.5434C116.815 46.5435 118.755 46.5481 120.695 46.5376C120.939 46.5363 121.014 46.5821 121.012 46.8437C120.999 48.6449 121.005 50.4463 121.005 52.2476Z" fill="#D0FE16"/>
<path d="M142.922 52.1543C142.913 52.894 142.999 53.5696 143.266 54.2137C143.566 54.9398 144.046 55.4967 144.803 55.7712C146.087 56.2369 147.391 55.6549 148.002 54.3049C148.576 53.0352 148.589 51.715 148.151 50.4076C147.74 49.1777 146.793 48.5639 145.505 48.6085C144.339 48.6489 143.448 49.3852 143.112 50.5923C142.965 51.1186 142.913 51.6575 142.922 52.1543ZM148.384 48.0154V47.4064C148.384 45.3677 148.39 43.329 148.378 41.2903C148.377 41.0392 148.46 41.0001 148.683 41.0041C149.448 41.0175 150.212 41.0212 150.976 41.0034C151.227 40.9976 151.295 41.0572 151.293 41.3137C151.282 43.6286 151.287 45.9436 151.287 48.2585C151.287 51.4023 151.286 54.546 151.293 57.6898C151.294 57.9104 151.24 57.9836 151.009 57.9795C150.226 57.9653 149.443 57.965 148.66 57.9797C148.435 57.984 148.387 57.9091 148.396 57.7041C148.411 57.3156 148.4 56.926 148.4 56.4821C148.168 56.7418 147.995 56.9858 147.782 57.1948C146.194 58.7535 143.811 58.4679 142.412 57.5328C141 56.589 140.296 55.2471 140.064 53.621C139.878 52.317 139.895 51.0103 140.297 49.746C140.908 47.8251 142.189 46.5906 144.211 46.2583C145.82 45.9941 147.165 46.5198 148.176 47.8229C148.229 47.8905 148.28 47.9591 148.333 48.0263C148.335 48.0293 148.35 48.0231 148.384 48.0154Z" fill="#D0FE16"/>
<path d="M128.419 51.0286H130.166C130.974 51.0286 130.975 51.0283 130.8 50.2281C130.673 49.648 130.45 49.1187 129.953 48.7519C128.666 47.8011 126.785 48.3784 126.192 49.9033C126.078 50.1968 126.02 50.5048 125.959 50.812C125.925 50.9824 125.969 51.0363 126.157 51.0332C126.911 51.0206 127.665 51.0279 128.419 51.0286ZM129.863 53.0177C128.601 53.0178 127.339 53.0221 126.078 53.0135C125.869 53.0121 125.826 53.0651 125.859 53.271C126.011 54.2266 126.404 55.0309 127.257 55.5542C128.708 56.4451 130.612 55.8537 131.272 54.2955C131.373 54.0561 131.455 54.0586 131.657 54.1638C132.265 54.4813 132.881 54.7852 133.502 55.0789C133.673 55.1597 133.694 55.2306 133.613 55.3949C132.998 56.6362 132.081 57.5675 130.751 57.9988C128.871 58.6086 127.039 58.4959 125.328 57.428C124.202 56.7252 123.459 55.7251 123.133 54.4388C122.712 52.7722 122.694 51.0993 123.376 49.5039C124.271 47.4128 125.912 46.3004 128.193 46.161C128.988 46.1125 129.779 46.1823 130.545 46.4183C132.279 46.9526 133.256 48.1776 133.69 49.8843C133.937 50.855 133.913 51.848 133.916 52.8387C133.917 53.0348 133.806 53.0187 133.676 53.0186C132.405 53.017 131.134 53.0176 129.863 53.0177Z" fill="#D0FE16"/>
<path d="M102.827 58.3487C101.568 58.3241 100.354 58.1314 99.2941 57.3822C98.5154 56.8318 98.013 56.0943 97.7759 55.1713C97.7356 55.015 97.7623 54.9551 97.9196 54.911C98.6901 54.6942 99.4569 54.465 100.226 54.2437C100.336 54.212 100.443 54.1445 100.501 54.3495C100.894 55.7572 101.924 56.2605 103.319 56.1639C103.577 56.146 103.83 56.1036 104.074 56.0087C104.531 55.8318 104.779 55.499 104.824 55.0209C104.866 54.5672 104.699 54.2019 104.313 53.9458C103.745 53.5695 103.094 53.4134 102.445 53.2659C101.691 53.0946 100.932 52.9432 100.225 52.6159C99.3711 52.2202 98.6347 51.6893 98.3036 50.7628C97.8157 49.3981 98.1414 47.4036 100.18 46.6133C102.137 45.8548 104.091 45.9389 105.946 46.9985C106.704 47.4319 107.253 48.0694 107.621 48.8631C107.7 49.0349 107.699 49.1187 107.495 49.1867C106.753 49.4328 106.015 49.6891 105.282 49.9605C105.119 50.0206 105.076 49.9785 105.009 49.8449C104.429 48.6972 103.428 48.1616 102.169 48.335C101.676 48.4028 101.24 48.5954 101.041 49.0963C100.825 49.6414 101.088 50.1987 101.7 50.5015C102.321 50.809 102.998 50.9376 103.669 51.0837C104.594 51.2853 105.493 51.5484 106.316 52.0426C108.284 53.2234 107.978 56.0659 106.604 57.1995C105.573 58.0493 104.371 58.3084 103.085 58.3484C102.999 58.351 102.913 58.3487 102.827 58.3487Z" fill="#D0FE16"/>
<path d="M138.408 49.4776C138.408 52.2112 138.405 54.9447 138.413 57.6784C138.414 57.9083 138.366 57.9851 138.121 57.98C137.328 57.9632 136.535 57.9684 135.742 57.9775C135.553 57.9797 135.479 57.9427 135.479 57.7305C135.485 52.2345 135.485 46.7387 135.48 41.2429C135.48 41.0513 135.535 41.0035 135.722 41.0057C136.543 41.0156 137.365 41.0212 138.186 41.0032C138.429 40.9978 138.41 41.1166 138.41 41.2767C138.408 43.2293 138.408 45.1819 138.408 47.1345C138.408 47.9155 138.408 48.6965 138.408 49.4776Z" fill="#D0FE16"/>
<path d="M70.8809 52.2842C70.8808 54.0842 70.8756 55.8842 70.8868 57.6841C70.8883 57.9291 70.8153 57.9835 70.5828 57.9793C69.7902 57.9653 68.9973 57.9687 68.2046 57.9777C68.0164 57.9798 67.9416 57.9448 67.942 57.7323C67.9495 54.0849 67.9498 50.4373 67.9442 46.7898C67.944 46.5963 68.0008 46.5521 68.185 46.5543C68.9967 46.5635 69.8088 46.5665 70.6204 46.5525C70.8433 46.5486 70.8866 46.62 70.8857 46.8273C70.8776 48.6462 70.881 50.4652 70.8809 52.2842Z" fill="#D0FE16"/>
<path d="M119.561 41.4025C120.328 41.421 120.944 41.7267 121.285 42.4246C121.589 43.0483 121.542 43.6845 121.132 44.2624C120.605 45.0043 119.4 45.2326 118.515 44.7713C117.744 44.3699 117.4 43.479 117.684 42.6236C117.932 41.8756 118.691 41.382 119.561 41.4025Z" fill="#D0FE16"/>
<path d="M69.535 41.4038C70.2177 41.4191 70.8454 41.7332 71.1821 42.4625C71.4954 43.1409 71.4035 43.8023 70.9163 44.3837C70.3975 45.0025 69.3042 45.1909 68.4884 44.8158C67.7322 44.4682 67.3665 43.7403 67.5049 42.8588C67.6383 42.0104 68.4417 41.4023 69.535 41.4038Z" fill="#D0FE16"/>
</g>
</g>
<defs>
<linearGradient id="paint0_linear_181_333" x1="86.5" y1="100" x2="86.5" y2="4.98978e-06" gradientUnits="userSpaceOnUse">
<stop offset="0.45" stop-color="#053BE5"/>
<stop offset="1"/>
</linearGradient>
<clipPath id="clip0_181_333">
<rect width="138" height="86" fill="white" transform="translate(18 7)"/>
</clipPath>
</defs>
</svg>
