<svg width="173" height="100" viewBox="0 0 173 100" fill="none" xmlns="http://www.w3.org/2000/svg">
<rect x="0.5" y="0.5" width="172" height="99" fill="#111111" fill-opacity="0.5" stroke="url(#paint0_linear_179_521)"/>
<path d="M25.9431 42.1455H31.2986L31.9353 41.5664C32.3076 41.2672 32.8404 40.826 33.1248 40.6318L33.6257 40.2715L32.9314 39.9775C30.6441 39.0093 28.1085 38.763 25.7859 39.2559C25.1653 39.3967 24.2248 39.696 23.6931 39.9424C23.1525 40.1888 22.3812 40.6464 21.7449 41.0713C21.4267 41.2837 21.1428 41.4881 20.9382 41.6533C20.8359 41.736 20.7536 41.8091 20.697 41.8682C20.6688 41.8977 20.6471 41.9235 20.6326 41.9453C20.6181 41.9671 20.6113 41.9836 20.6111 41.9951C20.6116 41.9955 20.6129 41.9954 20.614 41.9961C20.6178 41.9983 20.6237 42.0013 20.6326 42.0039C20.6503 42.0091 20.6771 42.0144 20.7126 42.0195C20.784 42.0298 20.8902 42.0393 21.0261 42.0488C21.2979 42.0678 21.6912 42.0853 22.1755 42.0996C23.1446 42.1282 24.4796 42.1455 25.9431 42.1455Z" fill="white" stroke="url(#paint1_linear_179_521)" stroke-width="0.0175671"/>
<path d="M48.7356 43.9526C48.7386 43.9502 48.7419 43.9435 48.7385 43.9272C48.7319 43.8958 48.7049 43.8433 48.6584 43.772C48.4727 43.4865 47.9849 42.9189 47.3196 42.2671C46.0429 41.0171 44.4115 40.0139 42.7805 39.5034V39.5024C42.0275 39.2562 40.8661 39.1024 39.7288 39.0562C38.5911 39.0099 37.4786 39.0718 36.8235 39.2563C36.2604 39.4104 35.8405 39.5317 35.5667 39.6255C35.4296 39.6724 35.3289 39.7119 35.2659 39.7456C35.2344 39.7625 35.2128 39.7775 35.2004 39.7905C35.1882 39.8035 35.1869 39.8125 35.1897 39.8188C35.1933 39.8266 35.2052 39.8356 35.2288 39.8442C35.2519 39.8526 35.2849 39.8605 35.3274 39.8667C35.4123 39.8792 35.5355 39.8871 35.6965 39.8911C36.0186 39.8991 36.4928 39.8911 37.1223 39.8735C40.4237 39.7854 42.9639 40.3313 44.7405 41.5308C45.2192 41.8476 46.0347 42.3058 46.5667 42.5522C47.082 42.7816 47.8104 43.2404 48.2014 43.5757C48.3366 43.6945 48.4449 43.7834 48.5286 43.8452C48.6126 43.9073 48.6713 43.9409 48.7063 43.9517C48.7149 43.9543 48.7217 43.9557 48.7268 43.9556C48.7316 43.9555 48.734 43.9539 48.7356 43.9526Z" fill="white" stroke="url(#paint2_linear_179_521)" stroke-width="0.0175671"/>
<path d="M50.512 48.9385C50.4499 48.2607 50.3258 47.5739 50.1663 46.9775C50.0066 46.381 49.811 45.8756 49.6077 45.5596C49.5286 45.4465 49.3389 45.2848 49.093 45.1133C48.9086 44.9846 48.6934 44.8504 48.47 44.7285L48.2454 44.6113C44.6628 42.8152 38.9502 41.8812 33.2551 42.1631C32.5898 42.1983 32.1156 42.2378 31.7834 42.2949C31.4921 42.3451 31.3117 42.4088 31.2073 42.4932L31.1672 42.5303C31.1341 42.5632 31.1089 42.5921 31.0959 42.6172C31.0831 42.642 31.0823 42.6624 31.094 42.6797C31.1064 42.698 31.1345 42.7151 31.1838 42.7314C31.2332 42.7477 31.3036 42.7622 31.3977 42.7754C31.7743 42.8281 32.537 42.8593 33.9475 42.9033C37.2128 43.0091 39.1301 43.326 41.6682 44.1719C43.1415 44.6654 44.6377 45.3269 45.7893 45.957C46.3649 46.272 46.8548 46.5794 47.2131 46.8545C47.3923 46.992 47.5389 47.1217 47.6467 47.2402C47.7544 47.3586 47.8239 47.467 47.8489 47.5615H47.8499C47.8763 47.6753 47.9155 47.776 47.9592 47.8477C47.9811 47.8834 48.0043 47.9114 48.0266 47.9307C48.049 47.9499 48.0699 47.9599 48.0891 47.96C48.1308 47.96 48.1877 47.9763 48.2551 48.0049C48.3229 48.0337 48.4028 48.0752 48.4905 48.127C48.6658 48.2304 48.8742 48.3742 49.0862 48.5361C49.5099 48.8599 49.9495 49.2572 50.1721 49.5488L50.6155 50.1426L50.512 48.9385Z" fill="white" stroke="url(#paint3_linear_179_521)" stroke-width="0.0175671"/>
<path d="M23.5481 45.8452H28.9006L29.094 45.3052C29.2007 45.0226 29.5197 44.4227 29.8215 43.9819C29.9635 43.7617 30.097 43.5545 30.1946 43.396C30.2433 43.3169 30.2832 43.2501 30.3108 43.1997C30.3245 43.1747 30.3348 43.1533 30.342 43.1372C30.3456 43.1291 30.3491 43.1221 30.3508 43.1167C30.3515 43.1145 30.3514 43.1124 30.3518 43.1108C30.3476 43.1099 30.3409 43.1089 30.3323 43.1079C30.3141 43.1058 30.287 43.1032 30.2512 43.1011C30.1791 43.0967 30.0719 43.0925 29.9348 43.0884C29.6607 43.0801 29.2644 43.0725 28.7756 43.0659C27.7975 43.0527 26.4487 43.0435 24.967 43.0435H19.5598L19.136 43.604C18.8436 43.9999 18.5428 44.5022 18.3323 44.9224C18.2271 45.1324 18.1441 45.3218 18.0969 45.4673C18.0733 45.54 18.0584 45.6016 18.054 45.6489C18.0517 45.6725 18.053 45.6928 18.0559 45.7085L18.0706 45.7417L18.0725 45.7427C18.0744 45.7433 18.0771 45.7439 18.0803 45.7446C18.0867 45.7462 18.0955 45.7479 18.1067 45.7495C18.1289 45.7528 18.1599 45.756 18.1995 45.7593C18.2788 45.7658 18.3925 45.7726 18.5354 45.7788C18.8211 45.7912 19.2264 45.8021 19.7219 45.812C20.7133 45.8318 22.0665 45.8452 23.5481 45.8452Z" fill="white" stroke="url(#paint4_linear_179_521)" stroke-width="0.0175671"/>
<path d="M49.6431 54.3613V54.3604C50.1042 53.2863 50.3528 52.4767 50.4946 51.5615L50.5991 50.8457L48.1392 49.5977C43.7318 47.385 39.5272 46.3486 33.4634 46.0391L32.2251 45.9863C31.6397 45.9599 31.0409 45.9514 30.5464 45.958C30.0518 45.9646 29.6623 45.9865 29.4946 46.0215H29.4937C29.326 46.0478 29.1675 46.0967 29.0464 46.1514C28.986 46.1786 28.9348 46.2071 28.897 46.2354C28.8779 46.2497 28.8618 46.2639 28.8501 46.2773L28.8267 46.3154C28.8241 46.3221 28.8242 46.3287 28.8267 46.335C28.8294 46.3416 28.8355 46.3497 28.8452 46.3574C28.8647 46.3728 28.8979 46.3881 28.9458 46.4033C29.042 46.4339 29.1943 46.4629 29.4048 46.4893C29.8258 46.5421 30.4784 46.5859 31.3745 46.6211C36.5038 46.8678 41.2251 48.1721 44.7046 50.2871C45.6359 50.8507 46.2668 51.2824 46.6646 51.6396C47.062 51.9968 47.229 52.2816 47.229 52.5498C47.2291 52.8387 47.3764 53.1022 47.769 53.4346L47.9536 53.582C48.149 53.7496 48.3664 53.9529 48.5552 54.1514C48.7438 54.3496 48.9034 54.5444 48.9839 54.6953L48.9849 54.6943L49.2944 55.1914L49.6431 54.3613Z" fill="white" stroke="url(#paint5_linear_179_521)" stroke-width="0.0175671"/>
<path d="M77.4768 53.7383C78.6825 53.8087 79.6344 53.6507 80.2844 53.2842C80.9338 52.9179 81.2825 52.3432 81.2825 51.5801C81.2825 51.2544 81.2598 51.0311 81.1917 50.8477C81.1236 50.6647 81.01 50.5202 80.8245 50.3535H80.8235C80.6909 50.2307 80.5453 50.1209 80.4172 50.042C80.3532 50.0025 80.2935 49.97 80.2424 49.9482C80.1914 49.9265 80.1495 49.9151 80.1204 49.915C80.0477 49.915 79.9837 49.8926 79.9377 49.8584C79.892 49.8243 79.8626 49.7781 79.8625 49.7305C79.8625 49.6757 79.8815 49.6294 79.9143 49.5967C79.9472 49.564 79.9939 49.5449 80.0491 49.5449C80.1438 49.5449 80.2462 49.4974 80.3469 49.4141C80.4475 49.3308 80.5459 49.2133 80.6321 49.0762C80.8044 48.8019 80.928 48.4508 80.928 48.1445C80.9279 47.408 80.5747 46.8293 79.9036 46.4961C79.5858 46.3383 78.9792 46.2201 78.3362 46.165C77.6933 46.11 77.0151 46.1182 76.5549 46.2148C75.8813 46.3557 75.4219 46.5407 75.0999 46.832C74.7779 47.1232 74.592 47.5221 74.468 48.0938L74.3459 48.6641H75.3293C75.5465 48.6641 75.7173 48.6607 75.8508 48.6514C75.9841 48.642 76.08 48.6272 76.1487 48.6035C76.2171 48.5798 76.2586 48.548 76.2825 48.5059C76.3065 48.4634 76.3137 48.4088 76.3137 48.3389C76.3137 48.1287 76.4173 47.9463 76.5823 47.8027C76.7471 47.6593 76.9738 47.5537 77.2209 47.4951C77.715 47.378 78.2959 47.4484 78.636 47.7861C78.9745 48.1224 79.048 48.4661 78.8967 48.7373C78.7459 49.0074 78.3735 49.202 77.8313 49.2461C77.6673 49.2593 77.5411 49.2712 77.4436 49.29C77.3462 49.3089 77.2781 49.3346 77.2288 49.374C77.1797 49.4132 77.1486 49.4668 77.1262 49.5439C77.115 49.5827 77.1057 49.6274 77.0979 49.6787L77.0764 49.8545C77.0631 49.9954 77.0543 50.1015 77.0579 50.1816C77.0614 50.2617 77.0774 50.3145 77.1116 50.3496C77.146 50.3848 77.2012 50.4046 77.2864 50.415C77.3714 50.4254 77.4851 50.4268 77.636 50.4268C78.186 50.4268 78.5695 50.4923 78.8157 50.6455C79.063 50.7995 79.1711 51.0411 79.1711 51.3867C79.1711 51.7488 79.0816 51.9985 78.8704 52.1572C78.6594 52.3154 78.3283 52.3818 77.8489 52.3818C77.4222 52.3818 77.0437 52.2983 76.7561 52.1523C76.4688 52.0064 76.2714 51.7974 76.2083 51.5479C76.147 51.3307 75.9935 51.1737 75.7561 51.082C75.5185 50.9903 75.1964 50.9639 74.7981 51.0078C74.6828 51.021 74.5929 51.035 74.5247 51.0557C74.4569 51.0763 74.4107 51.1031 74.3801 51.1406C74.3495 51.1783 74.334 51.2285 74.3293 51.2969C74.3247 51.3653 74.3307 51.4515 74.344 51.5615C74.4102 52.2024 74.9114 52.9064 75.5422 53.2959L75.6702 53.3691C75.8287 53.4479 76.1115 53.5277 76.4397 53.5938C76.6857 53.6433 76.9568 53.6848 77.219 53.7139L77.4768 53.7383Z" fill="white" stroke="url(#paint6_linear_179_521)" stroke-width="0.0175671"/>
<path d="M141.946 53.7212C143.266 53.8355 144.333 53.5359 145.071 52.8862C145.81 52.2365 146.222 51.2348 146.23 49.9419C146.23 48.2881 145.611 47.0752 144.408 46.4604C144.037 46.2676 143.399 46.1531 142.734 46.1245C142.07 46.0959 141.379 46.154 140.901 46.3032C140.105 46.558 139.503 47.0542 139.123 47.7524C138.79 48.3636 138.626 49.1297 138.649 50.0249L138.671 50.4165C138.751 51.3927 139.083 52.175 139.638 52.7349C140.193 53.2947 140.972 53.6332 141.946 53.7212ZM142.482 52.2124C142.085 52.2323 141.684 52.0903 141.318 51.7808C141.105 51.5954 140.98 51.453 140.901 51.2241C140.823 50.996 140.792 50.6819 140.766 50.1538V50.1528C140.739 49.4745 140.778 48.9839 140.912 48.6167C141.046 48.249 141.274 48.0057 141.622 47.8198C141.908 47.6689 142.3 47.6332 142.679 47.6929C143.057 47.7525 143.423 47.9075 143.655 48.1382C143.942 48.4228 144.03 48.779 144.083 49.8179C144.118 50.4514 144.133 50.7835 144.072 51.0229C144.027 51.2032 143.939 51.3307 143.79 51.4946L143.619 51.6743C143.272 52.0102 142.88 52.1925 142.482 52.2124Z" fill="white" stroke="url(#paint7_linear_179_521)" stroke-width="0.0175671"/>
<path d="M64.9294 54.9712L65.5779 54.9194V53.8706C65.5779 53.6328 65.575 53.4475 65.5662 53.3032C65.5573 53.1591 65.5425 53.0557 65.5164 52.981C65.4903 52.9067 65.4532 52.8605 65.4021 52.8296C65.3506 52.7985 65.2834 52.7822 65.1951 52.769C65.1262 52.7599 65.0404 52.7148 64.9382 52.6362C64.8357 52.5574 64.7155 52.4439 64.5779 52.2974C64.3026 52.0042 63.9558 51.5769 63.5388 51.022V51.021C63.2017 50.563 62.8911 50.1311 62.6648 49.8052C62.5517 49.6423 62.4591 49.5061 62.3953 49.4058C62.3635 49.3558 62.339 49.3146 62.322 49.2837C62.3136 49.2684 62.307 49.255 62.3025 49.2446C62.3003 49.2396 62.2979 49.2349 62.2966 49.231C62.2954 49.227 62.2947 49.2227 62.2947 49.2192C62.2947 49.2159 62.2963 49.2125 62.2976 49.2095C62.299 49.2062 62.3011 49.2019 62.3035 49.1978C62.3083 49.1896 62.3151 49.1795 62.324 49.1675C62.3421 49.1429 62.3691 49.1098 62.4031 49.0698C62.4711 48.9899 62.5694 48.8803 62.6902 48.7505C62.932 48.4906 63.265 48.1467 63.6287 47.7856C63.9923 47.4246 64.3246 47.0807 64.5662 46.8188C64.6869 46.6879 64.7855 46.5777 64.8533 46.4956C64.887 46.4547 64.9127 46.4206 64.9304 46.395C64.9393 46.3822 64.9466 46.3712 64.9509 46.3628C64.9553 46.3543 64.9568 46.3492 64.9568 46.3472C64.9567 46.3401 64.9518 46.3318 64.9402 46.3228C64.9286 46.3138 64.9109 46.3048 64.8875 46.2964C64.8401 46.2794 64.7706 46.2645 64.6843 46.2524C64.512 46.2283 64.2732 46.2153 64.0076 46.2153H63.0349L61.7419 47.6216C61.387 48.0092 61.0501 48.3621 60.7927 48.6177C60.6642 48.7453 60.5555 48.8487 60.4744 48.9204C60.4339 48.9562 60.3997 48.9843 60.3738 49.0034C60.3609 49.0129 60.3498 49.0208 60.3406 49.0259C60.3318 49.0307 60.3231 49.0337 60.3162 49.0337C60.3084 49.0337 60.3019 49.0295 60.2966 49.0239C60.2914 49.0184 60.2865 49.0108 60.282 49.0015C60.2728 48.9823 60.2633 48.9544 60.2546 48.9194C60.2373 48.8493 60.2213 48.748 60.2058 48.6235C60.1747 48.3744 60.1474 48.0307 60.1296 47.6519L60.0769 46.3032L59.1628 46.2505L58.2312 46.1987V53.5972H60.1658V52.4614C60.1658 52.0033 60.1836 51.6979 60.2371 51.4722C60.2907 51.246 60.3802 51.0995 60.5232 50.9575C60.6302 50.8513 60.7416 50.7709 60.8357 50.7241C60.8826 50.7008 60.9257 50.6862 60.9617 50.6802C60.9961 50.6745 61.0251 50.678 61.0457 50.6919L61.0466 50.6909C61.0535 50.6936 61.0622 50.6992 61.071 50.7065C61.0799 50.7139 61.0898 50.724 61.1013 50.7358C61.1246 50.7598 61.1537 50.7927 61.1873 50.8335C61.2545 50.9152 61.3413 51.0289 61.4412 51.1655C61.541 51.3021 61.6548 51.4613 61.7751 51.6353L62.1511 52.1919C62.5415 52.7909 62.7897 53.1424 62.9929 53.3442C63.0944 53.445 63.1845 53.5084 63.2751 53.5464C63.3657 53.5843 63.4577 53.5971 63.5632 53.5972C63.7963 53.5972 63.9902 53.6906 64.114 53.8403C64.2378 53.99 64.2917 54.1958 64.2468 54.4185C64.2248 54.5455 64.2168 54.6466 64.2273 54.7261C64.2379 54.8052 64.2665 54.8628 64.3162 54.9028C64.3664 54.9432 64.4398 54.9676 64.5408 54.978C64.6417 54.9884 64.77 54.9844 64.9294 54.9712Z" fill="white" stroke="url(#paint8_linear_179_521)" stroke-width="0.0175671"/>
<path d="M72.3127 53.5615C72.7117 53.5791 72.9634 53.5798 73.1086 53.5537C73.1815 53.5406 73.2264 53.5204 73.2493 53.4951C73.2601 53.483 73.2667 53.4692 73.2688 53.4531L73.262 53.3975C72.4281 51.1514 71.7934 49.4515 71.3499 48.291C71.1281 47.7109 70.9539 47.2653 70.8264 46.9541C70.7627 46.7985 70.7107 46.6755 70.6702 46.5869C70.65 46.5428 70.6328 46.5069 70.6184 46.4795C70.6039 46.4519 70.5925 46.4331 70.5842 46.4229C70.5636 46.3984 70.5198 46.3732 70.4573 46.3486C70.3947 46.3241 70.3137 46.301 70.2209 46.2812C70.0353 46.2417 69.8007 46.2148 69.5618 46.2148C69.3622 46.2148 69.2056 46.218 69.0813 46.2295C68.9571 46.241 68.865 46.2615 68.7932 46.2939C68.6506 46.3584 68.5848 46.4737 68.5051 46.6846V46.6855C67.9285 48.1741 67.3115 49.8124 66.8391 51.1006C66.6029 51.7447 66.4031 52.3015 66.262 52.708C66.1914 52.9112 66.136 53.0769 66.0979 53.1973C66.0788 53.2575 66.0638 53.3063 66.054 53.3428C66.0491 53.3609 66.0457 53.3759 66.0432 53.3877C66.0407 53.3996 66.0393 53.4076 66.0393 53.4121C66.0393 53.4437 66.0551 53.4711 66.0901 53.4941C66.1255 53.5173 66.1801 53.5357 66.2561 53.5488C66.408 53.5751 66.6421 53.5791 66.97 53.5615C67.1872 53.5483 67.3547 53.5368 67.4856 53.5176C67.6165 53.4984 67.7107 53.4716 67.7825 53.4307C67.9254 53.349 67.9827 53.2072 68.0627 52.9336L68.2209 52.3711L68.1995 52.3643H70.9817V52.3408L70.9895 52.3701L71.1497 52.9336V52.9346C71.2208 53.2172 71.2646 53.3582 71.4114 53.4375C71.4853 53.4774 71.5859 53.5017 71.7307 53.5195C71.8756 53.5374 72.0642 53.5483 72.3127 53.5615ZM70.1165 50.9629C69.9609 50.9629 69.7563 50.9542 69.5432 50.9365L68.7629 50.8838V50.875L68.7659 50.8359L69.1809 49.4629L69.6243 48.0537L69.6331 48.0254L69.6409 48.0537L70.0491 49.4629C70.1556 49.8505 70.2494 50.2083 70.3137 50.4727C70.3458 50.6046 70.3702 50.7137 70.386 50.792C70.3939 50.8311 70.3995 50.8628 70.4026 50.8857C70.4041 50.8972 70.4053 50.9068 70.4055 50.9141C70.4056 50.9177 70.4058 50.9211 70.4055 50.9238L70.4036 50.9316L70.4016 50.9346C70.3982 50.9379 70.3931 50.9404 70.3879 50.9424C70.3825 50.9445 70.376 50.9466 70.3684 50.9482C70.353 50.9517 70.3321 50.9538 70.3079 50.9561C70.2593 50.9605 70.1939 50.9629 70.1165 50.9629Z" fill="white" stroke="url(#paint9_linear_179_521)" stroke-width="0.0175671"/>
<path d="M88.7266 53.5977C88.9128 53.5977 89.0625 53.594 89.1816 53.585C89.3006 53.5759 89.3888 53.5617 89.4531 53.5391C89.5172 53.5164 89.5573 53.4859 89.5801 53.4463C89.6029 53.4064 89.6098 53.3553 89.6055 53.29V53.2891C89.6054 53.2801 89.603 53.2652 89.5986 53.2441C89.5942 53.2231 89.5878 53.196 89.5791 53.1641C89.5618 53.1003 89.5358 53.0159 89.5029 52.9131C89.437 52.7071 89.3421 52.4279 89.2246 52.0967C89.1071 51.7653 88.9672 51.3812 88.8125 50.9658L88.3105 49.6455L87.0352 46.3037L86.1357 46.251C85.7629 46.2333 85.5241 46.2334 85.3613 46.2705C85.2804 46.289 85.2182 46.3166 85.168 46.3555C85.1177 46.3944 85.079 46.4455 85.0439 46.5107C85.022 46.5523 84.9632 46.6906 84.8779 46.9023C84.7926 47.1143 84.6805 47.3997 84.5508 47.7324C84.2913 48.3977 83.9615 49.2545 83.6377 50.1055C83.3139 50.9566 82.9961 51.8022 82.7588 52.4434C82.6402 52.7637 82.5414 53.0328 82.4727 53.2266C82.4383 53.3235 82.4109 53.4022 82.3926 53.458C82.3835 53.4857 82.3767 53.5081 82.3721 53.5244C82.3698 53.5324 82.3683 53.5389 82.3672 53.5439C82.366 53.5493 82.3652 53.5526 82.3652 53.5537C82.3652 53.5508 82.3631 53.5509 82.3662 53.5527C82.3688 53.5542 82.3734 53.5558 82.3799 53.5576C82.3929 53.5612 82.4128 53.5644 82.4385 53.5674C82.4899 53.5734 82.5645 53.5779 82.6562 53.5801C82.84 53.5845 83.0925 53.5801 83.3672 53.5625C83.611 53.5493 83.7971 53.5383 83.9414 53.5205C84.0858 53.5026 84.1885 53.4775 84.2646 53.4375C84.4157 53.358 84.4679 53.2168 84.5479 52.9346L84.708 52.3711L84.7168 52.373L84.6855 52.3643H87.3252V52.3496L87.333 52.3701L87.5811 52.9863C87.7056 53.2778 87.7801 53.429 87.9277 53.5088C88.0016 53.5487 88.0947 53.5707 88.2227 53.583C88.3508 53.5953 88.5137 53.5977 88.7266 53.5977ZM86.0469 50.9727C85.7277 50.9726 85.5135 50.9548 85.3857 50.917C85.3221 50.8981 85.278 50.8738 85.2539 50.8428C85.2294 50.8111 85.2263 50.7731 85.2402 50.7314L85.2412 50.7305C85.2542 50.7046 85.2749 50.6459 85.3018 50.5615C85.3286 50.4772 85.3609 50.3677 85.3975 50.2412C85.4706 49.9881 85.5597 49.6666 85.6484 49.3408C85.7371 49.015 85.8211 48.7238 85.8877 48.5166C85.921 48.4131 85.9508 48.3303 85.9736 48.2744C85.9849 48.2468 85.9945 48.2251 86.0029 48.2109C86.0071 48.204 86.0116 48.1981 86.0156 48.1943L86.0332 48.1895L86.0361 48.1914C86.0376 48.193 86.0392 48.1957 86.04 48.1973C86.041 48.1991 86.0418 48.2015 86.043 48.2041C86.0456 48.21 86.0488 48.2185 86.0527 48.2285C86.0607 48.2491 86.072 48.2787 86.085 48.3154C86.111 48.3893 86.1463 48.4943 86.1885 48.6221L86.499 49.6045L86.9434 50.9609L86.9463 50.9727H86.0469Z" fill="white" stroke="url(#paint10_linear_179_521)" stroke-width="0.0175671"/>
<path d="M93.8447 50.5532L93.8379 50.5591L93.8311 50.5532L93.4053 51.0288C93.2361 51.2233 93.1326 51.3959 93.0723 51.6265C93.0121 51.8566 92.9951 52.1441 92.9951 52.5669V53.6157L92.0811 53.563L91.1484 53.5112L91.0957 50.0825C91.0868 49.1402 91.0871 48.2596 91.0938 47.5991C91.0971 47.2691 91.102 46.9937 91.1084 46.7935C91.1116 46.6933 91.1153 46.6114 91.1191 46.5513C91.1211 46.5212 91.1229 46.4961 91.125 46.4771C91.1269 46.4593 91.129 46.4471 91.1309 46.4399L91.168 46.3921C91.1849 46.3768 91.2067 46.362 91.2324 46.3481C91.2836 46.3206 91.3519 46.2965 91.4355 46.2769C91.6032 46.2375 91.833 46.2153 92.1162 46.2153H92.9951V47.6167C92.9951 48.0044 93.0121 48.357 93.041 48.6128C93.0554 48.7405 93.0735 48.8443 93.0928 48.9165C93.1024 48.9525 93.1121 48.9817 93.123 49.0015C93.1284 49.0112 93.1343 49.0192 93.1406 49.0249C93.1471 49.0307 93.1548 49.0346 93.1631 49.0347C93.1668 49.0347 93.171 49.0341 93.1748 49.0327C93.1787 49.0313 93.1829 49.0284 93.1875 49.0259C93.1968 49.0208 93.2086 49.0138 93.2217 49.0044C93.248 48.9853 93.2821 48.9571 93.3232 48.9214C93.4058 48.8496 93.5167 48.7455 93.6465 48.6177C93.906 48.3622 94.243 48.01 94.5889 47.6226L95.8818 46.2153H96.9248C97.2083 46.2153 97.4698 46.2288 97.6602 46.2485C97.7554 46.2584 97.8334 46.2704 97.8867 46.2827C97.9131 46.2888 97.933 46.2952 97.9463 46.3013C97.953 46.3044 97.9582 46.3066 97.9609 46.3091C97.9633 46.3113 97.9629 46.313 97.9629 46.313C97.9628 46.3135 97.9625 46.3144 97.9619 46.3159C97.961 46.3182 97.9592 46.321 97.957 46.3247C97.9527 46.3321 97.9463 46.342 97.9375 46.354C97.9198 46.3781 97.8933 46.4108 97.8594 46.4507C97.7916 46.5303 97.6939 46.6393 97.5732 46.769C97.3316 47.0288 96.9985 47.3728 96.6348 47.7339C96.2711 48.1038 95.9381 48.4558 95.6963 48.729C95.5754 48.8656 95.4773 48.9833 95.4092 49.0728C95.3753 49.1173 95.3482 49.1549 95.3301 49.1851C95.3211 49.2001 95.3144 49.2137 95.3096 49.2251C95.3049 49.2361 95.3019 49.2461 95.3018 49.2544C95.3018 49.2803 95.3109 49.3165 95.3281 49.3599C95.3455 49.4036 95.3718 49.4564 95.4043 49.5161C95.4692 49.6356 95.5621 49.7853 95.6748 49.9536C95.9004 50.2905 96.2054 50.7038 96.5215 51.1079C96.8376 51.5121 97.1653 51.9071 97.4375 52.2065C97.5736 52.3562 97.6959 52.4824 97.7959 52.5737C97.8458 52.6193 97.8898 52.657 97.9277 52.6841C97.9655 52.7111 97.9984 52.728 98.0234 52.7339C98.1069 52.7557 98.1719 52.7819 98.2236 52.8228C98.2753 52.8636 98.3141 52.9208 98.3447 53.0044C98.4062 53.1725 98.4333 53.4483 98.46 53.9243L98.5137 55.0073H97.8125C97.6393 55.0073 97.5084 55.0064 97.4092 54.9946C97.3104 54.9829 97.244 54.9604 97.1973 54.9194C97.1505 54.8783 97.1223 54.8167 97.1025 54.7241C97.0828 54.6315 97.0709 54.5091 97.0576 54.3462C97.0443 54.2008 97.0308 54.0864 97.0107 53.9966C96.9906 53.9069 96.964 53.8404 96.9229 53.7905C96.8404 53.6905 96.7036 53.6597 96.4648 53.6333C96.2453 53.6071 96.0693 53.529 95.8398 53.3013C95.6098 53.0729 95.3264 52.6944 94.8916 52.0688L93.8447 50.5532ZM93.8379 50.5591L93.8447 50.5532M93.8379 50.5591L93.8652 50.5835L93.8447 50.5532" fill="white" stroke="url(#paint11_linear_179_521)" stroke-width="0.0175671"/>
<path d="M103.11 53.5977V50.7871C103.11 49.7214 103.123 49.0163 103.159 48.5732C103.176 48.3519 103.2 48.1953 103.23 48.0918C103.245 48.0402 103.262 48.001 103.281 47.9736C103.3 47.9462 103.322 47.9298 103.347 47.9248H103.349C103.455 47.9248 103.916 47.9073 104.36 47.8896L105.15 47.873L105.204 47.0342L105.255 46.2158H102.161C101.203 46.2158 100.417 46.2329 99.8628 46.2637C99.5859 46.2791 99.3667 46.2979 99.2124 46.3193C99.1353 46.33 99.0742 46.3416 99.0308 46.3535C99.0091 46.3594 98.9917 46.3651 98.979 46.3711L98.9556 46.3877C98.9366 46.417 98.9234 46.4591 98.9155 46.5107C98.9076 46.5623 98.9054 46.6235 98.9077 46.6904C98.9124 46.8243 98.9357 46.982 98.9722 47.1367C99.0087 47.2914 99.0584 47.4435 99.1138 47.5664C99.1414 47.6278 99.1709 47.6821 99.2007 47.7256C99.2305 47.769 99.261 47.8015 99.2905 47.8203C99.3158 47.837 99.3636 47.8546 99.4292 47.8711C99.4944 47.8875 99.5766 47.9029 99.6704 47.916C99.8585 47.9424 100.093 47.96 100.333 47.96H101.167V47.9688H101.175V53.5977H103.11Z" fill="white" stroke="url(#paint12_linear_179_521)" stroke-width="0.0175671"/>
<path d="M108.788 50.6113H108.797V50.6025H112.337V49.2109H108.797V49.2021H108.788V47.9863H108.463L108.797 47.9775L110.802 47.9248L112.781 47.873L112.834 47.0342L112.886 46.2158H106.854V53.5977L109.914 53.5625L112.958 53.5107V52.1172L110.891 52.0645L108.797 52.0117V52.0029L108.788 52.3516V50.6113Z" fill="white" stroke="url(#paint13_linear_179_521)" stroke-width="0.0175671"/>
<path d="M114.76 53.5977C115.734 53.5976 116.374 53.3821 116.777 52.8086C117.182 52.234 117.35 51.2982 117.377 49.8535L117.413 49.1357C117.428 48.9189 117.447 48.7266 117.468 48.5645C117.489 48.4024 117.513 48.2699 117.539 48.1738C117.552 48.1259 117.566 48.0863 117.581 48.0566C117.595 48.0276 117.611 48.0063 117.629 47.9961C117.657 47.9775 117.707 47.9619 117.771 47.9492C117.834 47.9365 117.914 47.9265 118.004 47.9199C118.184 47.9067 118.406 47.9072 118.628 47.9248L119.444 47.9951V48.0039L119.453 47.9023V53.5977H121.387L121.352 49.9414L121.298 46.3037L118.433 46.251L115.583 46.2168L115.514 48.8145L115.489 49.792C115.479 50.0797 115.468 50.3308 115.451 50.5498C115.418 50.9876 115.369 51.2984 115.291 51.5176C115.213 51.7369 115.105 51.8651 114.954 51.9385C114.804 52.0115 114.613 52.0293 114.369 52.0293C114.218 52.0293 114.105 52.0303 114.021 52.0439C113.938 52.0575 113.883 52.0838 113.848 52.1318C113.812 52.1804 113.794 52.2532 113.784 52.3633C113.775 52.4735 113.774 52.6196 113.774 52.8135V53.5977H114.76Z" fill="white" stroke="url(#paint14_linear_179_521)" stroke-width="0.0175671"/>
<path d="M125.469 50.6113H125.478V50.6025H129.018V49.2109H125.478V49.2021H125.469V47.9863H125.144L125.478 47.9775L127.483 47.9248L129.461 47.873L129.515 47.0342L129.567 46.2158H123.534V53.5977L126.595 53.5625L129.639 53.5107V52.1172L127.572 52.0645L125.478 52.0117V52.0029L125.469 52.3516V50.6113Z" fill="white" stroke="url(#paint15_linear_179_521)" stroke-width="0.0175671"/>
<path d="M133.967 50.5361L133.96 50.541L133.953 50.5352L133.51 51.0459C133.315 51.2663 133.202 51.4267 133.151 51.6182C133.099 51.8094 133.108 52.0315 133.153 52.375C133.188 52.6478 133.206 52.8632 133.197 53.0312C133.187 53.1992 133.152 53.3196 133.081 53.4033C133.011 53.4868 132.905 53.5351 132.753 53.5586C132.601 53.5821 132.403 53.5801 132.151 53.5625L131.323 53.5107L131.307 50.9639C131.307 49.5545 131.307 47.9165 131.324 47.2998L131.341 46.1992L132.274 46.251L133.187 46.3037L133.135 47.5635C133.117 47.9072 133.122 48.2334 133.142 48.4805C133.152 48.6038 133.165 48.7077 133.182 48.7842C133.19 48.8222 133.2 48.854 133.21 48.8779C133.22 48.9014 133.232 48.9196 133.245 48.9277C133.253 48.9325 133.264 48.9333 133.275 48.9316C133.286 48.9299 133.299 48.9253 133.313 48.9189C133.341 48.9062 133.378 48.885 133.42 48.8555C133.506 48.796 133.618 48.7029 133.75 48.585C134.014 48.3491 134.356 48.0098 134.711 47.6221L135.987 46.2158H137.03C137.313 46.2158 137.575 46.2288 137.765 46.2529C137.86 46.265 137.937 46.2798 137.99 46.2969C138.017 46.3054 138.037 46.3151 138.05 46.3242C138.063 46.3333 138.068 46.3411 138.068 46.3477C138.068 46.3497 138.066 46.3547 138.062 46.3633C138.057 46.3716 138.051 46.3827 138.042 46.3955C138.025 46.4212 137.998 46.455 137.964 46.4961C137.896 46.5782 137.798 46.6893 137.677 46.8203C137.435 47.0822 137.103 47.4253 136.74 47.7861C136.376 48.1474 136.043 48.4958 135.801 48.7646C135.68 48.899 135.582 49.0139 135.514 49.1006C135.48 49.1439 135.453 49.1805 135.435 49.209C135.426 49.2231 135.419 49.2357 135.414 49.2461C135.41 49.2561 135.407 49.265 135.406 49.2725C135.406 49.2797 135.409 49.2896 135.413 49.3008C135.418 49.3124 135.425 49.3269 135.434 49.3438C135.451 49.3775 135.477 49.4221 135.51 49.4756C135.576 49.5826 135.672 49.7267 135.789 49.8984C136.024 50.2421 136.348 50.6961 136.703 51.1807C137.395 52.1496 138.087 53.0835 138.229 53.2773C138.258 53.3169 138.282 53.3514 138.301 53.3818C138.32 53.4124 138.333 53.4382 138.338 53.46C138.343 53.4815 138.341 53.4988 138.332 53.5127C138.323 53.5268 138.305 53.5391 138.276 53.5498C138.216 53.5713 138.114 53.5832 137.954 53.5898C137.795 53.5964 137.58 53.5977 137.296 53.5977C136.967 53.5977 136.738 53.6109 136.552 53.5928C136.367 53.5747 136.226 53.5256 136.073 53.4014C135.918 53.2766 135.751 53.0759 135.516 52.7539C135.281 52.432 134.979 51.9895 134.553 51.3818L133.967 50.5361ZM133.96 50.541L133.967 50.5361M133.96 50.541L133.987 50.5645L133.967 50.5361" fill="white" stroke="url(#paint16_linear_179_521)" stroke-width="0.0175671"/>
<path d="M149.408 53.5977L149.46 50.9111L149.514 48.2324L149.531 48.2305L150.294 50.6084C150.507 51.2603 150.711 51.8902 150.867 52.377C150.944 52.62 151.01 52.8276 151.058 52.9844L151.146 53.2871C151.181 53.3989 151.25 53.4758 151.361 53.5254C151.472 53.5753 151.626 53.5977 151.83 53.5977H152.426L153.152 51.2607C153.356 50.6266 153.556 50.0053 153.715 49.5186C153.875 49.033 153.995 48.6802 154.04 48.582C154.045 48.5674 154.052 48.5559 154.058 48.5488C154.061 48.5454 154.065 48.5424 154.07 48.541C154.075 48.5396 154.079 48.54 154.083 48.542C154.092 48.5459 154.098 48.5555 154.103 48.5664C154.108 48.5778 154.114 48.5933 154.119 48.6123C154.138 48.6884 154.155 48.8284 154.169 49.0273C154.198 49.4263 154.216 50.0655 154.216 50.9111L154.234 53.5977H155.991V46.2158H153.362L153.205 46.7725C153.116 47.0897 152.779 48.2534 152.459 49.3457L151.856 51.3535L151.847 51.3828L151.839 51.3535L151.59 50.4902C151.466 50.0322 151.112 48.8695 150.828 47.918L150.297 46.2158H147.668V53.5977H149.408Z" fill="white" stroke="url(#paint17_linear_179_521)" stroke-width="0.0175671"/>
<path d="M27.9941 49.5449L28.1172 48.6543C28.1882 48.1434 28.2944 47.5088 28.3477 47.2441L28.4521 46.7432H17.5918L17.416 47.1963C17.3632 47.3187 17.3059 47.5386 17.2549 47.7939C17.2039 48.0491 17.1594 48.3396 17.1328 48.6035L17.0098 49.5449H27.9941Z" fill="white" stroke="url(#paint18_linear_179_521)" stroke-width="0.0175671"/>
<path d="M45.3169 53.4561C43.8269 52.7163 41.7515 51.9053 40.0308 51.3945C37.9642 50.7693 35.0145 50.2282 32.5815 49.9375C31.3652 49.7922 30.2783 49.7089 29.4956 49.71C29.1041 49.7105 28.7886 49.7325 28.5718 49.7773C28.4636 49.7997 28.3805 49.8276 28.3247 49.8613C28.269 49.8951 28.2418 49.9337 28.2417 49.9766C28.2417 50.059 28.3084 50.132 28.4497 50.1934C28.5904 50.2544 28.8021 50.3027 29.0854 50.3379C33.3446 50.8489 35.1909 51.2726 37.9067 52.3477C39.3801 52.9293 41.0891 53.8228 42.4292 54.6533C43.099 55.0684 43.6767 55.4683 44.0874 55.8047C44.2926 55.9728 44.4564 56.1257 44.5688 56.2568C44.6251 56.3224 44.6692 56.383 44.6987 56.4375C44.7282 56.4919 44.7446 56.5412 44.7446 56.584C44.7447 56.6257 44.7661 56.689 44.8081 56.7686C44.85 56.8479 44.9115 56.9426 44.9868 57.0459C45.1373 57.2524 45.3454 57.4941 45.5757 57.7227C45.7754 57.9209 45.9274 58.0704 46.0483 58.1787C46.1692 58.2869 46.2585 58.3533 46.3335 58.3857C46.4079 58.4179 46.4683 58.4167 46.5317 58.3896C46.5959 58.3622 46.6637 58.3083 46.7524 58.2334C47.2221 57.8375 47.794 57.2212 48.2329 56.6797C48.4524 56.4089 48.6388 56.1571 48.7622 55.9609C48.8239 55.8629 48.8694 55.779 48.896 55.7139C48.9092 55.6815 48.9172 55.6538 48.9204 55.6318C48.922 55.6204 48.9224 55.6104 48.9214 55.6025L48.9155 55.584C48.9084 55.5719 48.8936 55.5556 48.8716 55.5352C48.8498 55.5149 48.8215 55.4908 48.7866 55.4639C48.7164 55.4097 48.6207 55.3431 48.5054 55.2666C48.2743 55.1134 47.9625 54.921 47.6099 54.7129C46.9047 54.2968 46.0353 53.8171 45.3169 53.4561Z" fill="white" stroke="url(#paint19_linear_179_521)" stroke-width="0.0175671"/>
<path d="M22.9973 53.2451C24.7095 53.2451 26.0628 53.2271 26.9875 53.1963C27.45 53.1809 27.8056 53.1621 28.0452 53.1406C28.1646 53.1299 28.2551 53.1193 28.3157 53.1074C28.3459 53.1015 28.3685 53.0948 28.3831 53.0889C28.3904 53.0859 28.3958 53.0835 28.3987 53.0811C28.4001 53.0799 28.4003 53.0786 28.4006 53.0781C28.4006 53.0568 28.3953 53.0007 28.385 52.918C28.3748 52.8355 28.3599 52.7263 28.3411 52.5986C28.3034 52.3433 28.2508 52.0132 28.1887 51.6699L27.9758 50.4434H17.0276L17.1506 51.4385C17.1861 51.7111 17.2354 52.0057 17.2864 52.2607C17.3374 52.5162 17.3898 52.732 17.4338 52.8457L17.592 53.2451H22.9973Z" fill="white" stroke="url(#paint20_linear_179_521)" stroke-width="0.0175671"/>
<path d="M41.5112 60.5732C41.6662 60.6316 41.8595 60.6183 42.1968 60.5742C42.3953 60.5479 42.6971 60.4585 43.0386 60.334C43.3801 60.2094 43.7609 60.0497 44.1167 59.8857C44.4725 59.7217 44.8037 59.5535 45.0454 59.4092C45.1663 59.337 45.2645 59.2708 45.3325 59.2148C45.3665 59.1869 45.3931 59.1618 45.4106 59.1396C45.4283 59.1174 45.4359 59.0993 45.436 59.0859C45.436 59.0812 45.4333 59.0734 45.4272 59.0635C45.4213 59.0539 45.4119 59.0423 45.3999 59.0293C45.3754 59.0029 45.3389 58.9705 45.2915 58.9326C45.1964 58.8565 45.0583 58.7585 44.8853 58.6445C44.5389 58.4165 44.0537 58.1229 43.5015 57.8047C42.3971 57.1684 41.022 56.4326 39.9399 55.9219C37.1197 54.6011 33.8203 53.774 30.2192 53.4922C29.8688 53.4658 29.5993 53.4463 29.394 53.4375C29.1887 53.4287 29.048 53.4303 28.9546 53.4434C28.8605 53.4566 28.8181 53.4817 28.8032 53.5166C28.7958 53.5342 28.7949 53.5558 28.7993 53.582C28.8037 53.6083 28.8135 53.6389 28.8267 53.6738C28.8622 53.762 28.8933 53.8503 28.9155 53.9209C28.9266 53.9562 28.9357 53.9873 28.9419 54.0117C28.9479 54.0357 28.9507 54.0544 28.9507 54.0645C28.9507 54.0649 28.9515 54.0669 28.9556 54.0703C28.9599 54.0739 28.9673 54.0781 28.9771 54.082C28.9964 54.0899 29.0249 54.0979 29.061 54.1045C29.1335 54.1176 29.2353 54.126 29.3501 54.126C29.6795 54.126 30.4214 54.2589 31.2573 54.4482C32.0936 54.6377 33.0258 54.8842 33.7358 55.1133C35.2182 55.6068 36.9891 56.4703 38.3735 57.3008C39.0658 57.716 39.6624 58.123 40.0776 58.4717C40.2851 58.6458 40.4472 58.8062 40.5542 58.9453C40.6077 59.0149 40.6479 59.0797 40.6724 59.1387C40.6968 59.1976 40.7059 59.2515 40.6978 59.2988L40.6938 59.3662C40.6952 59.3919 40.6988 59.4208 40.7056 59.4521C40.719 59.5148 40.7429 59.5873 40.7749 59.6641C40.8389 59.8175 40.9365 59.9886 41.0513 60.1377C41.2377 60.3845 41.3565 60.5148 41.5112 60.5732Z" fill="white" stroke="url(#paint21_linear_179_521)" stroke-width="0.0175671"/>
<path d="M24.9492 56.9448C26.4397 56.9448 27.7931 56.9358 28.7734 56.9204C29.2634 56.9127 29.6602 56.9038 29.9346 56.8931C30.0718 56.8877 30.1789 56.8815 30.251 56.8755C30.2868 56.8725 30.3139 56.8698 30.332 56.8667C30.3411 56.8651 30.3476 56.8632 30.3516 56.8618C30.3513 56.861 30.3519 56.8599 30.3516 56.8589C30.3502 56.8549 30.3476 56.8495 30.3447 56.8433C30.339 56.8308 30.3304 56.8144 30.3193 56.7944C30.2973 56.7545 30.2654 56.7008 30.2256 56.6372C30.1458 56.5096 30.0353 56.3416 29.9111 56.1655H29.9102C29.6795 55.7955 29.3427 55.2138 29.165 54.8257L28.8652 54.1431H23.4062C21.9069 54.1431 20.5402 54.1521 19.5488 54.1675C19.0531 54.1752 18.651 54.1851 18.373 54.1958C18.234 54.2012 18.1258 54.2064 18.0527 54.2124C18.0165 54.2154 17.9891 54.2191 17.9707 54.2222C17.9614 54.2237 17.9543 54.2247 17.9502 54.2261L17.9492 54.2271C17.9502 54.2498 17.9587 54.2844 17.9746 54.3296C17.9915 54.3776 18.0164 54.4374 18.0479 54.5054C18.1107 54.6413 18.2004 54.8124 18.3057 55.0005C18.4635 55.2826 18.657 55.6034 18.8525 55.9019L19.0479 56.1909L19.5596 56.9448H24.9492Z" fill="white" stroke="url(#paint22_linear_179_521)" stroke-width="0.0175671"/>
<path d="M39.6038 60.9844C39.769 60.9742 39.898 60.9519 39.9807 60.917C40.0221 60.8995 40.0515 60.8792 40.0676 60.8564C40.083 60.8344 40.0872 60.8093 40.0784 60.7803C40.0613 60.7336 40.019 60.6748 39.9543 60.6064C39.8898 60.5383 39.803 60.4608 39.6985 60.377C39.4893 60.2091 39.2076 60.0148 38.884 59.8135C38.3986 59.5114 37.8183 59.193 37.2444 58.9229L36.676 58.6709C35.2927 58.0898 33.1459 57.4908 31.5139 57.209L30.8284 57.0908L31.1497 57.459C31.3431 57.6684 31.6954 57.826 31.9944 57.8262C32.1862 57.8262 32.4802 57.8789 32.8225 57.9658C33.1652 58.0529 33.5581 58.1739 33.9475 58.3105C34.726 58.5836 35.4949 58.9195 35.8333 59.167C35.9845 59.2906 36.127 59.432 36.2317 59.5625C36.284 59.6277 36.3267 59.6906 36.3567 59.7471C36.3866 59.8034 36.4045 59.8547 36.4045 59.8965C36.4045 59.9498 36.395 59.9936 36.3694 60.0273C36.3435 60.0613 36.3016 60.0843 36.2395 60.0967C36.1159 60.1212 35.906 60.1074 35.5608 60.0635C35.3522 60.037 35.1944 60.0169 35.0842 60.0059C35.0292 60.0004 34.9861 59.9969 34.9543 59.9961C34.9385 59.9957 34.9253 59.9962 34.9153 59.9971C34.9052 59.9979 34.8984 59.9994 34.8948 60.001L34.8938 60.002L34.8997 60.0078C34.9099 60.0171 34.9308 60.0303 34.9622 60.0469C35.0245 60.0797 35.1258 60.126 35.2629 60.1875C35.9893 60.5129 37.2352 60.7864 38.2795 60.9141C38.8017 60.9779 39.2732 61.0047 39.6038 60.9844Z" fill="white" stroke="url(#paint23_linear_179_521)" stroke-width="0.0175671"/>
<path d="M24.864 60.4688C27.2749 61.2608 30.023 61.1207 32.6296 60.0996C33.0376 59.9323 33.3385 59.7607 33.4792 59.6318C33.5143 59.5997 33.5385 59.5702 33.5525 59.5449C33.5666 59.5195 33.5696 59.499 33.5632 59.4834C33.5568 59.4679 33.54 59.4542 33.5095 59.4443C33.4789 59.4345 33.4357 59.4287 33.3787 59.4287C33.3655 59.4287 33.3456 59.4226 33.322 59.4121C33.2981 59.4015 33.2685 59.3861 33.2341 59.3662C33.1648 59.3261 33.0747 59.2679 32.9714 59.1963C32.765 59.053 32.5033 58.8541 32.2371 58.6338L31.2468 57.8438H25.9255C24.4617 57.8438 23.1305 57.8569 22.1658 57.8789C21.6838 57.8899 21.2933 57.9031 21.0232 57.918C20.8881 57.9254 20.7826 57.9332 20.7117 57.9414C20.6763 57.9455 20.6493 57.949 20.6316 57.9531C20.6229 57.9552 20.6168 57.9572 20.613 57.959L20.6111 57.96C20.6138 57.9838 20.6254 58.0128 20.6462 58.0459C20.6678 58.0802 20.6995 58.118 20.739 58.1602C20.8182 58.2445 20.9311 58.3433 21.071 58.4512C21.351 58.667 21.7372 58.9203 22.1707 59.1768C23.0377 59.6897 24.093 60.2136 24.864 60.4688Z" fill="white" stroke="url(#paint24_linear_179_521)" stroke-width="0.0175671"/>
<defs>
<linearGradient id="paint0_linear_179_521" x1="86.5" y1="100" x2="86.5" y2="4.98978e-06" gradientUnits="userSpaceOnUse">
<stop/>
<stop offset="0.55" stop-color="#053BE5"/>
</linearGradient>
<linearGradient id="paint1_linear_179_521" x1="27.1234" y1="38.9999" x2="27.1234" y2="42.1543" gradientUnits="userSpaceOnUse">
<stop/>
<stop offset="0.55" stop-color="#053BE5"/>
</linearGradient>
<linearGradient id="paint2_linear_179_521" x1="41.9644" y1="39.0328" x2="41.9644" y2="43.9644" gradientUnits="userSpaceOnUse">
<stop/>
<stop offset="0.55" stop-color="#053BE5"/>
</linearGradient>
<linearGradient id="paint3_linear_179_521" x1="40.8521" y1="42.1049" x2="40.8521" y2="50.1709" gradientUnits="userSpaceOnUse">
<stop/>
<stop offset="0.55" stop-color="#053BE5"/>
</linearGradient>
<linearGradient id="paint4_linear_179_521" x1="24.2029" y1="43.0351" x2="24.2029" y2="45.854" gradientUnits="userSpaceOnUse">
<stop/>
<stop offset="0.55" stop-color="#053BE5"/>
</linearGradient>
<linearGradient id="paint5_linear_179_521" x1="39.7128" y1="45.9472" x2="39.7128" y2="55.21" gradientUnits="userSpaceOnUse">
<stop/>
<stop offset="0.55" stop-color="#053BE5"/>
</linearGradient>
<linearGradient id="paint6_linear_179_521" x1="77.8049" y1="46.1221" x2="77.8049" y2="53.7637" gradientUnits="userSpaceOnUse">
<stop/>
<stop offset="0.55" stop-color="#053BE5"/>
</linearGradient>
<linearGradient id="paint7_linear_179_521" x1="142.439" y1="46.109" x2="142.439" y2="53.7534" gradientUnits="userSpaceOnUse">
<stop/>
<stop offset="0.55" stop-color="#053BE5"/>
</linearGradient>
<linearGradient id="paint8_linear_179_521" x1="61.9044" y1="46.1888" x2="61.9044" y2="54.9927" gradientUnits="userSpaceOnUse">
<stop/>
<stop offset="0.55" stop-color="#053BE5"/>
</linearGradient>
<linearGradient id="paint9_linear_179_521" x1="69.6543" y1="46.2062" x2="69.6543" y2="53.583" gradientUnits="userSpaceOnUse">
<stop/>
<stop offset="0.55" stop-color="#053BE5"/>
</linearGradient>
<linearGradient id="paint10_linear_179_521" x1="85.9859" y1="46.2305" x2="85.9859" y2="53.6064" gradientUnits="userSpaceOnUse">
<stop/>
<stop offset="0.55" stop-color="#053BE5"/>
</linearGradient>
<linearGradient id="paint11_linear_179_521" x1="94.801" y1="46.2069" x2="94.8011" y2="55.0161" gradientUnits="userSpaceOnUse">
<stop/>
<stop offset="0.55" stop-color="#053BE5"/>
</linearGradient>
<linearGradient id="paint12_linear_179_521" x1="102.082" y1="46.2067" x2="102.082" y2="53.6064" gradientUnits="userSpaceOnUse">
<stop/>
<stop offset="0.55" stop-color="#053BE5"/>
</linearGradient>
<linearGradient id="paint13_linear_179_521" x1="109.906" y1="46.2067" x2="109.906" y2="53.6064" gradientUnits="userSpaceOnUse">
<stop/>
<stop offset="0.55" stop-color="#053BE5"/>
</linearGradient>
<linearGradient id="paint14_linear_179_521" x1="117.581" y1="46.2067" x2="117.581" y2="53.6064" gradientUnits="userSpaceOnUse">
<stop/>
<stop offset="0.55" stop-color="#053BE5"/>
</linearGradient>
<linearGradient id="paint15_linear_179_521" x1="126.587" y1="46.2067" x2="126.587" y2="53.6064" gradientUnits="userSpaceOnUse">
<stop/>
<stop offset="0.55" stop-color="#053BE5"/>
</linearGradient>
<linearGradient id="paint16_linear_179_521" x1="134.824" y1="46.1893" x2="134.824" y2="53.6113" gradientUnits="userSpaceOnUse">
<stop/>
<stop offset="0.55" stop-color="#053BE5"/>
</linearGradient>
<linearGradient id="paint17_linear_179_521" x1="151.83" y1="46.2067" x2="151.83" y2="53.6064" gradientUnits="userSpaceOnUse">
<stop/>
<stop offset="0.55" stop-color="#053BE5"/>
</linearGradient>
<linearGradient id="paint18_linear_179_521" x1="22.7315" y1="46.7348" x2="22.7315" y2="49.5537" gradientUnits="userSpaceOnUse">
<stop/>
<stop offset="0.55" stop-color="#053BE5"/>
</linearGradient>
<linearGradient id="paint19_linear_179_521" x1="38.582" y1="49.7016" x2="38.582" y2="58.4189" gradientUnits="userSpaceOnUse">
<stop/>
<stop offset="0.55" stop-color="#053BE5"/>
</linearGradient>
<linearGradient id="paint20_linear_179_521" x1="22.7138" y1="50.435" x2="22.7138" y2="53.2539" gradientUnits="userSpaceOnUse">
<stop/>
<stop offset="0.55" stop-color="#053BE5"/>
</linearGradient>
<linearGradient id="paint21_linear_179_521" x1="37.1162" y1="53.4234" x2="37.1162" y2="60.6211" gradientUnits="userSpaceOnUse">
<stop/>
<stop offset="0.55" stop-color="#053BE5"/>
</linearGradient>
<linearGradient id="paint22_linear_179_521" x1="24.151" y1="54.1347" x2="24.151" y2="56.9536" gradientUnits="userSpaceOnUse">
<stop/>
<stop offset="0.55" stop-color="#053BE5"/>
</linearGradient>
<linearGradient id="paint23_linear_179_521" x1="35.4487" y1="57.0771" x2="35.4487" y2="61" gradientUnits="userSpaceOnUse">
<stop/>
<stop offset="0.55" stop-color="#053BE5"/>
</linearGradient>
<linearGradient id="paint24_linear_179_521" x1="27.0888" y1="57.8346" x2="27.0888" y2="60.9863" gradientUnits="userSpaceOnUse">
<stop/>
<stop offset="0.55" stop-color="#053BE5"/>
</linearGradient>
</defs>
</svg>
