<svg width="173" height="100" viewBox="0 0 173 100" fill="none" xmlns="http://www.w3.org/2000/svg">
<rect x="0.5" y="0.5" width="172" height="99" fill="#111111" fill-opacity="0.5" stroke="url(#paint0_linear_179_603)"/>
<g clip-path="url(#clip0_179_603)">
<mask id="mask0_179_603" style="mask-type:luminance" maskUnits="userSpaceOnUse" x="15" y="37" width="143" height="26">
<path d="M158 37H15V63H158V37Z" fill="white"/>
</mask>
<g mask="url(#mask0_179_603)">
<path d="M39.5148 46.2862C37.5925 44.7974 34.7964 44.7165 32.7935 46.1146L33.2811 45.3302C35.0971 41.7166 32.2166 37.5828 27.9802 37.785C24.0104 37.9745 21.5008 42.0823 23.3567 45.4425C23.4848 45.6743 23.665 45.8774 23.7827 46.1146C21.9723 44.81 19.2882 44.7911 17.4276 46.0184C14.2008 48.1469 14.1808 52.5934 17.4276 54.7092C19.125 55.8152 21.3974 55.9033 23.2067 54.9725C23.2798 54.9347 23.757 54.6257 23.7827 54.6481C22.4107 56.4091 22.4012 58.9015 23.7324 60.6848C27.1405 65.2527 34.6455 62.3856 33.7555 56.8251C33.6312 56.0444 33.265 55.2905 32.7925 54.6481C32.82 54.6239 33.2289 54.9024 33.2963 54.9383C35.2565 55.977 37.7243 55.8081 39.4768 54.4756C42.2615 52.3607 42.2758 48.4254 39.5128 46.2862H39.5148ZM33.2868 54.1971C33.024 54.0336 32.7507 53.6607 32.432 53.8782C32.2668 53.9905 31.912 54.3337 31.9262 54.5277C31.9367 54.6634 32.338 55.0992 32.4481 55.2654C35.0582 59.2051 30.4442 63.949 26.076 61.8457C23.2362 60.4773 22.6536 57.3048 24.4013 54.8764C24.5142 54.72 24.6954 54.6373 24.6404 54.4002C24.611 54.2762 24.0939 53.8 23.944 53.8C23.758 53.8 23.4202 54.1181 23.2457 54.2268C19.756 56.3992 15.3298 53.7928 15.6723 49.8881C15.9655 46.5494 20.0454 44.6483 23.0721 46.3958C23.2457 46.4955 23.7902 46.925 23.9117 46.9357C24.0835 46.9501 24.6214 46.4542 24.6452 46.3014C24.6546 46.2386 24.6518 46.1748 24.63 46.1146C24.1025 45.5162 23.6698 44.8145 23.5038 44.0418C22.48 39.2827 28.6776 36.3672 32.0534 40.0751C33.4462 41.6052 33.5382 43.9259 32.3674 45.5952C32.2242 45.7992 31.8759 46.0841 31.9338 46.3311C31.9632 46.4578 32.4813 46.9295 32.6331 46.9349C32.8001 46.9403 33.1455 46.6204 33.3058 46.5189C35.2357 45.3051 37.7339 45.509 39.4085 47.0193C40.2283 47.7578 40.7937 48.7794 40.8962 49.8585C41.2719 53.8125 36.8116 56.3974 33.284 54.1998L33.2868 54.1971Z" fill="#FBC04C"/>
<path d="M33.563 47.7942C33.2136 48.0825 32.8952 48.398 32.5661 48.7054L27.0534 43.5224C26.4078 42.3812 27.1899 41.3201 28.5854 41.6338C29.4304 41.8238 29.6781 42.8704 29.2319 43.5015C29.0674 43.7343 28.8061 43.8161 29.0713 44.1471C29.2058 44.3153 30.0401 45.1046 30.2124 45.2164C30.5588 45.4419 30.7679 45.1519 30.9653 44.9218C31.9844 43.7361 32.0086 41.9166 30.9818 40.7291C28.6319 38.0112 24.0541 39.8743 24.5758 43.3633C24.7539 44.5544 25.5978 45.2555 26.465 46.0466V46.1148L21.0403 51.2105C19.9041 51.8316 18.8318 51.3469 18.943 50.0348C19.0137 49.201 19.7967 48.8636 20.6067 49.0618C21.0055 49.1591 21.1303 49.5119 21.5204 49.451L22.8056 48.2744C23.0456 47.9916 22.6449 47.697 22.4185 47.5324C20.3957 46.0593 17.3016 47.1059 16.7267 49.4374C16.0918 52.0088 18.5975 54.2293 21.2977 53.4901C22.2656 53.2255 22.9731 52.5063 23.6253 51.8261L23.7251 51.797L29.1477 56.8926C29.651 57.5137 29.5329 58.5976 28.6387 58.8331C27.4725 59.1396 26.5608 58.4412 26.8888 57.2927C26.9992 56.9063 27.5121 56.7299 27.2005 56.3398C27.0853 56.1952 26.1766 55.3351 26.0401 55.2541C25.8881 55.165 25.6965 55.1741 25.562 55.286C24.1248 56.4789 24.2612 58.824 25.5765 60.0598C28.2651 62.5839 32.7722 59.9634 31.5577 56.5644C31.2247 55.6324 30.4524 55.0932 29.7943 54.3939L35.2131 49.2937C35.8131 48.82 37.0094 48.94 37.2658 49.7156C37.6143 50.7713 36.9503 51.6915 35.7232 51.4414C35.2402 51.3432 35.0495 50.8213 34.6063 51.1423C34.3904 51.2978 33.6433 51.9952 33.4846 52.1961C33.3287 52.3935 33.3684 52.5299 33.5387 52.699C35.4047 54.5585 38.9818 53.4964 39.5528 51.0232C40.3125 47.737 36.3096 45.5301 33.563 47.7961V47.7942ZM28.149 52.8481L25.3423 50.243L28.1228 47.6379L30.9295 50.243L28.149 52.8481Z" fill="#E5AC40"/>
<path d="M50.13 41.1911L53.8374 45.728C54.269 46.2538 54.6496 46.6434 54.9791 46.8968C55.3126 47.1463 55.6716 47.271 56.0561 47.271V47.5531H50.5713V47.271C51.1206 47.225 51.3952 47.0791 51.3952 46.8334C51.3952 46.6147 51.1578 46.2136 50.6832 45.6301L48.2645 42.6592L47.8761 42.9759V45.7913C47.8761 46.1944 47.8917 46.4822 47.9231 46.655C47.9584 46.8238 48.082 46.9697 48.2939 47.0926C48.5057 47.2115 48.8 47.271 49.1766 47.271V47.5531H43.8625V47.271H44.2098C44.6531 47.271 44.9532 47.1732 45.1101 46.9774C45.2671 46.7778 45.3455 46.3824 45.3455 45.7913V39.009C45.3455 38.5983 45.3298 38.3123 45.2985 38.1511C45.271 37.9861 45.1631 37.8421 44.9748 37.7193C44.7904 37.5926 44.5354 37.5293 44.2098 37.5293H43.8625V37.2472H49.106V37.5293C48.8235 37.5293 48.5901 37.5677 48.4057 37.6445C48.2213 37.7212 48.086 37.8325 47.9996 37.9784C47.9172 38.1242 47.8761 38.4678 47.8761 39.009V42.2159L51.7836 39.1241C52.329 38.6942 52.6016 38.3507 52.6016 38.0935C52.6016 37.9515 52.5369 37.8249 52.4074 37.7135C52.2819 37.5984 51.9523 37.537 51.4188 37.5293V37.2472H55.5264V37.5293C55.189 37.5523 54.9007 37.6233 54.6613 37.7423C54.422 37.8613 53.9394 38.2049 53.2137 38.7729L50.13 41.1911ZM60.2343 42.5959V45.7913C60.2343 46.1829 60.25 46.465 60.2814 46.6377C60.3128 46.8104 60.4207 46.9601 60.6051 47.0868C60.7895 47.2096 61.0464 47.271 61.376 47.271H61.729V47.5531H56.2208V47.271H56.568C57.0114 47.271 57.3115 47.1732 57.4684 46.9774C57.6253 46.7778 57.7038 46.3824 57.7038 45.7913V39.009C57.7038 38.5983 57.6881 38.3123 57.6567 38.1511C57.6293 37.9861 57.5214 37.8421 57.3331 37.7193C57.1487 37.5926 56.8937 37.5293 56.568 37.5293H56.2208V37.2472H61.729V37.5293H61.376C60.9326 37.5293 60.6305 37.6291 60.4697 37.8287C60.3128 38.0245 60.2343 38.4179 60.2343 39.009V41.928H63.9594V39.009C63.9594 38.5983 63.9457 38.3123 63.9183 38.1511C63.8908 37.9861 63.7809 37.8421 63.5887 37.7193C63.4004 37.5926 63.1415 37.5293 62.8119 37.5293H62.4706V37.2472H67.973V37.5293H67.6316C67.1608 37.5293 66.8528 37.631 66.7077 37.8344C66.5625 38.034 66.4899 38.4256 66.4899 39.009V45.7913C66.4899 46.202 66.5037 46.4899 66.5312 46.655C66.5586 46.82 66.6645 46.964 66.8489 47.0868C67.0372 47.2096 67.2982 47.271 67.6316 47.271H67.973V47.5531H62.4706V47.271H62.8119C63.2827 47.271 63.5906 47.1693 63.7358 46.9659C63.8849 46.7586 63.9594 46.3671 63.9594 45.7913V42.5959H60.2343ZM74.8877 44.6168H71.1625L70.7212 45.6244C70.576 45.9545 70.5035 46.2308 70.5035 46.4535C70.5035 46.6723 70.576 46.8546 70.7212 47.0004C70.8663 47.1424 71.2567 47.2326 71.8923 47.271V47.5531H68.3908V47.271C68.7713 47.2134 69.0871 47.0503 69.3382 46.7816C69.5894 46.513 69.8855 46.0043 70.2269 45.2559L73.9932 37.0342H74.1403L77.9363 45.4862C78.2538 46.1925 78.5166 46.6607 78.7245 46.891C78.9324 47.1175 79.2168 47.2441 79.5778 47.271V47.5531H74.4816V47.271H74.6935C75.38 47.271 75.7235 47.0983 75.7235 46.7529C75.7235 46.6147 75.6313 46.3325 75.4469 45.9065L74.8877 44.6168ZM74.6229 44.0583L73.0516 40.5059L71.4391 44.0583H74.6229ZM83.7153 37.2472L88.9116 43.638V39.2105C88.9116 38.5081 88.7857 38.0532 88.535 37.846C88.2873 37.6349 87.9071 37.5293 87.3931 37.5293V37.2472H90.8713V37.5293C90.3139 37.5792 89.9433 37.7116 89.7589 37.9266C89.5781 38.1415 89.4883 38.5695 89.4883 39.2105V47.7892H89.2232L82.1027 39.2105V45.7568C82.1027 46.7663 82.5577 47.271 83.4676 47.271H83.7153V47.5531H79.9779V47.271C80.5468 47.2672 80.9469 47.1539 81.1789 46.9313C81.4139 46.7049 81.5315 46.3133 81.5315 45.7568V38.4851L81.3079 38.2145C80.9433 37.773 80.4998 37.5447 79.9779 37.5293V37.2472H83.7153ZM105.254 37.2472V40.0338H104.977C104.828 39.4542 104.624 38.9879 104.365 38.6347C104.106 38.2816 103.847 38.0609 103.588 37.9726C103.329 37.8844 102.986 37.8402 102.558 37.8402H101.776V45.7913C101.776 46.202 101.789 46.4899 101.817 46.655C101.844 46.8162 101.952 46.9601 102.141 47.0868C102.333 47.2096 102.594 47.271 102.924 47.271H103.276V47.5531H97.7622V47.271H98.1093C98.4311 47.271 98.6667 47.223 98.8156 47.1271C98.9687 47.0311 99.0783 46.9179 99.1452 46.7874C99.2157 46.6569 99.2513 46.3249 99.2513 45.7913V37.8402H98.492C98.037 37.8402 97.6586 37.9016 97.3561 38.0245C97.0542 38.1473 96.7872 38.3853 96.5558 38.7384C96.3244 39.0915 96.1695 39.5233 96.0912 40.0338H95.7965V37.2472H105.254ZM110.174 37.8402V42.0374H110.38C111.564 42.0374 112.241 41.2256 112.41 39.602H112.704V44.9968H112.41C112.315 44.1024 112.098 43.4806 111.757 43.1314C111.419 42.7821 110.891 42.6074 110.174 42.6074V45.5092C110.174 46.2155 110.254 46.6377 110.415 46.7758C110.576 46.914 111.038 46.9831 111.804 46.9831C113.718 46.9831 114.932 46.0812 115.446 44.2771H115.735L115.258 47.5531H106.154V47.271H106.507C106.97 47.271 107.274 47.1712 107.419 46.9716C107.564 46.772 107.637 46.3786 107.637 45.7913V39.009C107.637 38.5829 107.625 38.2893 107.602 38.1281C107.578 37.9669 107.472 37.8268 107.284 37.7078C107.1 37.5888 106.841 37.5293 106.507 37.5293H106.154V37.2472H114.97V40.2929H114.675C114.511 39.4523 114.258 38.8746 113.916 38.5599C113.575 38.2413 113.218 38.0417 112.845 37.9611C112.476 37.8805 111.947 37.8402 111.257 37.8402H110.174ZM120.413 37.2472L125.61 43.638V39.2105C125.61 38.5081 125.484 38.0532 125.233 37.846C124.986 37.6349 124.605 37.5293 124.091 37.5293V37.2472H127.569V37.5293C127.012 37.5792 126.641 37.7116 126.457 37.9266C126.277 38.1415 126.186 38.5695 126.186 39.2105V47.7892H125.922L118.801 39.2105V45.7568C118.801 46.7663 119.256 47.271 120.166 47.271H120.413V47.5531H116.676V47.271C117.245 47.2672 117.645 47.1539 117.877 46.9313C118.112 46.7049 118.23 46.3133 118.23 45.7568V38.4851L118.006 38.2145C117.641 37.773 117.198 37.5447 116.676 37.5293V37.2472H120.413ZM138.915 37.0111V40.6441H138.627C138.301 39.7037 137.799 38.9629 137.121 38.4217C136.442 37.8767 135.665 37.6042 134.79 37.6042C133.57 37.6042 132.697 38.0686 132.171 38.9975C131.65 39.9263 131.389 41.0779 131.389 42.452C131.389 45.6301 132.522 47.2192 134.79 47.2192C135.285 47.2192 135.818 47.1156 136.391 46.9083V44.7665C136.391 43.9298 136.028 43.5113 135.302 43.5113H135.031V43.2292H140.151V43.5113C139.649 43.5421 139.317 43.6419 139.156 43.8107C138.996 43.9796 138.915 44.2982 138.915 44.7665V46.9083C137.558 47.4994 136.102 47.795 134.549 47.795C133.364 47.795 132.326 47.5666 131.436 47.1098C130.549 46.6492 129.853 46.0293 129.346 45.2502C128.84 44.4709 128.587 43.567 128.587 42.5383C128.587 41.4636 128.843 40.5175 129.352 39.6999C129.866 38.8785 130.561 38.224 131.436 37.7366C132.311 37.2491 133.319 37.0054 134.461 37.0054C135.241 37.0054 136.075 37.1627 136.962 37.4775C137.479 37.6617 137.787 37.7538 137.885 37.7538C138.203 37.7538 138.451 37.5063 138.627 37.0111H138.915ZM144.547 42.855V45.7453C144.547 46.1982 144.567 46.5091 144.606 46.678C144.649 46.8469 144.761 46.9889 144.941 47.1041C145.126 47.2154 145.481 47.271 146.007 47.271V47.5531H140.616V47.271C140.969 47.271 141.256 47.2365 141.475 47.1674C141.699 47.0944 141.854 46.9889 141.94 46.8507C142.03 46.7087 142.075 46.3402 142.075 45.7453V39.055C142.075 38.6098 142.056 38.3008 142.017 38.1281C141.977 37.9554 141.866 37.8133 141.681 37.702C141.5 37.5869 141.146 37.5293 140.616 37.5293V37.2472H145.512C147.607 37.2472 148.931 37.5312 149.484 38.0993C150.038 38.6674 150.314 39.3314 150.314 40.0914C150.314 41.4387 149.534 42.3023 147.972 42.6823L150.508 46.1713C150.819 46.5974 151.06 46.8833 151.233 47.0292C151.409 47.175 151.648 47.2556 151.95 47.271V47.5531H148.631L145.241 42.855H144.547ZM144.547 37.7999V42.3138H144.988C145.946 42.3138 146.646 42.1487 147.09 41.8187C147.533 41.4847 147.754 40.9128 147.754 40.1029C147.754 38.5676 146.962 37.7999 145.377 37.7999H144.547ZM157.635 47.271V47.5531H152.127V47.271H152.48C152.943 47.271 153.247 47.1712 153.392 46.9716C153.537 46.772 153.61 46.3786 153.61 45.7913V39.009C153.61 38.6021 153.594 38.3162 153.563 38.1511C153.535 37.9861 153.429 37.8421 153.245 37.7193C153.06 37.5926 152.805 37.5293 152.48 37.5293H152.127V37.2472H157.635V37.5293H157.288C156.817 37.5293 156.509 37.631 156.364 37.8344C156.219 38.034 156.146 38.4256 156.146 39.009V45.7913C156.146 46.202 156.16 46.4899 156.187 46.655C156.215 46.8162 156.323 46.9601 156.511 47.0868C156.7 47.2096 156.958 47.271 157.288 47.271H157.635ZM48.1644 62.0667V62.2924H43.7578V62.0667H44.0403C44.4106 62.0667 44.6539 61.9868 44.77 61.8271C44.8861 61.6675 44.9442 61.3527 44.9442 60.8829V55.457C44.9442 55.1316 44.9316 54.9028 44.9065 54.7708C44.8846 54.6387 44.7998 54.5236 44.6523 54.4253C44.5048 54.324 44.3008 54.2733 44.0403 54.2733H43.7578V54.0476H48.1644V54.2733H47.8866C47.51 54.2733 47.2636 54.3547 47.1475 54.5174C47.0314 54.6771 46.9733 54.9903 46.9733 55.457V60.8829C46.9733 61.2115 46.9843 61.4418 47.0063 61.5738C47.0283 61.7028 47.1145 61.8179 47.2652 61.9193C47.4159 62.0176 47.623 62.0667 47.8866 62.0667H48.1644ZM51.6247 54.0476L55.7818 59.1603V55.6183C55.7818 55.0563 55.6813 54.6925 55.4805 54.5266C55.2828 54.3578 54.9783 54.2733 54.5672 54.2733V54.0476H57.3496V54.2733C56.9039 54.3132 56.6073 54.4191 56.4597 54.5911C56.3154 54.7631 56.2432 55.1055 56.2432 55.6183V62.4812H56.0313L50.3347 55.6183V60.8553C50.3347 61.6629 50.6988 62.0667 51.427 62.0667H51.6247V62.2924H48.6352V62.0667C49.0903 62.0636 49.4104 61.973 49.5956 61.7949C49.7839 61.6138 49.8781 61.3005 49.8781 60.8553V55.0379L49.6992 54.8214C49.4073 54.4683 49.0526 54.2856 48.6352 54.2733V54.0476H51.6247ZM60.8146 54.0476L64.9716 59.1603V55.6183C64.9716 55.0563 64.8712 54.6925 64.6703 54.5266C64.4726 54.3578 64.1682 54.2733 63.757 54.2733V54.0476H66.5394V54.2733C66.0937 54.3132 65.7971 54.4191 65.6496 54.5911C65.5052 54.7631 65.433 55.1055 65.433 55.6183V62.4812H65.2212L59.5246 55.6183V60.8553C59.5246 61.6629 59.8887 62.0667 60.6168 62.0667H60.8146V62.2924H57.825V62.0667C58.2801 62.0636 58.6003 61.973 58.7855 61.7949C58.9738 61.6138 59.0679 61.3005 59.0679 60.8553V55.0379L58.889 54.8214C58.5972 54.4683 58.2425 54.2856 57.825 54.2733V54.0476H60.8146ZM71.751 53.9324C72.6644 53.9324 73.4443 54.0952 74.0909 54.4207C74.7374 54.7462 75.2631 55.2329 75.668 55.8808C76.076 56.5287 76.2803 57.281 76.2803 58.1377C76.2803 59.3353 75.8801 60.3594 75.0795 61.21C74.2823 62.0575 73.1995 62.4812 71.8311 62.4812C70.3371 62.4812 69.2135 62.0375 68.4602 61.1501C67.7101 60.2627 67.335 59.2616 67.335 58.147C67.335 57.4162 67.4967 56.739 67.82 56.1157C68.1432 55.4923 68.6344 54.9734 69.2935 54.5589C69.9557 54.1413 70.7749 53.9324 71.751 53.9324ZM71.8264 54.3194C70.3261 54.3194 69.576 55.6137 69.576 58.2022C69.576 60.7509 70.3214 62.0252 71.8123 62.0252C73.2968 62.0252 74.0391 60.7663 74.0391 58.2483C74.0391 55.629 73.3015 54.3194 71.8264 54.3194ZM85.804 54.0476V54.2733C85.481 54.3255 85.2188 54.4714 85.0182 54.7109C84.8169 54.9473 84.5457 55.4371 84.2034 56.1802L81.3037 62.4812H81.0964L77.744 54.8628C77.5307 54.5128 77.2294 54.3163 76.8401 54.2733V54.0476H80.8794V54.2733H80.7432C80.1497 54.2733 79.8532 54.4069 79.8532 54.674C79.8532 54.7937 79.9821 55.1469 80.2394 55.7334L82.0376 59.8373L83.6997 56.1802C83.9919 55.5384 84.1378 55.1147 84.1378 54.909C84.1378 54.4852 83.7702 54.2733 83.0362 54.2733V54.0476H85.804ZM91.2275 59.9433H88.2476L87.8944 60.7493C87.7781 61.0134 87.7203 61.2345 87.7203 61.4126C87.7203 61.5876 87.7781 61.7335 87.8944 61.8502C88.0107 61.9638 88.3229 62.036 88.8315 62.0667V62.2924H86.0299V62.0667C86.3349 62.0206 86.5874 61.8901 86.788 61.6751C86.9887 61.4602 87.2261 61.0533 87.4991 60.4546L90.5122 53.8772H90.6297L93.6663 60.6388C93.9206 61.2038 94.1309 61.5785 94.2972 61.7627C94.4635 61.9439 94.6913 62.0452 94.98 62.0667V62.2924H90.9027V62.0667H91.0726C91.6216 62.0667 91.8964 61.9285 91.8964 61.6521C91.8964 61.5416 91.8223 61.3159 91.6752 60.975L91.2275 59.9433ZM91.016 59.4965L89.7589 56.6546L88.4687 59.4965H91.016ZM103.148 54.0476V56.2769H102.927C102.807 55.8132 102.645 55.4402 102.437 55.1576C102.23 54.8752 102.023 54.6986 101.816 54.628C101.609 54.5573 101.334 54.522 100.992 54.522H100.366V60.8829C100.366 61.2115 100.377 61.4418 100.399 61.5738C100.421 61.7028 100.507 61.8179 100.658 61.9193C100.811 62.0176 101.02 62.0667 101.284 62.0667H101.567V62.2924H97.1548V62.0667H97.4326C97.6899 62.0667 97.8785 62.0283 97.9978 61.9515C98.1202 61.8748 98.2082 61.7842 98.2612 61.6797C98.3178 61.5754 98.3461 61.3097 98.3461 60.8829V54.522H97.7387C97.3747 54.522 97.0716 54.5711 96.83 54.6694C96.5883 54.7677 96.375 54.9581 96.19 55.2406C96.0044 55.523 95.8809 55.8685 95.8176 56.2769H95.5826V54.0476H103.148ZM108.275 62.0667V62.2924H103.868V62.0667H104.151C104.521 62.0667 104.765 61.9868 104.881 61.8271C104.997 61.6675 105.055 61.3527 105.055 60.8829V55.457C105.055 55.1316 105.042 54.9028 105.017 54.7708C104.995 54.6387 104.91 54.5236 104.763 54.4253C104.615 54.324 104.411 54.2733 104.151 54.2733H103.868V54.0476H108.275V54.2733H107.997C107.62 54.2733 107.374 54.3547 107.258 54.5174C107.142 54.6771 107.084 54.9903 107.084 55.457V60.8829C107.084 61.2115 107.095 61.4418 107.117 61.5738C107.139 61.7028 107.225 61.8179 107.376 61.9193C107.526 62.0176 107.734 62.0667 107.997 62.0667H108.275ZM113.482 53.9324C114.396 53.9324 115.175 54.0952 115.822 54.4207C116.469 54.7462 116.994 55.2329 117.399 55.8808C117.807 56.5287 118.011 57.281 118.011 58.1377C118.011 59.3353 117.611 60.3594 116.81 61.21C116.014 62.0575 114.931 62.4812 113.562 62.4812C112.068 62.4812 110.944 62.0375 110.191 61.1501C109.441 60.2627 109.066 59.2616 109.066 58.147C109.066 57.4162 109.228 56.739 109.551 56.1157C109.874 55.4923 110.365 54.9734 111.025 54.5589C111.687 54.1413 112.506 53.9324 113.482 53.9324ZM113.557 54.3194C112.057 54.3194 111.307 55.6137 111.307 58.2022C111.307 60.7509 112.053 62.0252 113.543 62.0252C115.028 62.0252 115.77 60.7663 115.77 58.2483C115.77 55.629 115.032 54.3194 113.557 54.3194ZM121.641 54.0476L125.798 59.1603V55.6183C125.798 55.0563 125.698 54.6925 125.496 54.5266C125.299 54.3578 124.994 54.2733 124.583 54.2733V54.0476H127.366V54.2733C126.92 54.3132 126.623 54.4191 126.476 54.5911C126.331 54.7631 126.259 55.1055 126.259 55.6183V62.4812H126.048L120.351 55.6183V60.8553C120.351 61.6629 120.715 62.0667 121.443 62.0667H121.641V62.2924H118.651V62.0667C119.106 62.0636 119.427 61.973 119.612 61.7949C119.8 61.6138 119.894 61.3005 119.894 60.8553V55.0379L119.715 54.8214C119.423 54.4683 119.069 54.2856 118.651 54.2733V54.0476H121.641ZM134.324 58.3266V60.8829C134.324 61.1961 134.337 61.4218 134.361 61.56C134.387 61.6982 134.473 61.8179 134.62 61.9193C134.768 62.0176 134.974 62.0667 135.238 62.0667H135.52V62.2924H131.113V62.0667H131.391C131.745 62.0667 131.986 61.9884 132.111 61.8318C132.236 61.6721 132.3 61.3558 132.3 60.8829V55.457C132.3 55.1285 132.287 54.8997 132.262 54.7708C132.24 54.6387 132.153 54.5236 132.003 54.4253C131.856 54.324 131.651 54.2733 131.391 54.2733H131.113V54.0476H135.52V54.2733H135.238C134.883 54.2733 134.641 54.3532 134.512 54.5128C134.387 54.6694 134.324 54.9842 134.324 55.457V57.7923H137.304V55.457C137.304 55.1285 137.293 54.8997 137.271 54.7708C137.249 54.6387 137.161 54.5236 137.007 54.4253C136.857 54.324 136.649 54.2733 136.386 54.2733H136.113V54.0476H140.515V54.2733H140.242C139.865 54.2733 139.619 54.3547 139.503 54.5174C139.386 54.6771 139.329 54.9903 139.329 55.457V60.8829C139.329 61.2115 139.339 61.4418 139.361 61.5738C139.383 61.7059 139.468 61.821 139.615 61.9193C139.766 62.0176 139.975 62.0667 140.242 62.0667H140.515V62.2924H136.113V62.0667H136.386C136.763 62.0667 137.009 61.9853 137.125 61.8225C137.244 61.6567 137.304 61.3435 137.304 60.8829V58.3266H134.324ZM141.047 54.0476H145.397V54.2733H145.181C144.753 54.2733 144.477 54.347 144.352 54.4944C144.229 54.6418 144.168 54.9872 144.168 55.5307V59.5702C144.168 60.0953 144.198 60.5083 144.257 60.8092C144.32 61.1071 144.49 61.3589 144.766 61.5646C145.042 61.7673 145.417 61.8686 145.891 61.8686C146.327 61.8686 146.698 61.7842 147.002 61.6153C147.307 61.4433 147.551 61.1777 147.737 60.8184C147.922 60.4561 148.015 59.8143 148.015 58.8931V55.5307C148.015 55.0978 147.942 54.78 147.798 54.5773C147.654 54.3746 147.324 54.2733 146.809 54.2733V54.0476H149.724V54.2733H149.55C149.28 54.2733 149.042 54.3439 148.838 54.4852C148.638 54.6234 148.537 54.9719 148.537 55.5307V58.6629C148.537 59.3077 148.512 59.8281 148.462 60.2243C148.415 60.6173 148.273 60.9965 148.038 61.362C147.803 61.7243 147.456 62.0022 146.997 62.1956C146.54 62.3891 145.979 62.4858 145.317 62.4858C143.202 62.4858 142.144 61.514 142.144 59.5702V55.5307C142.144 55.1346 142.125 54.8659 142.087 54.7247C142.049 54.5804 141.96 54.4698 141.819 54.3931C141.681 54.3132 141.423 54.2733 141.047 54.2733V54.0476ZM155.603 57.9212C157.189 58.2498 157.981 58.9484 157.981 60.017C157.981 60.7018 157.675 61.253 157.063 61.6705C156.451 62.0851 155.593 62.2924 154.488 62.2924H150.208V62.0667C150.491 62.0667 150.72 62.039 150.896 61.9838C151.075 61.9254 151.199 61.8395 151.268 61.7258C151.34 61.6091 151.376 61.3159 151.376 60.8461V55.4939C151.376 55.1316 151.359 54.8828 151.324 54.7477C151.293 54.6126 151.203 54.5006 151.056 54.4115C150.911 54.3194 150.629 54.2733 150.208 54.2733V54.0476H154.248C154.919 54.0476 155.481 54.0937 155.933 54.1858C156.389 54.2779 156.779 54.5067 157.106 54.8721C157.432 55.2344 157.595 55.6505 157.595 56.1203C157.595 56.9924 156.932 57.5927 155.603 57.9212ZM153.339 57.7554C154.786 57.7554 155.509 57.2089 155.509 56.1157C155.509 55.6674 155.37 55.2882 155.091 54.978C154.811 54.6648 154.228 54.5082 153.339 54.5082V57.7554ZM153.339 58.2299L153.344 61.1685C153.338 61.6168 153.561 61.841 154.013 61.841C154.574 61.841 155.01 61.6751 155.321 61.3435C155.635 61.0088 155.792 60.5897 155.792 60.0861C155.792 59.4566 155.611 58.9898 155.251 58.6858C154.89 58.3788 154.252 58.2268 153.339 58.2299Z" fill="white"/>
</g>
</g>
<defs>
<linearGradient id="paint0_linear_179_603" x1="86.5" y1="100" x2="86.5" y2="4.98978e-06" gradientUnits="userSpaceOnUse">
<stop offset="0.45" stop-color="#053BE5"/>
<stop offset="1"/>
</linearGradient>
<clipPath id="clip0_179_603">
<rect width="143" height="26" fill="white" transform="translate(15 37)"/>
</clipPath>
</defs>
</svg>
