<svg width="173" height="100" viewBox="0 0 173 100" fill="none" xmlns="http://www.w3.org/2000/svg">
<rect x="0.5" y="0.5" width="172" height="99" fill="#111111" fill-opacity="0.5" stroke="url(#paint0_linear_179_597)"/>
<g clip-path="url(#clip0_179_597)">
<path fill-rule="evenodd" clip-rule="evenodd" d="M74.9753 36.863C74.5385 36.863 74.3448 37.1222 74.1827 37.4931C63.9872 60.8944 63.1317 62.7443 63.1317 62.7443C68.9093 62.7443 68.9093 62.7443 68.9093 62.7443C70.1117 59.8085 70.1117 59.8085 70.1117 59.8085C78.8166 59.8085 78.8166 59.8085 78.8166 59.8085C80.0235 62.7443 80.0235 62.7443 80.0235 62.7443C86.8188 62.7443 86.8188 62.7443 86.8188 62.7443C86.8188 62.7443 86.2379 61.5423 75.7678 37.4931C75.6057 37.1222 75.4121 36.863 74.9753 36.863ZM71.9491 55.3311C74.4574 49.2049 74.4574 49.2049 74.4574 49.2049C76.9747 55.3311 76.9747 55.3311 76.9747 55.3311H71.9491ZM103.837 50.9879C105.823 49.8081 107.327 47.7482 107.327 44.7945C107.327 42.4753 106.395 40.5629 104.773 39.2716C103.13 37.9578 101.229 37.2473 97.343 37.2473C89.03 37.2473 89.03 37.2473 89.03 37.2473C89.03 62.7443 89.03 62.7443 89.03 62.7443C95.1724 62.7443 95.1724 62.7443 95.1724 62.7443C95.1724 53.2532 95.1724 53.2532 95.1724 53.2532C97.0773 53.2532 97.0773 53.2532 97.0773 53.2532C99.1488 53.2532 100.194 54.0352 101.063 56.1042C101.797 57.8557 102.315 59.9336 102.99 62.7443C109.84 62.7443 109.84 62.7443 109.84 62.7443C108.867 59.8532 108.38 58.4858 107.651 56.4483C106.651 53.66 105.44 51.9441 103.837 50.9879ZM99.9099 47.8599C99.1669 48.4274 98.2076 48.6061 96.4829 48.6061C95.1724 48.6061 95.1724 48.6061 95.1724 48.6061C95.1724 48.6061 95.1589 41.8097 95.1724 41.8097C96.4829 41.8097 96.4829 41.8097 96.4829 41.8097C98.2841 41.8097 99.1803 42.0063 99.9054 42.5513C100.734 43.1769 101.103 44.1153 101.103 45.2012C101.103 46.3853 100.689 47.2566 99.9099 47.8599ZM49.3516 48.052C38.9175 37.6942 38.9175 37.6942 38.9175 37.6942C38.6023 37.3858 38.2871 37.1669 37.7917 37.1669C37.7917 62.7443 37.7917 62.7443 37.7917 62.7443C43.1552 62.7443 43.1552 62.7443 43.1552 62.7443C43.1552 50.5141 43.1552 50.5141 43.1552 50.5141C49.3516 56.6627 49.3516 56.6627 49.3516 56.6627C55.5526 50.5141 55.5526 50.5141 55.5526 50.5141C55.5526 62.7443 55.5526 62.7443 55.5526 62.7443C60.916 62.7443 60.916 62.7443 60.916 62.7443C60.916 37.1669 60.916 37.1669 60.916 37.1669C60.4207 37.1669 60.1055 37.3858 59.7903 37.6942L49.3516 48.052ZM128.965 50.0226C126.227 47.4399 121.26 46.9974 119.296 45.4783C118.526 44.8839 118.252 44.0081 118.504 43.1725C118.815 42.1358 119.855 41.4566 121.381 41.4566C123.484 41.4566 125.371 42.4084 126.677 43.95C130.185 40.3082 130.185 40.3082 130.185 40.3082C128.118 38.1277 124.817 36.814 121.341 36.814C117.288 36.814 114.23 38.7577 112.866 41.8588C111.807 44.2672 112.172 46.7785 113.474 48.5839C115.991 52.0781 121.305 52.1854 123.606 53.9772C124.426 54.6162 124.885 55.6484 124.394 56.7611C123.971 57.7352 122.904 58.3965 121.156 58.4412C118.734 58.4992 116.572 57.3732 114.982 55.4026C111.47 59.0489 111.47 59.0489 111.47 59.0489C113.793 61.8417 117.252 63.1867 121.431 63.1867C125.493 63.1867 129.06 61.6183 130.514 58.2758C131.789 55.3535 131.329 52.248 128.965 50.0226Z" fill="white"/>
</g>
<defs>
<linearGradient id="paint0_linear_179_597" x1="86.5" y1="100" x2="86.5" y2="4.98978e-06" gradientUnits="userSpaceOnUse">
<stop/>
<stop offset="0.55" stop-color="#053BE5"/>
</linearGradient>
<clipPath id="clip0_179_597">
<rect width="95" height="28" fill="white" transform="translate(37 36)"/>
</clipPath>
</defs>
</svg>
