<svg width="173" height="100" viewBox="0 0 173 100" fill="none" xmlns="http://www.w3.org/2000/svg">
<rect x="0.5" y="0.5" width="172" height="99" fill="#111111" fill-opacity="0.5" stroke="url(#paint0_linear_179_443)"/>
<path d="M48.8635 64.6927H55.2023V45.7696H48.8635V64.6927ZM58.3717 42.6158H74.2186V36.3081H58.3717V42.6158ZM48.8635 36.3081H55.2023V42.6158H48.8635V36.3081ZM39.3553 64.6927H45.6941V36.3081H39.3553V64.6927ZM29.8471 58.385H36.1859V36.3081H29.8471V58.385ZM20.3389 64.6927H26.6777V36.3081H20.3389V64.6927ZM58.3717 64.6927H64.7105V45.7696H58.3717V64.6927ZM82.8181 36.3081L83.9374 40.267C84.0704 40.7742 84.2034 41.2815 84.292 41.7006C84.3475 41.9432 84.3917 42.1747 84.4361 42.3953H84.4583C84.5026 42.1747 84.5469 41.9432 84.6024 41.7006C84.691 41.2815 84.8018 40.7742 84.9459 40.267L86.0651 36.3081H88.3591V44.1927H86.863V39.6715C86.863 39.3517 86.863 38.9547 86.8963 38.6129C86.9074 38.4254 86.9185 38.2269 86.9295 38.0394H86.9073C86.8741 38.2269 86.8298 38.4033 86.7965 38.5797C86.7189 38.8885 86.6413 39.2414 86.5638 39.5391L85.2007 44.1927H83.6603L82.3305 39.5391C82.2418 39.2414 82.1753 38.8885 82.0978 38.5797C82.0645 38.4033 82.0202 38.2269 81.9869 38.0394H81.9648C81.9759 38.2269 81.9869 38.4254 81.998 38.6129C82.0091 38.9547 82.0313 39.3517 82.0313 39.6715V44.1927H80.5574V36.3081H82.8181H82.8181ZM92.7918 43.5642H92.7696C92.6255 43.7847 92.4482 43.9722 92.1933 44.1045C91.9273 44.2368 91.5838 44.3251 91.0962 44.3251C89.9215 44.3251 89.1126 43.7296 89.1126 42.5938C89.1126 41.9762 89.3564 41.5572 89.7775 41.2815C90.1986 41.0058 90.7527 40.8625 91.3954 40.7742C92.3485 40.6419 92.7696 40.5647 92.7696 40.1346C92.7696 39.7156 92.4593 39.462 91.8166 39.462C91.1073 39.462 90.7638 39.7046 90.7195 40.2559H89.3786C89.3897 39.7487 89.6003 39.2965 89.9992 38.9547C90.3981 38.6129 90.9965 38.3923 91.8277 38.3923C93.5343 38.3923 94.2214 39.1422 94.2214 40.4765V43.3546C94.2214 43.7847 94.2879 44.0383 94.4208 44.1376V44.1927H92.9691C92.8805 44.0714 92.825 43.8178 92.7918 43.5642ZM92.4593 42.9356C92.6809 42.7371 92.8029 42.4725 92.8029 42.1968V41.3476C92.5369 41.5131 92.138 41.5902 91.7501 41.6785C90.9522 41.8549 90.5754 42.0313 90.5754 42.5607C90.5754 43.09 90.93 43.2775 91.462 43.2775C91.8941 43.2775 92.2266 43.1451 92.4593 42.9356H92.4593ZM94.7531 42.3621H96.1495C96.2492 43.0238 96.7036 43.2995 97.3906 43.2995C98.0556 43.2995 98.4323 43.0459 98.4323 42.6489C98.4323 42.3842 98.244 42.2298 97.978 42.1306C97.701 42.0313 97.3242 41.9762 96.9363 41.899C96.4155 41.7997 95.9279 41.6895 95.5511 41.4359C95.1632 41.1822 94.9194 40.8073 94.9194 40.1897C94.9194 39.5722 95.1632 39.1311 95.5954 38.8224C96.0166 38.5246 96.5817 38.3812 97.2355 38.3812C98.7538 38.3812 99.5517 39.098 99.6736 40.2559H98.3105C98.2329 39.6384 97.8672 39.4289 97.2133 39.4289C96.6149 39.4289 96.2382 39.6384 96.2382 40.0574C96.2382 40.3111 96.4266 40.4324 96.7258 40.5206C97.0139 40.6198 97.4018 40.664 97.8007 40.7522C98.2772 40.8514 98.7759 40.9617 99.1638 41.2153C99.5517 41.48 99.8065 41.877 99.8065 42.5386C99.8065 43.1121 99.5627 43.5642 99.1416 43.8729C98.7094 44.1817 98.1221 44.3581 97.4128 44.3581C95.7505 44.3581 94.8418 43.5752 94.7531 42.3621ZM100.139 42.3621H101.535C101.635 43.0238 102.089 43.2995 102.776 43.2995C103.441 43.2995 103.818 43.0459 103.818 42.6489C103.818 42.3842 103.63 42.2298 103.364 42.1306C103.087 42.0313 102.71 41.9762 102.322 41.899C101.801 41.7997 101.313 41.6895 100.937 41.4359C100.549 41.1822 100.305 40.8073 100.305 40.1897C100.305 39.5722 100.549 39.1311 100.981 38.8224C101.402 38.5246 101.967 38.3812 102.621 38.3812C104.139 38.3812 104.937 39.098 105.059 40.2559H103.696C103.618 39.6384 103.253 39.4289 102.599 39.4289C102 39.4289 101.624 39.6384 101.624 40.0574C101.624 40.3111 101.812 40.4324 102.111 40.5206C102.399 40.6198 102.787 40.664 103.186 40.7522C103.663 40.8514 104.161 40.9617 104.549 41.2153C104.937 41.48 105.192 41.877 105.192 42.5386C105.192 43.1121 104.948 43.5642 104.527 43.8729C104.095 44.1817 103.508 44.3581 102.798 44.3581C101.136 44.3581 100.227 43.5752 100.139 42.3621ZM109.281 43.5642H109.259C109.115 43.7847 108.938 43.9722 108.683 44.1045C108.417 44.2368 108.073 44.3251 107.586 44.3251C106.411 44.3251 105.602 43.7296 105.602 42.5938C105.602 41.9762 105.846 41.5572 106.267 41.2815C106.688 41.0058 107.242 40.8625 107.885 40.7742C108.838 40.6419 109.259 40.5647 109.259 40.1346C109.259 39.7156 108.949 39.462 108.306 39.462C107.597 39.462 107.253 39.7046 107.209 40.2559H105.868C105.879 39.7487 106.09 39.2965 106.489 38.9547C106.887 38.6129 107.486 38.3923 108.317 38.3923C110.024 38.3923 110.711 39.1422 110.711 40.4765V43.3546C110.711 43.7847 110.777 44.0383 110.91 44.1376V44.1927H109.458C109.37 44.0714 109.314 43.8178 109.281 43.5642ZM108.949 42.9356C109.17 42.7371 109.292 42.4725 109.292 42.1968V41.3476C109.026 41.5131 108.627 41.5902 108.239 41.6785C107.442 41.8549 107.065 42.0313 107.065 42.5607C107.065 43.09 107.419 43.2775 107.951 43.2775C108.384 43.2775 108.716 43.1451 108.949 42.9356ZM112.107 43.487C111.597 42.9576 111.32 42.2078 111.32 41.3697C111.32 40.5317 111.597 39.7818 112.096 39.2414C112.583 38.7121 113.282 38.3812 114.157 38.3812C114.9 38.3812 115.487 38.6018 115.93 38.9547C116.362 39.3186 116.639 39.8369 116.739 40.4544H115.265C115.165 39.9472 114.789 39.5833 114.223 39.5833C113.304 39.5833 112.849 40.2559 112.849 41.3697C112.849 42.4504 113.27 43.1562 114.201 43.1562C114.822 43.1562 115.243 42.8474 115.343 42.1968H116.794C116.75 42.8033 116.484 43.3326 116.052 43.7185C115.609 44.1155 114.988 44.3581 114.235 44.3581C113.326 44.3581 112.617 44.0273 112.107 43.487ZM118.922 39.2745C119.343 38.668 119.787 38.3812 120.573 38.3812C121.172 38.3812 121.648 38.6018 121.992 38.9767C122.335 39.3627 122.535 39.881 122.535 40.4985V44.1927H121.028V40.719C121.028 40.1015 120.684 39.6824 120.041 39.6824C119.377 39.6824 118.889 40.2007 118.889 40.9837V44.1926H117.382V36.3081H118.889V39.2745H118.922ZM126.99 43.5311H126.956C126.569 44.0494 126.125 44.3471 125.327 44.3471C124.053 44.3471 123.355 43.5642 123.355 42.307V38.5357H124.851V42.0534C124.851 42.715 125.139 43.0789 125.793 43.0789C126.502 43.0789 126.934 42.5496 126.934 41.7997V38.5356H128.441V44.1927H126.99V43.531V43.5311ZM128.996 42.3621H130.392C130.492 43.0238 130.946 43.2995 131.633 43.2995C132.298 43.2995 132.675 43.0459 132.675 42.6489C132.675 42.3842 132.486 42.2298 132.22 42.1306C131.943 42.0313 131.567 41.9762 131.179 41.899C130.658 41.7997 130.17 41.6895 129.793 41.4359C129.406 41.1822 129.162 40.8073 129.162 40.1897C129.162 39.5722 129.406 39.1311 129.838 38.8224C130.259 38.5246 130.824 38.3812 131.478 38.3812C132.996 38.3812 133.794 39.098 133.916 40.2559H132.553C132.475 39.6384 132.11 39.4289 131.456 39.4289C130.857 39.4289 130.48 39.6384 130.48 40.0574C130.48 40.3111 130.669 40.4324 130.968 40.5206C131.256 40.6198 131.644 40.664 132.043 40.7522C132.52 40.8514 133.018 40.9617 133.406 41.2153C133.794 41.48 134.049 41.877 134.049 42.5386C134.049 43.1121 133.805 43.5642 133.384 43.8729C132.952 44.1817 132.364 44.3581 131.655 44.3581C129.993 44.3581 129.084 43.5752 128.996 42.3621ZM135.201 43.487C134.691 42.9576 134.436 42.1968 134.436 41.3587C134.436 40.5206 134.725 39.7707 135.223 39.2414C135.711 38.7121 136.409 38.3812 137.24 38.3812C138.16 38.3812 138.847 38.7231 139.323 39.3296C139.8 39.9361 140.044 40.7742 140.044 41.7887H135.921C136.043 42.671 136.509 43.2002 137.373 43.2002C137.972 43.2002 138.304 42.9356 138.47 42.5055H139.955C139.855 43.0127 139.578 43.4649 139.146 43.8067C138.703 44.1486 138.116 44.3581 137.384 44.3581C136.431 44.3581 135.711 44.0273 135.201 43.4869L135.201 43.487ZM135.944 40.7522H138.47C138.426 40.0244 137.96 39.5391 137.262 39.5391C136.464 39.5391 136.077 40.0023 135.944 40.7522ZM141.019 38.5357V36.7713H142.493V38.5357H143.468V39.5833H142.493V42.5276C142.493 42.9576 142.715 43.09 143.058 43.09H143.346C143.402 43.09 143.446 43.09 143.501 43.0789V44.1817C143.424 44.1927 143.346 44.1927 143.258 44.1927C143.091 44.2038 142.859 44.2038 142.559 44.2038C142.194 44.2038 141.817 44.1376 141.518 43.9281C141.218 43.7185 141.019 43.3767 141.019 42.8474V39.5833H140.232V38.5357H141.019ZM144.521 38.5357V36.7713H145.995V38.5357H146.97V39.5833H145.995V42.5276C145.995 42.9576 146.216 43.09 146.56 43.09H146.848C146.903 43.09 146.948 43.09 147.003 43.0789V44.1817C146.926 44.1927 146.848 44.1927 146.759 44.1927C146.593 44.2038 146.36 44.2038 146.061 44.2038C145.695 44.2038 145.319 44.1376 145.019 43.9281C144.72 43.7185 144.521 43.3767 144.521 42.8474V39.5833H143.734V38.5357H144.521ZM147.38 42.3621H148.776C148.876 43.0238 149.33 43.2995 150.017 43.2995C150.682 43.2995 151.059 43.0459 151.059 42.6489C151.059 42.3842 150.87 42.2298 150.604 42.1306C150.327 42.0313 149.951 41.9762 149.563 41.899C149.042 41.7997 148.554 41.6895 148.178 41.4359C147.79 41.1822 147.546 40.8073 147.546 40.1897C147.546 39.5722 147.79 39.1311 148.222 38.8224C148.643 38.5246 149.208 38.3812 149.862 38.3812C151.38 38.3812 152.178 39.098 152.3 40.2559H150.937C150.859 39.6384 150.494 39.4289 149.84 39.4289C149.241 39.4289 148.865 39.6384 148.865 40.0574C148.865 40.3111 149.053 40.4324 149.352 40.5206C149.64 40.6198 150.028 40.664 150.427 40.7522C150.904 40.8514 151.402 40.9617 151.79 41.2153C152.178 41.48 152.433 41.877 152.433 42.5386C152.433 43.1121 152.189 43.5642 151.768 43.8729C151.336 44.1817 150.748 44.3581 150.039 44.3581C148.377 44.3581 147.468 43.5752 147.38 42.3621ZM82.1643 46.5581V54.4427H80.5574V46.5581H82.1643ZM84.713 49.5576C85.1009 48.94 85.6106 48.6312 86.3974 48.6312C86.9958 48.6312 87.4724 48.8518 87.8159 49.2267C88.1594 49.6127 88.3589 50.131 88.3589 50.7485V54.4427H86.8518V50.969C86.8518 50.3515 86.5083 49.9324 85.8655 49.9324C85.2006 49.9324 84.713 50.4507 84.713 51.2337V54.4426H83.2059V48.7856H84.6798V49.5575H84.713V49.5576ZM88.8687 52.6121H90.265C90.3648 53.2738 90.8191 53.5495 91.5062 53.5495C92.1711 53.5495 92.5479 53.2959 92.5479 52.8989C92.5479 52.6342 92.3595 52.4798 92.0935 52.3806C91.8165 52.2813 91.4397 52.2262 91.0518 52.149C90.5309 52.0497 90.0434 51.9395 89.6666 51.6859C89.2787 51.4322 89.0349 51.0573 89.0349 50.4397C89.0349 49.8222 89.2787 49.3811 89.7109 49.0724C90.132 48.7746 90.6972 48.6312 91.351 48.6312C92.8692 48.6312 93.6671 49.348 93.789 50.5059H92.4259C92.3484 49.8884 91.9827 49.6789 91.3288 49.6789C90.7304 49.6789 90.3536 49.8884 90.3536 50.3074C90.3536 50.5611 90.542 50.6824 90.8412 50.7706C91.1294 50.8698 91.5172 50.914 91.9162 51.0022C92.3927 51.1014 92.8914 51.2117 93.2792 51.4653C93.6671 51.73 93.922 52.127 93.922 52.7886C93.922 53.3621 93.6782 53.8142 93.2571 54.1229C92.8248 54.4317 92.2375 54.6081 91.5283 54.6081C89.866 54.6081 88.9573 53.8252 88.8687 52.6121ZM94.8749 48.7857V47.0213H96.3488V48.7857H97.324V49.8333H96.3488V52.7776C96.3488 53.2076 96.5705 53.34 96.914 53.34H97.2021C97.2576 53.34 97.3019 53.34 97.3573 53.3289V54.4317C97.2797 54.4427 97.2021 54.4427 97.1135 54.4427C96.9472 54.4538 96.7145 54.4538 96.4153 54.4538C96.0496 54.4538 95.6728 54.3876 95.3736 54.1781C95.0744 53.9685 94.8749 53.6267 94.8749 53.0974V49.8333H94.0881V48.7857H94.8749ZM99.5402 46.7676V48.113H98.0331V46.7676H99.5402ZM99.5402 48.7857V54.4427H98.0331V48.7857H99.5402ZM100.903 48.7857V47.0213H102.377V48.7857H103.352V49.8333H102.377V52.7776C102.377 53.2076 102.599 53.34 102.942 53.34H103.231C103.286 53.34 103.33 53.34 103.386 53.3289V54.4317C103.308 54.4427 103.231 54.4427 103.142 54.4427C102.976 54.4538 102.743 54.4538 102.444 54.4538C102.078 54.4538 101.701 54.3876 101.402 54.1781C101.103 53.9685 100.903 53.6267 100.903 53.0974V49.8333H100.116V48.7857H100.903H100.903ZM107.652 53.7811H107.619C107.231 54.2994 106.788 54.5971 105.99 54.5971C104.715 54.5971 104.017 53.8142 104.017 52.557V48.7857H105.513V52.3034C105.513 52.965 105.801 53.3289 106.455 53.3289C107.164 53.3289 107.597 52.7996 107.597 52.0497V48.7856H109.104V54.4427H107.652V53.781L107.652 53.7811ZM110.467 48.7857V47.0213H111.941V48.7857H112.916V49.8333H111.941V52.7776C111.941 53.2076 112.162 53.34 112.506 53.34H112.794C112.849 53.34 112.894 53.34 112.949 53.3289V54.4317C112.872 54.4427 112.794 54.4427 112.705 54.4427C112.539 54.4538 112.306 54.4538 112.007 54.4538C111.641 54.4538 111.265 54.3876 110.965 54.1781C110.666 53.9685 110.467 53.6267 110.467 53.0974V49.8333H109.68V48.7857H110.467H110.467ZM114.057 53.737C113.548 53.2076 113.293 52.4468 113.293 51.6087C113.293 50.7706 113.581 50.0207 114.079 49.4914C114.567 48.9621 115.265 48.6312 116.096 48.6312C117.016 48.6312 117.703 48.9731 118.18 49.5796C118.656 50.1861 118.9 51.0242 118.9 52.0387H114.778C114.9 52.9209 115.365 53.4502 116.229 53.4502C116.828 53.4502 117.16 53.1856 117.326 52.7555H118.811C118.712 53.2627 118.435 53.7149 118.002 54.0567C117.559 54.3986 116.972 54.6081 116.24 54.6081C115.287 54.6081 114.567 54.2773 114.057 53.7369L114.057 53.737ZM114.8 51.0022H117.326C117.282 50.2744 116.817 49.7891 116.119 49.7891C115.321 49.7891 114.933 50.2523 114.8 51.0022ZM121.881 53.737C121.349 53.2076 121.05 52.4578 121.05 51.6197C121.05 50.7817 121.349 50.0318 121.881 49.4914C122.402 48.9621 123.133 48.6312 124.02 48.6312C124.906 48.6312 125.638 48.9621 126.17 49.4914C126.69 50.0318 126.99 50.7816 126.99 51.6197C126.99 52.4578 126.69 53.2077 126.17 53.737C125.638 54.2773 124.906 54.6081 124.02 54.6081C123.133 54.6081 122.402 54.2773 121.881 53.737ZM125.46 51.6197C125.46 50.5059 124.951 49.7671 124.02 49.7671C123.089 49.7671 122.579 50.506 122.579 51.6197C122.579 52.7225 123.089 53.4613 124.02 53.4613C124.951 53.4613 125.46 52.7225 125.46 51.6197ZM127.954 48.7857V48.2784C127.954 47.5837 128.22 47.1205 128.674 46.8448C129.117 46.5801 129.749 46.492 130.48 46.5691V47.727C129.771 47.694 129.461 47.7712 129.461 48.3666V48.7857H130.48V49.8664H129.461V54.4428H127.954V49.8664H127.178V48.7857H127.954V48.7857ZM84.5468 56.8081V58.1535H82.1643V64.6927H80.5574V58.1535H78.1748V56.8081H84.5468ZM84.3807 63.987C83.8709 63.4576 83.616 62.6968 83.616 61.8587C83.616 61.0206 83.9042 60.2707 84.4028 59.7414C84.8904 59.2121 85.5886 58.8812 86.4197 58.8812C87.3395 58.8812 88.0266 59.2231 88.5031 59.8296C88.9796 60.4361 89.2234 61.2742 89.2234 62.2887H85.101C85.2229 63.1709 85.6883 63.7002 86.5527 63.7002C87.1511 63.7002 87.4836 63.4356 87.6498 63.0055H89.1348C89.035 63.5127 88.7579 63.9649 88.3258 64.3067C87.8825 64.6486 87.2952 64.8581 86.5638 64.8581C85.6107 64.8581 84.8904 64.5273 84.3807 63.9869L84.3807 63.987ZM85.1232 61.2522H87.6498C87.6055 60.5244 87.14 60.0391 86.4419 60.0391C85.644 60.0391 85.2562 60.5023 85.1232 61.2522ZM90.3648 63.987C89.855 63.4576 89.5779 62.7078 89.5779 61.8697C89.5779 61.0317 89.855 60.2818 90.3537 59.7414C90.8413 59.2121 91.5395 58.8812 92.4149 58.8812C93.1574 58.8812 93.7448 59.1018 94.188 59.4547C94.6202 59.8186 94.8972 60.3369 94.997 60.9544H93.5231C93.4233 60.4472 93.0466 60.0833 92.4814 60.0833C91.5616 60.0833 91.1073 60.7559 91.1073 61.8697C91.1073 62.9504 91.5284 63.6562 92.4593 63.6562C93.0799 63.6562 93.501 63.3474 93.6007 62.6968H95.0524C95.008 63.3033 94.7421 63.8326 94.3099 64.2185C93.8666 64.6155 93.2461 64.8581 92.4925 64.8581C91.5838 64.8581 90.8745 64.5273 90.3648 63.987ZM97.1801 59.7745C97.6012 59.168 98.0445 58.8812 98.8313 58.8812C99.4297 58.8812 99.9062 59.1018 100.25 59.4767C100.593 59.8627 100.793 60.381 100.793 60.9985V64.6927H99.2857V61.219C99.2857 60.6015 98.9421 60.1824 98.2994 60.1824C97.6345 60.1824 97.1469 60.7007 97.1469 61.4837V64.6926H95.6397V56.808H97.1469V59.7744H97.1801V59.7745ZM103.164 59.8076C103.552 59.19 104.062 58.8812 104.849 58.8812C105.447 58.8812 105.924 59.1018 106.267 59.4767C106.611 59.8627 106.81 60.381 106.81 60.9985V64.6927H105.303V61.219C105.303 60.6015 104.96 60.1824 104.317 60.1824C103.652 60.1824 103.164 60.7007 103.164 61.4837V64.6926H101.657V59.0356H103.131V59.8075H103.164V59.8076ZM108.229 63.987C107.697 63.4576 107.398 62.7078 107.398 61.8697C107.398 61.0317 107.697 60.2818 108.229 59.7414C108.749 59.2121 109.481 58.8812 110.367 58.8812C111.254 58.8812 111.985 59.2121 112.517 59.7414C113.038 60.2818 113.337 61.0316 113.337 61.8697C113.337 62.7078 113.038 63.4577 112.517 63.987C111.985 64.5273 111.254 64.8581 110.367 64.8581C109.481 64.8581 108.749 64.5273 108.229 63.987ZM111.808 61.8697C111.808 60.7559 111.298 60.0171 110.367 60.0171C109.437 60.0171 108.927 60.756 108.927 61.8697C108.927 62.9725 109.437 63.7113 110.367 63.7113C111.298 63.7113 111.808 62.9725 111.808 61.8697ZM115.498 56.8081V64.6927H113.991V56.8081H115.498ZM116.983 63.987C116.451 63.4576 116.152 62.7078 116.152 61.8697C116.152 61.0317 116.451 60.2818 116.983 59.7414C117.504 59.2121 118.235 58.8812 119.122 58.8812C120.008 58.8812 120.74 59.2121 121.272 59.7414C121.793 60.2818 122.092 61.0316 122.092 61.8697C122.092 62.7078 121.793 63.4577 121.272 63.987C120.74 64.5273 120.008 64.8581 119.122 64.8581C118.235 64.8581 117.504 64.5273 116.983 63.987ZM120.563 61.8697C120.563 60.7559 120.053 60.0171 119.122 60.0171C118.191 60.0171 117.681 60.756 117.681 61.8697C117.681 62.9725 118.191 63.7113 119.122 63.7113C120.053 63.7113 120.563 62.9725 120.563 61.8697ZM122.568 64.8581H124.064C124.186 65.211 124.497 65.4867 125.206 65.4867C126.048 65.4867 126.469 65.1007 126.469 64.3068V63.6892H126.436C126.092 64.0752 125.682 64.3508 124.951 64.3508C124.308 64.3508 123.699 64.1082 123.233 63.6341C122.757 63.1709 122.446 62.5092 122.446 61.6491C122.446 60.811 122.701 60.1163 123.145 59.6311C123.577 59.1459 124.175 58.8812 124.907 58.8812C125.616 58.8812 126.137 59.1569 126.48 59.6311H126.502V59.0356H127.954V64.2626C127.954 65.0566 127.71 65.5969 127.278 65.9828C126.802 66.4239 126.07 66.6224 125.228 66.6224C123.654 66.6224 122.735 65.9608 122.568 64.8581V64.8581ZM126.236 62.6968C126.447 62.4211 126.547 62.0461 126.547 61.6161C126.547 61.197 126.436 60.811 126.214 60.5354C125.993 60.2597 125.66 60.0832 125.195 60.0832C124.419 60.0832 123.92 60.6677 123.92 61.6271C123.92 62.5975 124.419 63.1489 125.206 63.1489C125.682 63.1489 126.015 62.9725 126.236 62.6968ZM129.517 65.3654C130.126 65.3654 130.359 65.0676 130.359 64.5935C130.359 64.4501 130.337 64.2626 130.27 64.031C130.193 63.7995 130.093 63.4907 129.927 63.0606L128.397 59.0356H129.982L130.824 61.5829C130.913 61.8476 130.99 62.1453 131.068 62.3989C131.101 62.5423 131.146 62.6746 131.19 62.818H131.212C131.245 62.6746 131.279 62.5423 131.312 62.3989C131.367 62.1453 131.456 61.8476 131.545 61.5829L132.342 59.0356H133.861L131.877 64.836C131.655 65.4756 131.445 65.8946 131.146 66.1593C130.835 66.435 130.448 66.5453 129.871 66.5453H128.985V65.3654H129.517L129.517 65.3654Z" fill="white"/>
<defs>
<linearGradient id="paint0_linear_179_443" x1="86.5" y1="100" x2="86.5" y2="4.98978e-06" gradientUnits="userSpaceOnUse">
<stop offset="0.45" stop-color="#053BE5"/>
<stop offset="1"/>
</linearGradient>
</defs>
</svg>
