<svg width="173" height="100" viewBox="0 0 173 100" fill="none" xmlns="http://www.w3.org/2000/svg">
<rect x="0.5" y="0.5" width="172" height="99" fill="#111111" fill-opacity="0.5" stroke="url(#paint0_linear_179_491)"/>
<g clip-path="url(#clip0_179_491)">
<path d="M125 45.9044H97.3562V38.79H125V45.9044Z" fill="#E669A2"/>
<path d="M121.41 45.9046H97.3562V28.1108H121.41V45.9046Z" fill="#F3BE26"/>
<path d="M111.472 45.9045H97.3562V21H111.472V45.9045Z" fill="#EE9C34"/>
<path d="M114.249 45.9048H97.3562V23.7793H114.249V45.9048Z" fill="#F3BC87"/>
<path d="M97.3523 23.7832V45.9023H111.47V23.7832H97.3523Z" fill="#E3721C"/>
<path d="M83.2012 45.9048H97.356V49.4624H83.2012V45.9048Z" fill="#AD1B02"/>
<path d="M97.3523 28.1069V45.9024H114.257V28.1069H97.3523Z" fill="#E88D14"/>
<path d="M97.3523 28.1069V45.9024H111.47V28.1069H97.3523Z" fill="#D85604"/>
<path d="M106.184 45.9047H97.3562V35.2246H106.184V45.9047Z" fill="#C14303"/>
<path d="M97.3523 38.7954V45.9025H121.418V38.7954H97.3523Z" fill="#DB4E18"/>
<path d="M97.3523 38.7954V45.9025H114.257V38.7954H97.3523Z" fill="#D1390D"/>
<path d="M97.3523 38.7954V45.9025H111.47V38.7954H97.3523Z" fill="#C22303"/>
<path d="M97.3523 38.7954V45.9025H106.192V38.7954H97.3523Z" fill="#AD1B02"/>
<path d="M100.434 59.3039C98.0252 59.7344 96.7407 61.5641 96.7407 64.7392C96.7407 67.9681 98.4534 70.1207 100.969 70.1207C102.2 70.1207 103.27 69.6901 105.518 68.56C105.518 71.1969 105.518 71.1969 105.518 71.1969C102.789 72.4885 101.183 72.8114 99.0421 72.8114C96.6337 72.8114 94.921 72.2194 93.583 70.7664C92.1914 69.3672 91.4421 67.5375 91.4421 65.4388C91.4421 60.8645 94.8675 57.6895 99.845 57.6895C103.11 57.6895 105.411 59.2501 105.411 61.4565C105.411 62.9095 104.341 63.932 102.789 63.932C101.986 63.932 101.344 63.6629 100.434 63.1786" fill="white"/>
<path d="M88.3916 65.4388C90.586 62.6942 91.3888 61.5641 91.3888 60.2187C91.3888 58.8734 90.3184 57.6895 88.8198 57.6895C87.9634 57.6895 87.1606 58.1738 86.786 58.6043C86.786 64.2548 86.786 64.2548 86.786 64.2548C83.2001 69.0982 83.2001 69.0982 83.2001 69.0982C83.2001 58.12 83.2001 58.12 83.2001 58.12C79.7747 58.12 79.7747 58.12 79.7747 58.12C74.1015 67.5375 74.1015 67.5375 74.1015 67.5375C74.1015 58.12 74.1015 58.12 74.1015 58.12C72.1747 58.12 72.1747 58.12 72.1747 58.12C66.9832 59.3039 66.9832 59.3039 66.9832 59.3039C66.9832 60.6493 66.9832 60.6493 66.9832 60.6493C69.8198 60.9183 69.8198 60.9183 69.8198 60.9183C69.8198 72.5961 69.8198 72.5961 69.8198 72.5961C73.4057 72.5961 73.4057 72.5961 73.4057 72.5961C78.8648 63.5553 78.8648 63.5553 78.8648 63.5553C78.8648 72.5961 78.8648 72.5961 78.8648 72.5961C82.8789 72.5961 82.8789 72.5961 82.8789 72.5961" fill="white"/>
<path d="M56.1183 70.7662C56.5465 70.7662 56.6535 70.7662 56.9211 70.7662C59.8113 70.7662 61.4169 68.9903 61.4169 65.4386C61.4169 62.4788 60.1324 60.8643 57.7239 60.8643C57.4028 60.8643 56.9211 60.9181 56.1183 61.0796V70.7662ZM56.1183 77.1164C58.4732 77.6545 58.4732 77.6545 58.4732 77.6545C58.4732 78.9999 58.4732 78.9999 58.4732 78.9999C49.2141 78.9999 49.2141 78.9999 49.2141 78.9999C49.2141 77.6545 49.2141 77.6545 49.2141 77.6545C51.3549 77.1164 51.3549 77.1164 51.3549 77.1164C51.3549 60.8643 51.3549 60.8643 51.3549 60.8643C49 60.8643 49 60.8643 49 60.8643C49 59.5189 49 59.5189 49 59.5189C54.6197 57.7969 54.6197 57.7969 54.6197 57.7969C56.1183 57.7969 56.1183 57.7969 56.1183 57.7969C56.1183 59.7342 56.1183 59.7342 56.1183 59.7342C58.7408 58.1198 59.6507 57.8507 61.0423 57.8507C64.1465 57.8507 66.5014 60.7567 66.5014 64.7928C66.5014 69.4209 63.3437 72.5959 58.5268 72.5959C57.9916 72.5959 57.0817 72.5421 56.1183 72.4883" fill="white"/>
</g>
<defs>
<linearGradient id="paint0_linear_179_491" x1="86.5" y1="100" x2="86.5" y2="4.98978e-06" gradientUnits="userSpaceOnUse">
<stop offset="0.45" stop-color="#053BE5"/>
<stop offset="1"/>
</linearGradient>
<clipPath id="clip0_179_491">
<rect width="76" height="58" fill="white" transform="translate(49 21)"/>
</clipPath>
</defs>
</svg>
