<svg width="173" height="100" viewBox="0 0 173 100" fill="none" xmlns="http://www.w3.org/2000/svg">
<rect x="0.5" y="0.5" width="172" height="99" fill="#111111" fill-opacity="0.5" stroke="url(#paint0_linear_179_465)"/>
<g clip-path="url(#clip0_179_465)">
<mask id="mask0_179_465" style="mask-type:luminance" maskUnits="userSpaceOnUse" x="22" y="33" width="130" height="34">
<path d="M22.4224 33.998H151.585V66.0005H22.4224V33.998Z" fill="white"/>
</mask>
<g mask="url(#mask0_179_465)">
<path d="M137.336 49.0274V51.2054H138.977V53.3664C138.982 53.5595 138.971 53.7678 138.936 53.9344C138.87 54.3375 138.46 55.0238 137.295 55.0238C136.137 55.0238 135.734 54.3375 135.664 53.9344C135.635 53.7678 135.622 53.5595 135.622 53.3664V46.541C135.622 46.2995 135.639 46.0353 135.694 45.8353C135.774 45.4715 136.12 44.7541 137.286 44.7541C138.511 44.7541 138.817 45.5104 138.887 45.8353C138.933 46.0504 138.936 46.4113 138.936 46.4113V47.2401H142.968V46.7502C142.968 46.7502 142.986 46.2389 142.937 45.7618C142.634 42.9604 140.159 42.074 137.322 42.074C134.479 42.074 132.055 42.9686 131.701 45.7618C131.669 46.0173 131.621 46.4767 131.621 46.7502V53.0289C131.621 53.3024 131.63 53.5141 131.684 54.0138C131.948 56.7382 134.479 57.7039 137.311 57.7039C140.159 57.7039 142.674 56.7382 142.941 54.0138C142.989 53.5141 142.994 53.3024 143 53.0289V49.0274H137.336ZM109.533 42.4758H105.483V53.5239C105.49 53.7164 105.483 53.9327 105.448 54.0913C105.363 54.4622 105.026 55.1759 103.909 55.1759C102.806 55.1759 102.46 54.4622 102.382 54.0913C102.342 53.9327 102.337 53.7164 102.342 53.5239V42.4758H98.2935V53.181C98.2884 53.4569 98.3116 54.0207 98.3291 54.1684C98.6085 56.958 100.966 57.8637 103.909 57.8637C106.858 57.8637 109.214 56.958 109.498 54.1684C109.521 54.0207 109.55 53.4569 109.533 53.181V42.4758ZM72.3261 42.4758L70.3061 54.1496L68.2873 42.4758H61.7554L61.409 57.4099H65.4107L65.519 43.5849L68.2723 57.4099H72.3324L75.0882 43.5849L75.197 57.4099H79.2088L78.8506 42.4758H72.3261ZM48.1417 42.4758L45.1758 57.4099H49.5009L51.7359 43.5849L53.9173 57.4099H58.2124L55.2588 42.4758H48.1417ZM123.685 54.4995L119.914 42.4758H113.972V57.2542H117.903L117.675 44.8458L121.724 57.2542H127.422V42.4758H123.466L123.685 54.4995ZM87.3275 46.3624C87.2564 46.0675 87.2769 45.7542 87.3137 45.5904C87.4283 45.1123 87.7726 44.5909 88.7648 44.5909C89.6896 44.5909 90.2317 45.1286 90.2317 45.9356V46.8487H94.1792V45.8079C94.1792 42.5901 91.0862 42.0846 88.8469 42.0846C86.0265 42.0846 83.7232 42.9517 83.3026 45.3729C83.1913 46.0318 83.1638 46.6167 83.3408 47.3631C84.0267 50.382 89.6614 51.2578 90.4793 53.167C90.6236 53.5286 90.5823 53.9898 90.5087 54.2616C90.3862 54.7584 90.0278 55.2582 88.9655 55.2582C87.9692 55.2582 87.3695 54.7239 87.3695 53.9187L87.3682 52.4854H83.1194V53.6247C83.1194 56.9259 85.8916 57.922 88.8775 57.922C91.7371 57.922 94.099 57.0105 94.4779 54.5398C94.6586 53.2632 94.5223 52.4318 94.4497 52.1186C93.7877 49.0222 87.7821 48.0908 87.3275 46.3624ZM35.2558 46.3258C35.1783 46.0247 35.1964 45.707 35.2396 45.5413C35.3489 45.0655 35.6954 44.5349 36.7051 44.5349C37.6415 44.5349 38.1929 45.0778 38.1929 45.8913V46.8156H42.1866V45.7664C42.1866 42.5178 39.0464 42 36.7826 42C33.9386 42 31.6147 42.8806 31.1896 45.3192C31.0732 45.9887 31.0532 46.5776 31.2214 47.3322C31.9147 50.3854 37.6051 51.2683 38.4331 53.2003C38.5881 53.5595 38.5412 54.0207 38.4643 54.303C38.333 54.805 37.9717 55.3119 36.9006 55.3119C35.9004 55.3119 35.3021 54.7684 35.3021 53.9521L35.2965 52.515H31V53.6569C31 56.9959 33.8115 58 36.8206 58C39.7135 58 42.0892 57.0805 42.4767 54.5812C42.6694 53.293 42.5248 52.4546 42.4599 52.1366C41.7841 49.0023 35.7116 48.0739 35.2558 46.3258Z" fill="white"/>
</g>
</g>
<defs>
<linearGradient id="paint0_linear_179_465" x1="86.5" y1="100" x2="86.5" y2="4.98978e-06" gradientUnits="userSpaceOnUse">
<stop/>
<stop offset="0.55" stop-color="#053BE5"/>
</linearGradient>
<clipPath id="clip0_179_465">
<rect width="112" height="16" fill="white" transform="translate(31 42)"/>
</clipPath>
</defs>
</svg>
