<svg width="173" height="100" viewBox="0 0 173 100" fill="none" xmlns="http://www.w3.org/2000/svg">
<rect x="0.5" y="0.5" width="172" height="99" fill="#111111" fill-opacity="0.5" stroke="url(#paint0_linear_179_616)"/>
<g clip-path="url(#clip0_179_616)">
<path d="M70.7341 69.2001C68.1064 67.0001 67.6915 63.8376 66.5851 61.0876C65.8936 59.3001 64.649 57.7876 63.4043 56.2751C65.0638 60.9501 64.0958 64.2501 68.1064 67.5501C67.4149 67.2751 66.7234 66.7251 66.1702 66.3126C62.9894 63.7001 58.2872 63.2876 56.3511 59.0251C56.9043 62.1876 59.3936 64.9376 62.0213 66.7251C64.649 68.3751 67.9681 68.2376 70.7341 69.2001ZM77.649 70.8501C78.0638 70.7126 78.617 70.7126 79.1702 70.5751C77.2341 70.3001 75.4362 69.6126 74.0532 68.3751C71.9787 66.4501 70.1809 64.5251 67.9681 63.0126C70.3192 67.6876 71.149 69.6126 75.0213 70.4376C75.0213 70.4376 73.9149 70.3001 73.3617 70.1626C69.2128 69.3376 64.2341 70.4376 61.1915 67.0001C62.4362 69.2001 64.7872 70.9876 67 71.8126C70.5958 72.9126 74.3298 71.6751 77.649 70.8501ZM83.1809 70.5751C76.5426 70.5751 73.0851 76.3501 66.5851 72.5001C69.766 76.3501 74.883 76.6251 79.0319 74.0126C80.6915 72.9126 82.2128 71.4001 84.2872 71.4001C87.4681 71.4001 90.9255 74.7001 93.8298 77.7251C94.383 77.3126 94.7979 76.9001 95.2128 76.4876C92.1702 73.6001 87.7447 70.5751 83.1809 70.5751ZM64.5107 64.1126C64.5107 64.1126 63.6809 62.6001 63.4043 61.6376C62.4362 57.9251 62.9894 53.3876 61.3298 49.8126C61.6064 51.8751 60.7766 53.6626 60.6383 55.5876C60.3617 58.2001 61.3298 59.9876 62.0213 61.2251C62.0213 61.2251 61.0532 59.9876 60.6383 59.3001C58.7021 56.2751 54.6915 54.2126 54.4149 50.5001C53.8617 58.6126 59.5319 60.8126 64.5107 64.1126ZM62.5745 40.0501C63.1277 38.9501 63.4043 37.5751 63.6809 36.3376C63.4043 36.8876 63.1277 37.4376 62.7128 37.8501C60.0851 40.0501 58.5638 41.2876 57.8724 44.7251L58.149 41.7001C58.4255 38.6751 56.766 35.3751 58.5638 32.7626C56.766 34.6876 55.7979 37.1626 55.7979 39.6376C55.7979 42.9376 57.7341 45.2751 57.8724 48.4376C58.4255 45.1376 61.1915 42.8001 62.5745 40.0501ZM61.6064 34.0001C62.8511 32.9001 64.3724 31.9376 65.4787 30.5626C66.7234 28.9126 67.8298 26.9876 69.4894 25.4751C67.2766 26.4376 64.7872 27.2626 63.266 29.6001C62.4362 30.9751 62.2979 32.6251 61.6064 34.0001ZM58.8404 40.6001C59.3936 39.5001 60.3617 38.4001 61.3298 37.5751C63.8192 35.7876 66.3085 33.4501 66.4468 30.4251C65.0638 33.7251 60.7766 34.2751 59.8085 37.7126C59.8085 37.7126 60.3617 35.6501 60.5 35.2376C61.1915 32.9001 61.0532 30.1501 63.4043 28.6376C58.8404 29.6001 58.5638 34.5501 58.8404 38.2626C58.8404 39.0876 58.9787 39.7751 58.8404 40.6001ZM59.5319 56.5501C59.5319 56.5501 59.2553 53.9376 59.6702 52.8376C60.7766 49.5376 61.883 45.9626 61.7447 42.5251C60.6383 46.6501 57.1809 48.0251 58.7021 53.6626C58.149 52.5626 58.0107 51.3251 57.5958 50.2251C56.766 47.2001 54.4149 44.5876 55.1064 41.0126C54 44.1751 54 46.6501 55.1064 49.9501C55.7979 52.4251 58.2872 54.2126 59.5319 56.5501Z" fill="white"/>
<path d="M102.266 69.2001C104.894 67.0001 105.308 63.8376 106.415 61.0876C107.106 59.3001 108.351 57.7876 109.596 56.2751C107.936 60.9501 108.904 64.2501 104.894 67.5501C105.585 67.2751 106.277 66.7251 106.83 66.3126C110.011 63.7001 114.713 63.2876 116.649 59.0251C116.096 62.1876 113.606 64.9376 110.979 66.7251C108.351 68.3751 105.032 68.2376 102.266 69.2001ZM95.351 70.8501C94.9362 70.7126 94.383 70.7126 93.8298 70.5751C95.7659 70.3001 97.5638 69.6126 98.9468 68.3751C101.021 66.4501 102.819 64.5251 105.032 63.0126C102.681 67.6876 101.851 69.6126 97.9787 70.4376C97.9787 70.4376 99.0851 70.3001 99.6383 70.1626C103.787 69.3376 108.766 70.4376 111.808 67.0001C110.564 69.2001 108.213 70.9876 106 71.8126C102.404 72.9126 98.6702 71.6751 95.351 70.8501ZM89.8191 70.5751C96.4574 70.5751 99.9149 76.3501 106.415 72.5001C103.234 76.3501 98.117 76.6251 93.9681 74.0126C92.3085 72.9126 90.7872 71.4001 88.7128 71.4001C85.5319 71.4001 82.0745 74.7001 79.1702 77.7251C78.617 77.3126 78.2021 76.9001 77.7872 76.4876C80.8298 73.6001 85.2553 70.5751 89.8191 70.5751ZM108.489 64.1126C108.489 64.1126 109.319 62.6001 109.596 61.6376C110.564 57.9251 110.011 53.3876 111.67 49.8126C111.394 51.8751 112.223 53.6626 112.362 55.5876C112.638 58.2001 111.67 59.9876 110.979 61.2251C110.979 61.2251 111.947 59.9876 112.362 59.3001C114.298 56.2751 118.308 54.2126 118.585 50.5001C119.138 58.6126 113.468 60.8126 108.489 64.1126ZM110.426 40.0501C109.872 38.9501 109.596 37.5751 109.319 36.3376C109.596 36.8876 109.872 37.4376 110.287 37.8501C112.915 40.0501 114.436 41.2876 115.128 44.7251L114.851 41.7001C114.574 38.6751 116.234 35.3751 114.436 32.7626C116.234 34.6876 117.202 37.1626 117.202 39.6376C117.202 42.9376 115.266 45.2751 115.128 48.4376C114.574 45.1376 111.808 42.8001 110.426 40.0501ZM111.394 34.0001C110.149 32.9001 108.628 31.9376 107.521 30.5626C106.277 28.9126 105.17 26.9876 103.511 25.4751C105.723 26.4376 108.213 27.2626 109.734 29.6001C110.564 30.9751 110.702 32.6251 111.394 34.0001ZM114.16 40.6001C113.606 39.5001 112.638 38.4001 111.67 37.5751C109.181 35.7876 106.691 33.4501 106.553 30.4251C107.936 33.7251 112.223 34.2751 113.191 37.7126C113.191 37.7126 112.638 35.6501 112.5 35.2376C111.808 32.9001 111.947 30.1501 109.596 28.6376C114.16 29.6001 114.436 34.5501 114.16 38.2626C114.16 39.0876 114.021 39.7751 114.16 40.6001ZM113.468 56.5501C113.468 56.5501 113.745 53.9376 113.33 52.8376C112.223 49.5376 111.117 45.9626 111.255 42.5251C112.362 46.6501 115.819 48.0251 114.298 53.6626C114.851 52.5626 114.989 51.3251 115.404 50.2251C116.234 47.2001 118.585 44.5876 117.894 41.0126C119 44.1751 119 46.6501 117.894 49.9501C117.202 52.4251 114.713 54.2126 113.468 56.5501Z" fill="white"/>
<path d="M86.4998 68.3753C98.9497 68.3753 109.042 58.3409 109.042 45.9628C109.042 33.5847 98.9497 23.5503 86.4998 23.5503C74.0499 23.5503 63.9573 33.5847 63.9573 45.9628C63.9573 58.3409 74.0499 68.3753 86.4998 68.3753Z" stroke="white" stroke-width="0.527013"/>
<path d="M86.4998 63.7001C96.3528 63.7001 104.34 55.7587 104.34 45.9626C104.34 36.1664 96.3528 28.2251 86.4998 28.2251C76.6469 28.2251 68.6594 36.1664 68.6594 45.9626C68.6594 55.7587 76.6469 63.7001 86.4998 63.7001Z" stroke="white" stroke-width="0.527013"/>
<path d="M86.5 59.4378C93.9852 59.4378 100.053 53.4048 100.053 45.9628C100.053 38.5208 93.9852 32.4878 86.5 32.4878C79.0147 32.4878 72.9468 38.5208 72.9468 45.9628C72.9468 53.4048 79.0147 59.4378 86.5 59.4378Z" stroke="white" stroke-width="0.527013"/>
<path d="M86.5 54.7626C91.3883 54.7626 95.3511 50.8227 95.3511 45.9626C95.3511 41.1025 91.3883 37.1626 86.5 37.1626C81.6117 37.1626 77.6489 41.1025 77.6489 45.9626C77.6489 50.8227 81.6117 54.7626 86.5 54.7626Z" stroke="white" stroke-width="0.527013"/>
<path d="M86.4999 50.5003C89.0204 50.5003 91.0637 48.4688 91.0637 45.9628C91.0637 43.4568 89.0204 41.4253 86.4999 41.4253C83.9793 41.4253 81.936 43.4568 81.936 45.9628C81.936 48.4688 83.9793 50.5003 86.4999 50.5003Z" stroke="white" stroke-width="0.527013"/>
<path d="M86.4998 23.5503V41.4253M86.4998 50.5003V68.3753M70.5956 30.1503L83.319 42.8003M89.6807 49.1253L102.404 61.7753M63.9573 45.9628H81.936M91.0637 45.9628H109.042M70.5956 61.7753L83.319 49.1253M89.6807 42.8003L102.404 30.1503" stroke="white" stroke-width="0.527013"/>
<path d="M85.4073 51.4901C85.4626 51.3801 85.5732 50.9401 85.7115 51.0776C85.8498 51.2151 85.9328 51.0776 85.9328 51.0776C85.9328 51.0776 86.002 51.1464 85.9605 51.2839C85.9328 51.4214 85.8913 51.5589 85.8083 51.5864C85.7254 51.6001 85.6562 51.6551 85.5456 51.6689C85.4626 51.6826 85.4073 51.4901 85.4073 51.4901ZM86.5413 51.3114C86.569 51.2839 86.6105 51.4214 86.6796 51.3939C86.7488 51.3801 86.7764 51.5176 86.7073 51.5176C86.6381 51.5176 86.6381 51.6001 86.6381 51.6414C86.6381 51.6826 86.6381 51.7651 86.5828 51.8201C86.5275 51.8751 86.486 51.8339 86.4169 51.8064C86.3477 51.7651 86.3201 51.7651 86.2232 51.7651C86.1403 51.7651 86.2094 51.9026 86.2094 51.9026C86.2094 51.9026 85.8498 51.8889 85.919 51.8339C85.9881 51.7789 86.0573 51.7651 86.002 51.7239C85.9466 51.6826 86.002 51.6551 86.002 51.5864C86.002 51.5176 86.1679 51.5451 86.1264 51.5039C86.0711 51.4489 86.1264 51.2564 86.2094 51.3664L86.2647 51.2426C86.2094 51.1876 86.2509 51.1739 86.1403 51.1326C86.0435 51.0914 86.1264 50.8851 86.1264 50.8851L86.1403 50.7476C86.1679 50.5689 86.5137 50.5551 86.5413 50.7064C86.5552 50.8576 86.5413 50.9676 86.5413 50.9676L86.6381 51.0089C86.6381 51.0089 86.6243 51.1189 86.5413 51.1189C86.4583 51.1189 86.5413 51.1739 86.486 51.2289L86.5413 51.3114ZM99.2786 42.9514C99.1818 43.0476 98.9743 43.0889 98.9743 43.0889L98.9052 43.3501L98.7945 43.4464C98.7945 43.4464 98.8222 43.5151 98.7945 43.6801C98.7669 43.8451 98.5594 43.9414 98.5594 43.9414L98.4626 44.0514C98.4626 44.0514 97.9094 44.0789 97.8403 44.0514C97.6328 43.9551 97.7711 43.6801 97.9094 43.7076C98.0477 43.7351 97.8818 43.3089 97.8818 43.3089L98.0615 43.2814C98.0615 43.2814 98.0892 42.8689 98.1583 42.8689C98.2275 42.8689 98.1307 42.7314 98.0477 42.6626C97.9509 42.5939 97.8403 42.3601 97.7435 42.3876C97.6466 42.4151 97.2871 42.3876 97.2871 42.3876L97.2179 42.5251L96.969 42.5664C96.969 42.5664 96.9966 42.7451 96.9413 42.8001C96.803 42.9651 96.2775 43.3089 96.4988 42.7314L96.5679 42.5939V42.3876L96.153 42.3601C96.153 42.3601 95.9456 42.2914 95.9456 42.1951C95.9456 42.0989 95.9179 41.9889 95.9179 41.9889L95.4339 41.4526L94.853 41.3839L94.8115 41.2739L94.4658 41.2326C94.0509 41.0264 93.6775 41.2051 93.7466 41.5626C93.8158 41.9064 93.9264 42.0439 93.7052 42.0439C93.4701 42.0439 93.4286 41.8651 93.4286 41.8651C93.4286 41.8651 93.2488 41.7964 93.2488 41.8926C93.2488 41.9889 93.1796 42.1676 93.2488 42.2639C93.3179 42.3601 93.152 42.4976 93.0828 42.4289C93.0137 42.3601 92.8339 42.1539 92.8754 42.0851C92.9169 42.0164 92.5573 41.5764 92.9169 41.5076C93.2903 41.4389 92.8892 41.2326 93.0275 41.1776L93.2073 41.0814H93.3871L93.4977 40.9851L93.1935 40.9439L93.0137 40.9164L92.6679 40.8889C92.3222 41.1226 92.253 41.3976 92.253 41.3976C92.0732 41.7414 91.6307 41.2601 91.7966 41.0676C91.9626 40.8751 91.2849 41.0401 91.1743 41.1364C91.0637 41.2326 90.7179 41.1776 90.7179 41.1776C90.6488 41.3839 90.3307 41.1501 90.4137 41.0126C90.5105 40.8751 90.5105 40.7789 90.5105 40.7789L90.3998 40.7514L90.2615 41.0126C89.9435 41.0126 89.8466 41.1914 89.9158 41.3151C89.9849 41.4251 89.819 41.2876 89.7775 41.4526C89.736 41.6176 89.8052 41.6176 89.9435 41.6864C90.0818 41.7551 89.8743 41.7551 89.9711 41.8651C90.0679 41.9751 90.3445 41.8651 90.1786 42.0301C90.0126 42.1951 89.6945 42.1264 89.6945 42.1264C89.6669 42.3326 89.2381 42.2914 89.1828 42.2226C89.1413 42.1539 88.7956 41.7414 88.7956 41.7414L88.353 41.7139C88.3115 41.3839 88.5605 41.5489 88.6573 41.3014C88.7541 41.0401 88.7956 40.6276 88.7956 40.6276C88.7956 40.6276 88.4222 40.6001 88.4083 40.7239C88.3807 40.8339 88.1594 40.9164 88.1594 40.9164C88.1594 40.9164 87.9796 40.9851 88.0488 41.0814C88.1179 41.1776 87.9105 41.2189 87.9105 41.2189C87.9105 41.2189 87.952 41.3701 87.8828 41.4251C87.703 41.6176 87.2328 41.4526 87.1637 41.3839L86.8871 41.2739L86.6105 41.0951L86.2924 41.2326L86.1956 41.3289H85.8498L85.8222 41.6039L86.4445 41.6726L86.486 42.2501L86.2371 42.1676H86.0711L86.002 42.0301L85.8637 42.0026V42.5114L86.002 42.6214L86.1126 42.7314L86.3477 42.7589L86.3892 43.0339L86.9701 43.0614L87.0392 43.1714L87.3849 43.1989L88.0488 43.8726L88.0073 44.0789L87.8966 44.1476C87.9381 44.3126 87.5924 44.2164 87.5924 44.2164V44.3539L87.7583 44.3814L87.9243 44.4776L88.1594 44.0789C88.4083 43.9139 88.5328 44.1476 88.5466 44.2851C88.5743 44.4226 88.436 44.3951 88.436 44.3951V44.7251L88.5743 44.7664C88.8094 45.0414 88.4775 45.2064 88.4775 45.2064L88.4083 45.4401C88.3392 45.6464 88.0903 45.6051 88.0903 45.6051L87.9935 45.7426L87.7169 45.8114L88.2562 45.8801C88.3115 45.6876 88.4498 45.6464 88.519 45.7426C88.5881 45.8389 88.5881 46.0039 88.5881 46.0039L88.7264 46.0314L88.6988 46.2926L88.8371 46.3339V47.0764L89.003 47.2551C89.2796 47.1451 89.2796 47.3239 89.1413 47.4201C89.003 47.5164 89.0998 47.9289 89.0998 47.9289L88.9892 48.0389V48.2314L88.8509 48.3276V48.5889C88.6158 48.4789 88.3392 48.5201 88.2701 48.5889C88.0626 48.4514 87.6201 48.4926 87.6201 48.6164C87.7583 48.7951 87.4541 48.8501 87.4541 48.8501L87.2881 49.0289C87.3988 49.2626 87.1775 49.2901 87.1775 49.2901V49.7301L86.9009 49.9914L86.9286 50.5964C86.9286 50.7614 87.2743 50.7751 87.3435 50.6926C87.4126 50.5964 87.6892 50.8851 87.6892 50.8851H87.8966L87.9381 50.4726L87.7998 50.4039V49.7301L88.0349 49.4689C88.3115 49.3726 88.2147 50.0739 88.2147 50.1426C88.2424 50.4039 88.353 50.3764 88.4637 50.3214C88.6988 50.2251 88.5052 50.5826 88.3254 50.5551C88.1456 50.5276 88.2562 50.7889 88.2562 50.7889L88.3669 50.8301L88.1594 50.9951L87.9796 51.2014L87.7445 51.1326L87.4679 51.1051L87.3711 50.9401L87.2052 50.9126L87.1775 51.2426L87.0669 51.3801L86.7903 51.6551C87.1637 51.6551 86.7488 51.9164 86.652 51.9164C86.8594 51.9851 86.6243 52.1914 86.0988 52.0264V52.1914L85.919 52.2189L86.0849 52.3976L86.2647 52.4251L86.1956 52.8239C86.1956 53.1264 85.4349 52.9201 85.3658 52.8514L85.3381 53.2639L85.1998 53.2914L85.2275 53.5664L85.1998 53.9651L85.4488 53.9239V54.0889L86.0711 54.1164L86.9701 53.1676L87.4956 53.0576C87.5371 52.8239 87.7722 53.0989 87.7722 53.0989C88.0073 53.0714 88.0488 53.2364 88.0488 53.2364L88.353 53.2776C88.602 53.3464 88.4498 53.3739 88.4637 53.4701C88.4913 53.6076 88.602 53.5664 88.602 53.5664L88.6435 53.2639L88.7818 53.2914L88.6435 53.1264L88.3945 53.0164L88.1179 52.9064C87.9381 52.6451 88.1594 52.7001 88.353 52.7276H88.6573C88.6573 52.7276 89.003 53.1951 89.003 53.3051C89.003 53.4151 89.169 53.4426 89.169 53.4426L89.3764 53.4151L89.4456 53.5801H89.653L89.7222 53.7176H90.1371L90.1647 53.5114L89.7775 53.4426L89.7498 53.2089L89.4732 53.1401C89.3764 52.7414 89.5424 52.6314 89.653 52.8101L89.7913 52.8376L89.7498 52.4939L89.9158 52.4526L89.8743 51.9714L89.736 51.9301V51.7651L90.3169 51.7926C90.2754 51.4901 90.3445 51.3526 90.3445 51.3526H90.5105L90.5381 51.4626L91.2435 51.5314L91.7413 50.9676C91.7137 50.9264 91.7966 50.8989 91.7413 50.8439C91.6722 50.7751 91.5754 50.8439 91.4647 50.7751C91.3541 50.7064 91.4647 50.3076 91.4371 50.2251C91.4094 50.1289 91.8243 49.9914 91.7552 50.1976C91.686 50.4039 91.7552 50.5001 91.7552 50.5001C92.0594 50.2251 92.3083 50.5276 92.2807 50.5964C92.253 50.6651 92.4466 50.7339 92.5573 50.6651C92.6679 50.5964 92.8062 50.8714 92.7647 51.0089C92.7232 51.1464 92.3083 51.1189 92.2807 50.9814C92.253 50.8439 92.1839 50.8851 92.1424 50.9539C92.1009 51.0226 91.8935 51.0639 91.769 50.9951C91.7413 50.9814 91.7413 50.9676 91.7275 50.9539L91.2296 51.5176H91.2573C91.5339 51.6826 91.3956 51.8889 91.2988 51.9301C91.202 51.9714 91.0498 51.9714 91.0498 51.9714L91.0083 52.0676L90.4137 52.1089L90.3722 52.3426C90.0679 52.3014 89.9573 52.6176 90.0264 52.7826C90.0956 52.9476 90.0264 53.0851 90.0264 53.0851L90.2754 53.1951L90.5935 53.0989C90.6349 52.8651 90.8424 52.8239 91.036 52.6864C91.2158 52.5489 91.5201 52.9476 91.4232 53.1264C91.3264 53.3051 91.3264 53.3876 91.3264 53.3876L91.3541 53.5939L91.119 53.6901L90.9392 53.7864L90.9115 53.8964H90.2892L90.1786 54.0064L89.8743 54.0339L89.7775 54.1714L89.5701 54.1989C89.5701 54.1989 89.2243 54.3639 89.3626 54.5426C89.5009 54.7351 88.7818 54.7076 88.6296 54.4464C88.5881 54.6801 88.3254 54.4739 88.3254 54.4739L88.0764 54.4051L88.0488 54.0614C88.0073 53.8276 87.5647 53.8276 87.5924 53.9926C87.6201 54.1576 86.7626 54.0614 86.7626 54.0614L86.486 54.1989L86.2371 54.3501L86.2094 54.4601L85.7945 54.5014L85.6147 54.5976L85.5456 54.4601H85.3658L85.186 54.7214C84.702 54.7489 84.2456 55.0239 84.2871 55.1339C84.3286 55.2439 84.1073 55.3676 84.1073 55.3676L83.8998 55.4364L83.7615 55.6426L83.4849 55.7389L83.4435 56.2201L83.3052 56.3164V56.5226L83.1392 56.5639V56.6739L82.9041 56.7014L83.0424 57.0451L83.2222 57.1414C83.5403 57.1826 83.402 57.5814 83.402 57.5814L83.5818 57.6089L83.6786 57.8701L83.8583 58.2414C83.9275 58.5164 84.1349 58.4476 84.2318 58.4339C84.3286 58.4064 84.4115 58.7089 84.4115 58.7089L85.3243 58.7364C85.3243 58.7364 85.2828 58.8326 85.4349 58.8739C85.6009 58.9151 86.652 58.9701 86.6935 58.9014C86.652 58.6951 87.2743 58.6401 87.5232 58.8326C87.7722 59.0114 88.1179 58.9014 88.1179 58.9014L88.4637 59.3139L88.6988 59.8226L89.086 59.9326L89.3626 60.0014L89.4594 60.4001L89.6669 60.4276L89.736 60.6889C89.9849 60.8676 89.6669 61.2664 89.6669 61.2664V61.7751L89.8466 61.8714L89.819 62.0639L90.1232 62.3664L90.469 62.3939L91.3403 63.3151L92.0318 63.5214L92.1424 63.8926L92.3222 63.8651L92.4605 63.7551L93.0137 63.7276L93.2903 63.4664L93.5945 63.4251L96.153 61.2664L95.9179 61.1289V60.6201C96.3328 60.3176 96.3605 59.7814 95.9594 59.7401C95.669 59.6989 95.7935 59.3964 96.0701 59.3414L96.236 59.2726V59.0664L96.7615 58.5851V58.2139L95.6137 57.2651C95.102 57.0864 95.6137 55.9726 95.9594 55.9864C96.3052 56.0139 95.9318 54.2676 95.9318 54.2676L95.752 54.1714L95.7935 53.6076H95.5445L95.1296 54.1439L95.019 54.5151C94.9775 54.9964 93.553 54.9139 93.4839 54.8451C93.4147 54.7764 92.9307 54.5701 92.9307 54.5701C92.9307 54.5701 92.5573 54.2676 92.4881 54.3639C92.419 54.4601 92.1009 54.2539 92.1009 54.3226C92.1009 54.3914 91.7966 54.1576 91.7966 54.1576L91.3403 53.9926L91.686 53.9239L91.6169 53.6489L92.2115 53.9514C92.2807 54.0476 92.5849 54.0201 92.5849 54.0201L92.6818 54.1301C92.6818 54.1301 92.8615 54.1026 92.986 54.2401C93.0966 54.3776 93.7052 54.2676 93.7052 54.2676L93.8711 54.4051L94.1201 54.5014L94.8392 54.5289L94.8669 54.0889L95.0052 53.9514L94.9775 53.6764L95.1435 53.5389V53.3051L95.2818 53.2639L95.3094 52.7551L95.4201 52.7276V51.6139L95.0743 51.2839C95.0466 51.3939 94.6871 51.3939 94.6871 51.3939C94.6871 51.3939 94.5903 51.5589 94.5211 51.5589C94.452 51.5589 94.6179 51.7651 94.5626 51.9026C94.5211 52.0401 94.3275 52.0401 94.3275 52.0401L93.9818 52.1364L93.8849 52.2464H93.5115L93.4701 51.9439L93.8849 51.8339L94.1201 51.7239L94.2307 51.4901C94.2583 51.2564 94.5349 51.2839 94.5349 51.2839C94.5349 51.2839 95.0605 50.8439 95.0881 50.6376C95.1158 50.4314 95.2956 49.8539 95.6137 49.8539H96.2083C96.4435 49.7576 96.3743 49.4551 96.3743 49.4551L96.6786 49.4139L96.7201 49.5789C96.7201 49.5789 97.1349 49.6201 97.1764 49.5514C97.2179 49.4826 97.3147 49.3176 97.4254 49.3864C97.536 49.4551 97.9094 49.2214 97.9094 49.2214C97.9371 49.0564 98.5041 49.1251 98.5041 49.1251L98.5732 48.9189C98.5732 48.9189 98.186 48.3826 98.1169 48.3826C98.0477 48.3826 97.6743 48.0526 97.6328 48.1764C97.2594 48.0801 97.2871 47.5714 97.2871 47.5714L97.1488 47.2414C97.1488 47.0489 96.803 46.6639 96.7339 46.7051C96.3881 46.4439 96.6371 46.1551 96.7339 46.1276C96.8307 46.1001 97.052 45.7839 97.052 45.7839L97.1626 45.4539L97.5498 45.3439L97.5913 45.0414L97.3839 45.0139C97.3839 45.0139 97.619 44.6014 97.7296 44.6014C97.8403 44.6014 98.6009 44.6014 98.6701 44.5601C98.7392 44.5189 98.8775 44.1476 98.8775 44.0789C98.8775 44.0101 99.0573 43.9826 99.1264 43.9689C99.1956 43.9414 99.3615 43.7626 99.403 43.6664C99.5275 43.4326 99.3754 42.8551 99.2786 42.9514ZM105.654 50.3626C105.64 50.3214 105.626 50.2801 105.585 50.2664C105.488 50.2251 105.308 50.2939 105.225 50.3489L105.308 50.4589C105.391 50.4039 105.516 50.3764 105.53 50.3901V50.3764L105.654 50.3626ZM106.249 53.1264L106.11 53.1126C106.097 53.2226 106.124 53.3601 106.235 53.3739L106.263 53.2364C106.263 53.2364 106.249 53.1814 106.249 53.1264ZM106.76 52.5764C106.802 52.7139 106.843 52.8514 106.843 52.8651L106.968 52.8101C106.968 52.8101 106.913 52.6726 106.885 52.5351L106.76 52.5764ZM107.065 52.4664V52.4389C107.065 52.3976 107.051 52.3426 107.023 52.2876L106.899 52.3564C106.913 52.3839 106.913 52.4251 106.926 52.4526C106.926 52.4939 106.94 52.5351 106.968 52.5626C106.996 52.5764 107.023 52.5901 107.065 52.5764L107.037 52.4389C107.037 52.4526 107.051 52.4526 107.065 52.4664ZM105.889 53.4564C105.986 53.4014 106.11 53.2776 106.097 53.5389C106.083 53.8001 105.972 53.7176 105.889 53.8001C105.806 53.8826 105.751 53.5389 105.889 53.4564ZM100.343 55.2439L100.357 55.0376L100.579 55.0651L100.565 55.2576L100.343 55.2439ZM100.357 55.6976C100.33 55.5739 100.191 55.5326 100.177 55.5326L100.136 55.6701C100.15 55.6701 100.164 55.6839 100.177 55.6976L100.205 55.8214C100.191 55.8351 100.177 55.8489 100.177 55.8626L100.274 55.9589C100.343 55.8489 100.371 55.7801 100.357 55.6976ZM83.1669 59.9876L83.0286 60.1114L82.9594 60.1664L83.0286 60.2214L83.1945 60.3314L83.2775 60.2214L83.1807 60.1526L83.2498 60.0976L83.1669 59.9876ZM84.7988 61.6514L84.7435 61.7751L84.8818 61.8439L84.8403 61.8989L84.9371 61.9951L85.1169 61.8164L85.0339 61.7614L84.7988 61.6514ZM78.4509 31.8139L78.5892 31.9514L78.4924 32.0476L78.3541 31.9101L78.4509 31.8139ZM82.6275 36.1451L82.7658 36.2551L82.6828 36.3651L82.5445 36.2551L82.6275 36.1451ZM82.102 36.2414L82.1296 36.5026H82.4754C82.6137 36.5026 82.3647 36.3376 82.3647 36.3376C82.3647 36.3376 82.0881 36.3651 82.102 36.2414ZM89.6807 29.7789L89.4456 29.7514L89.4318 29.8889L89.6254 29.9026L89.7775 30.1364L89.8881 30.0539L89.736 29.8064L89.7083 29.7789H89.6807ZM90.303 24.9114L90.2339 25.0351L90.4137 25.1451L90.4552 25.1726L90.4828 25.1451L90.7456 24.9801L90.6626 24.8701L90.4552 25.0076L90.303 24.9114ZM91.5339 25.5714L91.4232 25.4476L91.3264 25.5576L91.5339 25.7639L91.5754 25.7226L91.8105 25.5301L91.7137 25.4201L91.5339 25.5714ZM83.8998 30.3976C83.886 30.3151 84.3562 30.3014 84.4254 30.3701C84.4945 30.4389 84.453 30.5626 84.6605 30.5626C84.8679 30.5626 84.7711 30.7001 84.7573 30.7689C84.7296 30.8376 84.5083 30.8101 84.4807 30.7414C84.453 30.6726 84.1073 30.6451 84.1073 30.6451C84.1073 30.6451 83.9275 30.5076 83.8998 30.3976ZM86.5413 30.1364C86.9009 30.2464 87.0254 30.1639 87.053 30.0676C87.0807 29.9714 87.0945 29.9576 87.2328 29.9301C87.3711 29.9026 87.2052 29.6276 87.0669 29.6551C86.9286 29.6826 86.7903 29.6139 86.7626 29.4901C86.7349 29.3801 86.5137 29.0776 86.486 29.3114C86.4583 29.5451 86.3201 29.5451 86.3477 29.7101C86.3892 29.8614 86.4583 30.1089 86.5413 30.1364ZM88.8232 26.2176C88.7679 26.0114 88.4775 26.4789 88.7818 26.5614C89.086 26.6576 89.3764 26.5614 89.3764 26.5614L89.4456 26.4239L90.5935 26.4514C90.6903 26.3551 90.7318 26.2176 90.7318 26.2176C90.7318 26.2176 91.0083 26.1214 91.119 26.1764C91.2296 26.2176 91.1466 25.8464 91.0222 25.9014C90.9115 25.9426 90.6764 25.9289 90.6764 25.9289H90.2615C90.2339 25.7639 89.8743 25.8326 89.8466 25.9289C89.8328 26.0114 89.6945 26.0389 89.6945 26.0389L89.169 26.0801C89.1137 26.2176 88.8509 26.3139 88.8232 26.2176ZM88.8647 27.3589L88.5605 27.0564V26.7951L88.4637 26.6989L88.3669 26.3689L88.0626 26.2726L87.7583 26.3826L87.4403 26.5889L87.0945 26.6301L86.9147 26.8364L87.6477 26.9051L87.786 27.1389L88.3115 27.1801L88.6573 27.5239C88.9754 27.6614 89.0445 27.5239 88.8647 27.3589ZM89.9296 29.5864L90.0264 29.3664L90.1509 29.4351L90.0541 29.6414L89.9296 29.5864ZM96.803 29.3526C96.7615 29.1739 97.2594 29.0089 97.3839 29.1464C97.4945 29.2839 97.8264 29.3114 97.8679 29.9989C97.8818 30.2464 97.453 29.7376 97.453 29.7376L97.1073 29.6276C96.9137 29.5864 96.8169 29.4764 96.803 29.3526ZM94.3828 29.9576C94.3137 30.1639 94.286 30.4389 94.1754 30.4389C94.0647 30.4389 94.1062 30.7414 94.1062 30.7414C94.1062 30.7414 94.4105 30.7414 94.4935 30.7689C94.5903 30.7964 94.5903 31.0301 94.5903 31.0301C94.936 31.0026 95.0743 31.4701 95.0328 31.5939C94.9913 31.7039 95.1711 31.7039 95.1711 31.7039C95.1711 31.7039 95.1711 32.0751 95.1296 32.1714C95.0881 32.2676 95.4339 32.3364 95.5169 32.4739C95.6137 32.6114 95.4754 33.0789 95.4062 33.1064C95.3371 33.1339 95.586 33.2026 95.5722 33.3126C95.5445 33.4226 95.6413 33.3126 95.669 33.5051C95.6966 33.6839 95.7381 34.0826 95.7381 34.0826L96.0562 34.1101C96.0977 33.8076 96.6924 33.7939 96.7892 33.8351C97.1764 33.9726 97.4807 34.5776 97.4807 34.7151C97.4807 34.8526 97.2318 34.8801 97.2318 34.8801L97.2732 35.5539C97.6605 35.6639 97.9924 36.2276 97.9371 36.3239C97.8956 36.4201 98.2137 36.3926 98.2137 36.3926C98.2552 35.9801 98.6562 36.1176 98.6701 36.2551C98.6977 36.3926 98.7669 36.6951 98.7669 36.6951L98.8775 36.9014L99.0435 37.0664L99.2924 37.0389L99.3615 37.1764L99.6658 37.2176C99.6658 37.2176 99.9147 37.4926 99.9424 37.5614C99.9701 37.6301 100.316 37.6026 100.399 37.6301C100.496 37.6576 100.634 37.7264 100.648 37.8364C100.675 37.9464 100.814 38.1389 100.814 38.1389C100.814 38.1389 101.09 38.2076 101.118 38.3039C101.146 38.4001 101.256 38.6064 101.256 38.6064L101.491 38.7989L101.519 39.0051L101.768 39.0326L101.837 39.3076L102.252 39.2801L102.487 39.1151C102.791 38.9501 102.999 38.7439 103.013 38.6476C103.04 38.5514 103.082 38.2076 103.317 38.2764C103.552 38.3451 103.386 37.7676 103.386 37.7676C103.386 37.7676 103.068 37.5339 103.082 37.4239C103.109 37.3139 102.764 37.0801 102.777 36.9839C102.805 36.8876 102.473 36.7089 102.501 36.6126C102.529 36.5164 102.335 36.2689 102.335 36.2689L101.989 35.9389L101.948 35.7326L101.671 35.7051L101.118 35.0314L101.146 34.8389L100.98 34.8114V34.5501L100.814 34.4539L100.565 34.4264L100.053 33.8764L100.012 33.6151H99.7626L99.8041 33.1339C99.9701 32.9276 99.8732 32.5289 99.8732 32.5289C99.8732 32.5289 99.5552 32.6939 99.3892 32.6251C99.2232 32.5564 99.4583 32.3914 99.4583 32.3914V32.2126L99.3201 32.0751C99.3201 32.0751 98.9328 32.1164 98.9052 32.0476C98.8775 31.9789 98.8083 31.6764 98.8083 31.6764L98.7807 31.2776L98.6147 31.2089L98.5871 31.0714L98.3381 31.0989V30.8239L98.1998 30.7826L98.0615 30.7139L98.0339 30.4389L97.5222 30.4114L97.3562 30.1776L97.1764 29.9026L96.5956 29.8614L96.4573 29.7239L96.2222 29.6826L96.0562 29.6139L95.9871 29.7239L95.5445 29.7514L95.5169 29.8889C95.3232 29.9851 94.4105 29.8889 94.3828 29.9576ZM90.1509 29.8201C90.1924 29.8889 90.469 29.9576 90.469 29.9576C90.6488 29.9576 90.7732 30.0951 90.7732 30.1639C90.7732 30.2326 91.0222 30.2051 91.0222 30.2051L91.0498 30.0401L90.8701 29.8064L90.7041 29.6964C90.7041 29.6964 90.4552 29.6689 90.4552 29.6001C90.4552 29.5451 90.1924 29.7514 90.1509 29.8201ZM90.1509 30.6039L89.9711 30.5626V30.7689L90.2201 30.7964L90.1509 30.6039ZM92.7094 33.1614V32.9826C92.7094 32.9826 92.6818 32.8039 92.5711 32.8039C92.4605 32.8039 92.253 32.6664 92.2945 32.5701C92.336 32.4739 91.9073 32.3776 91.9073 32.3776C91.9073 32.3776 91.5201 32.0064 91.6583 32.0476C91.7966 32.0889 91.7275 31.8826 91.7275 31.8826C91.7275 31.8826 91.4509 31.9239 91.3818 31.9101C91.3126 31.8826 91.3403 31.6764 91.3403 31.6764C91.3403 31.6764 91.0637 31.6076 91.0637 31.6764C91.0637 31.7451 91.1605 31.7451 91.202 31.8826C91.2435 32.0201 91.2296 32.2539 91.4371 32.2951C91.6445 32.3364 91.686 32.3914 91.7137 32.4876C91.7413 32.5839 91.9903 32.5976 91.9903 32.5976L92.1701 32.6939L92.7094 33.1614ZM92.8892 33.7801C92.8615 33.6839 92.8201 33.3676 92.9583 33.3814C93.0966 33.4089 92.9998 33.3814 93.1658 33.4501C93.3318 33.5189 93.3456 33.3401 93.3456 33.3401H93.5945L93.9126 33.6014L93.8711 33.8076L93.636 33.8351C93.5254 33.6564 93.2903 33.7251 93.3318 33.8764C93.3732 34.0414 93.2211 34.3439 93.1243 34.3576C93.0275 34.3851 92.7371 34.3851 92.7509 34.2476C92.7924 34.1101 92.8892 33.7801 92.8892 33.7801ZM96.6786 36.9426L96.8445 36.4339C96.6094 36.3926 96.6647 36.1314 96.6647 36.1314C96.6371 35.9251 96.319 35.6914 96.2083 35.7601C96.0977 35.8289 96.1392 35.2789 96.1392 35.2789C96.1392 35.2789 96.3466 35.1414 96.4435 35.2101C96.5403 35.2789 95.6552 34.0551 95.4754 34.1651C95.2956 34.2751 94.8807 34.0551 94.8945 33.8351C94.9222 33.6289 94.0647 32.9276 94.0647 32.9276C94.0647 32.9276 93.7881 32.7489 93.7466 32.8864C93.7052 33.0239 93.6083 33.1201 93.7466 33.1889C93.8849 33.2576 93.8573 33.0789 94.0232 33.2301C94.1892 33.3951 94.4796 33.6014 94.369 33.7389C94.2583 33.8764 94.1201 33.9314 94.1201 33.9314L94.286 34.1239H94.5349L94.5764 34.5226C94.5764 34.5226 94.853 34.6601 94.9222 34.8251C94.9913 34.9901 94.9913 35.0864 94.9222 35.1689C94.853 35.2651 94.7147 35.4301 94.7424 35.5814C94.7701 35.7464 94.9498 35.8151 94.9498 35.8151L95.1296 35.8426L95.2679 35.9114V36.2139C95.4477 36.1726 95.752 36.4201 95.7243 36.5851C95.6966 36.7501 95.7658 36.6539 96.0009 36.8189C96.236 36.9839 96.1669 37.0114 96.319 37.1214C96.4711 37.2176 96.6094 37.1489 96.6786 36.9426ZM91.3956 39.9126C91.3956 39.9814 91.3541 40.0776 91.4924 40.1051C91.6307 40.1326 91.8796 40.0089 91.9073 40.1464C91.9349 40.2839 91.9349 40.3801 92.1147 40.4489C92.2945 40.5176 92.419 40.5451 92.5573 40.5451C92.6956 40.5451 92.9998 40.5039 92.9998 40.5039C92.9998 40.5039 93.3318 40.5589 93.3871 40.6139C93.636 40.8751 93.802 40.9439 93.8711 40.8201C93.9403 40.7101 93.8435 40.4489 93.8296 40.3526C93.802 40.2564 93.4839 39.8164 93.3732 39.9126C93.2626 40.0089 93.2349 39.9126 93.0275 39.9814C92.8201 40.0501 92.3775 40.0089 92.3637 39.9126C92.336 39.8164 92.0179 39.7751 92.0179 39.6789C92.0179 39.5826 91.7828 39.4726 91.8105 39.6101C91.8381 39.7476 91.6445 39.8164 91.603 39.7751C91.5339 39.7201 91.3956 39.9126 91.3956 39.9126ZM90.2477 40.1601L90.2201 40.3251L90.469 40.3526C90.469 40.3526 90.5796 40.4489 90.5796 40.5176C90.5796 40.5864 90.7456 40.6551 90.8286 40.6551C90.9254 40.6551 91.1743 40.4626 91.1743 40.4626C91.1743 40.4626 91.2849 40.1326 91.202 40.1601C91.1052 40.1876 90.9254 40.3251 90.8977 40.1876C90.8701 40.0501 90.5935 40.1189 90.5935 40.1189L90.2477 40.1601ZM89.0583 40.4214L89.1275 40.4076L89.169 40.5314L89.0998 40.5589L89.0583 40.4214ZM89.1413 40.2014L89.2796 40.1739L89.3211 40.3801L89.1966 40.4076L89.1413 40.2014ZM89.5286 40.2289L89.5424 40.3664L90.0403 40.3526V40.2151L89.5286 40.2289ZM94.0094 40.1189L94.2445 40.0914L94.2583 40.2289L94.0232 40.2564L94.0094 40.1189ZM94.6179 40.6276L94.6871 40.4626L94.8115 40.5176L94.7424 40.6826L94.6179 40.6276ZM96.6232 38.3039L96.8583 38.2901L96.8722 38.4276L96.6371 38.4414L96.6232 38.3039ZM97.0105 38.4414H97.1488V38.5514H97.0105V38.4414ZM97.4254 36.4889L97.2871 36.5026L97.2594 36.2964L97.3977 36.2826L97.4254 36.4889ZM97.2871 39.3764H97.4254V39.5414H97.2871V39.3764ZM97.5913 39.4589L97.7158 39.5139L97.6466 39.6651L97.5222 39.5964L97.5913 39.4589ZM96.9137 37.6301C97.052 37.6301 96.8722 38.1664 97.2318 38.1114C97.6052 38.0701 97.2594 38.2764 97.536 38.2901C97.8126 38.3176 97.7435 38.0839 97.8403 37.9189C97.9371 37.7539 97.8818 37.6576 97.7296 37.6164C97.5637 37.5751 97.5637 37.5751 97.5222 37.3826C97.4807 37.2039 97.2871 37.1489 97.2871 37.1489L97.2179 36.8739L96.9137 37.0526L96.6094 37.4514C96.6094 37.7814 96.7754 37.6301 96.9137 37.6301ZM97.8126 38.8951C97.9924 38.7989 98.3935 38.7989 98.3658 38.6614C98.3381 38.5239 98.6009 38.4826 98.6009 38.4826L98.6701 38.7576L98.8775 38.8951L98.9052 39.1564C98.9052 39.1564 98.9743 39.1151 98.7254 39.1839C98.4764 39.2526 98.6286 39.3626 98.6286 39.3626L98.0754 39.3901L98.0062 39.1564L97.8126 38.8951ZM94.8392 40.8339C94.9498 40.8064 95.2264 40.7926 95.2818 40.8614C95.3232 40.9301 95.1158 41.0264 95.1158 41.0264L94.8392 41.0676C94.7562 40.9576 94.7286 40.8614 94.8392 40.8339ZM96.319 40.6276C96.4435 40.7514 95.6275 40.7239 95.6275 40.6276C95.6275 40.5314 95.6966 40.2151 95.9041 40.2839C96.1115 40.3526 96.1392 39.8714 96.1392 39.8714C96.1392 39.8714 95.9594 39.8989 96.1115 39.8026C96.2775 39.7064 96.1115 39.5689 96.0424 39.5001C95.9732 39.4314 95.9041 39.3076 95.9041 39.3076H96.2222C96.3605 39.2114 96.402 38.7714 96.402 38.7714C96.6786 38.8676 96.8169 38.6751 96.8169 38.6751C96.8169 38.6751 96.8583 38.8126 96.9552 38.9364C97.052 39.0464 96.7201 39.1014 96.8445 39.1701C96.9552 39.2389 97.0105 39.4451 96.9552 39.5139C96.9137 39.5826 96.6509 39.5414 96.6509 39.4451C96.6509 39.3489 96.5541 39.5551 96.6509 39.6789C96.7477 39.7889 96.5403 39.9539 96.4849 39.9539C96.4435 39.9539 96.1392 39.9951 96.3881 40.1464C96.6371 40.2839 96.9137 40.2151 96.9137 40.2151C96.9137 40.2151 97.1211 40.1876 97.1903 40.3114C97.2594 40.4214 97.1626 40.4489 97.052 40.4489C96.9413 40.4489 96.3881 40.4076 96.3881 40.4076C96.3881 40.4076 96.2498 40.5589 96.319 40.6276ZM99.002 38.0014C98.9328 37.9051 98.8637 37.8364 98.7669 37.7951C98.6701 37.7539 98.6009 37.6989 98.5179 37.6989C98.4211 37.6989 98.3381 37.6026 98.3796 37.4926C98.4211 37.3826 98.3105 37.3276 98.3105 37.2314C98.3105 37.1351 98.3796 37.1351 98.4903 37.2039C98.6009 37.2726 98.5871 37.3001 98.6701 37.4101C98.7669 37.5201 98.8083 37.6439 98.9052 37.6164C99.002 37.5889 99.0711 37.8226 99.1541 37.7539C99.2509 37.6851 99.2232 37.9189 99.2232 37.9189L99.002 38.0014ZM98.7807 38.2214C98.8498 38.3176 98.9881 38.3864 98.9881 38.4826C98.9881 38.5789 98.9466 38.6476 99.0849 38.6614C99.2232 38.6889 99.3201 38.6339 99.3615 38.7576C99.403 38.8676 99.403 39.0601 99.3892 39.1564C99.3615 39.2526 99.4169 39.3901 99.5275 39.3901C99.6381 39.3901 99.6658 39.4176 99.6658 39.4864C99.6658 39.5551 99.8041 39.2251 99.8041 39.2251C99.6935 39.1289 99.5966 38.9226 99.5966 38.9226C99.5966 38.9226 99.486 38.5926 99.486 38.5514C99.486 38.5101 99.3201 38.4551 99.2509 38.4414C99.1818 38.4139 99.0711 38.2076 99.0711 38.2076L98.7807 38.2214ZM100.274 41.9751L100.177 41.7689C100.177 41.7689 100.177 41.5901 100.219 41.4939C100.26 41.3976 100.122 41.3151 100.053 41.2876C99.9839 41.2601 100.012 41.0814 99.9839 40.9851C99.9562 40.8889 99.8041 40.8201 99.8041 40.8201C99.8041 40.8201 99.7626 40.4764 99.7626 40.4076C99.7626 40.3389 99.5552 40.2426 99.6243 40.1739C99.6935 40.1051 99.7349 40.0089 99.8041 39.9676C99.8732 39.9264 99.7349 39.5964 99.8456 39.6651C99.9562 39.7339 99.9562 39.8576 100.012 39.9401C100.053 40.0364 99.9839 40.3526 100.108 40.4214C100.219 40.4901 100.081 40.7239 100.274 40.7239C100.454 40.7239 100.343 41.1639 100.343 41.1639C100.343 41.1639 100.302 41.4939 100.413 41.5076C100.523 41.5351 100.454 42.0851 100.454 42.0851L100.274 41.9751ZM100.343 43.7489L100.413 43.6114L100.537 43.6801L100.468 43.8176L100.343 43.7489ZM100.496 42.9926L100.634 43.0064L100.62 43.1989L100.482 43.1714L100.496 42.9926ZM100.205 42.2226L100.025 42.1951L99.6105 42.2639L99.3754 42.7039C99.3754 42.7039 99.486 42.7726 99.5828 42.9376C99.6796 43.1026 99.7211 44.0514 99.4445 44.2164C99.1679 44.3814 99.4722 44.2851 99.4722 44.2851L99.4307 44.7939C99.4998 45.0276 99.6105 44.9039 99.6796 44.7939C99.7488 44.6839 99.8179 44.6564 99.9147 44.5326C100.012 44.4226 100.15 44.2026 100.164 44.0514C100.191 43.8864 100.302 43.6389 100.233 43.5701C100.164 43.5014 100.302 43.1714 100.302 43.1714C100.302 43.1714 100.399 42.9789 100.302 42.8001C100.205 42.6076 100.33 42.4014 100.399 42.3189L100.205 42.2226ZM99.1956 39.8576H98.8498C98.8498 39.8576 98.9605 39.8989 98.6424 39.5964C98.3243 39.2939 98.1169 39.6651 98.1169 39.6651L97.7435 39.7064V40.0776L97.5637 40.1464L97.5913 40.3801L97.8403 40.3526C97.8403 40.3526 97.8403 40.6276 97.9094 40.5176C97.9786 40.4076 98.5594 40.5451 98.5041 40.8201C98.4903 40.9301 99.0849 41.2326 99.0158 41.6039C99.3201 41.6451 99.2509 41.9476 99.2509 41.9476L99.6381 41.9889L99.7488 41.7551L99.8594 41.7826V41.6451L99.6105 41.5764L99.569 40.8339L99.403 40.7239L99.4445 40.5314L99.2647 40.4626L99.3615 40.1601L99.1956 39.8576ZM98.3381 45.5501L98.4764 45.4951L98.4211 45.3851L98.3935 45.3026L98.3243 45.3439L98.1583 45.4401L98.0062 45.3439L97.9371 45.4676L98.1169 45.5776L98.1583 45.6051L98.186 45.5776L98.3243 45.5089L98.3381 45.5501ZM98.9466 45.2476L99.1956 45.2889L99.2232 45.1514L98.9743 45.1101L98.9466 45.2476ZM98.4764 48.2176C98.3796 48.0801 98.9328 47.8464 99.0296 48.1214C99.1264 48.3964 99.0296 48.3551 98.9328 48.3276C98.8498 48.3001 98.6147 48.3964 98.4764 48.2176ZM96.0977 52.6864H96.2637V53.1264H96.0977V52.6864ZM97.1626 56.9351C97.1211 57.1139 96.9552 57.2101 96.8583 57.1414C96.7615 57.0726 96.969 57.2514 97.0243 57.3476C97.0658 57.4439 97.2041 57.4439 97.2594 57.3476C97.3009 57.2514 97.2871 57.0451 97.3286 56.9489C97.3701 56.8664 97.1903 56.8389 97.1626 56.9351ZM97.6743 57.8701L97.8818 57.9664L97.9094 58.3651C98.186 58.6401 99.0849 58.4064 99.0849 58.3376C99.0849 58.2689 99.0435 57.4851 99.0435 57.4851L98.9328 57.3751L98.9052 56.7976C99.002 56.4951 98.4626 56.0551 98.4211 56.1514C98.3796 56.2476 98.0754 56.1789 98.0754 56.2614C98.0754 56.3576 97.8956 56.8114 97.9786 56.9764C98.0754 57.1414 97.9094 57.1414 97.8818 57.3064C97.8541 57.4439 97.619 57.7189 97.6743 57.8701ZM91.202 52.9064L91.1328 52.7964L90.9392 52.9064L91.0222 53.0301L91.202 52.9064ZM87.6892 53.3601C87.5786 53.4701 87.6062 53.5664 87.6892 53.6489ZM88.4083 53.9239L88.5605 53.6626L88.436 53.6214L88.2701 53.7314L88.3392 53.8001L88.4083 53.9239ZM88.2701 46.6776C88.3669 46.8839 88.3392 47.1864 88.6849 47.4201C88.7956 47.5026 88.6158 47.6539 88.5052 47.5851C88.3945 47.5164 88.0626 47.0076 88.0626 47.0076V46.7051C88.1318 46.5264 88.2286 46.5951 88.2701 46.6776ZM87.053 47.8876C87.1083 48.0939 87.0945 47.5576 87.1913 47.5851C87.2881 47.6126 87.219 47.2551 87.219 47.2551L86.8041 47.5576C86.9977 47.5851 87.0254 47.7914 87.053 47.8876ZM85.8083 49.3726C85.7807 49.6476 85.4349 49.7439 85.4349 49.7439L85.186 49.6751L85.0477 49.5651L85.0201 49.2351L85.2275 49.2076L85.269 49.3451L85.8083 49.3726ZM85.4349 46.5676V46.2376L85.3935 45.9351L85.0477 45.7701L84.7988 46.0039L84.7573 46.3339V46.5401L84.5222 46.5814L84.4807 47.2139L84.3009 47.2826L84.3286 47.5164L83.8307 47.6539L83.7892 47.9564L83.6094 48.0664L83.5126 48.3414L83.402 49.0151C83.402 49.0151 83.6094 49.4139 83.7201 49.2214C83.8307 49.0426 84.0243 49.0151 84.0243 49.0151L84.0935 48.8501L84.7158 48.8776C84.7573 48.6164 85.0615 48.7126 85.0615 48.8364C85.0615 48.9464 85.2966 48.8639 85.2966 48.8639L85.4626 48.6026H85.7115L85.7392 48.3276L85.8498 48.2589V47.8464C86.2232 47.7364 86.1679 47.3789 86.1679 47.3789L86.2647 47.2689L86.2232 47.1039C86.0435 47.0351 86.1264 46.8701 86.2509 46.9114C86.3615 46.9526 86.0849 46.7051 86.0849 46.7051C85.9466 46.8151 85.836 46.5676 85.836 46.5676H85.4349ZM84.3839 45.6189L84.2041 45.6601L83.7892 46.0589L83.7615 46.2376L83.6509 46.4026L83.5126 46.7464L83.0286 46.7739L82.9318 47.1864L83.0009 47.5439L83.4158 47.7089L83.4573 47.4751L83.5956 47.4064L83.6232 47.1726L83.7201 47.0076L83.8583 46.8426L83.8998 46.6639L84.1349 46.5264L84.4115 46.4714L84.5222 46.3339L84.5637 46.0589L84.5913 45.8526L84.6881 45.7014L84.9647 45.5914V45.1514H84.8264L84.7988 44.9864L84.5498 44.9589L84.4945 45.0826H84.3839L84.3562 45.2614H84.4945L84.5222 45.4126L84.4254 45.4951L84.3839 45.6189ZM77.0818 48.4101C77.0818 48.4651 77.0403 48.5064 76.9849 48.5064C76.9296 48.5064 76.8881 48.4651 76.8881 48.4101C76.8881 48.3551 76.9296 48.3139 76.9849 48.3139C77.0403 48.3139 77.0818 48.3551 77.0818 48.4101ZM77.0679 51.0639C77.0679 51.1189 77.0264 51.1601 76.9711 51.1601C76.9158 51.1601 76.8743 51.1189 76.8743 51.0639C76.8743 51.0089 76.9158 50.9676 76.9711 50.9676C77.0264 50.9676 77.0679 51.0089 77.0679 51.0639ZM76.819 50.6789C76.8743 50.6789 76.9158 50.6376 76.9158 50.5826C76.9158 50.5276 76.8743 50.4864 76.819 50.4864C76.7637 50.4864 76.7222 50.5276 76.7222 50.5826C76.7222 50.6376 76.7637 50.6789 76.819 50.6789ZM76.5424 51.2289L76.3488 51.2564V51.4214L76.5424 51.3939V51.2289ZM76.7498 50.0464L76.5839 50.0739L76.5701 50.2526L76.7498 50.2801V50.0464ZM76.7084 48.7951L76.7222 48.6301L76.3764 48.8639L76.1552 48.7264V49.2764L76.5147 49.7714L76.653 49.4414L76.7084 49.2351L76.5424 49.1664L76.5701 48.8226L76.7084 48.7951ZM76.5701 46.8426L76.1552 46.8014L76.1828 46.9664H76.2935C76.4732 47.2964 76.3211 48.0801 76.3211 48.0801C76.3211 48.0801 76.0445 48.1076 76.003 47.9701C75.9615 47.8326 75.8371 48.2726 75.9339 48.3414C76.0307 48.4101 76.3488 48.3414 76.3764 48.6026C76.4041 48.8639 76.5839 48.4376 76.5839 48.4376L76.5701 46.8426ZM85.836 42.2501H85.5871L85.5456 41.7414L85.6839 41.6451V41.3839H84.8818L84.8541 41.1226L84.9647 41.0539L84.7849 40.9851L84.6466 41.1639L84.6052 41.3701L84.3701 41.4114V41.5214H84.2041V41.8239L83.5541 42.3601L82.2679 42.3189C82.1711 42.5251 81.9498 42.2914 81.9498 42.2914C81.9084 42.1539 81.5764 42.2914 81.5764 42.2914C81.5764 42.5526 81.1339 42.1814 81.1339 42.1814L80.3318 41.6039C79.8754 41.1914 79.1839 41.7139 79.1562 41.8376C79.1839 42.1676 78.6307 41.9064 78.6307 41.9064C78.6307 41.9064 78.1743 41.7689 78.1052 41.9476C78.036 42.1264 77.7318 42.0851 77.7318 42.0851L77.6903 42.1814L77.4552 42.2226L77.4137 42.3601L77.1371 42.4014L77.8286 42.3739C78.0084 42.3464 77.7594 42.7726 77.6488 42.7451L77.3307 42.7726L77.2201 42.8826H76.9158L76.7775 43.0751L76.3349 43.0476C76.3349 43.0476 76.086 43.2539 76.0998 43.3226C76.1275 43.3914 76.0584 43.5976 75.9892 43.5976C75.9201 43.5976 75.7818 43.8039 75.8232 43.8726C75.8647 43.9414 75.6849 44.1751 75.6849 44.1751L75.6435 44.4089L75.5052 44.4501V45.0826L75.2286 45.2751V45.5501L74.8137 45.9901L74.8552 46.3614L74.5094 46.7326L74.5509 47.1039L74.3435 47.1726L74.302 47.3376L74.2052 47.8189L74.4403 47.8464C74.5509 47.8051 74.5371 48.1489 74.4403 48.1901C74.3435 48.2314 74.0945 48.3276 74.2328 48.4239C74.3711 48.5201 73.8594 48.4926 73.8594 48.3551C73.8594 48.2176 73.5828 48.0939 73.5137 48.1489C73.4445 48.1901 73.3339 47.9426 73.3339 47.9426C73.0849 47.6814 72.2966 47.9701 72.2966 47.9701L72.186 48.3414C71.9371 48.3826 71.7711 48.8089 71.7711 48.8089C71.5637 48.8776 71.3977 49.1389 71.4669 49.2076C71.536 49.2764 71.3562 49.3039 71.3562 49.3039V49.8126L71.2456 49.9776L71.2732 50.5276C71.4115 50.5276 71.3839 50.7889 71.3839 50.7889C71.1488 50.8164 71.2041 51.1189 71.2041 51.1189L70.7201 51.2839L70.6232 51.4214L70.0286 51.3939L69.8626 51.5589L69.6966 51.3939H68.5488L68.5073 51.2839L68.2722 51.2426L68.2445 50.9814L67.8988 51.0089L67.8296 51.1464L67.4562 51.1739C67.4839 51.4076 67.0828 51.7514 67.0413 51.6551C66.9998 51.5589 66.7371 51.3114 66.8615 51.2564C66.9722 51.2151 67.2764 51.1601 67.2764 51.1601V50.9951L66.419 50.9676L66.3222 51.1051L65.9764 51.1326V51.5039L65.8105 51.5451C65.6998 51.6139 65.8381 51.8751 65.8381 51.8751C66.0041 52.0401 65.8105 52.2876 65.8105 52.2876C65.6722 52.4251 65.9211 52.6864 65.9211 52.6864C66.1009 52.7276 65.8105 52.8651 65.8105 52.8651C65.852 53.0989 65.9903 53.1676 65.9903 53.1676C65.852 53.4014 66.0871 53.5114 66.0871 53.5114L66.1147 53.9101L66.2807 54.0064V54.2676L66.3775 54.4326H66.7509L66.7232 53.8551C66.4052 53.4839 66.9998 53.3876 67.0275 53.5251C67.0552 53.6626 67.3041 53.7314 67.3041 53.7314C67.3456 54.0751 67.7466 54.2814 67.8573 53.9376C67.9679 53.5939 68.0647 53.8001 68.1339 53.9651C68.203 54.1301 68.6456 54.5289 68.6456 54.5289H68.9913L69.0328 54.8589C69.4201 54.8314 69.5445 54.8864 69.6966 55.4089C69.8626 55.9451 70.2913 56.0826 70.2913 56.0826L70.6094 56.0551C70.6094 55.7801 70.9275 56.0964 70.9275 56.2476C70.9275 56.3851 71.5498 56.9214 71.5498 56.9214L72.1722 57.0589L72.753 57.5264L73.1956 57.4851H73.3754C73.486 57.0864 74.0392 57.5126 74.0945 57.6501C74.136 57.7876 74.5094 58.0214 74.5509 57.9114C74.5924 57.8014 74.8552 57.8701 74.8966 58.2139C74.9381 58.5576 75.1041 58.4889 75.1041 58.4889L76.4179 58.4614L76.8743 58.0626L78.0498 58.0351C78.6445 58.0076 78.2849 57.1964 78.1605 57.1964C77.953 57.0314 78.2296 56.3576 78.2296 56.3576L76.5562 54.8039C76.169 54.8039 76.5147 54.2401 76.5147 54.2401C76.819 54.0476 76.4456 53.7589 76.4456 53.7589C76.4871 53.4839 76.2796 53.1539 76.2796 53.1539C75.8647 52.8789 75.9754 52.3426 75.9754 52.3426V51.9714C75.6296 51.6414 76.1137 51.6001 76.1137 51.6001C76.2796 51.3251 76.003 51.1189 76.003 51.1189L75.9754 50.8164L75.602 50.7751L75.5605 49.6889L74.7307 48.5064C74.5647 48.4651 74.6892 48.1764 74.6892 48.1764C74.8966 48.0664 74.6477 47.7776 74.6477 47.7776L74.6201 47.2689L75.1041 47.2276L75.2147 47.0489H75.4498L75.4222 46.4439C75.5328 46.1414 75.8094 46.3064 75.8094 46.3064L76.1275 46.3339L76.3073 45.9901L76.3488 45.7151L76.0998 45.6876C75.8232 45.5226 75.9615 44.9176 75.9615 44.9176C76.4041 44.2714 76.902 44.6426 76.902 44.6426L77.2201 44.6151C77.7041 44.9451 77.2615 45.5364 77.2615 45.5364C77.1647 45.6739 77.2201 46.1139 77.2201 46.1139L77.3307 46.8564L77.0264 47.1176C76.7775 47.2551 76.7775 47.5851 77.0541 47.6539C77.2339 47.6814 77.1647 48.1214 76.8881 47.8189C76.4732 47.8189 77.1232 48.1901 76.9296 48.0939C77.3445 48.3001 77.2477 47.9151 77.2477 47.9151L77.8009 47.4751C78.0084 47.3101 78.3818 47.8189 78.3818 47.8876C78.3818 47.9564 79.2945 47.9151 79.2945 47.9151C79.5435 48.0801 79.6403 48.4926 79.6403 48.4926C79.8892 48.1626 80.4286 48.4651 80.0275 48.6576C80.4009 48.8914 80.4009 49.0976 80.4009 49.0976C80.7052 49.0014 80.7052 49.2351 80.7052 49.3039C80.7052 49.3726 80.802 48.9601 80.802 48.9601C80.4562 48.6989 81.2584 48.6164 81.0371 49.0701L80.8988 49.2764L81.1339 49.4551L81.1615 49.9914C81.6732 49.9501 81.5349 49.3176 81.5349 49.3176L81.7701 49.2764C81.7701 49.0701 81.936 49.1801 81.936 49.1801C81.7701 48.3964 82.3094 48.2589 82.3094 48.2589C82.6137 48.1901 82.6275 47.5576 82.6275 47.5576C82.4201 47.4614 82.5307 47.1451 82.7658 47.4201C83.0009 47.6951 82.6275 46.8564 82.6275 46.8564L82.4477 46.6914L82.1988 46.6639L82.1711 46.4026H81.7562L81.6871 46.7326L81.5349 46.8014L81.4935 46.7051L81.4243 46.9664H81.0094L80.9818 46.6914L81.2307 46.6226L81.3275 46.4851L81.3966 46.1139H81.7009L82.0881 46.0039C82.1158 45.6051 82.3232 45.7014 82.3232 45.7014L82.669 45.9764L82.6966 46.1139L82.5584 46.1826L82.5307 46.3751L82.5998 46.6364H82.7796C82.8488 46.2651 83.3328 46.2651 83.4711 46.4989L83.6094 46.1689C83.2913 46.0039 83.6094 45.7564 83.6924 45.8664C83.7892 45.9764 83.9966 45.5639 83.9966 45.5639C83.9966 45.5639 84.1626 45.7701 83.9966 45.4951C83.8307 45.2201 84.1073 45.0826 84.1073 45.0826C84.0658 44.8076 84.4115 44.8489 84.4115 44.8489L84.4392 44.4776L84.1211 44.4501C84.052 44.7801 83.7754 44.4914 83.9137 44.4226C84.052 44.3539 84.1903 44.2164 84.1903 44.2164V43.9826L84.3286 43.9414L84.3562 43.7076H84.702L85.0062 43.5701L85.0754 43.4601L85.3935 43.4326L85.8498 43.0201L85.8083 42.8414C85.5318 42.8414 85.8083 42.6351 85.8083 42.6351L85.836 42.2501ZM73.3477 63.1089L73.1679 62.8339L73.4445 62.8751L73.7349 63.1226L73.8594 63.4251L73.6935 63.5214L73.5966 63.3839L73.3754 63.3151L73.3477 63.1089ZM68.2722 56.1514L68.3828 56.4676L68.5488 56.5914L68.7009 56.9351L68.6179 57.1001L68.3552 56.8664L68.1754 56.6051L68.0786 56.3989L67.9264 55.9864L68.2722 56.1514ZM66.8892 54.9139H66.7786V55.1476H66.9584V55.4501H67.0966L67.069 55.1064L66.8892 55.0376V54.9139ZM84.9786 40.7789L85.1169 40.7514L85.1445 40.8889L85.0062 40.9164L84.9786 40.7789ZM85.1445 40.6964L85.186 40.5589L85.3658 40.6139L85.3381 40.7514L85.1445 40.6964ZM85.4764 40.5589L85.4903 40.4214L85.3381 40.3939L85.3105 40.5314L85.4764 40.5589ZM85.7115 40.2564H85.8913V40.3939H85.7115V40.2564ZM86.8871 40.4214L86.9009 40.2839L87.0669 40.2976L87.0392 40.4351L86.8871 40.4214ZM87.3435 40.5176L87.3573 40.3801L87.1913 40.3526L87.1775 40.4901L87.3435 40.5176ZM87.5094 40.5314H87.6892V40.6689H87.5094V40.5314ZM87.7169 40.7651V40.9301L87.8552 40.9164V40.7514L87.7169 40.7651Z" fill="white"/>
</g>
<defs>
<linearGradient id="paint0_linear_179_616" x1="86.5" y1="100" x2="86.5" y2="4.98978e-06" gradientUnits="userSpaceOnUse">
<stop/>
<stop offset="0.55" stop-color="#053BE5"/>
</linearGradient>
<clipPath id="clip0_179_616">
<rect width="65" height="55" fill="white" transform="translate(54 23)"/>
</clipPath>
</defs>
</svg>
