<svg width="173" height="100" viewBox="0 0 173 100" fill="none" xmlns="http://www.w3.org/2000/svg">
<rect x="0.5" y="0.5" width="172" height="98.8864" fill="#111111" fill-opacity="0.5" stroke="url(#paint0_linear_179_433)"/>
<g clip-path="url(#clip0_179_433)">
<path d="M36.1138 37.6138V57.0482L52.6363 62.6138L69.1138 57.0482V37.6138H36.1138Z" fill="#D62A43"/>
<path d="M52.2776 56.2856H47.2575V54.4575H47.2127C46.2266 55.9106 44.8371 56.6138 42.7753 56.6138C40.3101 56.6138 38.1138 55.0669 38.1138 51.7856V41.9888H43.3131V49.4888C43.3131 51.1294 43.4924 52.3013 45.0164 52.3013C45.9128 52.3013 47.0782 51.8325 47.0782 49.5356V41.9888H52.2776V56.2856ZM62.004 46.1606C61.9592 45.6919 61.7351 45.3169 61.3765 45.0825C61.0628 44.8013 60.6594 44.6606 60.2111 44.6606C59.494 44.6606 58.6424 44.8481 58.6424 45.7388C58.6424 46.1606 58.9561 46.3481 59.2699 46.4888C60.1215 46.8638 62.0937 47.0044 63.8417 47.5669C65.5898 48.1294 67.1138 49.2075 67.1138 51.5513C67.1138 55.5356 63.4832 56.5669 60.1663 56.5669C56.9391 56.5669 53.443 55.2075 53.3533 51.5513H58.3286C58.3734 52.0669 58.5527 52.4419 58.9561 52.8169C59.2251 53.0513 59.7181 53.2388 60.3456 53.2388C61.0179 53.2388 62.0937 52.9575 62.0937 52.1606C62.0937 51.3169 61.6455 51.0825 59.2251 50.6606C55.2359 49.9575 53.6671 48.645 53.6671 46.1606C53.6671 42.5513 57.3873 41.6138 60.1215 41.6138C63.0798 41.6138 66.6207 42.4575 66.7552 46.1138H62.004V46.1606Z" fill="white"/>
<path d="M71.1138 37.6138H76.2959V44.2147H76.3406C77.1447 43.0551 78.5296 42.3861 80.0485 42.3861C84.6052 42.3861 85.856 46.2664 85.856 49.433C85.856 52.8227 83.9798 56.6138 80.1378 56.6138C77.5914 56.6138 76.7873 55.6326 76.1619 54.7851H76.1172V56.257H71.1138V37.6138ZM78.3956 46.1325C76.5193 46.1325 76.1172 47.872 76.1172 49.4776C76.1172 51.0833 76.5193 52.8673 78.3956 52.8673C80.2718 52.8673 80.6739 51.1279 80.6739 49.4776C80.6739 47.9166 80.2272 46.1325 78.3956 46.1325ZM100.33 53.2687C100.33 54.2945 100.375 55.4541 100.956 56.3016H95.6395C95.5055 55.9448 95.4162 55.3649 95.4609 55.0081H95.4162C94.2993 56.257 92.7358 56.6138 91.0382 56.6138C88.4024 56.6138 86.2581 55.3649 86.2581 52.5105C86.2581 48.2288 91.3062 48.3626 93.9419 47.872C94.6567 47.7382 95.3715 47.5152 95.3715 46.6678C95.3715 45.7311 94.5227 45.4189 93.6739 45.4189C92.0657 45.4189 91.7529 46.2218 91.7529 46.8016H86.9282C87.1069 42.9659 90.7255 42.3415 93.9419 42.3415C100.464 42.3415 100.375 45.0175 100.375 47.649V53.2687H100.33ZM95.3715 50.1912C94.7461 50.5034 94.0313 50.6818 93.3165 50.8602C92.155 51.1279 91.5743 51.3955 91.5743 52.3321C91.5743 52.9565 92.2444 53.5809 93.1825 53.5809C94.344 53.5809 95.2822 52.8673 95.3715 51.4401V50.1912ZM102.207 42.6983H107.21V44.4377H107.255C108.237 43.0551 109.622 42.3861 111.677 42.3861C114.134 42.3861 116.368 43.8579 116.368 46.98V56.3016H111.141V49.1654C111.141 47.6044 110.963 46.4894 109.444 46.4894C108.55 46.4894 107.389 46.9354 107.389 49.1208V56.3016H102.207V42.6983ZM118.2 37.6138H123.382V46.6232L126.688 42.6983H132.54L127.67 47.8274L133.299 56.3016H127.045L124.275 51.3955L123.337 52.3767V56.3016H118.155V37.6138H118.2ZM135.622 54.4283C135.801 54.6067 135.935 54.8743 135.935 55.1419C135.935 55.4095 135.846 55.6772 135.622 55.8556C135.444 56.034 135.176 56.1678 134.908 56.1678C134.64 56.1678 134.371 56.0786 134.193 55.8556C134.014 55.6772 133.88 55.4095 133.88 55.1419C133.88 54.8743 133.969 54.6067 134.193 54.4283C134.371 54.2499 134.64 54.1161 134.908 54.1161C135.176 54.1607 135.444 54.2499 135.622 54.4283ZM135.756 54.3391C135.533 54.1161 135.265 53.9823 134.908 53.9823C134.595 53.9823 134.327 54.1161 134.059 54.3391C133.835 54.5621 133.701 54.8297 133.701 55.1865C133.701 55.4987 133.835 55.811 134.059 56.034C134.282 56.257 134.55 56.3908 134.908 56.3908C135.22 56.3908 135.488 56.257 135.756 56.034C135.98 55.811 136.114 55.5433 136.114 55.1865C136.069 54.8297 135.98 54.5621 135.756 54.3391ZM135.086 55.0973C135.042 55.0973 134.952 55.1419 134.863 55.1419H134.64V54.6959H134.818C134.952 54.6959 135.042 54.6959 135.086 54.7405C135.131 54.7851 135.176 54.8297 135.176 54.9189C135.22 55.0081 135.176 55.0527 135.086 55.0973ZM134.416 55.811H134.64V55.3203H134.818C134.952 55.3203 135.042 55.3203 135.086 55.3649C135.176 55.4095 135.22 55.4987 135.22 55.6771V55.811H135.444V55.5433C135.444 55.4987 135.399 55.4095 135.354 55.3649C135.31 55.2757 135.22 55.2757 135.131 55.2311C135.22 55.2311 135.265 55.1865 135.31 55.1865C135.399 55.1419 135.444 55.0527 135.444 54.9189C135.444 54.7405 135.399 54.6513 135.265 54.6067C135.176 54.5621 135.086 54.5621 134.908 54.5621H134.461V55.811H134.416Z" fill="white"/>
</g>
<defs>
<linearGradient id="paint0_linear_179_433" x1="86.5" y1="99.8864" x2="86.5" y2="4.98411e-06" gradientUnits="userSpaceOnUse">
<stop/>
<stop offset="0.55" stop-color="#053BE5"/>
</linearGradient>
<clipPath id="clip0_179_433">
<rect width="100" height="100" fill="white" transform="translate(36)"/>
</clipPath>
</defs>
</svg>
