<svg width="502" height="369" viewBox="0 0 502 369" fill="none" xmlns="http://www.w3.org/2000/svg">
<path d="M30.093 367.681H0.681198V337.098M30.093 367.681V337.098M30.093 367.681H59.5047M30.093 337.098H0.681198M30.093 337.098H59.5047M30.093 337.098V306.514M0.681198 337.098V306.514M59.5047 367.681V337.098M59.5047 367.681H88.9165M59.5047 337.098H88.9165M59.5047 337.098V306.514M88.9165 367.681V337.098M88.9165 367.681H118.328M88.9165 337.098H118.328M88.9165 337.098V306.514M118.328 367.681V337.098M118.328 367.681H147.74M118.328 337.098H147.74M118.328 337.098V306.514M147.74 367.681V337.098M147.74 367.681H177.152M147.74 337.098H177.152M147.74 337.098V306.514M177.152 367.681V337.098M177.152 367.681H206.564M177.152 337.098H206.564M177.152 337.098V306.514M206.564 367.681V337.098M206.564 367.681H235.975M206.564 337.098H235.975M206.564 337.098V306.514M235.975 367.681V337.098M235.975 367.681H265.387M235.975 337.098H265.387M235.975 337.098V306.514M265.387 367.681V337.098M265.387 367.681H294.799M265.387 337.098H294.799M265.387 337.098V306.514M294.799 367.681V337.098M294.799 367.681H324.211M294.799 337.098H324.211M294.799 337.098V306.514M324.211 367.681V337.098M324.211 367.681H353.622M324.211 337.098H353.622M324.211 337.098V306.514M353.622 367.681V337.098M353.622 367.681H383.034M353.622 337.098H383.034M353.622 337.098V306.514M383.034 367.681V337.098M383.034 367.681H412.446M383.034 337.098H412.446M383.034 337.098V306.514M412.446 367.681V337.098M412.446 367.681H441.858M412.446 337.098H441.858M412.446 337.098V306.514M441.858 367.681V337.098M441.858 367.681H471.269M441.858 337.098H471.269M441.858 337.098V306.514M471.269 367.681V337.098M471.269 367.681H500.681V337.098M471.269 337.098H500.681M471.269 337.098V306.514M500.681 337.098V306.514M30.093 306.514H0.681198M30.093 306.514H59.5047M30.093 306.514V275.931M0.681198 306.514V275.931M59.5047 306.514H88.9165M59.5047 306.514V275.931M88.9165 306.514H118.328M88.9165 306.514V275.931M118.328 306.514H147.74M118.328 306.514V275.931M147.74 306.514H177.152M147.74 306.514V275.931M177.152 306.514H206.564M177.152 306.514V275.931M206.564 306.514H235.975M206.564 306.514V275.931M235.975 306.514H265.387M235.975 306.514V275.931M265.387 306.514H294.799M265.387 306.514V275.931M294.799 306.514H324.211M294.799 306.514V275.931M324.211 306.514H353.622M324.211 306.514V275.931M353.622 306.514H383.034M353.622 306.514V275.931M383.034 306.514H412.446M383.034 306.514V275.931M412.446 306.514H441.858M412.446 306.514V275.931M441.858 306.514H471.269M441.858 306.514V275.931M471.269 306.514H500.681M471.269 306.514V275.931M500.681 306.514V275.931M30.093 275.931H0.681198M30.093 275.931H59.5047M30.093 275.931V245.348M0.681198 275.931V245.348M59.5047 275.931H88.9165M59.5047 275.931V245.348M88.9165 275.931H118.328M88.9165 275.931V245.348M118.328 275.931H147.74M118.328 275.931V245.348M147.74 275.931H177.152M147.74 275.931V245.348M177.152 275.931H206.564M177.152 275.931V245.348M206.564 275.931H235.975M206.564 275.931V245.348M235.975 275.931H265.387M235.975 275.931V245.348M265.387 275.931H294.799M265.387 275.931V245.348M294.799 275.931H324.211M294.799 275.931V245.348M324.211 275.931H353.622M324.211 275.931V245.348M353.622 275.931H383.034M353.622 275.931V245.348M383.034 275.931H412.446M383.034 275.931V245.348M412.446 275.931H441.858M412.446 275.931V245.348M441.858 275.931H471.269M441.858 275.931V245.348M471.269 275.931H500.681M471.269 275.931V245.348M500.681 275.931V245.348M30.093 245.348H0.681198M30.093 245.348H59.5047M30.093 245.348V214.764M0.681198 245.348V214.764M59.5047 245.348H88.9165M59.5047 245.348V214.764M88.9165 245.348H118.328M88.9165 245.348V214.764M118.328 245.348H147.74M118.328 245.348V214.764M147.74 245.348H177.152M147.74 245.348V214.764M177.152 245.348H206.564M177.152 245.348V214.764M206.564 245.348H235.975M206.564 245.348V214.764M235.975 245.348H265.387M235.975 245.348V214.764M265.387 245.348H294.799M265.387 245.348V214.764M294.799 245.348H324.211M294.799 245.348V214.764M324.211 245.348H353.622M324.211 245.348V214.764M353.622 245.348H383.034M353.622 245.348V214.764M383.034 245.348H412.446M383.034 245.348V214.764M412.446 245.348H441.858M412.446 245.348V214.764M441.858 245.348H471.269M441.858 245.348V214.764M471.269 245.348H500.681M471.269 245.348V214.764M500.681 245.348V214.764M30.093 214.764H0.681198M30.093 214.764H59.5047M30.093 214.764V184.181M0.681198 214.764V184.181M59.5047 214.764H88.9165M59.5047 214.764V184.181M88.9165 214.764H118.328M88.9165 214.764V184.181M118.328 214.764H147.74M118.328 214.764V184.181M147.74 214.764H177.152M147.74 214.764V184.181M177.152 214.764H206.564M177.152 214.764V184.181M206.564 214.764H235.975M206.564 214.764V184.181M235.975 214.764H265.387M235.975 214.764V184.181M265.387 214.764H294.799M265.387 214.764V184.181M294.799 214.764H324.211M294.799 214.764V184.181M324.211 214.764H353.622M324.211 214.764V184.181M353.622 214.764H383.034M353.622 214.764V184.181M383.034 214.764H412.446M383.034 214.764V184.181M412.446 214.764H441.858M412.446 214.764V184.181M441.858 214.764H471.269M441.858 214.764V184.181M471.269 214.764H500.681M471.269 214.764V184.181M500.681 214.764V184.181M30.093 184.181H0.681198M30.093 184.181H59.5047M30.093 184.181V153.598M0.681198 184.181V153.598M59.5047 184.181H88.9165M59.5047 184.181V153.598M88.9165 184.181H118.328M88.9165 184.181V153.598M118.328 184.181H147.74M118.328 184.181V153.598M147.74 184.181H177.152M147.74 184.181V153.598M177.152 184.181H206.564M177.152 184.181V153.598M206.564 184.181H235.975M206.564 184.181V153.598M235.975 184.181H265.387M235.975 184.181V153.598M265.387 184.181H294.799M265.387 184.181V153.598M294.799 184.181H324.211M294.799 184.181V153.598M324.211 184.181H353.622M324.211 184.181V153.598M353.622 184.181H383.034M353.622 184.181V153.598M383.034 184.181H412.446M383.034 184.181V153.598M412.446 184.181H441.858M412.446 184.181V153.598M441.858 184.181H471.269M441.858 184.181V153.598M471.269 184.181H500.681M471.269 184.181V153.598M500.681 184.181V153.598M30.093 153.598H0.681198M30.093 153.598H59.5047M30.093 153.598V123.014M0.681198 153.598V123.014M59.5047 153.598H88.9165M59.5047 153.598V123.014M88.9165 153.598H118.328M88.9165 153.598V123.014M118.328 153.598H147.74M118.328 153.598V123.014M147.74 153.598H177.152M147.74 153.598V123.014M177.152 153.598H206.564M177.152 153.598V123.014M206.564 153.598H235.975M206.564 153.598V123.014M235.975 153.598H265.387M235.975 153.598V123.014M265.387 153.598H294.799M265.387 153.598V123.014M294.799 153.598H324.211M294.799 153.598V123.014M324.211 153.598H353.622M324.211 153.598V123.014M353.622 153.598H383.034M353.622 153.598V123.014M383.034 153.598H412.446M383.034 153.598V123.014M412.446 153.598H441.858M412.446 153.598V123.014M441.858 153.598H471.269M441.858 153.598V123.014M471.269 153.598H500.681M471.269 153.598V123.014M500.681 153.598V123.014M30.093 123.014H0.681198M30.093 123.014H59.5047M30.093 123.014V92.4311M0.681198 123.014V92.4311M59.5047 123.014H88.9165M59.5047 123.014V92.4311M88.9165 123.014H118.328M88.9165 123.014V92.4311M118.328 123.014H147.74M118.328 123.014V92.4311M147.74 123.014H177.152M147.74 123.014V92.4311M177.152 123.014H206.564M177.152 123.014V92.4311M206.564 123.014H235.975M206.564 123.014V92.4311M235.975 123.014H265.387M235.975 123.014V92.4311M265.387 123.014H294.799M265.387 123.014V92.4311M294.799 123.014H324.211M294.799 123.014V92.4311M324.211 123.014H353.622M324.211 123.014V92.4311M353.622 123.014H383.034M353.622 123.014V92.4311M383.034 123.014H412.446M383.034 123.014V92.4311M412.446 123.014H441.858M412.446 123.014V92.4311M441.858 123.014H471.269M441.858 123.014V92.4311M471.269 123.014H500.681M471.269 123.014V92.4311M500.681 123.014V92.4311M30.093 92.4311H0.681198M30.093 92.4311H59.5047M30.093 92.4311V61.8478M0.681198 92.4311V61.8478M59.5047 92.4311H88.9165M59.5047 92.4311V61.8478M88.9165 92.4311H118.328M88.9165 92.4311V61.8478M118.328 92.4311H147.74M118.328 92.4311V61.8478M147.74 92.4311H177.152M147.74 92.4311V61.8478M177.152 92.4311H206.564M177.152 92.4311V61.8478M206.564 92.4311H235.975M206.564 92.4311V61.8478M235.975 92.4311H265.387M235.975 92.4311V61.8478M265.387 92.4311H294.799M265.387 92.4311V61.8478M294.799 92.4311H324.211M294.799 92.4311V61.8478M324.211 92.4311H353.622M324.211 92.4311V61.8478M353.622 92.4311H383.034M353.622 92.4311V61.8478M383.034 92.4311H412.446M383.034 92.4311V61.8478M412.446 92.4311H441.858M412.446 92.4311V61.8478M441.858 92.4311H471.269M441.858 92.4311V61.8478M471.269 92.4311H500.681M471.269 92.4311V61.8478M500.681 92.4311V61.8478M30.093 61.8478H0.681198M30.093 61.8478H59.5047M30.093 61.8478V31.2645M0.681198 61.8478V31.2645M59.5047 61.8478H88.9165M59.5047 61.8478V31.2645M88.9165 61.8478H118.328M88.9165 61.8478V31.2645M118.328 61.8478H147.74M118.328 61.8478V31.2645M147.74 61.8478H177.152M147.74 61.8478V31.2645M177.152 61.8478H206.564M177.152 61.8478V31.2645M206.564 61.8478H235.975M206.564 61.8478V31.2645M235.975 61.8478H265.387M235.975 61.8478V31.2645M265.387 61.8478H294.799M265.387 61.8478V31.2645M294.799 61.8478H324.211M294.799 61.8478V31.2645M324.211 61.8478H353.622M324.211 61.8478V31.2645M353.622 61.8478H383.034M353.622 61.8478V31.2645M383.034 61.8478H412.446M383.034 61.8478V31.2645M412.446 61.8478H441.858M412.446 61.8478V31.2645M441.858 61.8478H471.269M441.858 61.8478V31.2645M471.269 61.8478H500.681M471.269 61.8478V31.2645M500.681 61.8478V31.2645M30.093 31.2645H0.681198M30.093 31.2645H59.5047M30.093 31.2645V0.681143M0.681198 31.2645V0.681143H30.093M59.5047 31.2645H88.9165M59.5047 31.2645V0.681143M88.9165 31.2645H118.328M88.9165 31.2645V0.681143M118.328 31.2645H147.74M118.328 31.2645V0.681143M147.74 31.2645H177.152M147.74 31.2645V0.681143M177.152 31.2645H206.564M177.152 31.2645V0.681143M206.564 31.2645H235.975M206.564 31.2645V0.681143M235.975 31.2645H265.387M235.975 31.2645V0.681143M265.387 31.2645H294.799M265.387 31.2645V0.681143M294.799 31.2645H324.211M294.799 31.2645V0.681143M324.211 31.2645H353.622M324.211 31.2645V0.681143M353.622 31.2645H383.034M353.622 31.2645V0.681143M383.034 31.2645H412.446M383.034 31.2645V0.681143M412.446 31.2645H441.858M412.446 31.2645V0.681143M441.858 31.2645H471.269M441.858 31.2645V0.681143M471.269 31.2645H500.681M471.269 31.2645V0.681143M500.681 31.2645V0.681143H471.269M30.093 0.681143H59.5047M59.5047 0.681143H88.9165M88.9165 0.681143H118.328M118.328 0.681143H147.74M147.74 0.681143H177.152M177.152 0.681143H206.564M206.564 0.681143H235.975M235.975 0.681143H265.387M265.387 0.681143H294.799M294.799 0.681143H324.211M324.211 0.681143H353.622M353.622 0.681143H383.034M383.034 0.681143H412.446M412.446 0.681143H441.858M441.858 0.681143H471.269" stroke="url(#paint0_radial_36_303)" stroke-opacity="0.46" stroke-width="1.3624"/>
<defs>
<radialGradient id="paint0_radial_36_303" cx="0" cy="0" r="1" gradientTransform="matrix(-10.906 -126.523 -182.812 15.6517 250.681 264.201)" gradientUnits="userSpaceOnUse">
<stop stop-color="#053BE5"/>
<stop offset="0.883515" stop-color="#053BE5" stop-opacity="0"/>
</radialGradient>
</defs>
</svg>
