<svg width="598" height="440" viewBox="0 0 598 440" fill="none" xmlns="http://www.w3.org/2000/svg">
<path d="M35.74 0.681152H0.681213V37.1812M35.74 0.681152V37.1812M35.74 0.681152H70.7989M35.74 37.1812H0.681213M35.74 37.1812H70.7989M35.74 37.1812V73.6812M0.681213 37.1812V73.6812M70.7989 0.681152V37.1812M70.7989 0.681152H105.858M70.7989 37.1812H105.858M70.7989 37.1812V73.6812M105.858 0.681152V37.1812M105.858 0.681152H140.917M105.858 37.1812H140.917M105.858 37.1812V73.6812M140.917 0.681152V37.1812M140.917 0.681152H175.975M140.917 37.1812H175.975M140.917 37.1812V73.6812M175.975 0.681152V37.1812M175.975 0.681152H211.034M175.975 37.1812H211.034M175.975 37.1812V73.6812M211.034 0.681152V37.1812M211.034 0.681152H246.093M211.034 37.1812H246.093M211.034 37.1812V73.6812M246.093 0.681152V37.1812M246.093 0.681152H281.152M246.093 37.1812H281.152M246.093 37.1812V73.6812M281.152 0.681152V37.1812M281.152 0.681152H316.211M281.152 37.1812H316.211M281.152 37.1812V73.6812M316.211 0.681152V37.1812M316.211 0.681152H351.269M316.211 37.1812H351.269M316.211 37.1812V73.6812M351.269 0.681152V37.1812M351.269 0.681152H386.328M351.269 37.1812H386.328M351.269 37.1812V73.6812M386.328 0.681152V37.1812M386.328 0.681152H421.387M386.328 37.1812H421.387M386.328 37.1812V73.6812M421.387 0.681152V37.1812M421.387 0.681152H456.446M421.387 37.1812H456.446M421.387 37.1812V73.6812M456.446 0.681152V37.1812M456.446 0.681152H491.505M456.446 37.1812H491.505M456.446 37.1812V73.6812M491.505 0.681152V37.1812M491.505 0.681152H526.564M491.505 37.1812H526.564M491.505 37.1812V73.6812M526.564 0.681152V37.1812M526.564 0.681152H561.622M526.564 37.1812H561.622M526.564 37.1812V73.6812M561.622 0.681152V37.1812M561.622 0.681152H596.681V37.1812M561.622 37.1812H596.681M561.622 37.1812V73.6812M596.681 37.1812V73.6812M35.74 73.6812H0.681213M35.74 73.6812H70.7989M35.74 73.6812V110.181M0.681213 73.6812V110.181M70.7989 73.6812H105.858M70.7989 73.6812V110.181M105.858 73.6812H140.917M105.858 73.6812V110.181M140.917 73.6812H175.975M140.917 73.6812V110.181M175.975 73.6812H211.034M175.975 73.6812V110.181M211.034 73.6812H246.093M211.034 73.6812V110.181M246.093 73.6812H281.152M246.093 73.6812V110.181M281.152 73.6812H316.211M281.152 73.6812V110.181M316.211 73.6812H351.269M316.211 73.6812V110.181M351.269 73.6812H386.328M351.269 73.6812V110.181M386.328 73.6812H421.387M386.328 73.6812V110.181M421.387 73.6812H456.446M421.387 73.6812V110.181M456.446 73.6812H491.505M456.446 73.6812V110.181M491.505 73.6812H526.564M491.505 73.6812V110.181M526.564 73.6812H561.622M526.564 73.6812V110.181M561.622 73.6812H596.681M561.622 73.6812V110.181M596.681 73.6812V110.181M35.74 110.181H0.681213M35.74 110.181H70.7989M35.74 110.181V146.681M0.681213 110.181V146.681M70.7989 110.181H105.858M70.7989 110.181V146.681M105.858 110.181H140.917M105.858 110.181V146.681M140.917 110.181H175.975M140.917 110.181V146.681M175.975 110.181H211.034M175.975 110.181V146.681M211.034 110.181H246.093M211.034 110.181V146.681M246.093 110.181H281.152M246.093 110.181V146.681M281.152 110.181H316.211M281.152 110.181V146.681M316.211 110.181H351.269M316.211 110.181V146.681M351.269 110.181H386.328M351.269 110.181V146.681M386.328 110.181H421.387M386.328 110.181V146.681M421.387 110.181H456.446M421.387 110.181V146.681M456.446 110.181H491.505M456.446 110.181V146.681M491.505 110.181H526.564M491.505 110.181V146.681M526.564 110.181H561.622M526.564 110.181V146.681M561.622 110.181H596.681M561.622 110.181V146.681M596.681 110.181V146.681M35.74 146.681H0.681213M35.74 146.681H70.7989M35.74 146.681V183.181M0.681213 146.681V183.181M70.7989 146.681H105.858M70.7989 146.681V183.181M105.858 146.681H140.917M105.858 146.681V183.181M140.917 146.681H175.975M140.917 146.681V183.181M175.975 146.681H211.034M175.975 146.681V183.181M211.034 146.681H246.093M211.034 146.681V183.181M246.093 146.681H281.152M246.093 146.681V183.181M281.152 146.681H316.211M281.152 146.681V183.181M316.211 146.681H351.269M316.211 146.681V183.181M351.269 146.681H386.328M351.269 146.681V183.181M386.328 146.681H421.387M386.328 146.681V183.181M421.387 146.681H456.446M421.387 146.681V183.181M456.446 146.681H491.505M456.446 146.681V183.181M491.505 146.681H526.564M491.505 146.681V183.181M526.564 146.681H561.622M526.564 146.681V183.181M561.622 146.681H596.681M561.622 146.681V183.181M596.681 146.681V183.181M35.74 183.181H0.681213M35.74 183.181H70.7989M35.74 183.181V219.681M0.681213 183.181V219.681M70.7989 183.181H105.858M70.7989 183.181V219.681M105.858 183.181H140.917M105.858 183.181V219.681M140.917 183.181H175.975M140.917 183.181V219.681M175.975 183.181H211.034M175.975 183.181V219.681M211.034 183.181H246.093M211.034 183.181V219.681M246.093 183.181H281.152M246.093 183.181V219.681M281.152 183.181H316.211M281.152 183.181V219.681M316.211 183.181H351.269M316.211 183.181V219.681M351.269 183.181H386.328M351.269 183.181V219.681M386.328 183.181H421.387M386.328 183.181V219.681M421.387 183.181H456.446M421.387 183.181V219.681M456.446 183.181H491.505M456.446 183.181V219.681M491.505 183.181H526.564M491.505 183.181V219.681M526.564 183.181H561.622M526.564 183.181V219.681M561.622 183.181H596.681M561.622 183.181V219.681M596.681 183.181V219.681M35.74 219.681H0.681213M35.74 219.681H70.7989M35.74 219.681V256.181M0.681213 219.681V256.181M70.7989 219.681H105.858M70.7989 219.681V256.181M105.858 219.681H140.917M105.858 219.681V256.181M140.917 219.681H175.975M140.917 219.681V256.181M175.975 219.681H211.034M175.975 219.681V256.181M211.034 219.681H246.093M211.034 219.681V256.181M246.093 219.681H281.152M246.093 219.681V256.181M281.152 219.681H316.211M281.152 219.681V256.181M316.211 219.681H351.269M316.211 219.681V256.181M351.269 219.681H386.328M351.269 219.681V256.181M386.328 219.681H421.387M386.328 219.681V256.181M421.387 219.681H456.446M421.387 219.681V256.181M456.446 219.681H491.505M456.446 219.681V256.181M491.505 219.681H526.564M491.505 219.681V256.181M526.564 219.681H561.622M526.564 219.681V256.181M561.622 219.681H596.681M561.622 219.681V256.181M596.681 219.681V256.181M35.74 256.181H0.681213M35.74 256.181H70.7989M35.74 256.181V292.681M0.681213 256.181V292.681M70.7989 256.181H105.858M70.7989 256.181V292.681M105.858 256.181H140.917M105.858 256.181V292.681M140.917 256.181H175.975M140.917 256.181V292.681M175.975 256.181H211.034M175.975 256.181V292.681M211.034 256.181H246.093M211.034 256.181V292.681M246.093 256.181H281.152M246.093 256.181V292.681M281.152 256.181H316.211M281.152 256.181V292.681M316.211 256.181H351.269M316.211 256.181V292.681M351.269 256.181H386.328M351.269 256.181V292.681M386.328 256.181H421.387M386.328 256.181V292.681M421.387 256.181H456.446M421.387 256.181V292.681M456.446 256.181H491.505M456.446 256.181V292.681M491.505 256.181H526.564M491.505 256.181V292.681M526.564 256.181H561.622M526.564 256.181V292.681M561.622 256.181H596.681M561.622 256.181V292.681M596.681 256.181V292.681M35.74 292.681H0.681213M35.74 292.681H70.7989M35.74 292.681V329.181M0.681213 292.681V329.181M70.7989 292.681H105.858M70.7989 292.681V329.181M105.858 292.681H140.917M105.858 292.681V329.181M140.917 292.681H175.975M140.917 292.681V329.181M175.975 292.681H211.034M175.975 292.681V329.181M211.034 292.681H246.093M211.034 292.681V329.181M246.093 292.681H281.152M246.093 292.681V329.181M281.152 292.681H316.211M281.152 292.681V329.181M316.211 292.681H351.269M316.211 292.681V329.181M351.269 292.681H386.328M351.269 292.681V329.181M386.328 292.681H421.387M386.328 292.681V329.181M421.387 292.681H456.446M421.387 292.681V329.181M456.446 292.681H491.505M456.446 292.681V329.181M491.505 292.681H526.564M491.505 292.681V329.181M526.564 292.681H561.622M526.564 292.681V329.181M561.622 292.681H596.681M561.622 292.681V329.181M596.681 292.681V329.181M35.74 329.181H0.681213M35.74 329.181H70.7989M35.74 329.181V365.681M0.681213 329.181V365.681M70.7989 329.181H105.858M70.7989 329.181V365.681M105.858 329.181H140.917M105.858 329.181V365.681M140.917 329.181H175.975M140.917 329.181V365.681M175.975 329.181H211.034M175.975 329.181V365.681M211.034 329.181H246.093M211.034 329.181V365.681M246.093 329.181H281.152M246.093 329.181V365.681M281.152 329.181H316.211M281.152 329.181V365.681M316.211 329.181H351.269M316.211 329.181V365.681M351.269 329.181H386.328M351.269 329.181V365.681M386.328 329.181H421.387M386.328 329.181V365.681M421.387 329.181H456.446M421.387 329.181V365.681M456.446 329.181H491.505M456.446 329.181V365.681M491.505 329.181H526.564M491.505 329.181V365.681M526.564 329.181H561.622M526.564 329.181V365.681M561.622 329.181H596.681M561.622 329.181V365.681M596.681 329.181V365.681M35.74 365.681H0.681213M35.74 365.681H70.7989M35.74 365.681V402.181M0.681213 365.681V402.181M70.7989 365.681H105.858M70.7989 365.681V402.181M105.858 365.681H140.917M105.858 365.681V402.181M140.917 365.681H175.975M140.917 365.681V402.181M175.975 365.681H211.034M175.975 365.681V402.181M211.034 365.681H246.093M211.034 365.681V402.181M246.093 365.681H281.152M246.093 365.681V402.181M281.152 365.681H316.211M281.152 365.681V402.181M316.211 365.681H351.269M316.211 365.681V402.181M351.269 365.681H386.328M351.269 365.681V402.181M386.328 365.681H421.387M386.328 365.681V402.181M421.387 365.681H456.446M421.387 365.681V402.181M456.446 365.681H491.505M456.446 365.681V402.181M491.505 365.681H526.564M491.505 365.681V402.181M526.564 365.681H561.622M526.564 365.681V402.181M561.622 365.681H596.681M561.622 365.681V402.181M596.681 365.681V402.181M35.74 402.181H0.681213M35.74 402.181H70.7989M35.74 402.181V438.681M0.681213 402.181V438.681H35.74M70.7989 402.181H105.858M70.7989 402.181V438.681M105.858 402.181H140.917M105.858 402.181V438.681M140.917 402.181H175.975M140.917 402.181V438.681M175.975 402.181H211.034M175.975 402.181V438.681M211.034 402.181H246.093M211.034 402.181V438.681M246.093 402.181H281.152M246.093 402.181V438.681M281.152 402.181H316.211M281.152 402.181V438.681M316.211 402.181H351.269M316.211 402.181V438.681M351.269 402.181H386.328M351.269 402.181V438.681M386.328 402.181H421.387M386.328 402.181V438.681M421.387 402.181H456.446M421.387 402.181V438.681M456.446 402.181H491.505M456.446 402.181V438.681M491.505 402.181H526.564M491.505 402.181V438.681M526.564 402.181H561.622M526.564 402.181V438.681M561.622 402.181H596.681M561.622 402.181V438.681M596.681 402.181V438.681H561.622M35.74 438.681H70.7989M70.7989 438.681H105.858M105.858 438.681H140.917M140.917 438.681H175.975M175.975 438.681H211.034M211.034 438.681H246.093M246.093 438.681H281.152M281.152 438.681H316.211M316.211 438.681H351.269M351.269 438.681H386.328M386.328 438.681H421.387M421.387 438.681H456.446M456.446 438.681H491.505M491.505 438.681H526.564M526.564 438.681H561.622" stroke="url(#paint0_radial_36_301)" stroke-opacity="0.46" stroke-width="1.3624"/>
<defs>
<radialGradient id="paint0_radial_36_301" cx="0" cy="0" r="1" gradientTransform="matrix(-13 151 -217.912 -18.6797 298.681 124.181)" gradientUnits="userSpaceOnUse">
<stop stop-color="#053BE5"/>
<stop offset="0.883515" stop-color="#053BE5" stop-opacity="0"/>
</radialGradient>
</defs>
</svg>
